G04 #@! TF.GenerationSoftware,KiCad,Pcbnew,8.0.8*
G04 #@! TF.CreationDate,2025-03-18T19:08:41-04:00*
G04 #@! TF.ProjectId,477,3437372e-6b69-4636-9164-5f7063625858,rev?*
G04 #@! TF.SameCoordinates,Original*
G04 #@! TF.FileFunction,Legend,Top*
G04 #@! TF.FilePolarity,Positive*
%FSLAX46Y46*%
G04 Gerber Fmt 4.6, Leading zero omitted, Abs format (unit mm)*
G04 Created by KiCad (PCBNEW 8.0.8) date 2025-03-18 19:08:41*
%MOMM*%
%LPD*%
G01*
G04 APERTURE LIST*
G04 Aperture macros list*
%AMRoundRect*
0 Rectangle with rounded corners*
0 $1 Rounding radius*
0 $2 $3 $4 $5 $6 $7 $8 $9 X,Y pos of 4 corners*
0 Add a 4 corners polygon primitive as box body*
4,1,4,$2,$3,$4,$5,$6,$7,$8,$9,$2,$3,0*
0 Add four circle primitives for the rounded corners*
1,1,$1+$1,$2,$3*
1,1,$1+$1,$4,$5*
1,1,$1+$1,$6,$7*
1,1,$1+$1,$8,$9*
0 Add four rect primitives between the rounded corners*
20,1,$1+$1,$2,$3,$4,$5,0*
20,1,$1+$1,$4,$5,$6,$7,0*
20,1,$1+$1,$6,$7,$8,$9,0*
20,1,$1+$1,$8,$9,$2,$3,0*%
G04 Aperture macros list end*
%ADD10C,0.150000*%
%ADD11C,0.187500*%
%ADD12C,0.125000*%
%ADD13C,0.254000*%
%ADD14C,0.200000*%
%ADD15C,0.100000*%
%ADD16C,0.120000*%
%ADD17R,0.600000X1.550000*%
%ADD18R,1.200000X1.800000*%
%ADD19C,1.000000*%
%ADD20RoundRect,0.250000X-0.337500X-0.475000X0.337500X-0.475000X0.337500X0.475000X-0.337500X0.475000X0*%
%ADD21RoundRect,0.250000X-0.475000X0.337500X-0.475000X-0.337500X0.475000X-0.337500X0.475000X0.337500X0*%
%ADD22C,3.200000*%
%ADD23RoundRect,0.250000X-0.450000X0.325000X-0.450000X-0.325000X0.450000X-0.325000X0.450000X0.325000X0*%
%ADD24R,1.550000X0.600000*%
%ADD25R,1.800000X1.200000*%
%ADD26RoundRect,0.250000X-0.450000X0.350000X-0.450000X-0.350000X0.450000X-0.350000X0.450000X0.350000X0*%
%ADD27RoundRect,0.250000X0.350000X0.450000X-0.350000X0.450000X-0.350000X-0.450000X0.350000X-0.450000X0*%
%ADD28RoundRect,0.250000X0.450000X-0.350000X0.450000X0.350000X-0.450000X0.350000X-0.450000X-0.350000X0*%
%ADD29RoundRect,0.250000X-0.325000X-0.450000X0.325000X-0.450000X0.325000X0.450000X-0.325000X0.450000X0*%
%ADD30RoundRect,0.250000X0.337500X0.475000X-0.337500X0.475000X-0.337500X-0.475000X0.337500X-0.475000X0*%
%ADD31R,1.550000X1.300000*%
%ADD32RoundRect,0.250000X-0.350000X-0.450000X0.350000X-0.450000X0.350000X0.450000X-0.350000X0.450000X0*%
%ADD33RoundRect,0.075000X0.700000X0.075000X-0.700000X0.075000X-0.700000X-0.075000X0.700000X-0.075000X0*%
%ADD34RoundRect,0.075000X0.075000X0.700000X-0.075000X0.700000X-0.075000X-0.700000X0.075000X-0.700000X0*%
%ADD35C,1.550000*%
%ADD36R,1.400000X1.200000*%
%ADD37R,0.700000X1.930000*%
%ADD38RoundRect,0.250000X0.097227X-0.574524X0.574524X-0.097227X-0.097227X0.574524X-0.574524X0.097227X0*%
%ADD39R,1.200000X0.600000*%
%ADD40C,1.500000*%
%ADD41C,3.570000*%
%ADD42R,1.850000X0.900000*%
%ADD43R,1.850000X3.200000*%
%ADD44RoundRect,0.250000X0.475000X-0.337500X0.475000X0.337500X-0.475000X0.337500X-0.475000X-0.337500X0*%
%ADD45C,0.800000*%
%ADD46C,6.000000*%
G04 APERTURE END LIST*
D10*
X112813875Y-101263220D02*
X111813875Y-101263220D01*
X111813875Y-101263220D02*
X111813875Y-100882268D01*
X111813875Y-100882268D02*
X111861494Y-100787030D01*
X111861494Y-100787030D02*
X111909113Y-100739411D01*
X111909113Y-100739411D02*
X112004351Y-100691792D01*
X112004351Y-100691792D02*
X112147208Y-100691792D01*
X112147208Y-100691792D02*
X112242446Y-100739411D01*
X112242446Y-100739411D02*
X112290065Y-100787030D01*
X112290065Y-100787030D02*
X112337684Y-100882268D01*
X112337684Y-100882268D02*
X112337684Y-101263220D01*
X112528160Y-100310839D02*
X112528160Y-99834649D01*
X112813875Y-100406077D02*
X111813875Y-100072744D01*
X111813875Y-100072744D02*
X112813875Y-99739411D01*
X112813875Y-99358458D02*
X112813875Y-99167982D01*
X112813875Y-99167982D02*
X112766256Y-99072744D01*
X112766256Y-99072744D02*
X112718636Y-99025125D01*
X112718636Y-99025125D02*
X112575779Y-98929887D01*
X112575779Y-98929887D02*
X112385303Y-98882268D01*
X112385303Y-98882268D02*
X112004351Y-98882268D01*
X112004351Y-98882268D02*
X111909113Y-98929887D01*
X111909113Y-98929887D02*
X111861494Y-98977506D01*
X111861494Y-98977506D02*
X111813875Y-99072744D01*
X111813875Y-99072744D02*
X111813875Y-99263220D01*
X111813875Y-99263220D02*
X111861494Y-99358458D01*
X111861494Y-99358458D02*
X111909113Y-99406077D01*
X111909113Y-99406077D02*
X112004351Y-99453696D01*
X112004351Y-99453696D02*
X112242446Y-99453696D01*
X112242446Y-99453696D02*
X112337684Y-99406077D01*
X112337684Y-99406077D02*
X112385303Y-99358458D01*
X112385303Y-99358458D02*
X112432922Y-99263220D01*
X112432922Y-99263220D02*
X112432922Y-99072744D01*
X112432922Y-99072744D02*
X112385303Y-98977506D01*
X112385303Y-98977506D02*
X112337684Y-98929887D01*
X112337684Y-98929887D02*
X112242446Y-98882268D01*
X114423819Y-100787030D02*
X114423819Y-101263220D01*
X114423819Y-101263220D02*
X113423819Y-101263220D01*
X113900009Y-100453696D02*
X113900009Y-100120363D01*
X114423819Y-99977506D02*
X114423819Y-100453696D01*
X114423819Y-100453696D02*
X113423819Y-100453696D01*
X113423819Y-100453696D02*
X113423819Y-99977506D01*
X114423819Y-99548934D02*
X113423819Y-99548934D01*
X113423819Y-99548934D02*
X113423819Y-99310839D01*
X113423819Y-99310839D02*
X113471438Y-99167982D01*
X113471438Y-99167982D02*
X113566676Y-99072744D01*
X113566676Y-99072744D02*
X113661914Y-99025125D01*
X113661914Y-99025125D02*
X113852390Y-98977506D01*
X113852390Y-98977506D02*
X113995247Y-98977506D01*
X113995247Y-98977506D02*
X114185723Y-99025125D01*
X114185723Y-99025125D02*
X114280961Y-99072744D01*
X114280961Y-99072744D02*
X114376200Y-99167982D01*
X114376200Y-99167982D02*
X114423819Y-99310839D01*
X114423819Y-99310839D02*
X114423819Y-99548934D01*
D11*
X109835450Y-110506283D02*
X110168783Y-110506283D01*
X110311640Y-111030093D02*
X109835450Y-111030093D01*
X109835450Y-111030093D02*
X109835450Y-110030093D01*
X109835450Y-110030093D02*
X110311640Y-110030093D01*
X110740212Y-110363426D02*
X110740212Y-111030093D01*
X110740212Y-110458664D02*
X110787831Y-110411045D01*
X110787831Y-110411045D02*
X110883069Y-110363426D01*
X110883069Y-110363426D02*
X111025926Y-110363426D01*
X111025926Y-110363426D02*
X111121164Y-110411045D01*
X111121164Y-110411045D02*
X111168783Y-110506283D01*
X111168783Y-110506283D02*
X111168783Y-111030093D01*
X112073545Y-110982474D02*
X111978307Y-111030093D01*
X111978307Y-111030093D02*
X111787831Y-111030093D01*
X111787831Y-111030093D02*
X111692593Y-110982474D01*
X111692593Y-110982474D02*
X111644974Y-110934854D01*
X111644974Y-110934854D02*
X111597355Y-110839616D01*
X111597355Y-110839616D02*
X111597355Y-110553902D01*
X111597355Y-110553902D02*
X111644974Y-110458664D01*
X111644974Y-110458664D02*
X111692593Y-110411045D01*
X111692593Y-110411045D02*
X111787831Y-110363426D01*
X111787831Y-110363426D02*
X111978307Y-110363426D01*
X111978307Y-110363426D02*
X112073545Y-110411045D01*
X112502117Y-111030093D02*
X112502117Y-110363426D01*
X112502117Y-110553902D02*
X112549736Y-110458664D01*
X112549736Y-110458664D02*
X112597355Y-110411045D01*
X112597355Y-110411045D02*
X112692593Y-110363426D01*
X112692593Y-110363426D02*
X112787831Y-110363426D01*
X113025927Y-110363426D02*
X113264022Y-111030093D01*
X113502117Y-110363426D02*
X113264022Y-111030093D01*
X113264022Y-111030093D02*
X113168784Y-111268188D01*
X113168784Y-111268188D02*
X113121165Y-111315807D01*
X113121165Y-111315807D02*
X113025927Y-111363426D01*
X113883070Y-110363426D02*
X113883070Y-111363426D01*
X113883070Y-110411045D02*
X113978308Y-110363426D01*
X113978308Y-110363426D02*
X114168784Y-110363426D01*
X114168784Y-110363426D02*
X114264022Y-110411045D01*
X114264022Y-110411045D02*
X114311641Y-110458664D01*
X114311641Y-110458664D02*
X114359260Y-110553902D01*
X114359260Y-110553902D02*
X114359260Y-110839616D01*
X114359260Y-110839616D02*
X114311641Y-110934854D01*
X114311641Y-110934854D02*
X114264022Y-110982474D01*
X114264022Y-110982474D02*
X114168784Y-111030093D01*
X114168784Y-111030093D02*
X113978308Y-111030093D01*
X113978308Y-111030093D02*
X113883070Y-110982474D01*
X114644975Y-110363426D02*
X115025927Y-110363426D01*
X114787832Y-110030093D02*
X114787832Y-110887235D01*
X114787832Y-110887235D02*
X114835451Y-110982474D01*
X114835451Y-110982474D02*
X114930689Y-111030093D01*
X114930689Y-111030093D02*
X115025927Y-111030093D01*
X115740213Y-110982474D02*
X115644975Y-111030093D01*
X115644975Y-111030093D02*
X115454499Y-111030093D01*
X115454499Y-111030093D02*
X115359261Y-110982474D01*
X115359261Y-110982474D02*
X115311642Y-110887235D01*
X115311642Y-110887235D02*
X115311642Y-110506283D01*
X115311642Y-110506283D02*
X115359261Y-110411045D01*
X115359261Y-110411045D02*
X115454499Y-110363426D01*
X115454499Y-110363426D02*
X115644975Y-110363426D01*
X115644975Y-110363426D02*
X115740213Y-110411045D01*
X115740213Y-110411045D02*
X115787832Y-110506283D01*
X115787832Y-110506283D02*
X115787832Y-110601521D01*
X115787832Y-110601521D02*
X115311642Y-110696759D01*
X116644975Y-111030093D02*
X116644975Y-110030093D01*
X116644975Y-110982474D02*
X116549737Y-111030093D01*
X116549737Y-111030093D02*
X116359261Y-111030093D01*
X116359261Y-111030093D02*
X116264023Y-110982474D01*
X116264023Y-110982474D02*
X116216404Y-110934854D01*
X116216404Y-110934854D02*
X116168785Y-110839616D01*
X116168785Y-110839616D02*
X116168785Y-110553902D01*
X116168785Y-110553902D02*
X116216404Y-110458664D01*
X116216404Y-110458664D02*
X116264023Y-110411045D01*
X116264023Y-110411045D02*
X116359261Y-110363426D01*
X116359261Y-110363426D02*
X116549737Y-110363426D01*
X116549737Y-110363426D02*
X116644975Y-110411045D01*
X109835450Y-111640037D02*
X109835450Y-112449560D01*
X109835450Y-112449560D02*
X109883069Y-112544798D01*
X109883069Y-112544798D02*
X109930688Y-112592418D01*
X109930688Y-112592418D02*
X110025926Y-112640037D01*
X110025926Y-112640037D02*
X110216402Y-112640037D01*
X110216402Y-112640037D02*
X110311640Y-112592418D01*
X110311640Y-112592418D02*
X110359259Y-112544798D01*
X110359259Y-112544798D02*
X110406878Y-112449560D01*
X110406878Y-112449560D02*
X110406878Y-111640037D01*
X110835450Y-112592418D02*
X110978307Y-112640037D01*
X110978307Y-112640037D02*
X111216402Y-112640037D01*
X111216402Y-112640037D02*
X111311640Y-112592418D01*
X111311640Y-112592418D02*
X111359259Y-112544798D01*
X111359259Y-112544798D02*
X111406878Y-112449560D01*
X111406878Y-112449560D02*
X111406878Y-112354322D01*
X111406878Y-112354322D02*
X111359259Y-112259084D01*
X111359259Y-112259084D02*
X111311640Y-112211465D01*
X111311640Y-112211465D02*
X111216402Y-112163846D01*
X111216402Y-112163846D02*
X111025926Y-112116227D01*
X111025926Y-112116227D02*
X110930688Y-112068608D01*
X110930688Y-112068608D02*
X110883069Y-112020989D01*
X110883069Y-112020989D02*
X110835450Y-111925751D01*
X110835450Y-111925751D02*
X110835450Y-111830513D01*
X110835450Y-111830513D02*
X110883069Y-111735275D01*
X110883069Y-111735275D02*
X110930688Y-111687656D01*
X110930688Y-111687656D02*
X111025926Y-111640037D01*
X111025926Y-111640037D02*
X111264021Y-111640037D01*
X111264021Y-111640037D02*
X111406878Y-111687656D01*
X112168783Y-112116227D02*
X112311640Y-112163846D01*
X112311640Y-112163846D02*
X112359259Y-112211465D01*
X112359259Y-112211465D02*
X112406878Y-112306703D01*
X112406878Y-112306703D02*
X112406878Y-112449560D01*
X112406878Y-112449560D02*
X112359259Y-112544798D01*
X112359259Y-112544798D02*
X112311640Y-112592418D01*
X112311640Y-112592418D02*
X112216402Y-112640037D01*
X112216402Y-112640037D02*
X111835450Y-112640037D01*
X111835450Y-112640037D02*
X111835450Y-111640037D01*
X111835450Y-111640037D02*
X112168783Y-111640037D01*
X112168783Y-111640037D02*
X112264021Y-111687656D01*
X112264021Y-111687656D02*
X112311640Y-111735275D01*
X112311640Y-111735275D02*
X112359259Y-111830513D01*
X112359259Y-111830513D02*
X112359259Y-111925751D01*
X112359259Y-111925751D02*
X112311640Y-112020989D01*
X112311640Y-112020989D02*
X112264021Y-112068608D01*
X112264021Y-112068608D02*
X112168783Y-112116227D01*
X112168783Y-112116227D02*
X111835450Y-112116227D01*
X113597355Y-112640037D02*
X113597355Y-111640037D01*
X113597355Y-111640037D02*
X113835450Y-111640037D01*
X113835450Y-111640037D02*
X113978307Y-111687656D01*
X113978307Y-111687656D02*
X114073545Y-111782894D01*
X114073545Y-111782894D02*
X114121164Y-111878132D01*
X114121164Y-111878132D02*
X114168783Y-112068608D01*
X114168783Y-112068608D02*
X114168783Y-112211465D01*
X114168783Y-112211465D02*
X114121164Y-112401941D01*
X114121164Y-112401941D02*
X114073545Y-112497179D01*
X114073545Y-112497179D02*
X113978307Y-112592418D01*
X113978307Y-112592418D02*
X113835450Y-112640037D01*
X113835450Y-112640037D02*
X113597355Y-112640037D01*
X114597355Y-112640037D02*
X114597355Y-111973370D01*
X114597355Y-112163846D02*
X114644974Y-112068608D01*
X114644974Y-112068608D02*
X114692593Y-112020989D01*
X114692593Y-112020989D02*
X114787831Y-111973370D01*
X114787831Y-111973370D02*
X114883069Y-111973370D01*
X115216403Y-112640037D02*
X115216403Y-111973370D01*
X115216403Y-111640037D02*
X115168784Y-111687656D01*
X115168784Y-111687656D02*
X115216403Y-111735275D01*
X115216403Y-111735275D02*
X115264022Y-111687656D01*
X115264022Y-111687656D02*
X115216403Y-111640037D01*
X115216403Y-111640037D02*
X115216403Y-111735275D01*
X115597355Y-111973370D02*
X115835450Y-112640037D01*
X115835450Y-112640037D02*
X116073545Y-111973370D01*
X116835450Y-112592418D02*
X116740212Y-112640037D01*
X116740212Y-112640037D02*
X116549736Y-112640037D01*
X116549736Y-112640037D02*
X116454498Y-112592418D01*
X116454498Y-112592418D02*
X116406879Y-112497179D01*
X116406879Y-112497179D02*
X116406879Y-112116227D01*
X116406879Y-112116227D02*
X116454498Y-112020989D01*
X116454498Y-112020989D02*
X116549736Y-111973370D01*
X116549736Y-111973370D02*
X116740212Y-111973370D01*
X116740212Y-111973370D02*
X116835450Y-112020989D01*
X116835450Y-112020989D02*
X116883069Y-112116227D01*
X116883069Y-112116227D02*
X116883069Y-112211465D01*
X116883069Y-112211465D02*
X116406879Y-112306703D01*
X109692593Y-113249981D02*
X110025926Y-114249981D01*
X110025926Y-114249981D02*
X110359259Y-113249981D01*
X111073545Y-114202362D02*
X110978307Y-114249981D01*
X110978307Y-114249981D02*
X110787831Y-114249981D01*
X110787831Y-114249981D02*
X110692593Y-114202362D01*
X110692593Y-114202362D02*
X110644974Y-114107123D01*
X110644974Y-114107123D02*
X110644974Y-113726171D01*
X110644974Y-113726171D02*
X110692593Y-113630933D01*
X110692593Y-113630933D02*
X110787831Y-113583314D01*
X110787831Y-113583314D02*
X110978307Y-113583314D01*
X110978307Y-113583314D02*
X111073545Y-113630933D01*
X111073545Y-113630933D02*
X111121164Y-113726171D01*
X111121164Y-113726171D02*
X111121164Y-113821409D01*
X111121164Y-113821409D02*
X110644974Y-113916647D01*
X111549736Y-114249981D02*
X111549736Y-113583314D01*
X111549736Y-113773790D02*
X111597355Y-113678552D01*
X111597355Y-113678552D02*
X111644974Y-113630933D01*
X111644974Y-113630933D02*
X111740212Y-113583314D01*
X111740212Y-113583314D02*
X111835450Y-113583314D01*
X112121165Y-114202362D02*
X112216403Y-114249981D01*
X112216403Y-114249981D02*
X112406879Y-114249981D01*
X112406879Y-114249981D02*
X112502117Y-114202362D01*
X112502117Y-114202362D02*
X112549736Y-114107123D01*
X112549736Y-114107123D02*
X112549736Y-114059504D01*
X112549736Y-114059504D02*
X112502117Y-113964266D01*
X112502117Y-113964266D02*
X112406879Y-113916647D01*
X112406879Y-113916647D02*
X112264022Y-113916647D01*
X112264022Y-113916647D02*
X112168784Y-113869028D01*
X112168784Y-113869028D02*
X112121165Y-113773790D01*
X112121165Y-113773790D02*
X112121165Y-113726171D01*
X112121165Y-113726171D02*
X112168784Y-113630933D01*
X112168784Y-113630933D02*
X112264022Y-113583314D01*
X112264022Y-113583314D02*
X112406879Y-113583314D01*
X112406879Y-113583314D02*
X112502117Y-113630933D01*
X112978308Y-114249981D02*
X112978308Y-113583314D01*
X112978308Y-113249981D02*
X112930689Y-113297600D01*
X112930689Y-113297600D02*
X112978308Y-113345219D01*
X112978308Y-113345219D02*
X113025927Y-113297600D01*
X113025927Y-113297600D02*
X112978308Y-113249981D01*
X112978308Y-113249981D02*
X112978308Y-113345219D01*
X113597355Y-114249981D02*
X113502117Y-114202362D01*
X113502117Y-114202362D02*
X113454498Y-114154742D01*
X113454498Y-114154742D02*
X113406879Y-114059504D01*
X113406879Y-114059504D02*
X113406879Y-113773790D01*
X113406879Y-113773790D02*
X113454498Y-113678552D01*
X113454498Y-113678552D02*
X113502117Y-113630933D01*
X113502117Y-113630933D02*
X113597355Y-113583314D01*
X113597355Y-113583314D02*
X113740212Y-113583314D01*
X113740212Y-113583314D02*
X113835450Y-113630933D01*
X113835450Y-113630933D02*
X113883069Y-113678552D01*
X113883069Y-113678552D02*
X113930688Y-113773790D01*
X113930688Y-113773790D02*
X113930688Y-114059504D01*
X113930688Y-114059504D02*
X113883069Y-114154742D01*
X113883069Y-114154742D02*
X113835450Y-114202362D01*
X113835450Y-114202362D02*
X113740212Y-114249981D01*
X113740212Y-114249981D02*
X113597355Y-114249981D01*
X114359260Y-113583314D02*
X114359260Y-114249981D01*
X114359260Y-113678552D02*
X114406879Y-113630933D01*
X114406879Y-113630933D02*
X114502117Y-113583314D01*
X114502117Y-113583314D02*
X114644974Y-113583314D01*
X114644974Y-113583314D02*
X114740212Y-113630933D01*
X114740212Y-113630933D02*
X114787831Y-113726171D01*
X114787831Y-113726171D02*
X114787831Y-114249981D01*
X115264022Y-114154742D02*
X115311641Y-114202362D01*
X115311641Y-114202362D02*
X115264022Y-114249981D01*
X115264022Y-114249981D02*
X115216403Y-114202362D01*
X115216403Y-114202362D02*
X115264022Y-114154742D01*
X115264022Y-114154742D02*
X115264022Y-114249981D01*
X115264022Y-113630933D02*
X115311641Y-113678552D01*
X115311641Y-113678552D02*
X115264022Y-113726171D01*
X115264022Y-113726171D02*
X115216403Y-113678552D01*
X115216403Y-113678552D02*
X115264022Y-113630933D01*
X115264022Y-113630933D02*
X115264022Y-113726171D01*
X110264021Y-115193258D02*
X110264021Y-115859925D01*
X110025926Y-114812306D02*
X109787831Y-115526591D01*
X109787831Y-115526591D02*
X110406878Y-115526591D01*
X110787831Y-115764686D02*
X110835450Y-115812306D01*
X110835450Y-115812306D02*
X110787831Y-115859925D01*
X110787831Y-115859925D02*
X110740212Y-115812306D01*
X110740212Y-115812306D02*
X110787831Y-115764686D01*
X110787831Y-115764686D02*
X110787831Y-115859925D01*
X111216402Y-114955163D02*
X111264021Y-114907544D01*
X111264021Y-114907544D02*
X111359259Y-114859925D01*
X111359259Y-114859925D02*
X111597354Y-114859925D01*
X111597354Y-114859925D02*
X111692592Y-114907544D01*
X111692592Y-114907544D02*
X111740211Y-114955163D01*
X111740211Y-114955163D02*
X111787830Y-115050401D01*
X111787830Y-115050401D02*
X111787830Y-115145639D01*
X111787830Y-115145639D02*
X111740211Y-115288496D01*
X111740211Y-115288496D02*
X111168783Y-115859925D01*
X111168783Y-115859925D02*
X111787830Y-115859925D01*
D10*
X124955541Y-121465875D02*
X125574588Y-121465875D01*
X125574588Y-121465875D02*
X125241255Y-121846827D01*
X125241255Y-121846827D02*
X125384112Y-121846827D01*
X125384112Y-121846827D02*
X125479350Y-121894446D01*
X125479350Y-121894446D02*
X125526969Y-121942065D01*
X125526969Y-121942065D02*
X125574588Y-122037303D01*
X125574588Y-122037303D02*
X125574588Y-122275398D01*
X125574588Y-122275398D02*
X125526969Y-122370636D01*
X125526969Y-122370636D02*
X125479350Y-122418256D01*
X125479350Y-122418256D02*
X125384112Y-122465875D01*
X125384112Y-122465875D02*
X125098398Y-122465875D01*
X125098398Y-122465875D02*
X125003160Y-122418256D01*
X125003160Y-122418256D02*
X124955541Y-122370636D01*
X126003160Y-122370636D02*
X126050779Y-122418256D01*
X126050779Y-122418256D02*
X126003160Y-122465875D01*
X126003160Y-122465875D02*
X125955541Y-122418256D01*
X125955541Y-122418256D02*
X126003160Y-122370636D01*
X126003160Y-122370636D02*
X126003160Y-122465875D01*
X126384112Y-121465875D02*
X127003159Y-121465875D01*
X127003159Y-121465875D02*
X126669826Y-121846827D01*
X126669826Y-121846827D02*
X126812683Y-121846827D01*
X126812683Y-121846827D02*
X126907921Y-121894446D01*
X126907921Y-121894446D02*
X126955540Y-121942065D01*
X126955540Y-121942065D02*
X127003159Y-122037303D01*
X127003159Y-122037303D02*
X127003159Y-122275398D01*
X127003159Y-122275398D02*
X126955540Y-122370636D01*
X126955540Y-122370636D02*
X126907921Y-122418256D01*
X126907921Y-122418256D02*
X126812683Y-122465875D01*
X126812683Y-122465875D02*
X126526969Y-122465875D01*
X126526969Y-122465875D02*
X126431731Y-122418256D01*
X126431731Y-122418256D02*
X126384112Y-122370636D01*
X127288874Y-121465875D02*
X127622207Y-122465875D01*
X127622207Y-122465875D02*
X127955540Y-121465875D01*
X125526969Y-124075819D02*
X125050779Y-124075819D01*
X125050779Y-124075819D02*
X125050779Y-123075819D01*
X125860303Y-123552009D02*
X126193636Y-123552009D01*
X126336493Y-124075819D02*
X125860303Y-124075819D01*
X125860303Y-124075819D02*
X125860303Y-123075819D01*
X125860303Y-123075819D02*
X126336493Y-123075819D01*
X126765065Y-124075819D02*
X126765065Y-123075819D01*
X126765065Y-123075819D02*
X127003160Y-123075819D01*
X127003160Y-123075819D02*
X127146017Y-123123438D01*
X127146017Y-123123438D02*
X127241255Y-123218676D01*
X127241255Y-123218676D02*
X127288874Y-123313914D01*
X127288874Y-123313914D02*
X127336493Y-123504390D01*
X127336493Y-123504390D02*
X127336493Y-123647247D01*
X127336493Y-123647247D02*
X127288874Y-123837723D01*
X127288874Y-123837723D02*
X127241255Y-123932961D01*
X127241255Y-123932961D02*
X127146017Y-124028200D01*
X127146017Y-124028200D02*
X127003160Y-124075819D01*
X127003160Y-124075819D02*
X126765065Y-124075819D01*
D12*
X118890712Y-111087572D02*
X119366902Y-111087572D01*
X118795474Y-111373287D02*
X119128807Y-110373287D01*
X119128807Y-110373287D02*
X119462140Y-111373287D01*
X119795474Y-111373287D02*
X119795474Y-110373287D01*
X119795474Y-110754239D02*
X119890712Y-110706620D01*
X119890712Y-110706620D02*
X120081188Y-110706620D01*
X120081188Y-110706620D02*
X120176426Y-110754239D01*
X120176426Y-110754239D02*
X120224045Y-110801858D01*
X120224045Y-110801858D02*
X120271664Y-110897096D01*
X120271664Y-110897096D02*
X120271664Y-111182810D01*
X120271664Y-111182810D02*
X120224045Y-111278048D01*
X120224045Y-111278048D02*
X120176426Y-111325668D01*
X120176426Y-111325668D02*
X120081188Y-111373287D01*
X120081188Y-111373287D02*
X119890712Y-111373287D01*
X119890712Y-111373287D02*
X119795474Y-111325668D01*
X120700236Y-111373287D02*
X120700236Y-110373287D01*
X121128807Y-111373287D02*
X121128807Y-110849477D01*
X121128807Y-110849477D02*
X121081188Y-110754239D01*
X121081188Y-110754239D02*
X120985950Y-110706620D01*
X120985950Y-110706620D02*
X120843093Y-110706620D01*
X120843093Y-110706620D02*
X120747855Y-110754239D01*
X120747855Y-110754239D02*
X120700236Y-110801858D01*
X121604998Y-111373287D02*
X121604998Y-110706620D01*
X121604998Y-110373287D02*
X121557379Y-110420906D01*
X121557379Y-110420906D02*
X121604998Y-110468525D01*
X121604998Y-110468525D02*
X121652617Y-110420906D01*
X121652617Y-110420906D02*
X121604998Y-110373287D01*
X121604998Y-110373287D02*
X121604998Y-110468525D01*
X122081188Y-110706620D02*
X122081188Y-111563763D01*
X122081188Y-111563763D02*
X122033569Y-111659001D01*
X122033569Y-111659001D02*
X121938331Y-111706620D01*
X121938331Y-111706620D02*
X121890712Y-111706620D01*
X122081188Y-110373287D02*
X122033569Y-110420906D01*
X122033569Y-110420906D02*
X122081188Y-110468525D01*
X122081188Y-110468525D02*
X122128807Y-110420906D01*
X122128807Y-110420906D02*
X122081188Y-110373287D01*
X122081188Y-110373287D02*
X122081188Y-110468525D01*
X122985949Y-111373287D02*
X122985949Y-110849477D01*
X122985949Y-110849477D02*
X122938330Y-110754239D01*
X122938330Y-110754239D02*
X122843092Y-110706620D01*
X122843092Y-110706620D02*
X122652616Y-110706620D01*
X122652616Y-110706620D02*
X122557378Y-110754239D01*
X122985949Y-111325668D02*
X122890711Y-111373287D01*
X122890711Y-111373287D02*
X122652616Y-111373287D01*
X122652616Y-111373287D02*
X122557378Y-111325668D01*
X122557378Y-111325668D02*
X122509759Y-111230429D01*
X122509759Y-111230429D02*
X122509759Y-111135191D01*
X122509759Y-111135191D02*
X122557378Y-111039953D01*
X122557378Y-111039953D02*
X122652616Y-110992334D01*
X122652616Y-110992334D02*
X122890711Y-110992334D01*
X122890711Y-110992334D02*
X122985949Y-110944715D01*
X123366902Y-110706620D02*
X123604997Y-111373287D01*
X123843092Y-110706620D02*
X123604997Y-111373287D01*
X123604997Y-111373287D02*
X123509759Y-111611382D01*
X123509759Y-111611382D02*
X123462140Y-111659001D01*
X123462140Y-111659001D02*
X123366902Y-111706620D01*
X124938331Y-111087572D02*
X125414521Y-111087572D01*
X124843093Y-111373287D02*
X125176426Y-110373287D01*
X125176426Y-110373287D02*
X125509759Y-111373287D01*
X126271664Y-111325668D02*
X126176426Y-111373287D01*
X126176426Y-111373287D02*
X125985950Y-111373287D01*
X125985950Y-111373287D02*
X125890712Y-111325668D01*
X125890712Y-111325668D02*
X125843093Y-111278048D01*
X125843093Y-111278048D02*
X125795474Y-111182810D01*
X125795474Y-111182810D02*
X125795474Y-110897096D01*
X125795474Y-110897096D02*
X125843093Y-110801858D01*
X125843093Y-110801858D02*
X125890712Y-110754239D01*
X125890712Y-110754239D02*
X125985950Y-110706620D01*
X125985950Y-110706620D02*
X126176426Y-110706620D01*
X126176426Y-110706620D02*
X126271664Y-110754239D01*
X126700236Y-111373287D02*
X126700236Y-110373287D01*
X127128807Y-111373287D02*
X127128807Y-110849477D01*
X127128807Y-110849477D02*
X127081188Y-110754239D01*
X127081188Y-110754239D02*
X126985950Y-110706620D01*
X126985950Y-110706620D02*
X126843093Y-110706620D01*
X126843093Y-110706620D02*
X126747855Y-110754239D01*
X126747855Y-110754239D02*
X126700236Y-110801858D01*
X128033569Y-110706620D02*
X128033569Y-111373287D01*
X127604998Y-110706620D02*
X127604998Y-111230429D01*
X127604998Y-111230429D02*
X127652617Y-111325668D01*
X127652617Y-111325668D02*
X127747855Y-111373287D01*
X127747855Y-111373287D02*
X127890712Y-111373287D01*
X127890712Y-111373287D02*
X127985950Y-111325668D01*
X127985950Y-111325668D02*
X128033569Y-111278048D01*
X128509760Y-111373287D02*
X128509760Y-110373287D01*
X128604998Y-110992334D02*
X128890712Y-111373287D01*
X128890712Y-110706620D02*
X128509760Y-111087572D01*
X129462141Y-111373287D02*
X129366903Y-111325668D01*
X129366903Y-111325668D02*
X129319284Y-111278048D01*
X129319284Y-111278048D02*
X129271665Y-111182810D01*
X129271665Y-111182810D02*
X129271665Y-110897096D01*
X129271665Y-110897096D02*
X129319284Y-110801858D01*
X129319284Y-110801858D02*
X129366903Y-110754239D01*
X129366903Y-110754239D02*
X129462141Y-110706620D01*
X129462141Y-110706620D02*
X129604998Y-110706620D01*
X129604998Y-110706620D02*
X129700236Y-110754239D01*
X129700236Y-110754239D02*
X129747855Y-110801858D01*
X129747855Y-110801858D02*
X129795474Y-110897096D01*
X129795474Y-110897096D02*
X129795474Y-111182810D01*
X129795474Y-111182810D02*
X129747855Y-111278048D01*
X129747855Y-111278048D02*
X129700236Y-111325668D01*
X129700236Y-111325668D02*
X129604998Y-111373287D01*
X129604998Y-111373287D02*
X129462141Y-111373287D01*
X130366903Y-111373287D02*
X130271665Y-111325668D01*
X130271665Y-111325668D02*
X130224046Y-111230429D01*
X130224046Y-111230429D02*
X130224046Y-110373287D01*
X131176427Y-111373287D02*
X131176427Y-110849477D01*
X131176427Y-110849477D02*
X131128808Y-110754239D01*
X131128808Y-110754239D02*
X131033570Y-110706620D01*
X131033570Y-110706620D02*
X130843094Y-110706620D01*
X130843094Y-110706620D02*
X130747856Y-110754239D01*
X131176427Y-111325668D02*
X131081189Y-111373287D01*
X131081189Y-111373287D02*
X130843094Y-111373287D01*
X130843094Y-111373287D02*
X130747856Y-111325668D01*
X130747856Y-111325668D02*
X130700237Y-111230429D01*
X130700237Y-111230429D02*
X130700237Y-111135191D01*
X130700237Y-111135191D02*
X130747856Y-111039953D01*
X130747856Y-111039953D02*
X130843094Y-110992334D01*
X130843094Y-110992334D02*
X131081189Y-110992334D01*
X131081189Y-110992334D02*
X131176427Y-110944715D01*
X119271664Y-112459421D02*
X119414521Y-112507040D01*
X119414521Y-112507040D02*
X119462140Y-112554659D01*
X119462140Y-112554659D02*
X119509759Y-112649897D01*
X119509759Y-112649897D02*
X119509759Y-112792754D01*
X119509759Y-112792754D02*
X119462140Y-112887992D01*
X119462140Y-112887992D02*
X119414521Y-112935612D01*
X119414521Y-112935612D02*
X119319283Y-112983231D01*
X119319283Y-112983231D02*
X118938331Y-112983231D01*
X118938331Y-112983231D02*
X118938331Y-111983231D01*
X118938331Y-111983231D02*
X119271664Y-111983231D01*
X119271664Y-111983231D02*
X119366902Y-112030850D01*
X119366902Y-112030850D02*
X119414521Y-112078469D01*
X119414521Y-112078469D02*
X119462140Y-112173707D01*
X119462140Y-112173707D02*
X119462140Y-112268945D01*
X119462140Y-112268945D02*
X119414521Y-112364183D01*
X119414521Y-112364183D02*
X119366902Y-112411802D01*
X119366902Y-112411802D02*
X119271664Y-112459421D01*
X119271664Y-112459421D02*
X118938331Y-112459421D01*
X119938331Y-112983231D02*
X119938331Y-112316564D01*
X119938331Y-112507040D02*
X119985950Y-112411802D01*
X119985950Y-112411802D02*
X120033569Y-112364183D01*
X120033569Y-112364183D02*
X120128807Y-112316564D01*
X120128807Y-112316564D02*
X120224045Y-112316564D01*
X120985950Y-112983231D02*
X120985950Y-112459421D01*
X120985950Y-112459421D02*
X120938331Y-112364183D01*
X120938331Y-112364183D02*
X120843093Y-112316564D01*
X120843093Y-112316564D02*
X120652617Y-112316564D01*
X120652617Y-112316564D02*
X120557379Y-112364183D01*
X120985950Y-112935612D02*
X120890712Y-112983231D01*
X120890712Y-112983231D02*
X120652617Y-112983231D01*
X120652617Y-112983231D02*
X120557379Y-112935612D01*
X120557379Y-112935612D02*
X120509760Y-112840373D01*
X120509760Y-112840373D02*
X120509760Y-112745135D01*
X120509760Y-112745135D02*
X120557379Y-112649897D01*
X120557379Y-112649897D02*
X120652617Y-112602278D01*
X120652617Y-112602278D02*
X120890712Y-112602278D01*
X120890712Y-112602278D02*
X120985950Y-112554659D01*
X121462141Y-112316564D02*
X121462141Y-112983231D01*
X121462141Y-112411802D02*
X121509760Y-112364183D01*
X121509760Y-112364183D02*
X121604998Y-112316564D01*
X121604998Y-112316564D02*
X121747855Y-112316564D01*
X121747855Y-112316564D02*
X121843093Y-112364183D01*
X121843093Y-112364183D02*
X121890712Y-112459421D01*
X121890712Y-112459421D02*
X121890712Y-112983231D01*
X122795474Y-112983231D02*
X122795474Y-111983231D01*
X122795474Y-112935612D02*
X122700236Y-112983231D01*
X122700236Y-112983231D02*
X122509760Y-112983231D01*
X122509760Y-112983231D02*
X122414522Y-112935612D01*
X122414522Y-112935612D02*
X122366903Y-112887992D01*
X122366903Y-112887992D02*
X122319284Y-112792754D01*
X122319284Y-112792754D02*
X122319284Y-112507040D01*
X122319284Y-112507040D02*
X122366903Y-112411802D01*
X122366903Y-112411802D02*
X122414522Y-112364183D01*
X122414522Y-112364183D02*
X122509760Y-112316564D01*
X122509760Y-112316564D02*
X122700236Y-112316564D01*
X122700236Y-112316564D02*
X122795474Y-112364183D01*
X123414522Y-112983231D02*
X123319284Y-112935612D01*
X123319284Y-112935612D02*
X123271665Y-112887992D01*
X123271665Y-112887992D02*
X123224046Y-112792754D01*
X123224046Y-112792754D02*
X123224046Y-112507040D01*
X123224046Y-112507040D02*
X123271665Y-112411802D01*
X123271665Y-112411802D02*
X123319284Y-112364183D01*
X123319284Y-112364183D02*
X123414522Y-112316564D01*
X123414522Y-112316564D02*
X123557379Y-112316564D01*
X123557379Y-112316564D02*
X123652617Y-112364183D01*
X123652617Y-112364183D02*
X123700236Y-112411802D01*
X123700236Y-112411802D02*
X123747855Y-112507040D01*
X123747855Y-112507040D02*
X123747855Y-112792754D01*
X123747855Y-112792754D02*
X123700236Y-112887992D01*
X123700236Y-112887992D02*
X123652617Y-112935612D01*
X123652617Y-112935612D02*
X123557379Y-112983231D01*
X123557379Y-112983231D02*
X123414522Y-112983231D01*
X124176427Y-112316564D02*
X124176427Y-112983231D01*
X124176427Y-112411802D02*
X124224046Y-112364183D01*
X124224046Y-112364183D02*
X124319284Y-112316564D01*
X124319284Y-112316564D02*
X124462141Y-112316564D01*
X124462141Y-112316564D02*
X124557379Y-112364183D01*
X124557379Y-112364183D02*
X124604998Y-112459421D01*
X124604998Y-112459421D02*
X124604998Y-112983231D01*
X126319284Y-112983231D02*
X125843094Y-112983231D01*
X125843094Y-112983231D02*
X125843094Y-111983231D01*
X126652618Y-112983231D02*
X126652618Y-112316564D01*
X126652618Y-111983231D02*
X126604999Y-112030850D01*
X126604999Y-112030850D02*
X126652618Y-112078469D01*
X126652618Y-112078469D02*
X126700237Y-112030850D01*
X126700237Y-112030850D02*
X126652618Y-111983231D01*
X126652618Y-111983231D02*
X126652618Y-112078469D01*
X127557379Y-112316564D02*
X127557379Y-112983231D01*
X127128808Y-112316564D02*
X127128808Y-112840373D01*
X127128808Y-112840373D02*
X127176427Y-112935612D01*
X127176427Y-112935612D02*
X127271665Y-112983231D01*
X127271665Y-112983231D02*
X127414522Y-112983231D01*
X127414522Y-112983231D02*
X127509760Y-112935612D01*
X127509760Y-112935612D02*
X127557379Y-112887992D01*
X118890712Y-114545556D02*
X119033569Y-114593175D01*
X119033569Y-114593175D02*
X119271664Y-114593175D01*
X119271664Y-114593175D02*
X119366902Y-114545556D01*
X119366902Y-114545556D02*
X119414521Y-114497936D01*
X119414521Y-114497936D02*
X119462140Y-114402698D01*
X119462140Y-114402698D02*
X119462140Y-114307460D01*
X119462140Y-114307460D02*
X119414521Y-114212222D01*
X119414521Y-114212222D02*
X119366902Y-114164603D01*
X119366902Y-114164603D02*
X119271664Y-114116984D01*
X119271664Y-114116984D02*
X119081188Y-114069365D01*
X119081188Y-114069365D02*
X118985950Y-114021746D01*
X118985950Y-114021746D02*
X118938331Y-113974127D01*
X118938331Y-113974127D02*
X118890712Y-113878889D01*
X118890712Y-113878889D02*
X118890712Y-113783651D01*
X118890712Y-113783651D02*
X118938331Y-113688413D01*
X118938331Y-113688413D02*
X118985950Y-113640794D01*
X118985950Y-113640794D02*
X119081188Y-113593175D01*
X119081188Y-113593175D02*
X119319283Y-113593175D01*
X119319283Y-113593175D02*
X119462140Y-113640794D01*
X119747855Y-113926508D02*
X120128807Y-113926508D01*
X119890712Y-113593175D02*
X119890712Y-114450317D01*
X119890712Y-114450317D02*
X119938331Y-114545556D01*
X119938331Y-114545556D02*
X120033569Y-114593175D01*
X120033569Y-114593175D02*
X120128807Y-114593175D01*
X120890712Y-114593175D02*
X120890712Y-114069365D01*
X120890712Y-114069365D02*
X120843093Y-113974127D01*
X120843093Y-113974127D02*
X120747855Y-113926508D01*
X120747855Y-113926508D02*
X120557379Y-113926508D01*
X120557379Y-113926508D02*
X120462141Y-113974127D01*
X120890712Y-114545556D02*
X120795474Y-114593175D01*
X120795474Y-114593175D02*
X120557379Y-114593175D01*
X120557379Y-114593175D02*
X120462141Y-114545556D01*
X120462141Y-114545556D02*
X120414522Y-114450317D01*
X120414522Y-114450317D02*
X120414522Y-114355079D01*
X120414522Y-114355079D02*
X120462141Y-114259841D01*
X120462141Y-114259841D02*
X120557379Y-114212222D01*
X120557379Y-114212222D02*
X120795474Y-114212222D01*
X120795474Y-114212222D02*
X120890712Y-114164603D01*
X121366903Y-113926508D02*
X121366903Y-114593175D01*
X121366903Y-114021746D02*
X121414522Y-113974127D01*
X121414522Y-113974127D02*
X121509760Y-113926508D01*
X121509760Y-113926508D02*
X121652617Y-113926508D01*
X121652617Y-113926508D02*
X121747855Y-113974127D01*
X121747855Y-113974127D02*
X121795474Y-114069365D01*
X121795474Y-114069365D02*
X121795474Y-114593175D01*
X122414522Y-114593175D02*
X122319284Y-114545556D01*
X122319284Y-114545556D02*
X122271665Y-114450317D01*
X122271665Y-114450317D02*
X122271665Y-113593175D01*
X123176427Y-114545556D02*
X123081189Y-114593175D01*
X123081189Y-114593175D02*
X122890713Y-114593175D01*
X122890713Y-114593175D02*
X122795475Y-114545556D01*
X122795475Y-114545556D02*
X122747856Y-114450317D01*
X122747856Y-114450317D02*
X122747856Y-114069365D01*
X122747856Y-114069365D02*
X122795475Y-113974127D01*
X122795475Y-113974127D02*
X122890713Y-113926508D01*
X122890713Y-113926508D02*
X123081189Y-113926508D01*
X123081189Y-113926508D02*
X123176427Y-113974127D01*
X123176427Y-113974127D02*
X123224046Y-114069365D01*
X123224046Y-114069365D02*
X123224046Y-114164603D01*
X123224046Y-114164603D02*
X122747856Y-114259841D01*
X123557380Y-113926508D02*
X123795475Y-114593175D01*
X124033570Y-113926508D02*
X123795475Y-114593175D01*
X123795475Y-114593175D02*
X123700237Y-114831270D01*
X123700237Y-114831270D02*
X123652618Y-114878889D01*
X123652618Y-114878889D02*
X123557380Y-114926508D01*
X125128809Y-114545556D02*
X125271666Y-114593175D01*
X125271666Y-114593175D02*
X125509761Y-114593175D01*
X125509761Y-114593175D02*
X125604999Y-114545556D01*
X125604999Y-114545556D02*
X125652618Y-114497936D01*
X125652618Y-114497936D02*
X125700237Y-114402698D01*
X125700237Y-114402698D02*
X125700237Y-114307460D01*
X125700237Y-114307460D02*
X125652618Y-114212222D01*
X125652618Y-114212222D02*
X125604999Y-114164603D01*
X125604999Y-114164603D02*
X125509761Y-114116984D01*
X125509761Y-114116984D02*
X125319285Y-114069365D01*
X125319285Y-114069365D02*
X125224047Y-114021746D01*
X125224047Y-114021746D02*
X125176428Y-113974127D01*
X125176428Y-113974127D02*
X125128809Y-113878889D01*
X125128809Y-113878889D02*
X125128809Y-113783651D01*
X125128809Y-113783651D02*
X125176428Y-113688413D01*
X125176428Y-113688413D02*
X125224047Y-113640794D01*
X125224047Y-113640794D02*
X125319285Y-113593175D01*
X125319285Y-113593175D02*
X125557380Y-113593175D01*
X125557380Y-113593175D02*
X125700237Y-113640794D01*
X126271666Y-114593175D02*
X126176428Y-114545556D01*
X126176428Y-114545556D02*
X126128809Y-114497936D01*
X126128809Y-114497936D02*
X126081190Y-114402698D01*
X126081190Y-114402698D02*
X126081190Y-114116984D01*
X126081190Y-114116984D02*
X126128809Y-114021746D01*
X126128809Y-114021746D02*
X126176428Y-113974127D01*
X126176428Y-113974127D02*
X126271666Y-113926508D01*
X126271666Y-113926508D02*
X126414523Y-113926508D01*
X126414523Y-113926508D02*
X126509761Y-113974127D01*
X126509761Y-113974127D02*
X126557380Y-114021746D01*
X126557380Y-114021746D02*
X126604999Y-114116984D01*
X126604999Y-114116984D02*
X126604999Y-114402698D01*
X126604999Y-114402698D02*
X126557380Y-114497936D01*
X126557380Y-114497936D02*
X126509761Y-114545556D01*
X126509761Y-114545556D02*
X126414523Y-114593175D01*
X126414523Y-114593175D02*
X126271666Y-114593175D01*
X119224045Y-115203119D02*
X119224045Y-115917404D01*
X119224045Y-115917404D02*
X119176426Y-116060261D01*
X119176426Y-116060261D02*
X119081188Y-116155500D01*
X119081188Y-116155500D02*
X118938331Y-116203119D01*
X118938331Y-116203119D02*
X118843093Y-116203119D01*
X119843093Y-116203119D02*
X119747855Y-116155500D01*
X119747855Y-116155500D02*
X119700236Y-116107880D01*
X119700236Y-116107880D02*
X119652617Y-116012642D01*
X119652617Y-116012642D02*
X119652617Y-115726928D01*
X119652617Y-115726928D02*
X119700236Y-115631690D01*
X119700236Y-115631690D02*
X119747855Y-115584071D01*
X119747855Y-115584071D02*
X119843093Y-115536452D01*
X119843093Y-115536452D02*
X119985950Y-115536452D01*
X119985950Y-115536452D02*
X120081188Y-115584071D01*
X120081188Y-115584071D02*
X120128807Y-115631690D01*
X120128807Y-115631690D02*
X120176426Y-115726928D01*
X120176426Y-115726928D02*
X120176426Y-116012642D01*
X120176426Y-116012642D02*
X120128807Y-116107880D01*
X120128807Y-116107880D02*
X120081188Y-116155500D01*
X120081188Y-116155500D02*
X119985950Y-116203119D01*
X119985950Y-116203119D02*
X119843093Y-116203119D01*
X120557379Y-116155500D02*
X120652617Y-116203119D01*
X120652617Y-116203119D02*
X120843093Y-116203119D01*
X120843093Y-116203119D02*
X120938331Y-116155500D01*
X120938331Y-116155500D02*
X120985950Y-116060261D01*
X120985950Y-116060261D02*
X120985950Y-116012642D01*
X120985950Y-116012642D02*
X120938331Y-115917404D01*
X120938331Y-115917404D02*
X120843093Y-115869785D01*
X120843093Y-115869785D02*
X120700236Y-115869785D01*
X120700236Y-115869785D02*
X120604998Y-115822166D01*
X120604998Y-115822166D02*
X120557379Y-115726928D01*
X120557379Y-115726928D02*
X120557379Y-115679309D01*
X120557379Y-115679309D02*
X120604998Y-115584071D01*
X120604998Y-115584071D02*
X120700236Y-115536452D01*
X120700236Y-115536452D02*
X120843093Y-115536452D01*
X120843093Y-115536452D02*
X120938331Y-115584071D01*
X121414522Y-116203119D02*
X121414522Y-115203119D01*
X121843093Y-116203119D02*
X121843093Y-115679309D01*
X121843093Y-115679309D02*
X121795474Y-115584071D01*
X121795474Y-115584071D02*
X121700236Y-115536452D01*
X121700236Y-115536452D02*
X121557379Y-115536452D01*
X121557379Y-115536452D02*
X121462141Y-115584071D01*
X121462141Y-115584071D02*
X121414522Y-115631690D01*
X122747855Y-115536452D02*
X122747855Y-116203119D01*
X122319284Y-115536452D02*
X122319284Y-116060261D01*
X122319284Y-116060261D02*
X122366903Y-116155500D01*
X122366903Y-116155500D02*
X122462141Y-116203119D01*
X122462141Y-116203119D02*
X122604998Y-116203119D01*
X122604998Y-116203119D02*
X122700236Y-116155500D01*
X122700236Y-116155500D02*
X122747855Y-116107880D01*
X123652617Y-116203119D02*
X123652617Y-115679309D01*
X123652617Y-115679309D02*
X123604998Y-115584071D01*
X123604998Y-115584071D02*
X123509760Y-115536452D01*
X123509760Y-115536452D02*
X123319284Y-115536452D01*
X123319284Y-115536452D02*
X123224046Y-115584071D01*
X123652617Y-116155500D02*
X123557379Y-116203119D01*
X123557379Y-116203119D02*
X123319284Y-116203119D01*
X123319284Y-116203119D02*
X123224046Y-116155500D01*
X123224046Y-116155500D02*
X123176427Y-116060261D01*
X123176427Y-116060261D02*
X123176427Y-115965023D01*
X123176427Y-115965023D02*
X123224046Y-115869785D01*
X123224046Y-115869785D02*
X123319284Y-115822166D01*
X123319284Y-115822166D02*
X123557379Y-115822166D01*
X123557379Y-115822166D02*
X123652617Y-115774547D01*
X124795475Y-115203119D02*
X125033570Y-116203119D01*
X125033570Y-116203119D02*
X125224046Y-115488833D01*
X125224046Y-115488833D02*
X125414522Y-116203119D01*
X125414522Y-116203119D02*
X125652618Y-115203119D01*
X126462141Y-116203119D02*
X126462141Y-115679309D01*
X126462141Y-115679309D02*
X126414522Y-115584071D01*
X126414522Y-115584071D02*
X126319284Y-115536452D01*
X126319284Y-115536452D02*
X126128808Y-115536452D01*
X126128808Y-115536452D02*
X126033570Y-115584071D01*
X126462141Y-116155500D02*
X126366903Y-116203119D01*
X126366903Y-116203119D02*
X126128808Y-116203119D01*
X126128808Y-116203119D02*
X126033570Y-116155500D01*
X126033570Y-116155500D02*
X125985951Y-116060261D01*
X125985951Y-116060261D02*
X125985951Y-115965023D01*
X125985951Y-115965023D02*
X126033570Y-115869785D01*
X126033570Y-115869785D02*
X126128808Y-115822166D01*
X126128808Y-115822166D02*
X126366903Y-115822166D01*
X126366903Y-115822166D02*
X126462141Y-115774547D01*
X126938332Y-116203119D02*
X126938332Y-115536452D01*
X126938332Y-115203119D02*
X126890713Y-115250738D01*
X126890713Y-115250738D02*
X126938332Y-115298357D01*
X126938332Y-115298357D02*
X126985951Y-115250738D01*
X126985951Y-115250738D02*
X126938332Y-115203119D01*
X126938332Y-115203119D02*
X126938332Y-115298357D01*
D11*
X112718593Y-132867869D02*
X113290021Y-132867869D01*
X113004307Y-133867869D02*
X113004307Y-132867869D01*
X114004307Y-133820250D02*
X113909069Y-133867869D01*
X113909069Y-133867869D02*
X113718593Y-133867869D01*
X113718593Y-133867869D02*
X113623355Y-133820250D01*
X113623355Y-133820250D02*
X113575736Y-133725011D01*
X113575736Y-133725011D02*
X113575736Y-133344059D01*
X113575736Y-133344059D02*
X113623355Y-133248821D01*
X113623355Y-133248821D02*
X113718593Y-133201202D01*
X113718593Y-133201202D02*
X113909069Y-133201202D01*
X113909069Y-133201202D02*
X114004307Y-133248821D01*
X114004307Y-133248821D02*
X114051926Y-133344059D01*
X114051926Y-133344059D02*
X114051926Y-133439297D01*
X114051926Y-133439297D02*
X113575736Y-133534535D01*
X114909069Y-133867869D02*
X114909069Y-133344059D01*
X114909069Y-133344059D02*
X114861450Y-133248821D01*
X114861450Y-133248821D02*
X114766212Y-133201202D01*
X114766212Y-133201202D02*
X114575736Y-133201202D01*
X114575736Y-133201202D02*
X114480498Y-133248821D01*
X114909069Y-133820250D02*
X114813831Y-133867869D01*
X114813831Y-133867869D02*
X114575736Y-133867869D01*
X114575736Y-133867869D02*
X114480498Y-133820250D01*
X114480498Y-133820250D02*
X114432879Y-133725011D01*
X114432879Y-133725011D02*
X114432879Y-133629773D01*
X114432879Y-133629773D02*
X114480498Y-133534535D01*
X114480498Y-133534535D02*
X114575736Y-133486916D01*
X114575736Y-133486916D02*
X114813831Y-133486916D01*
X114813831Y-133486916D02*
X114909069Y-133439297D01*
X115385260Y-133867869D02*
X115385260Y-133201202D01*
X115385260Y-133296440D02*
X115432879Y-133248821D01*
X115432879Y-133248821D02*
X115528117Y-133201202D01*
X115528117Y-133201202D02*
X115670974Y-133201202D01*
X115670974Y-133201202D02*
X115766212Y-133248821D01*
X115766212Y-133248821D02*
X115813831Y-133344059D01*
X115813831Y-133344059D02*
X115813831Y-133867869D01*
X115813831Y-133344059D02*
X115861450Y-133248821D01*
X115861450Y-133248821D02*
X115956688Y-133201202D01*
X115956688Y-133201202D02*
X116099545Y-133201202D01*
X116099545Y-133201202D02*
X116194784Y-133248821D01*
X116194784Y-133248821D02*
X116242403Y-133344059D01*
X116242403Y-133344059D02*
X116242403Y-133867869D01*
X117432879Y-132963107D02*
X117480498Y-132915488D01*
X117480498Y-132915488D02*
X117575736Y-132867869D01*
X117575736Y-132867869D02*
X117813831Y-132867869D01*
X117813831Y-132867869D02*
X117909069Y-132915488D01*
X117909069Y-132915488D02*
X117956688Y-132963107D01*
X117956688Y-132963107D02*
X118004307Y-133058345D01*
X118004307Y-133058345D02*
X118004307Y-133153583D01*
X118004307Y-133153583D02*
X117956688Y-133296440D01*
X117956688Y-133296440D02*
X117385260Y-133867869D01*
X117385260Y-133867869D02*
X118004307Y-133867869D01*
X118623355Y-132867869D02*
X118718593Y-132867869D01*
X118718593Y-132867869D02*
X118813831Y-132915488D01*
X118813831Y-132915488D02*
X118861450Y-132963107D01*
X118861450Y-132963107D02*
X118909069Y-133058345D01*
X118909069Y-133058345D02*
X118956688Y-133248821D01*
X118956688Y-133248821D02*
X118956688Y-133486916D01*
X118956688Y-133486916D02*
X118909069Y-133677392D01*
X118909069Y-133677392D02*
X118861450Y-133772630D01*
X118861450Y-133772630D02*
X118813831Y-133820250D01*
X118813831Y-133820250D02*
X118718593Y-133867869D01*
X118718593Y-133867869D02*
X118623355Y-133867869D01*
X118623355Y-133867869D02*
X118528117Y-133820250D01*
X118528117Y-133820250D02*
X118480498Y-133772630D01*
X118480498Y-133772630D02*
X118432879Y-133677392D01*
X118432879Y-133677392D02*
X118385260Y-133486916D01*
X118385260Y-133486916D02*
X118385260Y-133248821D01*
X118385260Y-133248821D02*
X118432879Y-133058345D01*
X118432879Y-133058345D02*
X118480498Y-132963107D01*
X118480498Y-132963107D02*
X118528117Y-132915488D01*
X118528117Y-132915488D02*
X118623355Y-132867869D01*
D10*
X109270969Y-96065875D02*
X108794779Y-96065875D01*
X108794779Y-96065875D02*
X108747160Y-96542065D01*
X108747160Y-96542065D02*
X108794779Y-96494446D01*
X108794779Y-96494446D02*
X108890017Y-96446827D01*
X108890017Y-96446827D02*
X109128112Y-96446827D01*
X109128112Y-96446827D02*
X109223350Y-96494446D01*
X109223350Y-96494446D02*
X109270969Y-96542065D01*
X109270969Y-96542065D02*
X109318588Y-96637303D01*
X109318588Y-96637303D02*
X109318588Y-96875398D01*
X109318588Y-96875398D02*
X109270969Y-96970636D01*
X109270969Y-96970636D02*
X109223350Y-97018256D01*
X109223350Y-97018256D02*
X109128112Y-97065875D01*
X109128112Y-97065875D02*
X108890017Y-97065875D01*
X108890017Y-97065875D02*
X108794779Y-97018256D01*
X108794779Y-97018256D02*
X108747160Y-96970636D01*
X109604303Y-96065875D02*
X109937636Y-97065875D01*
X109937636Y-97065875D02*
X110270969Y-96065875D01*
X109270969Y-98675819D02*
X108794779Y-98675819D01*
X108794779Y-98675819D02*
X108794779Y-97675819D01*
X109604303Y-98152009D02*
X109937636Y-98152009D01*
X110080493Y-98675819D02*
X109604303Y-98675819D01*
X109604303Y-98675819D02*
X109604303Y-97675819D01*
X109604303Y-97675819D02*
X110080493Y-97675819D01*
X110509065Y-98675819D02*
X110509065Y-97675819D01*
X110509065Y-97675819D02*
X110747160Y-97675819D01*
X110747160Y-97675819D02*
X110890017Y-97723438D01*
X110890017Y-97723438D02*
X110985255Y-97818676D01*
X110985255Y-97818676D02*
X111032874Y-97913914D01*
X111032874Y-97913914D02*
X111080493Y-98104390D01*
X111080493Y-98104390D02*
X111080493Y-98247247D01*
X111080493Y-98247247D02*
X111032874Y-98437723D01*
X111032874Y-98437723D02*
X110985255Y-98532961D01*
X110985255Y-98532961D02*
X110890017Y-98628200D01*
X110890017Y-98628200D02*
X110747160Y-98675819D01*
X110747160Y-98675819D02*
X110509065Y-98675819D01*
X116369875Y-98723220D02*
X115369875Y-98723220D01*
X115369875Y-98723220D02*
X115369875Y-98342268D01*
X115369875Y-98342268D02*
X115417494Y-98247030D01*
X115417494Y-98247030D02*
X115465113Y-98199411D01*
X115465113Y-98199411D02*
X115560351Y-98151792D01*
X115560351Y-98151792D02*
X115703208Y-98151792D01*
X115703208Y-98151792D02*
X115798446Y-98199411D01*
X115798446Y-98199411D02*
X115846065Y-98247030D01*
X115846065Y-98247030D02*
X115893684Y-98342268D01*
X115893684Y-98342268D02*
X115893684Y-98723220D01*
X116084160Y-97770839D02*
X116084160Y-97294649D01*
X116369875Y-97866077D02*
X115369875Y-97532744D01*
X115369875Y-97532744D02*
X116369875Y-97199411D01*
X115798446Y-96723220D02*
X115750827Y-96818458D01*
X115750827Y-96818458D02*
X115703208Y-96866077D01*
X115703208Y-96866077D02*
X115607970Y-96913696D01*
X115607970Y-96913696D02*
X115560351Y-96913696D01*
X115560351Y-96913696D02*
X115465113Y-96866077D01*
X115465113Y-96866077D02*
X115417494Y-96818458D01*
X115417494Y-96818458D02*
X115369875Y-96723220D01*
X115369875Y-96723220D02*
X115369875Y-96532744D01*
X115369875Y-96532744D02*
X115417494Y-96437506D01*
X115417494Y-96437506D02*
X115465113Y-96389887D01*
X115465113Y-96389887D02*
X115560351Y-96342268D01*
X115560351Y-96342268D02*
X115607970Y-96342268D01*
X115607970Y-96342268D02*
X115703208Y-96389887D01*
X115703208Y-96389887D02*
X115750827Y-96437506D01*
X115750827Y-96437506D02*
X115798446Y-96532744D01*
X115798446Y-96532744D02*
X115798446Y-96723220D01*
X115798446Y-96723220D02*
X115846065Y-96818458D01*
X115846065Y-96818458D02*
X115893684Y-96866077D01*
X115893684Y-96866077D02*
X115988922Y-96913696D01*
X115988922Y-96913696D02*
X116179398Y-96913696D01*
X116179398Y-96913696D02*
X116274636Y-96866077D01*
X116274636Y-96866077D02*
X116322256Y-96818458D01*
X116322256Y-96818458D02*
X116369875Y-96723220D01*
X116369875Y-96723220D02*
X116369875Y-96532744D01*
X116369875Y-96532744D02*
X116322256Y-96437506D01*
X116322256Y-96437506D02*
X116274636Y-96389887D01*
X116274636Y-96389887D02*
X116179398Y-96342268D01*
X116179398Y-96342268D02*
X115988922Y-96342268D01*
X115988922Y-96342268D02*
X115893684Y-96389887D01*
X115893684Y-96389887D02*
X115846065Y-96437506D01*
X115846065Y-96437506D02*
X115798446Y-96532744D01*
X117979819Y-98247030D02*
X117979819Y-98723220D01*
X117979819Y-98723220D02*
X116979819Y-98723220D01*
X117456009Y-97913696D02*
X117456009Y-97580363D01*
X117979819Y-97437506D02*
X117979819Y-97913696D01*
X117979819Y-97913696D02*
X116979819Y-97913696D01*
X116979819Y-97913696D02*
X116979819Y-97437506D01*
X117979819Y-97008934D02*
X116979819Y-97008934D01*
X116979819Y-97008934D02*
X116979819Y-96770839D01*
X116979819Y-96770839D02*
X117027438Y-96627982D01*
X117027438Y-96627982D02*
X117122676Y-96532744D01*
X117122676Y-96532744D02*
X117217914Y-96485125D01*
X117217914Y-96485125D02*
X117408390Y-96437506D01*
X117408390Y-96437506D02*
X117551247Y-96437506D01*
X117551247Y-96437506D02*
X117741723Y-96485125D01*
X117741723Y-96485125D02*
X117836961Y-96532744D01*
X117836961Y-96532744D02*
X117932200Y-96627982D01*
X117932200Y-96627982D02*
X117979819Y-96770839D01*
X117979819Y-96770839D02*
X117979819Y-97008934D01*
D13*
X147076667Y-130804318D02*
X147076667Y-131711461D01*
X147076667Y-131711461D02*
X147016190Y-131892889D01*
X147016190Y-131892889D02*
X146895238Y-132013842D01*
X146895238Y-132013842D02*
X146713809Y-132074318D01*
X146713809Y-132074318D02*
X146592857Y-132074318D01*
X148286190Y-130804318D02*
X147681428Y-130804318D01*
X147681428Y-130804318D02*
X147620952Y-131409080D01*
X147620952Y-131409080D02*
X147681428Y-131348603D01*
X147681428Y-131348603D02*
X147802381Y-131288127D01*
X147802381Y-131288127D02*
X148104762Y-131288127D01*
X148104762Y-131288127D02*
X148225714Y-131348603D01*
X148225714Y-131348603D02*
X148286190Y-131409080D01*
X148286190Y-131409080D02*
X148346667Y-131530032D01*
X148346667Y-131530032D02*
X148346667Y-131832413D01*
X148346667Y-131832413D02*
X148286190Y-131953365D01*
X148286190Y-131953365D02*
X148225714Y-132013842D01*
X148225714Y-132013842D02*
X148104762Y-132074318D01*
X148104762Y-132074318D02*
X147802381Y-132074318D01*
X147802381Y-132074318D02*
X147681428Y-132013842D01*
X147681428Y-132013842D02*
X147620952Y-131953365D01*
D10*
X164346095Y-78448819D02*
X164917523Y-78448819D01*
X164631809Y-79448819D02*
X164631809Y-78448819D01*
X165250857Y-79448819D02*
X165250857Y-78448819D01*
X165250857Y-78448819D02*
X165631809Y-78448819D01*
X165631809Y-78448819D02*
X165727047Y-78496438D01*
X165727047Y-78496438D02*
X165774666Y-78544057D01*
X165774666Y-78544057D02*
X165822285Y-78639295D01*
X165822285Y-78639295D02*
X165822285Y-78782152D01*
X165822285Y-78782152D02*
X165774666Y-78877390D01*
X165774666Y-78877390D02*
X165727047Y-78925009D01*
X165727047Y-78925009D02*
X165631809Y-78972628D01*
X165631809Y-78972628D02*
X165250857Y-78972628D01*
X166298476Y-79448819D02*
X166488952Y-79448819D01*
X166488952Y-79448819D02*
X166584190Y-79401200D01*
X166584190Y-79401200D02*
X166631809Y-79353580D01*
X166631809Y-79353580D02*
X166727047Y-79210723D01*
X166727047Y-79210723D02*
X166774666Y-79020247D01*
X166774666Y-79020247D02*
X166774666Y-78639295D01*
X166774666Y-78639295D02*
X166727047Y-78544057D01*
X166727047Y-78544057D02*
X166679428Y-78496438D01*
X166679428Y-78496438D02*
X166584190Y-78448819D01*
X166584190Y-78448819D02*
X166393714Y-78448819D01*
X166393714Y-78448819D02*
X166298476Y-78496438D01*
X166298476Y-78496438D02*
X166250857Y-78544057D01*
X166250857Y-78544057D02*
X166203238Y-78639295D01*
X166203238Y-78639295D02*
X166203238Y-78877390D01*
X166203238Y-78877390D02*
X166250857Y-78972628D01*
X166250857Y-78972628D02*
X166298476Y-79020247D01*
X166298476Y-79020247D02*
X166393714Y-79067866D01*
X166393714Y-79067866D02*
X166584190Y-79067866D01*
X166584190Y-79067866D02*
X166679428Y-79020247D01*
X166679428Y-79020247D02*
X166727047Y-78972628D01*
X166727047Y-78972628D02*
X166774666Y-78877390D01*
X158329333Y-117453580D02*
X158281714Y-117501200D01*
X158281714Y-117501200D02*
X158138857Y-117548819D01*
X158138857Y-117548819D02*
X158043619Y-117548819D01*
X158043619Y-117548819D02*
X157900762Y-117501200D01*
X157900762Y-117501200D02*
X157805524Y-117405961D01*
X157805524Y-117405961D02*
X157757905Y-117310723D01*
X157757905Y-117310723D02*
X157710286Y-117120247D01*
X157710286Y-117120247D02*
X157710286Y-116977390D01*
X157710286Y-116977390D02*
X157757905Y-116786914D01*
X157757905Y-116786914D02*
X157805524Y-116691676D01*
X157805524Y-116691676D02*
X157900762Y-116596438D01*
X157900762Y-116596438D02*
X158043619Y-116548819D01*
X158043619Y-116548819D02*
X158138857Y-116548819D01*
X158138857Y-116548819D02*
X158281714Y-116596438D01*
X158281714Y-116596438D02*
X158329333Y-116644057D01*
X159186476Y-116882152D02*
X159186476Y-117548819D01*
X158948381Y-116501200D02*
X158710286Y-117215485D01*
X158710286Y-117215485D02*
X159329333Y-117215485D01*
X91781333Y-123803580D02*
X91733714Y-123851200D01*
X91733714Y-123851200D02*
X91590857Y-123898819D01*
X91590857Y-123898819D02*
X91495619Y-123898819D01*
X91495619Y-123898819D02*
X91352762Y-123851200D01*
X91352762Y-123851200D02*
X91257524Y-123755961D01*
X91257524Y-123755961D02*
X91209905Y-123660723D01*
X91209905Y-123660723D02*
X91162286Y-123470247D01*
X91162286Y-123470247D02*
X91162286Y-123327390D01*
X91162286Y-123327390D02*
X91209905Y-123136914D01*
X91209905Y-123136914D02*
X91257524Y-123041676D01*
X91257524Y-123041676D02*
X91352762Y-122946438D01*
X91352762Y-122946438D02*
X91495619Y-122898819D01*
X91495619Y-122898819D02*
X91590857Y-122898819D01*
X91590857Y-122898819D02*
X91733714Y-122946438D01*
X91733714Y-122946438D02*
X91781333Y-122994057D01*
X92733714Y-123898819D02*
X92162286Y-123898819D01*
X92448000Y-123898819D02*
X92448000Y-122898819D01*
X92448000Y-122898819D02*
X92352762Y-123041676D01*
X92352762Y-123041676D02*
X92257524Y-123136914D01*
X92257524Y-123136914D02*
X92162286Y-123184533D01*
X133104095Y-77940819D02*
X133675523Y-77940819D01*
X133389809Y-78940819D02*
X133389809Y-77940819D01*
X134008857Y-78940819D02*
X134008857Y-77940819D01*
X134008857Y-77940819D02*
X134389809Y-77940819D01*
X134389809Y-77940819D02*
X134485047Y-77988438D01*
X134485047Y-77988438D02*
X134532666Y-78036057D01*
X134532666Y-78036057D02*
X134580285Y-78131295D01*
X134580285Y-78131295D02*
X134580285Y-78274152D01*
X134580285Y-78274152D02*
X134532666Y-78369390D01*
X134532666Y-78369390D02*
X134485047Y-78417009D01*
X134485047Y-78417009D02*
X134389809Y-78464628D01*
X134389809Y-78464628D02*
X134008857Y-78464628D01*
X135485047Y-77940819D02*
X135008857Y-77940819D01*
X135008857Y-77940819D02*
X134961238Y-78417009D01*
X134961238Y-78417009D02*
X135008857Y-78369390D01*
X135008857Y-78369390D02*
X135104095Y-78321771D01*
X135104095Y-78321771D02*
X135342190Y-78321771D01*
X135342190Y-78321771D02*
X135437428Y-78369390D01*
X135437428Y-78369390D02*
X135485047Y-78417009D01*
X135485047Y-78417009D02*
X135532666Y-78512247D01*
X135532666Y-78512247D02*
X135532666Y-78750342D01*
X135532666Y-78750342D02*
X135485047Y-78845580D01*
X135485047Y-78845580D02*
X135437428Y-78893200D01*
X135437428Y-78893200D02*
X135342190Y-78940819D01*
X135342190Y-78940819D02*
X135104095Y-78940819D01*
X135104095Y-78940819D02*
X135008857Y-78893200D01*
X135008857Y-78893200D02*
X134961238Y-78845580D01*
X175601333Y-117453580D02*
X175553714Y-117501200D01*
X175553714Y-117501200D02*
X175410857Y-117548819D01*
X175410857Y-117548819D02*
X175315619Y-117548819D01*
X175315619Y-117548819D02*
X175172762Y-117501200D01*
X175172762Y-117501200D02*
X175077524Y-117405961D01*
X175077524Y-117405961D02*
X175029905Y-117310723D01*
X175029905Y-117310723D02*
X174982286Y-117120247D01*
X174982286Y-117120247D02*
X174982286Y-116977390D01*
X174982286Y-116977390D02*
X175029905Y-116786914D01*
X175029905Y-116786914D02*
X175077524Y-116691676D01*
X175077524Y-116691676D02*
X175172762Y-116596438D01*
X175172762Y-116596438D02*
X175315619Y-116548819D01*
X175315619Y-116548819D02*
X175410857Y-116548819D01*
X175410857Y-116548819D02*
X175553714Y-116596438D01*
X175553714Y-116596438D02*
X175601333Y-116644057D01*
X175934667Y-116548819D02*
X176553714Y-116548819D01*
X176553714Y-116548819D02*
X176220381Y-116929771D01*
X176220381Y-116929771D02*
X176363238Y-116929771D01*
X176363238Y-116929771D02*
X176458476Y-116977390D01*
X176458476Y-116977390D02*
X176506095Y-117025009D01*
X176506095Y-117025009D02*
X176553714Y-117120247D01*
X176553714Y-117120247D02*
X176553714Y-117358342D01*
X176553714Y-117358342D02*
X176506095Y-117453580D01*
X176506095Y-117453580D02*
X176458476Y-117501200D01*
X176458476Y-117501200D02*
X176363238Y-117548819D01*
X176363238Y-117548819D02*
X176077524Y-117548819D01*
X176077524Y-117548819D02*
X175982286Y-117501200D01*
X175982286Y-117501200D02*
X175934667Y-117453580D01*
X137199905Y-77686819D02*
X137771333Y-77686819D01*
X137485619Y-78686819D02*
X137485619Y-77686819D01*
X138104667Y-78686819D02*
X138104667Y-77686819D01*
X138104667Y-77686819D02*
X138485619Y-77686819D01*
X138485619Y-77686819D02*
X138580857Y-77734438D01*
X138580857Y-77734438D02*
X138628476Y-77782057D01*
X138628476Y-77782057D02*
X138676095Y-77877295D01*
X138676095Y-77877295D02*
X138676095Y-78020152D01*
X138676095Y-78020152D02*
X138628476Y-78115390D01*
X138628476Y-78115390D02*
X138580857Y-78163009D01*
X138580857Y-78163009D02*
X138485619Y-78210628D01*
X138485619Y-78210628D02*
X138104667Y-78210628D01*
X139628476Y-78686819D02*
X139057048Y-78686819D01*
X139342762Y-78686819D02*
X139342762Y-77686819D01*
X139342762Y-77686819D02*
X139247524Y-77829676D01*
X139247524Y-77829676D02*
X139152286Y-77924914D01*
X139152286Y-77924914D02*
X139057048Y-77972533D01*
X140580857Y-78686819D02*
X140009429Y-78686819D01*
X140295143Y-78686819D02*
X140295143Y-77686819D01*
X140295143Y-77686819D02*
X140199905Y-77829676D01*
X140199905Y-77829676D02*
X140104667Y-77924914D01*
X140104667Y-77924914D02*
X140009429Y-77972533D01*
X118954819Y-102738094D02*
X117954819Y-102738094D01*
X117954819Y-102738094D02*
X117954819Y-102499999D01*
X117954819Y-102499999D02*
X118002438Y-102357142D01*
X118002438Y-102357142D02*
X118097676Y-102261904D01*
X118097676Y-102261904D02*
X118192914Y-102214285D01*
X118192914Y-102214285D02*
X118383390Y-102166666D01*
X118383390Y-102166666D02*
X118526247Y-102166666D01*
X118526247Y-102166666D02*
X118716723Y-102214285D01*
X118716723Y-102214285D02*
X118811961Y-102261904D01*
X118811961Y-102261904D02*
X118907200Y-102357142D01*
X118907200Y-102357142D02*
X118954819Y-102499999D01*
X118954819Y-102499999D02*
X118954819Y-102738094D01*
X117954819Y-101833332D02*
X117954819Y-101214285D01*
X117954819Y-101214285D02*
X118335771Y-101547618D01*
X118335771Y-101547618D02*
X118335771Y-101404761D01*
X118335771Y-101404761D02*
X118383390Y-101309523D01*
X118383390Y-101309523D02*
X118431009Y-101261904D01*
X118431009Y-101261904D02*
X118526247Y-101214285D01*
X118526247Y-101214285D02*
X118764342Y-101214285D01*
X118764342Y-101214285D02*
X118859580Y-101261904D01*
X118859580Y-101261904D02*
X118907200Y-101309523D01*
X118907200Y-101309523D02*
X118954819Y-101404761D01*
X118954819Y-101404761D02*
X118954819Y-101690475D01*
X118954819Y-101690475D02*
X118907200Y-101785713D01*
X118907200Y-101785713D02*
X118859580Y-101833332D01*
D13*
X183076667Y-102304318D02*
X183076667Y-103211461D01*
X183076667Y-103211461D02*
X183016190Y-103392889D01*
X183016190Y-103392889D02*
X182895238Y-103513842D01*
X182895238Y-103513842D02*
X182713809Y-103574318D01*
X182713809Y-103574318D02*
X182592857Y-103574318D01*
X184346667Y-103574318D02*
X183620952Y-103574318D01*
X183983809Y-103574318D02*
X183983809Y-102304318D01*
X183983809Y-102304318D02*
X183862857Y-102485746D01*
X183862857Y-102485746D02*
X183741905Y-102606699D01*
X183741905Y-102606699D02*
X183620952Y-102667175D01*
D10*
X180713142Y-121104819D02*
X180379809Y-120628628D01*
X180141714Y-121104819D02*
X180141714Y-120104819D01*
X180141714Y-120104819D02*
X180522666Y-120104819D01*
X180522666Y-120104819D02*
X180617904Y-120152438D01*
X180617904Y-120152438D02*
X180665523Y-120200057D01*
X180665523Y-120200057D02*
X180713142Y-120295295D01*
X180713142Y-120295295D02*
X180713142Y-120438152D01*
X180713142Y-120438152D02*
X180665523Y-120533390D01*
X180665523Y-120533390D02*
X180617904Y-120581009D01*
X180617904Y-120581009D02*
X180522666Y-120628628D01*
X180522666Y-120628628D02*
X180141714Y-120628628D01*
X181665523Y-121104819D02*
X181094095Y-121104819D01*
X181379809Y-121104819D02*
X181379809Y-120104819D01*
X181379809Y-120104819D02*
X181284571Y-120247676D01*
X181284571Y-120247676D02*
X181189333Y-120342914D01*
X181189333Y-120342914D02*
X181094095Y-120390533D01*
X181998857Y-120104819D02*
X182617904Y-120104819D01*
X182617904Y-120104819D02*
X182284571Y-120485771D01*
X182284571Y-120485771D02*
X182427428Y-120485771D01*
X182427428Y-120485771D02*
X182522666Y-120533390D01*
X182522666Y-120533390D02*
X182570285Y-120581009D01*
X182570285Y-120581009D02*
X182617904Y-120676247D01*
X182617904Y-120676247D02*
X182617904Y-120914342D01*
X182617904Y-120914342D02*
X182570285Y-121009580D01*
X182570285Y-121009580D02*
X182522666Y-121057200D01*
X182522666Y-121057200D02*
X182427428Y-121104819D01*
X182427428Y-121104819D02*
X182141714Y-121104819D01*
X182141714Y-121104819D02*
X182046476Y-121057200D01*
X182046476Y-121057200D02*
X181998857Y-121009580D01*
X105529142Y-103196819D02*
X105195809Y-102720628D01*
X104957714Y-103196819D02*
X104957714Y-102196819D01*
X104957714Y-102196819D02*
X105338666Y-102196819D01*
X105338666Y-102196819D02*
X105433904Y-102244438D01*
X105433904Y-102244438D02*
X105481523Y-102292057D01*
X105481523Y-102292057D02*
X105529142Y-102387295D01*
X105529142Y-102387295D02*
X105529142Y-102530152D01*
X105529142Y-102530152D02*
X105481523Y-102625390D01*
X105481523Y-102625390D02*
X105433904Y-102673009D01*
X105433904Y-102673009D02*
X105338666Y-102720628D01*
X105338666Y-102720628D02*
X104957714Y-102720628D01*
X106481523Y-103196819D02*
X105910095Y-103196819D01*
X106195809Y-103196819D02*
X106195809Y-102196819D01*
X106195809Y-102196819D02*
X106100571Y-102339676D01*
X106100571Y-102339676D02*
X106005333Y-102434914D01*
X106005333Y-102434914D02*
X105910095Y-102482533D01*
X106862476Y-102292057D02*
X106910095Y-102244438D01*
X106910095Y-102244438D02*
X107005333Y-102196819D01*
X107005333Y-102196819D02*
X107243428Y-102196819D01*
X107243428Y-102196819D02*
X107338666Y-102244438D01*
X107338666Y-102244438D02*
X107386285Y-102292057D01*
X107386285Y-102292057D02*
X107433904Y-102387295D01*
X107433904Y-102387295D02*
X107433904Y-102482533D01*
X107433904Y-102482533D02*
X107386285Y-102625390D01*
X107386285Y-102625390D02*
X106814857Y-103196819D01*
X106814857Y-103196819D02*
X107433904Y-103196819D01*
X153857142Y-121862295D02*
X153523809Y-121481342D01*
X153285714Y-121862295D02*
X153285714Y-121062295D01*
X153285714Y-121062295D02*
X153666666Y-121062295D01*
X153666666Y-121062295D02*
X153761904Y-121100390D01*
X153761904Y-121100390D02*
X153809523Y-121138485D01*
X153809523Y-121138485D02*
X153857142Y-121214676D01*
X153857142Y-121214676D02*
X153857142Y-121328961D01*
X153857142Y-121328961D02*
X153809523Y-121405152D01*
X153809523Y-121405152D02*
X153761904Y-121443247D01*
X153761904Y-121443247D02*
X153666666Y-121481342D01*
X153666666Y-121481342D02*
X153285714Y-121481342D01*
X154238095Y-121138485D02*
X154285714Y-121100390D01*
X154285714Y-121100390D02*
X154380952Y-121062295D01*
X154380952Y-121062295D02*
X154619047Y-121062295D01*
X154619047Y-121062295D02*
X154714285Y-121100390D01*
X154714285Y-121100390D02*
X154761904Y-121138485D01*
X154761904Y-121138485D02*
X154809523Y-121214676D01*
X154809523Y-121214676D02*
X154809523Y-121290866D01*
X154809523Y-121290866D02*
X154761904Y-121405152D01*
X154761904Y-121405152D02*
X154190476Y-121862295D01*
X154190476Y-121862295D02*
X154809523Y-121862295D01*
X155428571Y-121062295D02*
X155523809Y-121062295D01*
X155523809Y-121062295D02*
X155619047Y-121100390D01*
X155619047Y-121100390D02*
X155666666Y-121138485D01*
X155666666Y-121138485D02*
X155714285Y-121214676D01*
X155714285Y-121214676D02*
X155761904Y-121367057D01*
X155761904Y-121367057D02*
X155761904Y-121557533D01*
X155761904Y-121557533D02*
X155714285Y-121709914D01*
X155714285Y-121709914D02*
X155666666Y-121786104D01*
X155666666Y-121786104D02*
X155619047Y-121824200D01*
X155619047Y-121824200D02*
X155523809Y-121862295D01*
X155523809Y-121862295D02*
X155428571Y-121862295D01*
X155428571Y-121862295D02*
X155333333Y-121824200D01*
X155333333Y-121824200D02*
X155285714Y-121786104D01*
X155285714Y-121786104D02*
X155238095Y-121709914D01*
X155238095Y-121709914D02*
X155190476Y-121557533D01*
X155190476Y-121557533D02*
X155190476Y-121367057D01*
X155190476Y-121367057D02*
X155238095Y-121214676D01*
X155238095Y-121214676D02*
X155285714Y-121138485D01*
X155285714Y-121138485D02*
X155333333Y-121100390D01*
X155333333Y-121100390D02*
X155428571Y-121062295D01*
X164954819Y-128142857D02*
X164478628Y-128476190D01*
X164954819Y-128714285D02*
X163954819Y-128714285D01*
X163954819Y-128714285D02*
X163954819Y-128333333D01*
X163954819Y-128333333D02*
X164002438Y-128238095D01*
X164002438Y-128238095D02*
X164050057Y-128190476D01*
X164050057Y-128190476D02*
X164145295Y-128142857D01*
X164145295Y-128142857D02*
X164288152Y-128142857D01*
X164288152Y-128142857D02*
X164383390Y-128190476D01*
X164383390Y-128190476D02*
X164431009Y-128238095D01*
X164431009Y-128238095D02*
X164478628Y-128333333D01*
X164478628Y-128333333D02*
X164478628Y-128714285D01*
X164050057Y-127761904D02*
X164002438Y-127714285D01*
X164002438Y-127714285D02*
X163954819Y-127619047D01*
X163954819Y-127619047D02*
X163954819Y-127380952D01*
X163954819Y-127380952D02*
X164002438Y-127285714D01*
X164002438Y-127285714D02*
X164050057Y-127238095D01*
X164050057Y-127238095D02*
X164145295Y-127190476D01*
X164145295Y-127190476D02*
X164240533Y-127190476D01*
X164240533Y-127190476D02*
X164383390Y-127238095D01*
X164383390Y-127238095D02*
X164954819Y-127809523D01*
X164954819Y-127809523D02*
X164954819Y-127190476D01*
X163954819Y-126857142D02*
X163954819Y-126190476D01*
X163954819Y-126190476D02*
X164954819Y-126619047D01*
X148454819Y-124642857D02*
X147978628Y-124976190D01*
X148454819Y-125214285D02*
X147454819Y-125214285D01*
X147454819Y-125214285D02*
X147454819Y-124833333D01*
X147454819Y-124833333D02*
X147502438Y-124738095D01*
X147502438Y-124738095D02*
X147550057Y-124690476D01*
X147550057Y-124690476D02*
X147645295Y-124642857D01*
X147645295Y-124642857D02*
X147788152Y-124642857D01*
X147788152Y-124642857D02*
X147883390Y-124690476D01*
X147883390Y-124690476D02*
X147931009Y-124738095D01*
X147931009Y-124738095D02*
X147978628Y-124833333D01*
X147978628Y-124833333D02*
X147978628Y-125214285D01*
X147550057Y-124261904D02*
X147502438Y-124214285D01*
X147502438Y-124214285D02*
X147454819Y-124119047D01*
X147454819Y-124119047D02*
X147454819Y-123880952D01*
X147454819Y-123880952D02*
X147502438Y-123785714D01*
X147502438Y-123785714D02*
X147550057Y-123738095D01*
X147550057Y-123738095D02*
X147645295Y-123690476D01*
X147645295Y-123690476D02*
X147740533Y-123690476D01*
X147740533Y-123690476D02*
X147883390Y-123738095D01*
X147883390Y-123738095D02*
X148454819Y-124309523D01*
X148454819Y-124309523D02*
X148454819Y-123690476D01*
X147550057Y-123309523D02*
X147502438Y-123261904D01*
X147502438Y-123261904D02*
X147454819Y-123166666D01*
X147454819Y-123166666D02*
X147454819Y-122928571D01*
X147454819Y-122928571D02*
X147502438Y-122833333D01*
X147502438Y-122833333D02*
X147550057Y-122785714D01*
X147550057Y-122785714D02*
X147645295Y-122738095D01*
X147645295Y-122738095D02*
X147740533Y-122738095D01*
X147740533Y-122738095D02*
X147883390Y-122785714D01*
X147883390Y-122785714D02*
X148454819Y-123357142D01*
X148454819Y-123357142D02*
X148454819Y-122738095D01*
X175833333Y-132604819D02*
X175500000Y-132128628D01*
X175261905Y-132604819D02*
X175261905Y-131604819D01*
X175261905Y-131604819D02*
X175642857Y-131604819D01*
X175642857Y-131604819D02*
X175738095Y-131652438D01*
X175738095Y-131652438D02*
X175785714Y-131700057D01*
X175785714Y-131700057D02*
X175833333Y-131795295D01*
X175833333Y-131795295D02*
X175833333Y-131938152D01*
X175833333Y-131938152D02*
X175785714Y-132033390D01*
X175785714Y-132033390D02*
X175738095Y-132081009D01*
X175738095Y-132081009D02*
X175642857Y-132128628D01*
X175642857Y-132128628D02*
X175261905Y-132128628D01*
X176690476Y-131938152D02*
X176690476Y-132604819D01*
X176452381Y-131557200D02*
X176214286Y-132271485D01*
X176214286Y-132271485D02*
X176833333Y-132271485D01*
X95369142Y-80718819D02*
X95035809Y-80242628D01*
X94797714Y-80718819D02*
X94797714Y-79718819D01*
X94797714Y-79718819D02*
X95178666Y-79718819D01*
X95178666Y-79718819D02*
X95273904Y-79766438D01*
X95273904Y-79766438D02*
X95321523Y-79814057D01*
X95321523Y-79814057D02*
X95369142Y-79909295D01*
X95369142Y-79909295D02*
X95369142Y-80052152D01*
X95369142Y-80052152D02*
X95321523Y-80147390D01*
X95321523Y-80147390D02*
X95273904Y-80195009D01*
X95273904Y-80195009D02*
X95178666Y-80242628D01*
X95178666Y-80242628D02*
X94797714Y-80242628D01*
X96321523Y-80718819D02*
X95750095Y-80718819D01*
X96035809Y-80718819D02*
X96035809Y-79718819D01*
X96035809Y-79718819D02*
X95940571Y-79861676D01*
X95940571Y-79861676D02*
X95845333Y-79956914D01*
X95845333Y-79956914D02*
X95750095Y-80004533D01*
X97273904Y-80718819D02*
X96702476Y-80718819D01*
X96988190Y-80718819D02*
X96988190Y-79718819D01*
X96988190Y-79718819D02*
X96892952Y-79861676D01*
X96892952Y-79861676D02*
X96797714Y-79956914D01*
X96797714Y-79956914D02*
X96702476Y-80004533D01*
X127262095Y-96736819D02*
X127833523Y-96736819D01*
X127547809Y-97736819D02*
X127547809Y-96736819D01*
X128166857Y-97736819D02*
X128166857Y-96736819D01*
X128166857Y-96736819D02*
X128547809Y-96736819D01*
X128547809Y-96736819D02*
X128643047Y-96784438D01*
X128643047Y-96784438D02*
X128690666Y-96832057D01*
X128690666Y-96832057D02*
X128738285Y-96927295D01*
X128738285Y-96927295D02*
X128738285Y-97070152D01*
X128738285Y-97070152D02*
X128690666Y-97165390D01*
X128690666Y-97165390D02*
X128643047Y-97213009D01*
X128643047Y-97213009D02*
X128547809Y-97260628D01*
X128547809Y-97260628D02*
X128166857Y-97260628D01*
X129690666Y-97736819D02*
X129119238Y-97736819D01*
X129404952Y-97736819D02*
X129404952Y-96736819D01*
X129404952Y-96736819D02*
X129309714Y-96879676D01*
X129309714Y-96879676D02*
X129214476Y-96974914D01*
X129214476Y-96974914D02*
X129119238Y-97022533D01*
X150407905Y-78448819D02*
X150979333Y-78448819D01*
X150693619Y-79448819D02*
X150693619Y-78448819D01*
X151312667Y-79448819D02*
X151312667Y-78448819D01*
X151312667Y-78448819D02*
X151693619Y-78448819D01*
X151693619Y-78448819D02*
X151788857Y-78496438D01*
X151788857Y-78496438D02*
X151836476Y-78544057D01*
X151836476Y-78544057D02*
X151884095Y-78639295D01*
X151884095Y-78639295D02*
X151884095Y-78782152D01*
X151884095Y-78782152D02*
X151836476Y-78877390D01*
X151836476Y-78877390D02*
X151788857Y-78925009D01*
X151788857Y-78925009D02*
X151693619Y-78972628D01*
X151693619Y-78972628D02*
X151312667Y-78972628D01*
X152836476Y-79448819D02*
X152265048Y-79448819D01*
X152550762Y-79448819D02*
X152550762Y-78448819D01*
X152550762Y-78448819D02*
X152455524Y-78591676D01*
X152455524Y-78591676D02*
X152360286Y-78686914D01*
X152360286Y-78686914D02*
X152265048Y-78734533D01*
X153455524Y-78448819D02*
X153550762Y-78448819D01*
X153550762Y-78448819D02*
X153646000Y-78496438D01*
X153646000Y-78496438D02*
X153693619Y-78544057D01*
X153693619Y-78544057D02*
X153741238Y-78639295D01*
X153741238Y-78639295D02*
X153788857Y-78829771D01*
X153788857Y-78829771D02*
X153788857Y-79067866D01*
X153788857Y-79067866D02*
X153741238Y-79258342D01*
X153741238Y-79258342D02*
X153693619Y-79353580D01*
X153693619Y-79353580D02*
X153646000Y-79401200D01*
X153646000Y-79401200D02*
X153550762Y-79448819D01*
X153550762Y-79448819D02*
X153455524Y-79448819D01*
X153455524Y-79448819D02*
X153360286Y-79401200D01*
X153360286Y-79401200D02*
X153312667Y-79353580D01*
X153312667Y-79353580D02*
X153265048Y-79258342D01*
X153265048Y-79258342D02*
X153217429Y-79067866D01*
X153217429Y-79067866D02*
X153217429Y-78829771D01*
X153217429Y-78829771D02*
X153265048Y-78639295D01*
X153265048Y-78639295D02*
X153312667Y-78544057D01*
X153312667Y-78544057D02*
X153360286Y-78496438D01*
X153360286Y-78496438D02*
X153455524Y-78448819D01*
X121435905Y-122120819D02*
X121435905Y-121120819D01*
X121435905Y-121120819D02*
X121674000Y-121120819D01*
X121674000Y-121120819D02*
X121816857Y-121168438D01*
X121816857Y-121168438D02*
X121912095Y-121263676D01*
X121912095Y-121263676D02*
X121959714Y-121358914D01*
X121959714Y-121358914D02*
X122007333Y-121549390D01*
X122007333Y-121549390D02*
X122007333Y-121692247D01*
X122007333Y-121692247D02*
X121959714Y-121882723D01*
X121959714Y-121882723D02*
X121912095Y-121977961D01*
X121912095Y-121977961D02*
X121816857Y-122073200D01*
X121816857Y-122073200D02*
X121674000Y-122120819D01*
X121674000Y-122120819D02*
X121435905Y-122120819D01*
X122959714Y-122120819D02*
X122388286Y-122120819D01*
X122674000Y-122120819D02*
X122674000Y-121120819D01*
X122674000Y-121120819D02*
X122578762Y-121263676D01*
X122578762Y-121263676D02*
X122483524Y-121358914D01*
X122483524Y-121358914D02*
X122388286Y-121406533D01*
X133333333Y-115859580D02*
X133285714Y-115907200D01*
X133285714Y-115907200D02*
X133142857Y-115954819D01*
X133142857Y-115954819D02*
X133047619Y-115954819D01*
X133047619Y-115954819D02*
X132904762Y-115907200D01*
X132904762Y-115907200D02*
X132809524Y-115811961D01*
X132809524Y-115811961D02*
X132761905Y-115716723D01*
X132761905Y-115716723D02*
X132714286Y-115526247D01*
X132714286Y-115526247D02*
X132714286Y-115383390D01*
X132714286Y-115383390D02*
X132761905Y-115192914D01*
X132761905Y-115192914D02*
X132809524Y-115097676D01*
X132809524Y-115097676D02*
X132904762Y-115002438D01*
X132904762Y-115002438D02*
X133047619Y-114954819D01*
X133047619Y-114954819D02*
X133142857Y-114954819D01*
X133142857Y-114954819D02*
X133285714Y-115002438D01*
X133285714Y-115002438D02*
X133333333Y-115050057D01*
X133666667Y-114954819D02*
X134333333Y-114954819D01*
X134333333Y-114954819D02*
X133904762Y-115954819D01*
D13*
X173032380Y-128013842D02*
X173213809Y-128074318D01*
X173213809Y-128074318D02*
X173516190Y-128074318D01*
X173516190Y-128074318D02*
X173637142Y-128013842D01*
X173637142Y-128013842D02*
X173697618Y-127953365D01*
X173697618Y-127953365D02*
X173758095Y-127832413D01*
X173758095Y-127832413D02*
X173758095Y-127711461D01*
X173758095Y-127711461D02*
X173697618Y-127590508D01*
X173697618Y-127590508D02*
X173637142Y-127530032D01*
X173637142Y-127530032D02*
X173516190Y-127469556D01*
X173516190Y-127469556D02*
X173274285Y-127409080D01*
X173274285Y-127409080D02*
X173153333Y-127348603D01*
X173153333Y-127348603D02*
X173092856Y-127288127D01*
X173092856Y-127288127D02*
X173032380Y-127167175D01*
X173032380Y-127167175D02*
X173032380Y-127046222D01*
X173032380Y-127046222D02*
X173092856Y-126925270D01*
X173092856Y-126925270D02*
X173153333Y-126864794D01*
X173153333Y-126864794D02*
X173274285Y-126804318D01*
X173274285Y-126804318D02*
X173576666Y-126804318D01*
X173576666Y-126804318D02*
X173758095Y-126864794D01*
X174967619Y-128074318D02*
X174241904Y-128074318D01*
X174604761Y-128074318D02*
X174604761Y-126804318D01*
X174604761Y-126804318D02*
X174483809Y-126985746D01*
X174483809Y-126985746D02*
X174362857Y-127106699D01*
X174362857Y-127106699D02*
X174241904Y-127167175D01*
D10*
X88987333Y-123644819D02*
X88654000Y-123168628D01*
X88415905Y-123644819D02*
X88415905Y-122644819D01*
X88415905Y-122644819D02*
X88796857Y-122644819D01*
X88796857Y-122644819D02*
X88892095Y-122692438D01*
X88892095Y-122692438D02*
X88939714Y-122740057D01*
X88939714Y-122740057D02*
X88987333Y-122835295D01*
X88987333Y-122835295D02*
X88987333Y-122978152D01*
X88987333Y-122978152D02*
X88939714Y-123073390D01*
X88939714Y-123073390D02*
X88892095Y-123121009D01*
X88892095Y-123121009D02*
X88796857Y-123168628D01*
X88796857Y-123168628D02*
X88415905Y-123168628D01*
X89939714Y-123644819D02*
X89368286Y-123644819D01*
X89654000Y-123644819D02*
X89654000Y-122644819D01*
X89654000Y-122644819D02*
X89558762Y-122787676D01*
X89558762Y-122787676D02*
X89463524Y-122882914D01*
X89463524Y-122882914D02*
X89368286Y-122930533D01*
D12*
X152011142Y-117635404D02*
X151963523Y-117673500D01*
X151963523Y-117673500D02*
X151820666Y-117711595D01*
X151820666Y-117711595D02*
X151725428Y-117711595D01*
X151725428Y-117711595D02*
X151582571Y-117673500D01*
X151582571Y-117673500D02*
X151487333Y-117597309D01*
X151487333Y-117597309D02*
X151439714Y-117521119D01*
X151439714Y-117521119D02*
X151392095Y-117368738D01*
X151392095Y-117368738D02*
X151392095Y-117254452D01*
X151392095Y-117254452D02*
X151439714Y-117102071D01*
X151439714Y-117102071D02*
X151487333Y-117025880D01*
X151487333Y-117025880D02*
X151582571Y-116949690D01*
X151582571Y-116949690D02*
X151725428Y-116911595D01*
X151725428Y-116911595D02*
X151820666Y-116911595D01*
X151820666Y-116911595D02*
X151963523Y-116949690D01*
X151963523Y-116949690D02*
X152011142Y-116987785D01*
X152963523Y-117711595D02*
X152392095Y-117711595D01*
X152677809Y-117711595D02*
X152677809Y-116911595D01*
X152677809Y-116911595D02*
X152582571Y-117025880D01*
X152582571Y-117025880D02*
X152487333Y-117102071D01*
X152487333Y-117102071D02*
X152392095Y-117140166D01*
X153868285Y-116911595D02*
X153392095Y-116911595D01*
X153392095Y-116911595D02*
X153344476Y-117292547D01*
X153344476Y-117292547D02*
X153392095Y-117254452D01*
X153392095Y-117254452D02*
X153487333Y-117216357D01*
X153487333Y-117216357D02*
X153725428Y-117216357D01*
X153725428Y-117216357D02*
X153820666Y-117254452D01*
X153820666Y-117254452D02*
X153868285Y-117292547D01*
X153868285Y-117292547D02*
X153915904Y-117368738D01*
X153915904Y-117368738D02*
X153915904Y-117559214D01*
X153915904Y-117559214D02*
X153868285Y-117635404D01*
X153868285Y-117635404D02*
X153820666Y-117673500D01*
X153820666Y-117673500D02*
X153725428Y-117711595D01*
X153725428Y-117711595D02*
X153487333Y-117711595D01*
X153487333Y-117711595D02*
X153392095Y-117673500D01*
X153392095Y-117673500D02*
X153344476Y-117635404D01*
D10*
X112722819Y-105640094D02*
X111722819Y-105640094D01*
X111722819Y-105640094D02*
X111722819Y-105401999D01*
X111722819Y-105401999D02*
X111770438Y-105259142D01*
X111770438Y-105259142D02*
X111865676Y-105163904D01*
X111865676Y-105163904D02*
X111960914Y-105116285D01*
X111960914Y-105116285D02*
X112151390Y-105068666D01*
X112151390Y-105068666D02*
X112294247Y-105068666D01*
X112294247Y-105068666D02*
X112484723Y-105116285D01*
X112484723Y-105116285D02*
X112579961Y-105163904D01*
X112579961Y-105163904D02*
X112675200Y-105259142D01*
X112675200Y-105259142D02*
X112722819Y-105401999D01*
X112722819Y-105401999D02*
X112722819Y-105640094D01*
X111818057Y-104687713D02*
X111770438Y-104640094D01*
X111770438Y-104640094D02*
X111722819Y-104544856D01*
X111722819Y-104544856D02*
X111722819Y-104306761D01*
X111722819Y-104306761D02*
X111770438Y-104211523D01*
X111770438Y-104211523D02*
X111818057Y-104163904D01*
X111818057Y-104163904D02*
X111913295Y-104116285D01*
X111913295Y-104116285D02*
X112008533Y-104116285D01*
X112008533Y-104116285D02*
X112151390Y-104163904D01*
X112151390Y-104163904D02*
X112722819Y-104735332D01*
X112722819Y-104735332D02*
X112722819Y-104116285D01*
X142502095Y-96482819D02*
X143073523Y-96482819D01*
X142787809Y-97482819D02*
X142787809Y-96482819D01*
X143406857Y-97482819D02*
X143406857Y-96482819D01*
X143406857Y-96482819D02*
X143787809Y-96482819D01*
X143787809Y-96482819D02*
X143883047Y-96530438D01*
X143883047Y-96530438D02*
X143930666Y-96578057D01*
X143930666Y-96578057D02*
X143978285Y-96673295D01*
X143978285Y-96673295D02*
X143978285Y-96816152D01*
X143978285Y-96816152D02*
X143930666Y-96911390D01*
X143930666Y-96911390D02*
X143883047Y-96959009D01*
X143883047Y-96959009D02*
X143787809Y-97006628D01*
X143787809Y-97006628D02*
X143406857Y-97006628D01*
X144359238Y-96578057D02*
X144406857Y-96530438D01*
X144406857Y-96530438D02*
X144502095Y-96482819D01*
X144502095Y-96482819D02*
X144740190Y-96482819D01*
X144740190Y-96482819D02*
X144835428Y-96530438D01*
X144835428Y-96530438D02*
X144883047Y-96578057D01*
X144883047Y-96578057D02*
X144930666Y-96673295D01*
X144930666Y-96673295D02*
X144930666Y-96768533D01*
X144930666Y-96768533D02*
X144883047Y-96911390D01*
X144883047Y-96911390D02*
X144311619Y-97482819D01*
X144311619Y-97482819D02*
X144930666Y-97482819D01*
X161552095Y-99530819D02*
X162123523Y-99530819D01*
X161837809Y-100530819D02*
X161837809Y-99530819D01*
X162456857Y-100530819D02*
X162456857Y-99530819D01*
X162456857Y-99530819D02*
X162837809Y-99530819D01*
X162837809Y-99530819D02*
X162933047Y-99578438D01*
X162933047Y-99578438D02*
X162980666Y-99626057D01*
X162980666Y-99626057D02*
X163028285Y-99721295D01*
X163028285Y-99721295D02*
X163028285Y-99864152D01*
X163028285Y-99864152D02*
X162980666Y-99959390D01*
X162980666Y-99959390D02*
X162933047Y-100007009D01*
X162933047Y-100007009D02*
X162837809Y-100054628D01*
X162837809Y-100054628D02*
X162456857Y-100054628D01*
X163885428Y-99864152D02*
X163885428Y-100530819D01*
X163647333Y-99483200D02*
X163409238Y-100197485D01*
X163409238Y-100197485D02*
X164028285Y-100197485D01*
X156857142Y-121862295D02*
X156523809Y-121481342D01*
X156285714Y-121862295D02*
X156285714Y-121062295D01*
X156285714Y-121062295D02*
X156666666Y-121062295D01*
X156666666Y-121062295D02*
X156761904Y-121100390D01*
X156761904Y-121100390D02*
X156809523Y-121138485D01*
X156809523Y-121138485D02*
X156857142Y-121214676D01*
X156857142Y-121214676D02*
X156857142Y-121328961D01*
X156857142Y-121328961D02*
X156809523Y-121405152D01*
X156809523Y-121405152D02*
X156761904Y-121443247D01*
X156761904Y-121443247D02*
X156666666Y-121481342D01*
X156666666Y-121481342D02*
X156285714Y-121481342D01*
X157809523Y-121862295D02*
X157238095Y-121862295D01*
X157523809Y-121862295D02*
X157523809Y-121062295D01*
X157523809Y-121062295D02*
X157428571Y-121176580D01*
X157428571Y-121176580D02*
X157333333Y-121252771D01*
X157333333Y-121252771D02*
X157238095Y-121290866D01*
X158285714Y-121862295D02*
X158476190Y-121862295D01*
X158476190Y-121862295D02*
X158571428Y-121824200D01*
X158571428Y-121824200D02*
X158619047Y-121786104D01*
X158619047Y-121786104D02*
X158714285Y-121671819D01*
X158714285Y-121671819D02*
X158761904Y-121519438D01*
X158761904Y-121519438D02*
X158761904Y-121214676D01*
X158761904Y-121214676D02*
X158714285Y-121138485D01*
X158714285Y-121138485D02*
X158666666Y-121100390D01*
X158666666Y-121100390D02*
X158571428Y-121062295D01*
X158571428Y-121062295D02*
X158380952Y-121062295D01*
X158380952Y-121062295D02*
X158285714Y-121100390D01*
X158285714Y-121100390D02*
X158238095Y-121138485D01*
X158238095Y-121138485D02*
X158190476Y-121214676D01*
X158190476Y-121214676D02*
X158190476Y-121405152D01*
X158190476Y-121405152D02*
X158238095Y-121481342D01*
X158238095Y-121481342D02*
X158285714Y-121519438D01*
X158285714Y-121519438D02*
X158380952Y-121557533D01*
X158380952Y-121557533D02*
X158571428Y-121557533D01*
X158571428Y-121557533D02*
X158666666Y-121519438D01*
X158666666Y-121519438D02*
X158714285Y-121481342D01*
X158714285Y-121481342D02*
X158761904Y-121405152D01*
X116959142Y-104722819D02*
X116625809Y-104246628D01*
X116387714Y-104722819D02*
X116387714Y-103722819D01*
X116387714Y-103722819D02*
X116768666Y-103722819D01*
X116768666Y-103722819D02*
X116863904Y-103770438D01*
X116863904Y-103770438D02*
X116911523Y-103818057D01*
X116911523Y-103818057D02*
X116959142Y-103913295D01*
X116959142Y-103913295D02*
X116959142Y-104056152D01*
X116959142Y-104056152D02*
X116911523Y-104151390D01*
X116911523Y-104151390D02*
X116863904Y-104199009D01*
X116863904Y-104199009D02*
X116768666Y-104246628D01*
X116768666Y-104246628D02*
X116387714Y-104246628D01*
X117911523Y-104722819D02*
X117340095Y-104722819D01*
X117625809Y-104722819D02*
X117625809Y-103722819D01*
X117625809Y-103722819D02*
X117530571Y-103865676D01*
X117530571Y-103865676D02*
X117435333Y-103960914D01*
X117435333Y-103960914D02*
X117340095Y-104008533D01*
X118816285Y-103722819D02*
X118340095Y-103722819D01*
X118340095Y-103722819D02*
X118292476Y-104199009D01*
X118292476Y-104199009D02*
X118340095Y-104151390D01*
X118340095Y-104151390D02*
X118435333Y-104103771D01*
X118435333Y-104103771D02*
X118673428Y-104103771D01*
X118673428Y-104103771D02*
X118768666Y-104151390D01*
X118768666Y-104151390D02*
X118816285Y-104199009D01*
X118816285Y-104199009D02*
X118863904Y-104294247D01*
X118863904Y-104294247D02*
X118863904Y-104532342D01*
X118863904Y-104532342D02*
X118816285Y-104627580D01*
X118816285Y-104627580D02*
X118768666Y-104675200D01*
X118768666Y-104675200D02*
X118673428Y-104722819D01*
X118673428Y-104722819D02*
X118435333Y-104722819D01*
X118435333Y-104722819D02*
X118340095Y-104675200D01*
X118340095Y-104675200D02*
X118292476Y-104627580D01*
X160028095Y-78448819D02*
X160599523Y-78448819D01*
X160313809Y-79448819D02*
X160313809Y-78448819D01*
X160932857Y-79448819D02*
X160932857Y-78448819D01*
X160932857Y-78448819D02*
X161313809Y-78448819D01*
X161313809Y-78448819D02*
X161409047Y-78496438D01*
X161409047Y-78496438D02*
X161456666Y-78544057D01*
X161456666Y-78544057D02*
X161504285Y-78639295D01*
X161504285Y-78639295D02*
X161504285Y-78782152D01*
X161504285Y-78782152D02*
X161456666Y-78877390D01*
X161456666Y-78877390D02*
X161409047Y-78925009D01*
X161409047Y-78925009D02*
X161313809Y-78972628D01*
X161313809Y-78972628D02*
X160932857Y-78972628D01*
X161837619Y-78448819D02*
X162504285Y-78448819D01*
X162504285Y-78448819D02*
X162075714Y-79448819D01*
X137738095Y-113954819D02*
X137738095Y-114764342D01*
X137738095Y-114764342D02*
X137785714Y-114859580D01*
X137785714Y-114859580D02*
X137833333Y-114907200D01*
X137833333Y-114907200D02*
X137928571Y-114954819D01*
X137928571Y-114954819D02*
X138119047Y-114954819D01*
X138119047Y-114954819D02*
X138214285Y-114907200D01*
X138214285Y-114907200D02*
X138261904Y-114859580D01*
X138261904Y-114859580D02*
X138309523Y-114764342D01*
X138309523Y-114764342D02*
X138309523Y-113954819D01*
X139309523Y-114954819D02*
X138738095Y-114954819D01*
X139023809Y-114954819D02*
X139023809Y-113954819D01*
X139023809Y-113954819D02*
X138928571Y-114097676D01*
X138928571Y-114097676D02*
X138833333Y-114192914D01*
X138833333Y-114192914D02*
X138738095Y-114240533D01*
X123817142Y-128216819D02*
X123483809Y-127740628D01*
X123245714Y-128216819D02*
X123245714Y-127216819D01*
X123245714Y-127216819D02*
X123626666Y-127216819D01*
X123626666Y-127216819D02*
X123721904Y-127264438D01*
X123721904Y-127264438D02*
X123769523Y-127312057D01*
X123769523Y-127312057D02*
X123817142Y-127407295D01*
X123817142Y-127407295D02*
X123817142Y-127550152D01*
X123817142Y-127550152D02*
X123769523Y-127645390D01*
X123769523Y-127645390D02*
X123721904Y-127693009D01*
X123721904Y-127693009D02*
X123626666Y-127740628D01*
X123626666Y-127740628D02*
X123245714Y-127740628D01*
X124769523Y-128216819D02*
X124198095Y-128216819D01*
X124483809Y-128216819D02*
X124483809Y-127216819D01*
X124483809Y-127216819D02*
X124388571Y-127359676D01*
X124388571Y-127359676D02*
X124293333Y-127454914D01*
X124293333Y-127454914D02*
X124198095Y-127502533D01*
X125626666Y-127550152D02*
X125626666Y-128216819D01*
X125388571Y-127169200D02*
X125150476Y-127883485D01*
X125150476Y-127883485D02*
X125769523Y-127883485D01*
X163761905Y-122454819D02*
X164333333Y-122454819D01*
X164047619Y-123454819D02*
X164047619Y-122454819D01*
X164666667Y-123454819D02*
X164666667Y-122454819D01*
X164666667Y-122454819D02*
X165047619Y-122454819D01*
X165047619Y-122454819D02*
X165142857Y-122502438D01*
X165142857Y-122502438D02*
X165190476Y-122550057D01*
X165190476Y-122550057D02*
X165238095Y-122645295D01*
X165238095Y-122645295D02*
X165238095Y-122788152D01*
X165238095Y-122788152D02*
X165190476Y-122883390D01*
X165190476Y-122883390D02*
X165142857Y-122931009D01*
X165142857Y-122931009D02*
X165047619Y-122978628D01*
X165047619Y-122978628D02*
X164666667Y-122978628D01*
X166190476Y-123454819D02*
X165619048Y-123454819D01*
X165904762Y-123454819D02*
X165904762Y-122454819D01*
X165904762Y-122454819D02*
X165809524Y-122597676D01*
X165809524Y-122597676D02*
X165714286Y-122692914D01*
X165714286Y-122692914D02*
X165619048Y-122740533D01*
X167047619Y-122788152D02*
X167047619Y-123454819D01*
X166809524Y-122407200D02*
X166571429Y-123121485D01*
X166571429Y-123121485D02*
X167190476Y-123121485D01*
D13*
X126576667Y-130804318D02*
X126576667Y-131711461D01*
X126576667Y-131711461D02*
X126516190Y-131892889D01*
X126516190Y-131892889D02*
X126395238Y-132013842D01*
X126395238Y-132013842D02*
X126213809Y-132074318D01*
X126213809Y-132074318D02*
X126092857Y-132074318D01*
X127060476Y-130804318D02*
X127907143Y-130804318D01*
X127907143Y-130804318D02*
X127362857Y-132074318D01*
D10*
X145954819Y-128142857D02*
X145478628Y-128476190D01*
X145954819Y-128714285D02*
X144954819Y-128714285D01*
X144954819Y-128714285D02*
X144954819Y-128333333D01*
X144954819Y-128333333D02*
X145002438Y-128238095D01*
X145002438Y-128238095D02*
X145050057Y-128190476D01*
X145050057Y-128190476D02*
X145145295Y-128142857D01*
X145145295Y-128142857D02*
X145288152Y-128142857D01*
X145288152Y-128142857D02*
X145383390Y-128190476D01*
X145383390Y-128190476D02*
X145431009Y-128238095D01*
X145431009Y-128238095D02*
X145478628Y-128333333D01*
X145478628Y-128333333D02*
X145478628Y-128714285D01*
X145050057Y-127761904D02*
X145002438Y-127714285D01*
X145002438Y-127714285D02*
X144954819Y-127619047D01*
X144954819Y-127619047D02*
X144954819Y-127380952D01*
X144954819Y-127380952D02*
X145002438Y-127285714D01*
X145002438Y-127285714D02*
X145050057Y-127238095D01*
X145050057Y-127238095D02*
X145145295Y-127190476D01*
X145145295Y-127190476D02*
X145240533Y-127190476D01*
X145240533Y-127190476D02*
X145383390Y-127238095D01*
X145383390Y-127238095D02*
X145954819Y-127809523D01*
X145954819Y-127809523D02*
X145954819Y-127190476D01*
X144954819Y-126857142D02*
X144954819Y-126238095D01*
X144954819Y-126238095D02*
X145335771Y-126571428D01*
X145335771Y-126571428D02*
X145335771Y-126428571D01*
X145335771Y-126428571D02*
X145383390Y-126333333D01*
X145383390Y-126333333D02*
X145431009Y-126285714D01*
X145431009Y-126285714D02*
X145526247Y-126238095D01*
X145526247Y-126238095D02*
X145764342Y-126238095D01*
X145764342Y-126238095D02*
X145859580Y-126285714D01*
X145859580Y-126285714D02*
X145907200Y-126333333D01*
X145907200Y-126333333D02*
X145954819Y-126428571D01*
X145954819Y-126428571D02*
X145954819Y-126714285D01*
X145954819Y-126714285D02*
X145907200Y-126809523D01*
X145907200Y-126809523D02*
X145859580Y-126857142D01*
X98925142Y-80369580D02*
X98877523Y-80417200D01*
X98877523Y-80417200D02*
X98734666Y-80464819D01*
X98734666Y-80464819D02*
X98639428Y-80464819D01*
X98639428Y-80464819D02*
X98496571Y-80417200D01*
X98496571Y-80417200D02*
X98401333Y-80321961D01*
X98401333Y-80321961D02*
X98353714Y-80226723D01*
X98353714Y-80226723D02*
X98306095Y-80036247D01*
X98306095Y-80036247D02*
X98306095Y-79893390D01*
X98306095Y-79893390D02*
X98353714Y-79702914D01*
X98353714Y-79702914D02*
X98401333Y-79607676D01*
X98401333Y-79607676D02*
X98496571Y-79512438D01*
X98496571Y-79512438D02*
X98639428Y-79464819D01*
X98639428Y-79464819D02*
X98734666Y-79464819D01*
X98734666Y-79464819D02*
X98877523Y-79512438D01*
X98877523Y-79512438D02*
X98925142Y-79560057D01*
X99306095Y-79560057D02*
X99353714Y-79512438D01*
X99353714Y-79512438D02*
X99448952Y-79464819D01*
X99448952Y-79464819D02*
X99687047Y-79464819D01*
X99687047Y-79464819D02*
X99782285Y-79512438D01*
X99782285Y-79512438D02*
X99829904Y-79560057D01*
X99829904Y-79560057D02*
X99877523Y-79655295D01*
X99877523Y-79655295D02*
X99877523Y-79750533D01*
X99877523Y-79750533D02*
X99829904Y-79893390D01*
X99829904Y-79893390D02*
X99258476Y-80464819D01*
X99258476Y-80464819D02*
X99877523Y-80464819D01*
X100496571Y-79464819D02*
X100591809Y-79464819D01*
X100591809Y-79464819D02*
X100687047Y-79512438D01*
X100687047Y-79512438D02*
X100734666Y-79560057D01*
X100734666Y-79560057D02*
X100782285Y-79655295D01*
X100782285Y-79655295D02*
X100829904Y-79845771D01*
X100829904Y-79845771D02*
X100829904Y-80083866D01*
X100829904Y-80083866D02*
X100782285Y-80274342D01*
X100782285Y-80274342D02*
X100734666Y-80369580D01*
X100734666Y-80369580D02*
X100687047Y-80417200D01*
X100687047Y-80417200D02*
X100591809Y-80464819D01*
X100591809Y-80464819D02*
X100496571Y-80464819D01*
X100496571Y-80464819D02*
X100401333Y-80417200D01*
X100401333Y-80417200D02*
X100353714Y-80369580D01*
X100353714Y-80369580D02*
X100306095Y-80274342D01*
X100306095Y-80274342D02*
X100258476Y-80083866D01*
X100258476Y-80083866D02*
X100258476Y-79845771D01*
X100258476Y-79845771D02*
X100306095Y-79655295D01*
X100306095Y-79655295D02*
X100353714Y-79560057D01*
X100353714Y-79560057D02*
X100401333Y-79512438D01*
X100401333Y-79512438D02*
X100496571Y-79464819D01*
D13*
X150895238Y-112469556D02*
X150895238Y-113074318D01*
X150471905Y-111804318D02*
X150895238Y-112469556D01*
X150895238Y-112469556D02*
X151318572Y-111804318D01*
X152407143Y-113074318D02*
X151681428Y-113074318D01*
X152044285Y-113074318D02*
X152044285Y-111804318D01*
X152044285Y-111804318D02*
X151923333Y-111985746D01*
X151923333Y-111985746D02*
X151802381Y-112106699D01*
X151802381Y-112106699D02*
X151681428Y-112167175D01*
D10*
X160615333Y-112627580D02*
X160567714Y-112675200D01*
X160567714Y-112675200D02*
X160424857Y-112722819D01*
X160424857Y-112722819D02*
X160329619Y-112722819D01*
X160329619Y-112722819D02*
X160186762Y-112675200D01*
X160186762Y-112675200D02*
X160091524Y-112579961D01*
X160091524Y-112579961D02*
X160043905Y-112484723D01*
X160043905Y-112484723D02*
X159996286Y-112294247D01*
X159996286Y-112294247D02*
X159996286Y-112151390D01*
X159996286Y-112151390D02*
X160043905Y-111960914D01*
X160043905Y-111960914D02*
X160091524Y-111865676D01*
X160091524Y-111865676D02*
X160186762Y-111770438D01*
X160186762Y-111770438D02*
X160329619Y-111722819D01*
X160329619Y-111722819D02*
X160424857Y-111722819D01*
X160424857Y-111722819D02*
X160567714Y-111770438D01*
X160567714Y-111770438D02*
X160615333Y-111818057D01*
X161520095Y-111722819D02*
X161043905Y-111722819D01*
X161043905Y-111722819D02*
X160996286Y-112199009D01*
X160996286Y-112199009D02*
X161043905Y-112151390D01*
X161043905Y-112151390D02*
X161139143Y-112103771D01*
X161139143Y-112103771D02*
X161377238Y-112103771D01*
X161377238Y-112103771D02*
X161472476Y-112151390D01*
X161472476Y-112151390D02*
X161520095Y-112199009D01*
X161520095Y-112199009D02*
X161567714Y-112294247D01*
X161567714Y-112294247D02*
X161567714Y-112532342D01*
X161567714Y-112532342D02*
X161520095Y-112627580D01*
X161520095Y-112627580D02*
X161472476Y-112675200D01*
X161472476Y-112675200D02*
X161377238Y-112722819D01*
X161377238Y-112722819D02*
X161139143Y-112722819D01*
X161139143Y-112722819D02*
X161043905Y-112675200D01*
X161043905Y-112675200D02*
X160996286Y-112627580D01*
X154440095Y-98006819D02*
X155011523Y-98006819D01*
X154725809Y-99006819D02*
X154725809Y-98006819D01*
X155344857Y-99006819D02*
X155344857Y-98006819D01*
X155344857Y-98006819D02*
X155725809Y-98006819D01*
X155725809Y-98006819D02*
X155821047Y-98054438D01*
X155821047Y-98054438D02*
X155868666Y-98102057D01*
X155868666Y-98102057D02*
X155916285Y-98197295D01*
X155916285Y-98197295D02*
X155916285Y-98340152D01*
X155916285Y-98340152D02*
X155868666Y-98435390D01*
X155868666Y-98435390D02*
X155821047Y-98483009D01*
X155821047Y-98483009D02*
X155725809Y-98530628D01*
X155725809Y-98530628D02*
X155344857Y-98530628D01*
X156249619Y-98006819D02*
X156868666Y-98006819D01*
X156868666Y-98006819D02*
X156535333Y-98387771D01*
X156535333Y-98387771D02*
X156678190Y-98387771D01*
X156678190Y-98387771D02*
X156773428Y-98435390D01*
X156773428Y-98435390D02*
X156821047Y-98483009D01*
X156821047Y-98483009D02*
X156868666Y-98578247D01*
X156868666Y-98578247D02*
X156868666Y-98816342D01*
X156868666Y-98816342D02*
X156821047Y-98911580D01*
X156821047Y-98911580D02*
X156773428Y-98959200D01*
X156773428Y-98959200D02*
X156678190Y-99006819D01*
X156678190Y-99006819D02*
X156392476Y-99006819D01*
X156392476Y-99006819D02*
X156297238Y-98959200D01*
X156297238Y-98959200D02*
X156249619Y-98911580D01*
D13*
X127760237Y-81074318D02*
X127760237Y-79804318D01*
X129090714Y-80953365D02*
X129030238Y-81013842D01*
X129030238Y-81013842D02*
X128848809Y-81074318D01*
X128848809Y-81074318D02*
X128727857Y-81074318D01*
X128727857Y-81074318D02*
X128546428Y-81013842D01*
X128546428Y-81013842D02*
X128425476Y-80892889D01*
X128425476Y-80892889D02*
X128364999Y-80771937D01*
X128364999Y-80771937D02*
X128304523Y-80530032D01*
X128304523Y-80530032D02*
X128304523Y-80348603D01*
X128304523Y-80348603D02*
X128364999Y-80106699D01*
X128364999Y-80106699D02*
X128425476Y-79985746D01*
X128425476Y-79985746D02*
X128546428Y-79864794D01*
X128546428Y-79864794D02*
X128727857Y-79804318D01*
X128727857Y-79804318D02*
X128848809Y-79804318D01*
X128848809Y-79804318D02*
X129030238Y-79864794D01*
X129030238Y-79864794D02*
X129090714Y-79925270D01*
X130300238Y-81074318D02*
X129574523Y-81074318D01*
X129937380Y-81074318D02*
X129937380Y-79804318D01*
X129937380Y-79804318D02*
X129816428Y-79985746D01*
X129816428Y-79985746D02*
X129695476Y-80106699D01*
X129695476Y-80106699D02*
X129574523Y-80167175D01*
D10*
X146058095Y-78702819D02*
X146629523Y-78702819D01*
X146343809Y-79702819D02*
X146343809Y-78702819D01*
X146962857Y-79702819D02*
X146962857Y-78702819D01*
X146962857Y-78702819D02*
X147343809Y-78702819D01*
X147343809Y-78702819D02*
X147439047Y-78750438D01*
X147439047Y-78750438D02*
X147486666Y-78798057D01*
X147486666Y-78798057D02*
X147534285Y-78893295D01*
X147534285Y-78893295D02*
X147534285Y-79036152D01*
X147534285Y-79036152D02*
X147486666Y-79131390D01*
X147486666Y-79131390D02*
X147439047Y-79179009D01*
X147439047Y-79179009D02*
X147343809Y-79226628D01*
X147343809Y-79226628D02*
X146962857Y-79226628D01*
X148391428Y-78702819D02*
X148200952Y-78702819D01*
X148200952Y-78702819D02*
X148105714Y-78750438D01*
X148105714Y-78750438D02*
X148058095Y-78798057D01*
X148058095Y-78798057D02*
X147962857Y-78940914D01*
X147962857Y-78940914D02*
X147915238Y-79131390D01*
X147915238Y-79131390D02*
X147915238Y-79512342D01*
X147915238Y-79512342D02*
X147962857Y-79607580D01*
X147962857Y-79607580D02*
X148010476Y-79655200D01*
X148010476Y-79655200D02*
X148105714Y-79702819D01*
X148105714Y-79702819D02*
X148296190Y-79702819D01*
X148296190Y-79702819D02*
X148391428Y-79655200D01*
X148391428Y-79655200D02*
X148439047Y-79607580D01*
X148439047Y-79607580D02*
X148486666Y-79512342D01*
X148486666Y-79512342D02*
X148486666Y-79274247D01*
X148486666Y-79274247D02*
X148439047Y-79179009D01*
X148439047Y-79179009D02*
X148391428Y-79131390D01*
X148391428Y-79131390D02*
X148296190Y-79083771D01*
X148296190Y-79083771D02*
X148105714Y-79083771D01*
X148105714Y-79083771D02*
X148010476Y-79131390D01*
X148010476Y-79131390D02*
X147962857Y-79179009D01*
X147962857Y-79179009D02*
X147915238Y-79274247D01*
X130799693Y-102208830D02*
X130799693Y-102276174D01*
X130799693Y-102276174D02*
X130732349Y-102410861D01*
X130732349Y-102410861D02*
X130665006Y-102478204D01*
X130665006Y-102478204D02*
X130530319Y-102545548D01*
X130530319Y-102545548D02*
X130395632Y-102545548D01*
X130395632Y-102545548D02*
X130294617Y-102511876D01*
X130294617Y-102511876D02*
X130126258Y-102410861D01*
X130126258Y-102410861D02*
X130025243Y-102309846D01*
X130025243Y-102309846D02*
X129924227Y-102141487D01*
X129924227Y-102141487D02*
X129890556Y-102040472D01*
X129890556Y-102040472D02*
X129890556Y-101905785D01*
X129890556Y-101905785D02*
X129957899Y-101771098D01*
X129957899Y-101771098D02*
X130025243Y-101703754D01*
X130025243Y-101703754D02*
X130159930Y-101636411D01*
X130159930Y-101636411D02*
X130227273Y-101636411D01*
X131540471Y-101602739D02*
X131136410Y-102006800D01*
X131338441Y-101804769D02*
X130631334Y-101097663D01*
X130631334Y-101097663D02*
X130665006Y-101266021D01*
X130665006Y-101266021D02*
X130665006Y-101400708D01*
X130665006Y-101400708D02*
X130631334Y-101501724D01*
X131069067Y-100659930D02*
X131540472Y-100188525D01*
X131540472Y-100188525D02*
X131944533Y-101198678D01*
X151485714Y-121954819D02*
X151219047Y-121478628D01*
X151028571Y-121954819D02*
X151028571Y-120954819D01*
X151028571Y-120954819D02*
X151333333Y-120954819D01*
X151333333Y-120954819D02*
X151409523Y-121002438D01*
X151409523Y-121002438D02*
X151447618Y-121050057D01*
X151447618Y-121050057D02*
X151485714Y-121145295D01*
X151485714Y-121145295D02*
X151485714Y-121288152D01*
X151485714Y-121288152D02*
X151447618Y-121383390D01*
X151447618Y-121383390D02*
X151409523Y-121431009D01*
X151409523Y-121431009D02*
X151333333Y-121478628D01*
X151333333Y-121478628D02*
X151028571Y-121478628D01*
X151790475Y-121050057D02*
X151828571Y-121002438D01*
X151828571Y-121002438D02*
X151904761Y-120954819D01*
X151904761Y-120954819D02*
X152095237Y-120954819D01*
X152095237Y-120954819D02*
X152171428Y-121002438D01*
X152171428Y-121002438D02*
X152209523Y-121050057D01*
X152209523Y-121050057D02*
X152247618Y-121145295D01*
X152247618Y-121145295D02*
X152247618Y-121240533D01*
X152247618Y-121240533D02*
X152209523Y-121383390D01*
X152209523Y-121383390D02*
X151752380Y-121954819D01*
X151752380Y-121954819D02*
X152247618Y-121954819D01*
X153009523Y-121954819D02*
X152552380Y-121954819D01*
X152780952Y-121954819D02*
X152780952Y-120954819D01*
X152780952Y-120954819D02*
X152704761Y-121097676D01*
X152704761Y-121097676D02*
X152628571Y-121192914D01*
X152628571Y-121192914D02*
X152552380Y-121240533D01*
X120769142Y-105610819D02*
X120435809Y-105134628D01*
X120197714Y-105610819D02*
X120197714Y-104610819D01*
X120197714Y-104610819D02*
X120578666Y-104610819D01*
X120578666Y-104610819D02*
X120673904Y-104658438D01*
X120673904Y-104658438D02*
X120721523Y-104706057D01*
X120721523Y-104706057D02*
X120769142Y-104801295D01*
X120769142Y-104801295D02*
X120769142Y-104944152D01*
X120769142Y-104944152D02*
X120721523Y-105039390D01*
X120721523Y-105039390D02*
X120673904Y-105087009D01*
X120673904Y-105087009D02*
X120578666Y-105134628D01*
X120578666Y-105134628D02*
X120197714Y-105134628D01*
X121721523Y-105610819D02*
X121150095Y-105610819D01*
X121435809Y-105610819D02*
X121435809Y-104610819D01*
X121435809Y-104610819D02*
X121340571Y-104753676D01*
X121340571Y-104753676D02*
X121245333Y-104848914D01*
X121245333Y-104848914D02*
X121150095Y-104896533D01*
X122578666Y-104610819D02*
X122388190Y-104610819D01*
X122388190Y-104610819D02*
X122292952Y-104658438D01*
X122292952Y-104658438D02*
X122245333Y-104706057D01*
X122245333Y-104706057D02*
X122150095Y-104848914D01*
X122150095Y-104848914D02*
X122102476Y-105039390D01*
X122102476Y-105039390D02*
X122102476Y-105420342D01*
X122102476Y-105420342D02*
X122150095Y-105515580D01*
X122150095Y-105515580D02*
X122197714Y-105563200D01*
X122197714Y-105563200D02*
X122292952Y-105610819D01*
X122292952Y-105610819D02*
X122483428Y-105610819D01*
X122483428Y-105610819D02*
X122578666Y-105563200D01*
X122578666Y-105563200D02*
X122626285Y-105515580D01*
X122626285Y-105515580D02*
X122673904Y-105420342D01*
X122673904Y-105420342D02*
X122673904Y-105182247D01*
X122673904Y-105182247D02*
X122626285Y-105087009D01*
X122626285Y-105087009D02*
X122578666Y-105039390D01*
X122578666Y-105039390D02*
X122483428Y-104991771D01*
X122483428Y-104991771D02*
X122292952Y-104991771D01*
X122292952Y-104991771D02*
X122197714Y-105039390D01*
X122197714Y-105039390D02*
X122150095Y-105087009D01*
X122150095Y-105087009D02*
X122102476Y-105182247D01*
X106333333Y-131359580D02*
X106285714Y-131407200D01*
X106285714Y-131407200D02*
X106142857Y-131454819D01*
X106142857Y-131454819D02*
X106047619Y-131454819D01*
X106047619Y-131454819D02*
X105904762Y-131407200D01*
X105904762Y-131407200D02*
X105809524Y-131311961D01*
X105809524Y-131311961D02*
X105761905Y-131216723D01*
X105761905Y-131216723D02*
X105714286Y-131026247D01*
X105714286Y-131026247D02*
X105714286Y-130883390D01*
X105714286Y-130883390D02*
X105761905Y-130692914D01*
X105761905Y-130692914D02*
X105809524Y-130597676D01*
X105809524Y-130597676D02*
X105904762Y-130502438D01*
X105904762Y-130502438D02*
X106047619Y-130454819D01*
X106047619Y-130454819D02*
X106142857Y-130454819D01*
X106142857Y-130454819D02*
X106285714Y-130502438D01*
X106285714Y-130502438D02*
X106333333Y-130550057D01*
X107190476Y-130454819D02*
X107000000Y-130454819D01*
X107000000Y-130454819D02*
X106904762Y-130502438D01*
X106904762Y-130502438D02*
X106857143Y-130550057D01*
X106857143Y-130550057D02*
X106761905Y-130692914D01*
X106761905Y-130692914D02*
X106714286Y-130883390D01*
X106714286Y-130883390D02*
X106714286Y-131264342D01*
X106714286Y-131264342D02*
X106761905Y-131359580D01*
X106761905Y-131359580D02*
X106809524Y-131407200D01*
X106809524Y-131407200D02*
X106904762Y-131454819D01*
X106904762Y-131454819D02*
X107095238Y-131454819D01*
X107095238Y-131454819D02*
X107190476Y-131407200D01*
X107190476Y-131407200D02*
X107238095Y-131359580D01*
X107238095Y-131359580D02*
X107285714Y-131264342D01*
X107285714Y-131264342D02*
X107285714Y-131026247D01*
X107285714Y-131026247D02*
X107238095Y-130931009D01*
X107238095Y-130931009D02*
X107190476Y-130883390D01*
X107190476Y-130883390D02*
X107095238Y-130835771D01*
X107095238Y-130835771D02*
X106904762Y-130835771D01*
X106904762Y-130835771D02*
X106809524Y-130883390D01*
X106809524Y-130883390D02*
X106761905Y-130931009D01*
X106761905Y-130931009D02*
X106714286Y-131026247D01*
D13*
X141260237Y-81074318D02*
X141260237Y-79804318D01*
X142590714Y-80953365D02*
X142530238Y-81013842D01*
X142530238Y-81013842D02*
X142348809Y-81074318D01*
X142348809Y-81074318D02*
X142227857Y-81074318D01*
X142227857Y-81074318D02*
X142046428Y-81013842D01*
X142046428Y-81013842D02*
X141925476Y-80892889D01*
X141925476Y-80892889D02*
X141864999Y-80771937D01*
X141864999Y-80771937D02*
X141804523Y-80530032D01*
X141804523Y-80530032D02*
X141804523Y-80348603D01*
X141804523Y-80348603D02*
X141864999Y-80106699D01*
X141864999Y-80106699D02*
X141925476Y-79985746D01*
X141925476Y-79985746D02*
X142046428Y-79864794D01*
X142046428Y-79864794D02*
X142227857Y-79804318D01*
X142227857Y-79804318D02*
X142348809Y-79804318D01*
X142348809Y-79804318D02*
X142530238Y-79864794D01*
X142530238Y-79864794D02*
X142590714Y-79925270D01*
X143074523Y-79925270D02*
X143134999Y-79864794D01*
X143134999Y-79864794D02*
X143255952Y-79804318D01*
X143255952Y-79804318D02*
X143558333Y-79804318D01*
X143558333Y-79804318D02*
X143679285Y-79864794D01*
X143679285Y-79864794D02*
X143739761Y-79925270D01*
X143739761Y-79925270D02*
X143800238Y-80046222D01*
X143800238Y-80046222D02*
X143800238Y-80167175D01*
X143800238Y-80167175D02*
X143739761Y-80348603D01*
X143739761Y-80348603D02*
X143014047Y-81074318D01*
X143014047Y-81074318D02*
X143800238Y-81074318D01*
X105186237Y-106238318D02*
X105186237Y-104968318D01*
X106516714Y-106117365D02*
X106456238Y-106177842D01*
X106456238Y-106177842D02*
X106274809Y-106238318D01*
X106274809Y-106238318D02*
X106153857Y-106238318D01*
X106153857Y-106238318D02*
X105972428Y-106177842D01*
X105972428Y-106177842D02*
X105851476Y-106056889D01*
X105851476Y-106056889D02*
X105790999Y-105935937D01*
X105790999Y-105935937D02*
X105730523Y-105694032D01*
X105730523Y-105694032D02*
X105730523Y-105512603D01*
X105730523Y-105512603D02*
X105790999Y-105270699D01*
X105790999Y-105270699D02*
X105851476Y-105149746D01*
X105851476Y-105149746D02*
X105972428Y-105028794D01*
X105972428Y-105028794D02*
X106153857Y-104968318D01*
X106153857Y-104968318D02*
X106274809Y-104968318D01*
X106274809Y-104968318D02*
X106456238Y-105028794D01*
X106456238Y-105028794D02*
X106516714Y-105089270D01*
X107605285Y-104968318D02*
X107363380Y-104968318D01*
X107363380Y-104968318D02*
X107242428Y-105028794D01*
X107242428Y-105028794D02*
X107181952Y-105089270D01*
X107181952Y-105089270D02*
X107060999Y-105270699D01*
X107060999Y-105270699D02*
X107000523Y-105512603D01*
X107000523Y-105512603D02*
X107000523Y-105996413D01*
X107000523Y-105996413D02*
X107060999Y-106117365D01*
X107060999Y-106117365D02*
X107121476Y-106177842D01*
X107121476Y-106177842D02*
X107242428Y-106238318D01*
X107242428Y-106238318D02*
X107484333Y-106238318D01*
X107484333Y-106238318D02*
X107605285Y-106177842D01*
X107605285Y-106177842D02*
X107665761Y-106117365D01*
X107665761Y-106117365D02*
X107726238Y-105996413D01*
X107726238Y-105996413D02*
X107726238Y-105694032D01*
X107726238Y-105694032D02*
X107665761Y-105573080D01*
X107665761Y-105573080D02*
X107605285Y-105512603D01*
X107605285Y-105512603D02*
X107484333Y-105452127D01*
X107484333Y-105452127D02*
X107242428Y-105452127D01*
X107242428Y-105452127D02*
X107121476Y-105512603D01*
X107121476Y-105512603D02*
X107060999Y-105573080D01*
X107060999Y-105573080D02*
X107000523Y-105694032D01*
D10*
X161454819Y-124514285D02*
X160978628Y-124780952D01*
X161454819Y-124971428D02*
X160454819Y-124971428D01*
X160454819Y-124971428D02*
X160454819Y-124666666D01*
X160454819Y-124666666D02*
X160502438Y-124590476D01*
X160502438Y-124590476D02*
X160550057Y-124552381D01*
X160550057Y-124552381D02*
X160645295Y-124514285D01*
X160645295Y-124514285D02*
X160788152Y-124514285D01*
X160788152Y-124514285D02*
X160883390Y-124552381D01*
X160883390Y-124552381D02*
X160931009Y-124590476D01*
X160931009Y-124590476D02*
X160978628Y-124666666D01*
X160978628Y-124666666D02*
X160978628Y-124971428D01*
X161454819Y-123752381D02*
X161454819Y-124209524D01*
X161454819Y-123980952D02*
X160454819Y-123980952D01*
X160454819Y-123980952D02*
X160597676Y-124057143D01*
X160597676Y-124057143D02*
X160692914Y-124133333D01*
X160692914Y-124133333D02*
X160740533Y-124209524D01*
X160883390Y-123295238D02*
X160835771Y-123371428D01*
X160835771Y-123371428D02*
X160788152Y-123409523D01*
X160788152Y-123409523D02*
X160692914Y-123447619D01*
X160692914Y-123447619D02*
X160645295Y-123447619D01*
X160645295Y-123447619D02*
X160550057Y-123409523D01*
X160550057Y-123409523D02*
X160502438Y-123371428D01*
X160502438Y-123371428D02*
X160454819Y-123295238D01*
X160454819Y-123295238D02*
X160454819Y-123142857D01*
X160454819Y-123142857D02*
X160502438Y-123066666D01*
X160502438Y-123066666D02*
X160550057Y-123028571D01*
X160550057Y-123028571D02*
X160645295Y-122990476D01*
X160645295Y-122990476D02*
X160692914Y-122990476D01*
X160692914Y-122990476D02*
X160788152Y-123028571D01*
X160788152Y-123028571D02*
X160835771Y-123066666D01*
X160835771Y-123066666D02*
X160883390Y-123142857D01*
X160883390Y-123142857D02*
X160883390Y-123295238D01*
X160883390Y-123295238D02*
X160931009Y-123371428D01*
X160931009Y-123371428D02*
X160978628Y-123409523D01*
X160978628Y-123409523D02*
X161073866Y-123447619D01*
X161073866Y-123447619D02*
X161264342Y-123447619D01*
X161264342Y-123447619D02*
X161359580Y-123409523D01*
X161359580Y-123409523D02*
X161407200Y-123371428D01*
X161407200Y-123371428D02*
X161454819Y-123295238D01*
X161454819Y-123295238D02*
X161454819Y-123142857D01*
X161454819Y-123142857D02*
X161407200Y-123066666D01*
X161407200Y-123066666D02*
X161359580Y-123028571D01*
X161359580Y-123028571D02*
X161264342Y-122990476D01*
X161264342Y-122990476D02*
X161073866Y-122990476D01*
X161073866Y-122990476D02*
X160978628Y-123028571D01*
X160978628Y-123028571D02*
X160931009Y-123066666D01*
X160931009Y-123066666D02*
X160883390Y-123142857D01*
X174506095Y-81750819D02*
X175077523Y-81750819D01*
X174791809Y-82750819D02*
X174791809Y-81750819D01*
X175410857Y-82750819D02*
X175410857Y-81750819D01*
X175410857Y-81750819D02*
X175791809Y-81750819D01*
X175791809Y-81750819D02*
X175887047Y-81798438D01*
X175887047Y-81798438D02*
X175934666Y-81846057D01*
X175934666Y-81846057D02*
X175982285Y-81941295D01*
X175982285Y-81941295D02*
X175982285Y-82084152D01*
X175982285Y-82084152D02*
X175934666Y-82179390D01*
X175934666Y-82179390D02*
X175887047Y-82227009D01*
X175887047Y-82227009D02*
X175791809Y-82274628D01*
X175791809Y-82274628D02*
X175410857Y-82274628D01*
X176553714Y-82179390D02*
X176458476Y-82131771D01*
X176458476Y-82131771D02*
X176410857Y-82084152D01*
X176410857Y-82084152D02*
X176363238Y-81988914D01*
X176363238Y-81988914D02*
X176363238Y-81941295D01*
X176363238Y-81941295D02*
X176410857Y-81846057D01*
X176410857Y-81846057D02*
X176458476Y-81798438D01*
X176458476Y-81798438D02*
X176553714Y-81750819D01*
X176553714Y-81750819D02*
X176744190Y-81750819D01*
X176744190Y-81750819D02*
X176839428Y-81798438D01*
X176839428Y-81798438D02*
X176887047Y-81846057D01*
X176887047Y-81846057D02*
X176934666Y-81941295D01*
X176934666Y-81941295D02*
X176934666Y-81988914D01*
X176934666Y-81988914D02*
X176887047Y-82084152D01*
X176887047Y-82084152D02*
X176839428Y-82131771D01*
X176839428Y-82131771D02*
X176744190Y-82179390D01*
X176744190Y-82179390D02*
X176553714Y-82179390D01*
X176553714Y-82179390D02*
X176458476Y-82227009D01*
X176458476Y-82227009D02*
X176410857Y-82274628D01*
X176410857Y-82274628D02*
X176363238Y-82369866D01*
X176363238Y-82369866D02*
X176363238Y-82560342D01*
X176363238Y-82560342D02*
X176410857Y-82655580D01*
X176410857Y-82655580D02*
X176458476Y-82703200D01*
X176458476Y-82703200D02*
X176553714Y-82750819D01*
X176553714Y-82750819D02*
X176744190Y-82750819D01*
X176744190Y-82750819D02*
X176839428Y-82703200D01*
X176839428Y-82703200D02*
X176887047Y-82655580D01*
X176887047Y-82655580D02*
X176934666Y-82560342D01*
X176934666Y-82560342D02*
X176934666Y-82369866D01*
X176934666Y-82369866D02*
X176887047Y-82274628D01*
X176887047Y-82274628D02*
X176839428Y-82227009D01*
X176839428Y-82227009D02*
X176744190Y-82179390D01*
D13*
X98576667Y-112304318D02*
X98576667Y-113211461D01*
X98576667Y-113211461D02*
X98516190Y-113392889D01*
X98516190Y-113392889D02*
X98395238Y-113513842D01*
X98395238Y-113513842D02*
X98213809Y-113574318D01*
X98213809Y-113574318D02*
X98092857Y-113574318D01*
X99120952Y-112425270D02*
X99181428Y-112364794D01*
X99181428Y-112364794D02*
X99302381Y-112304318D01*
X99302381Y-112304318D02*
X99604762Y-112304318D01*
X99604762Y-112304318D02*
X99725714Y-112364794D01*
X99725714Y-112364794D02*
X99786190Y-112425270D01*
X99786190Y-112425270D02*
X99846667Y-112546222D01*
X99846667Y-112546222D02*
X99846667Y-112667175D01*
X99846667Y-112667175D02*
X99786190Y-112848603D01*
X99786190Y-112848603D02*
X99060476Y-113574318D01*
X99060476Y-113574318D02*
X99846667Y-113574318D01*
D10*
X184357142Y-121359580D02*
X184309523Y-121407200D01*
X184309523Y-121407200D02*
X184166666Y-121454819D01*
X184166666Y-121454819D02*
X184071428Y-121454819D01*
X184071428Y-121454819D02*
X183928571Y-121407200D01*
X183928571Y-121407200D02*
X183833333Y-121311961D01*
X183833333Y-121311961D02*
X183785714Y-121216723D01*
X183785714Y-121216723D02*
X183738095Y-121026247D01*
X183738095Y-121026247D02*
X183738095Y-120883390D01*
X183738095Y-120883390D02*
X183785714Y-120692914D01*
X183785714Y-120692914D02*
X183833333Y-120597676D01*
X183833333Y-120597676D02*
X183928571Y-120502438D01*
X183928571Y-120502438D02*
X184071428Y-120454819D01*
X184071428Y-120454819D02*
X184166666Y-120454819D01*
X184166666Y-120454819D02*
X184309523Y-120502438D01*
X184309523Y-120502438D02*
X184357142Y-120550057D01*
X185309523Y-121454819D02*
X184738095Y-121454819D01*
X185023809Y-121454819D02*
X185023809Y-120454819D01*
X185023809Y-120454819D02*
X184928571Y-120597676D01*
X184928571Y-120597676D02*
X184833333Y-120692914D01*
X184833333Y-120692914D02*
X184738095Y-120740533D01*
X185690476Y-120550057D02*
X185738095Y-120502438D01*
X185738095Y-120502438D02*
X185833333Y-120454819D01*
X185833333Y-120454819D02*
X186071428Y-120454819D01*
X186071428Y-120454819D02*
X186166666Y-120502438D01*
X186166666Y-120502438D02*
X186214285Y-120550057D01*
X186214285Y-120550057D02*
X186261904Y-120645295D01*
X186261904Y-120645295D02*
X186261904Y-120740533D01*
X186261904Y-120740533D02*
X186214285Y-120883390D01*
X186214285Y-120883390D02*
X185642857Y-121454819D01*
X185642857Y-121454819D02*
X186261904Y-121454819D01*
D13*
X181076667Y-86680318D02*
X181076667Y-87587461D01*
X181076667Y-87587461D02*
X181016190Y-87768889D01*
X181016190Y-87768889D02*
X180895238Y-87889842D01*
X180895238Y-87889842D02*
X180713809Y-87950318D01*
X180713809Y-87950318D02*
X180592857Y-87950318D01*
X182225714Y-87103651D02*
X182225714Y-87950318D01*
X181923333Y-86619842D02*
X181620952Y-87526984D01*
X181620952Y-87526984D02*
X182407143Y-87526984D01*
X168260237Y-81074318D02*
X168260237Y-79804318D01*
X169590714Y-80953365D02*
X169530238Y-81013842D01*
X169530238Y-81013842D02*
X169348809Y-81074318D01*
X169348809Y-81074318D02*
X169227857Y-81074318D01*
X169227857Y-81074318D02*
X169046428Y-81013842D01*
X169046428Y-81013842D02*
X168925476Y-80892889D01*
X168925476Y-80892889D02*
X168864999Y-80771937D01*
X168864999Y-80771937D02*
X168804523Y-80530032D01*
X168804523Y-80530032D02*
X168804523Y-80348603D01*
X168804523Y-80348603D02*
X168864999Y-80106699D01*
X168864999Y-80106699D02*
X168925476Y-79985746D01*
X168925476Y-79985746D02*
X169046428Y-79864794D01*
X169046428Y-79864794D02*
X169227857Y-79804318D01*
X169227857Y-79804318D02*
X169348809Y-79804318D01*
X169348809Y-79804318D02*
X169530238Y-79864794D01*
X169530238Y-79864794D02*
X169590714Y-79925270D01*
X170679285Y-80227651D02*
X170679285Y-81074318D01*
X170376904Y-79743842D02*
X170074523Y-80650984D01*
X170074523Y-80650984D02*
X170860714Y-80650984D01*
D10*
X123483905Y-77686819D02*
X124055333Y-77686819D01*
X123769619Y-78686819D02*
X123769619Y-77686819D01*
X124388667Y-78686819D02*
X124388667Y-77686819D01*
X124388667Y-77686819D02*
X124769619Y-77686819D01*
X124769619Y-77686819D02*
X124864857Y-77734438D01*
X124864857Y-77734438D02*
X124912476Y-77782057D01*
X124912476Y-77782057D02*
X124960095Y-77877295D01*
X124960095Y-77877295D02*
X124960095Y-78020152D01*
X124960095Y-78020152D02*
X124912476Y-78115390D01*
X124912476Y-78115390D02*
X124864857Y-78163009D01*
X124864857Y-78163009D02*
X124769619Y-78210628D01*
X124769619Y-78210628D02*
X124388667Y-78210628D01*
X125912476Y-78686819D02*
X125341048Y-78686819D01*
X125626762Y-78686819D02*
X125626762Y-77686819D01*
X125626762Y-77686819D02*
X125531524Y-77829676D01*
X125531524Y-77829676D02*
X125436286Y-77924914D01*
X125436286Y-77924914D02*
X125341048Y-77972533D01*
X126293429Y-77782057D02*
X126341048Y-77734438D01*
X126341048Y-77734438D02*
X126436286Y-77686819D01*
X126436286Y-77686819D02*
X126674381Y-77686819D01*
X126674381Y-77686819D02*
X126769619Y-77734438D01*
X126769619Y-77734438D02*
X126817238Y-77782057D01*
X126817238Y-77782057D02*
X126864857Y-77877295D01*
X126864857Y-77877295D02*
X126864857Y-77972533D01*
X126864857Y-77972533D02*
X126817238Y-78115390D01*
X126817238Y-78115390D02*
X126245810Y-78686819D01*
X126245810Y-78686819D02*
X126864857Y-78686819D01*
X105433905Y-96720819D02*
X105433905Y-95720819D01*
X105433905Y-95720819D02*
X105672000Y-95720819D01*
X105672000Y-95720819D02*
X105814857Y-95768438D01*
X105814857Y-95768438D02*
X105910095Y-95863676D01*
X105910095Y-95863676D02*
X105957714Y-95958914D01*
X105957714Y-95958914D02*
X106005333Y-96149390D01*
X106005333Y-96149390D02*
X106005333Y-96292247D01*
X106005333Y-96292247D02*
X105957714Y-96482723D01*
X105957714Y-96482723D02*
X105910095Y-96577961D01*
X105910095Y-96577961D02*
X105814857Y-96673200D01*
X105814857Y-96673200D02*
X105672000Y-96720819D01*
X105672000Y-96720819D02*
X105433905Y-96720819D01*
X106862476Y-96054152D02*
X106862476Y-96720819D01*
X106624381Y-95673200D02*
X106386286Y-96387485D01*
X106386286Y-96387485D02*
X107005333Y-96387485D01*
X158329333Y-109674819D02*
X157996000Y-109198628D01*
X157757905Y-109674819D02*
X157757905Y-108674819D01*
X157757905Y-108674819D02*
X158138857Y-108674819D01*
X158138857Y-108674819D02*
X158234095Y-108722438D01*
X158234095Y-108722438D02*
X158281714Y-108770057D01*
X158281714Y-108770057D02*
X158329333Y-108865295D01*
X158329333Y-108865295D02*
X158329333Y-109008152D01*
X158329333Y-109008152D02*
X158281714Y-109103390D01*
X158281714Y-109103390D02*
X158234095Y-109151009D01*
X158234095Y-109151009D02*
X158138857Y-109198628D01*
X158138857Y-109198628D02*
X157757905Y-109198628D01*
X158662667Y-108674819D02*
X159281714Y-108674819D01*
X159281714Y-108674819D02*
X158948381Y-109055771D01*
X158948381Y-109055771D02*
X159091238Y-109055771D01*
X159091238Y-109055771D02*
X159186476Y-109103390D01*
X159186476Y-109103390D02*
X159234095Y-109151009D01*
X159234095Y-109151009D02*
X159281714Y-109246247D01*
X159281714Y-109246247D02*
X159281714Y-109484342D01*
X159281714Y-109484342D02*
X159234095Y-109579580D01*
X159234095Y-109579580D02*
X159186476Y-109627200D01*
X159186476Y-109627200D02*
X159091238Y-109674819D01*
X159091238Y-109674819D02*
X158805524Y-109674819D01*
X158805524Y-109674819D02*
X158710286Y-109627200D01*
X158710286Y-109627200D02*
X158662667Y-109579580D01*
D13*
X107726237Y-119574318D02*
X107726237Y-118304318D01*
X109056714Y-119453365D02*
X108996238Y-119513842D01*
X108996238Y-119513842D02*
X108814809Y-119574318D01*
X108814809Y-119574318D02*
X108693857Y-119574318D01*
X108693857Y-119574318D02*
X108512428Y-119513842D01*
X108512428Y-119513842D02*
X108391476Y-119392889D01*
X108391476Y-119392889D02*
X108330999Y-119271937D01*
X108330999Y-119271937D02*
X108270523Y-119030032D01*
X108270523Y-119030032D02*
X108270523Y-118848603D01*
X108270523Y-118848603D02*
X108330999Y-118606699D01*
X108330999Y-118606699D02*
X108391476Y-118485746D01*
X108391476Y-118485746D02*
X108512428Y-118364794D01*
X108512428Y-118364794D02*
X108693857Y-118304318D01*
X108693857Y-118304318D02*
X108814809Y-118304318D01*
X108814809Y-118304318D02*
X108996238Y-118364794D01*
X108996238Y-118364794D02*
X109056714Y-118425270D01*
X110205761Y-118304318D02*
X109600999Y-118304318D01*
X109600999Y-118304318D02*
X109540523Y-118909080D01*
X109540523Y-118909080D02*
X109600999Y-118848603D01*
X109600999Y-118848603D02*
X109721952Y-118788127D01*
X109721952Y-118788127D02*
X110024333Y-118788127D01*
X110024333Y-118788127D02*
X110145285Y-118848603D01*
X110145285Y-118848603D02*
X110205761Y-118909080D01*
X110205761Y-118909080D02*
X110266238Y-119030032D01*
X110266238Y-119030032D02*
X110266238Y-119332413D01*
X110266238Y-119332413D02*
X110205761Y-119453365D01*
X110205761Y-119453365D02*
X110145285Y-119513842D01*
X110145285Y-119513842D02*
X110024333Y-119574318D01*
X110024333Y-119574318D02*
X109721952Y-119574318D01*
X109721952Y-119574318D02*
X109600999Y-119513842D01*
X109600999Y-119513842D02*
X109540523Y-119453365D01*
X117076667Y-80325318D02*
X117076667Y-81232461D01*
X117076667Y-81232461D02*
X117016190Y-81413889D01*
X117016190Y-81413889D02*
X116895238Y-81534842D01*
X116895238Y-81534842D02*
X116713809Y-81595318D01*
X116713809Y-81595318D02*
X116592857Y-81595318D01*
X118225714Y-80325318D02*
X117983809Y-80325318D01*
X117983809Y-80325318D02*
X117862857Y-80385794D01*
X117862857Y-80385794D02*
X117802381Y-80446270D01*
X117802381Y-80446270D02*
X117681428Y-80627699D01*
X117681428Y-80627699D02*
X117620952Y-80869603D01*
X117620952Y-80869603D02*
X117620952Y-81353413D01*
X117620952Y-81353413D02*
X117681428Y-81474365D01*
X117681428Y-81474365D02*
X117741905Y-81534842D01*
X117741905Y-81534842D02*
X117862857Y-81595318D01*
X117862857Y-81595318D02*
X118104762Y-81595318D01*
X118104762Y-81595318D02*
X118225714Y-81534842D01*
X118225714Y-81534842D02*
X118286190Y-81474365D01*
X118286190Y-81474365D02*
X118346667Y-81353413D01*
X118346667Y-81353413D02*
X118346667Y-81051032D01*
X118346667Y-81051032D02*
X118286190Y-80930080D01*
X118286190Y-80930080D02*
X118225714Y-80869603D01*
X118225714Y-80869603D02*
X118104762Y-80809127D01*
X118104762Y-80809127D02*
X117862857Y-80809127D01*
X117862857Y-80809127D02*
X117741905Y-80869603D01*
X117741905Y-80869603D02*
X117681428Y-80930080D01*
X117681428Y-80930080D02*
X117620952Y-81051032D01*
D10*
X168521142Y-130414819D02*
X168187809Y-129938628D01*
X167949714Y-130414819D02*
X167949714Y-129414819D01*
X167949714Y-129414819D02*
X168330666Y-129414819D01*
X168330666Y-129414819D02*
X168425904Y-129462438D01*
X168425904Y-129462438D02*
X168473523Y-129510057D01*
X168473523Y-129510057D02*
X168521142Y-129605295D01*
X168521142Y-129605295D02*
X168521142Y-129748152D01*
X168521142Y-129748152D02*
X168473523Y-129843390D01*
X168473523Y-129843390D02*
X168425904Y-129891009D01*
X168425904Y-129891009D02*
X168330666Y-129938628D01*
X168330666Y-129938628D02*
X167949714Y-129938628D01*
X169473523Y-130414819D02*
X168902095Y-130414819D01*
X169187809Y-130414819D02*
X169187809Y-129414819D01*
X169187809Y-129414819D02*
X169092571Y-129557676D01*
X169092571Y-129557676D02*
X168997333Y-129652914D01*
X168997333Y-129652914D02*
X168902095Y-129700533D01*
X169806857Y-129414819D02*
X170473523Y-129414819D01*
X170473523Y-129414819D02*
X170044952Y-130414819D01*
X115929580Y-126912666D02*
X115977200Y-126960285D01*
X115977200Y-126960285D02*
X116024819Y-127103142D01*
X116024819Y-127103142D02*
X116024819Y-127198380D01*
X116024819Y-127198380D02*
X115977200Y-127341237D01*
X115977200Y-127341237D02*
X115881961Y-127436475D01*
X115881961Y-127436475D02*
X115786723Y-127484094D01*
X115786723Y-127484094D02*
X115596247Y-127531713D01*
X115596247Y-127531713D02*
X115453390Y-127531713D01*
X115453390Y-127531713D02*
X115262914Y-127484094D01*
X115262914Y-127484094D02*
X115167676Y-127436475D01*
X115167676Y-127436475D02*
X115072438Y-127341237D01*
X115072438Y-127341237D02*
X115024819Y-127198380D01*
X115024819Y-127198380D02*
X115024819Y-127103142D01*
X115024819Y-127103142D02*
X115072438Y-126960285D01*
X115072438Y-126960285D02*
X115120057Y-126912666D01*
X115120057Y-126531713D02*
X115072438Y-126484094D01*
X115072438Y-126484094D02*
X115024819Y-126388856D01*
X115024819Y-126388856D02*
X115024819Y-126150761D01*
X115024819Y-126150761D02*
X115072438Y-126055523D01*
X115072438Y-126055523D02*
X115120057Y-126007904D01*
X115120057Y-126007904D02*
X115215295Y-125960285D01*
X115215295Y-125960285D02*
X115310533Y-125960285D01*
X115310533Y-125960285D02*
X115453390Y-126007904D01*
X115453390Y-126007904D02*
X116024819Y-126579332D01*
X116024819Y-126579332D02*
X116024819Y-125960285D01*
D13*
X155260237Y-81074318D02*
X155260237Y-79804318D01*
X156590714Y-80953365D02*
X156530238Y-81013842D01*
X156530238Y-81013842D02*
X156348809Y-81074318D01*
X156348809Y-81074318D02*
X156227857Y-81074318D01*
X156227857Y-81074318D02*
X156046428Y-81013842D01*
X156046428Y-81013842D02*
X155925476Y-80892889D01*
X155925476Y-80892889D02*
X155864999Y-80771937D01*
X155864999Y-80771937D02*
X155804523Y-80530032D01*
X155804523Y-80530032D02*
X155804523Y-80348603D01*
X155804523Y-80348603D02*
X155864999Y-80106699D01*
X155864999Y-80106699D02*
X155925476Y-79985746D01*
X155925476Y-79985746D02*
X156046428Y-79864794D01*
X156046428Y-79864794D02*
X156227857Y-79804318D01*
X156227857Y-79804318D02*
X156348809Y-79804318D01*
X156348809Y-79804318D02*
X156530238Y-79864794D01*
X156530238Y-79864794D02*
X156590714Y-79925270D01*
X157014047Y-79804318D02*
X157800238Y-79804318D01*
X157800238Y-79804318D02*
X157376904Y-80288127D01*
X157376904Y-80288127D02*
X157558333Y-80288127D01*
X157558333Y-80288127D02*
X157679285Y-80348603D01*
X157679285Y-80348603D02*
X157739761Y-80409080D01*
X157739761Y-80409080D02*
X157800238Y-80530032D01*
X157800238Y-80530032D02*
X157800238Y-80832413D01*
X157800238Y-80832413D02*
X157739761Y-80953365D01*
X157739761Y-80953365D02*
X157679285Y-81013842D01*
X157679285Y-81013842D02*
X157558333Y-81074318D01*
X157558333Y-81074318D02*
X157195476Y-81074318D01*
X157195476Y-81074318D02*
X157074523Y-81013842D01*
X157074523Y-81013842D02*
X157014047Y-80953365D01*
X98636667Y-90744318D02*
X98636667Y-91651461D01*
X98636667Y-91651461D02*
X98576190Y-91832889D01*
X98576190Y-91832889D02*
X98455238Y-91953842D01*
X98455238Y-91953842D02*
X98273809Y-92014318D01*
X98273809Y-92014318D02*
X98152857Y-92014318D01*
X99120476Y-90744318D02*
X99906667Y-90744318D01*
X99906667Y-90744318D02*
X99483333Y-91228127D01*
X99483333Y-91228127D02*
X99664762Y-91228127D01*
X99664762Y-91228127D02*
X99785714Y-91288603D01*
X99785714Y-91288603D02*
X99846190Y-91349080D01*
X99846190Y-91349080D02*
X99906667Y-91470032D01*
X99906667Y-91470032D02*
X99906667Y-91772413D01*
X99906667Y-91772413D02*
X99846190Y-91893365D01*
X99846190Y-91893365D02*
X99785714Y-91953842D01*
X99785714Y-91953842D02*
X99664762Y-92014318D01*
X99664762Y-92014318D02*
X99301905Y-92014318D01*
X99301905Y-92014318D02*
X99180952Y-91953842D01*
X99180952Y-91953842D02*
X99120476Y-91893365D01*
D10*
X168857142Y-132859580D02*
X168809523Y-132907200D01*
X168809523Y-132907200D02*
X168666666Y-132954819D01*
X168666666Y-132954819D02*
X168571428Y-132954819D01*
X168571428Y-132954819D02*
X168428571Y-132907200D01*
X168428571Y-132907200D02*
X168333333Y-132811961D01*
X168333333Y-132811961D02*
X168285714Y-132716723D01*
X168285714Y-132716723D02*
X168238095Y-132526247D01*
X168238095Y-132526247D02*
X168238095Y-132383390D01*
X168238095Y-132383390D02*
X168285714Y-132192914D01*
X168285714Y-132192914D02*
X168333333Y-132097676D01*
X168333333Y-132097676D02*
X168428571Y-132002438D01*
X168428571Y-132002438D02*
X168571428Y-131954819D01*
X168571428Y-131954819D02*
X168666666Y-131954819D01*
X168666666Y-131954819D02*
X168809523Y-132002438D01*
X168809523Y-132002438D02*
X168857142Y-132050057D01*
X169809523Y-132954819D02*
X169238095Y-132954819D01*
X169523809Y-132954819D02*
X169523809Y-131954819D01*
X169523809Y-131954819D02*
X169428571Y-132097676D01*
X169428571Y-132097676D02*
X169333333Y-132192914D01*
X169333333Y-132192914D02*
X169238095Y-132240533D01*
X170285714Y-132954819D02*
X170476190Y-132954819D01*
X170476190Y-132954819D02*
X170571428Y-132907200D01*
X170571428Y-132907200D02*
X170619047Y-132859580D01*
X170619047Y-132859580D02*
X170714285Y-132716723D01*
X170714285Y-132716723D02*
X170761904Y-132526247D01*
X170761904Y-132526247D02*
X170761904Y-132145295D01*
X170761904Y-132145295D02*
X170714285Y-132050057D01*
X170714285Y-132050057D02*
X170666666Y-132002438D01*
X170666666Y-132002438D02*
X170571428Y-131954819D01*
X170571428Y-131954819D02*
X170380952Y-131954819D01*
X170380952Y-131954819D02*
X170285714Y-132002438D01*
X170285714Y-132002438D02*
X170238095Y-132050057D01*
X170238095Y-132050057D02*
X170190476Y-132145295D01*
X170190476Y-132145295D02*
X170190476Y-132383390D01*
X170190476Y-132383390D02*
X170238095Y-132478628D01*
X170238095Y-132478628D02*
X170285714Y-132526247D01*
X170285714Y-132526247D02*
X170380952Y-132573866D01*
X170380952Y-132573866D02*
X170571428Y-132573866D01*
X170571428Y-132573866D02*
X170666666Y-132526247D01*
X170666666Y-132526247D02*
X170714285Y-132478628D01*
X170714285Y-132478628D02*
X170761904Y-132383390D01*
D14*
X150186000Y-130122000D02*
X150186000Y-131010000D01*
X151086000Y-130122000D02*
X150186000Y-130122000D01*
X151286000Y-133022000D02*
X158086000Y-133022000D01*
D15*
X151686000Y-128510000D02*
X151686000Y-128510000D01*
X151686000Y-128610000D02*
X151686000Y-128610000D01*
D14*
X158286000Y-130122000D02*
X159186000Y-130122000D01*
X159186000Y-130122000D02*
X159186000Y-131010000D01*
D15*
X151686000Y-128510000D02*
G75*
G02*
X151686000Y-128610000I0J-50000D01*
G01*
X151686000Y-128610000D02*
G75*
G02*
X151686000Y-128510000I0J50000D01*
G01*
D16*
X166308000Y-80772000D02*
G75*
G02*
X164908000Y-80772000I-700000J0D01*
G01*
X164908000Y-80772000D02*
G75*
G02*
X166308000Y-80772000I700000J0D01*
G01*
X154932747Y-115089000D02*
X155455253Y-115089000D01*
X154932747Y-116559000D02*
X155455253Y-116559000D01*
X91213000Y-120388748D02*
X91213000Y-120911252D01*
X92683000Y-120388748D02*
X92683000Y-120911252D01*
X134304000Y-80264000D02*
G75*
G02*
X132904000Y-80264000I-700000J0D01*
G01*
X132904000Y-80264000D02*
G75*
G02*
X134304000Y-80264000I700000J0D01*
G01*
X172458748Y-116105000D02*
X172981252Y-116105000D01*
X172458748Y-117575000D02*
X172981252Y-117575000D01*
X139638000Y-80010000D02*
G75*
G02*
X138238000Y-80010000I-700000J0D01*
G01*
X138238000Y-80010000D02*
G75*
G02*
X139638000Y-80010000I700000J0D01*
G01*
X115880000Y-99740000D02*
X115880000Y-102600000D01*
X117800000Y-99740000D02*
X115880000Y-99740000D01*
X117800000Y-102600000D02*
X117800000Y-99740000D01*
D15*
X180792000Y-106974000D02*
X180792000Y-106974000D01*
X180892000Y-106974000D02*
X180892000Y-106974000D01*
D14*
X182354000Y-105474000D02*
X182354000Y-106274000D01*
X182354000Y-113474000D02*
X182354000Y-112674000D01*
X183242000Y-105474000D02*
X182354000Y-105474000D01*
X183242000Y-113474000D02*
X182354000Y-113474000D01*
X185254000Y-106674000D02*
X185254000Y-112274000D01*
D15*
X180792000Y-106974000D02*
G75*
G02*
X180892000Y-106974000I50000J0D01*
G01*
X180892000Y-106974000D02*
G75*
G02*
X180792000Y-106974000I-50000J0D01*
G01*
D16*
X181129000Y-117628936D02*
X181129000Y-118083064D01*
X182599000Y-117628936D02*
X182599000Y-118083064D01*
X106399064Y-100357000D02*
X105944936Y-100357000D01*
X106399064Y-101827000D02*
X105944936Y-101827000D01*
X153765000Y-124227064D02*
X153765000Y-123772936D01*
X155235000Y-124227064D02*
X155235000Y-123772936D01*
X161765000Y-127727064D02*
X161765000Y-127272936D01*
X163235000Y-127727064D02*
X163235000Y-127272936D01*
X148765000Y-124227064D02*
X148765000Y-123772936D01*
X150235000Y-124227064D02*
X150235000Y-123772936D01*
X176227064Y-129765000D02*
X175772936Y-129765000D01*
X176227064Y-131235000D02*
X175772936Y-131235000D01*
X95531000Y-82576936D02*
X95531000Y-83031064D01*
X97001000Y-82576936D02*
X97001000Y-83031064D01*
X127446000Y-98806000D02*
G75*
G02*
X126046000Y-98806000I-700000J0D01*
G01*
X126046000Y-98806000D02*
G75*
G02*
X127446000Y-98806000I700000J0D01*
G01*
X152846000Y-80772000D02*
G75*
G02*
X151446000Y-80772000I-700000J0D01*
G01*
X151446000Y-80772000D02*
G75*
G02*
X152846000Y-80772000I700000J0D01*
G01*
X120568000Y-122484000D02*
X120568000Y-124404000D01*
X120568000Y-124404000D02*
X123428000Y-124404000D01*
X123428000Y-122484000D02*
X120568000Y-122484000D01*
X135389253Y-112765000D02*
X134866747Y-112765000D01*
X135389253Y-114235000D02*
X134866747Y-114235000D01*
D15*
X167520000Y-120128000D02*
X167520000Y-120128000D01*
X167520000Y-120228000D02*
X167520000Y-120228000D01*
D14*
X169620000Y-123628000D02*
X169620000Y-121228000D01*
X169920000Y-119328000D02*
X175520000Y-119328000D01*
X169920000Y-125528000D02*
X175520000Y-125528000D01*
X175820000Y-123628000D02*
X175820000Y-121228000D01*
D15*
X167520000Y-120128000D02*
G75*
G02*
X167520000Y-120228000I0J-50000D01*
G01*
X167520000Y-120228000D02*
G75*
G02*
X167520000Y-120128000I0J50000D01*
G01*
D16*
X88165000Y-120422936D02*
X88165000Y-120877064D01*
X89635000Y-120422936D02*
X89635000Y-120877064D01*
X149613253Y-115851000D02*
X149090747Y-115851000D01*
X149613253Y-117321000D02*
X149090747Y-117321000D01*
X113086000Y-103042000D02*
X113086000Y-105902000D01*
X115006000Y-103042000D02*
X113086000Y-103042000D01*
X115006000Y-105902000D02*
X115006000Y-103042000D01*
X142178000Y-97028000D02*
G75*
G02*
X140778000Y-97028000I-700000J0D01*
G01*
X140778000Y-97028000D02*
G75*
G02*
X142178000Y-97028000I700000J0D01*
G01*
X160974000Y-100076000D02*
G75*
G02*
X159574000Y-100076000I-700000J0D01*
G01*
X159574000Y-100076000D02*
G75*
G02*
X160974000Y-100076000I700000J0D01*
G01*
X156265000Y-124227064D02*
X156265000Y-123772936D01*
X157735000Y-124227064D02*
X157735000Y-123772936D01*
X117374936Y-105183000D02*
X117829064Y-105183000D01*
X117374936Y-106653000D02*
X117829064Y-106653000D01*
X161990000Y-80772000D02*
G75*
G02*
X160590000Y-80772000I-700000J0D01*
G01*
X160590000Y-80772000D02*
G75*
G02*
X161990000Y-80772000I700000J0D01*
G01*
X136876000Y-101570000D02*
X136876000Y-102520000D01*
X136876000Y-111790000D02*
X136876000Y-110840000D01*
X137826000Y-101570000D02*
X136876000Y-101570000D01*
X137826000Y-111790000D02*
X136876000Y-111790000D01*
X146146000Y-101570000D02*
X147096000Y-101570000D01*
X146146000Y-111790000D02*
X147096000Y-111790000D01*
X147096000Y-101570000D02*
X147096000Y-102520000D01*
X147096000Y-111790000D02*
X147096000Y-110840000D01*
X148051000Y-111310000D02*
X147371000Y-111310000D01*
X147711000Y-110840000D01*
X148051000Y-111310000D01*
G36*
X148051000Y-111310000D02*
G01*
X147371000Y-111310000D01*
X147711000Y-110840000D01*
X148051000Y-111310000D01*
G37*
X122655064Y-125249000D02*
X122200936Y-125249000D01*
X122655064Y-126719000D02*
X122200936Y-126719000D01*
X163200000Y-123000000D02*
G75*
G02*
X161800000Y-123000000I-700000J0D01*
G01*
X161800000Y-123000000D02*
G75*
G02*
X163200000Y-123000000I700000J0D01*
G01*
D15*
X129794000Y-130048000D02*
X142494000Y-130048000D01*
X129794000Y-132588000D02*
X129794000Y-130048000D01*
X142494000Y-130048000D02*
X142494000Y-132588000D01*
X142494000Y-132588000D02*
X129794000Y-132588000D01*
D14*
X131064000Y-133068000D02*
G75*
G02*
X130964000Y-133068000I-50000J0D01*
G01*
X130964000Y-133068000D02*
G75*
G02*
X131064000Y-133068000I50000J0D01*
G01*
D16*
X146265000Y-127727064D02*
X146265000Y-127272936D01*
X147735000Y-127727064D02*
X147735000Y-127272936D01*
X99341000Y-82542748D02*
X99341000Y-83065252D01*
X100811000Y-82542748D02*
X100811000Y-83065252D01*
D13*
X154057500Y-114332000D02*
G75*
G02*
X153906500Y-114332000I-75500J0D01*
G01*
X153906500Y-114332000D02*
G75*
G02*
X154057500Y-114332000I75500J0D01*
G01*
D16*
X158015000Y-112006747D02*
X158015000Y-112529253D01*
X159485000Y-112006747D02*
X159485000Y-112529253D01*
X153608000Y-98298000D02*
G75*
G02*
X152208000Y-98298000I-700000J0D01*
G01*
X152208000Y-98298000D02*
G75*
G02*
X153608000Y-98298000I700000J0D01*
G01*
D14*
X123382000Y-84489000D02*
X133666000Y-84489000D01*
X123382000Y-91279000D02*
X123382000Y-84489000D01*
X133666000Y-84489000D02*
X133666000Y-91279000D01*
X133666000Y-91279000D02*
X123382000Y-91279000D01*
X133669000Y-82209000D02*
X133669000Y-84139000D01*
D16*
X148020000Y-80772000D02*
G75*
G02*
X146620000Y-80772000I-700000J0D01*
G01*
X146620000Y-80772000D02*
G75*
G02*
X148020000Y-80772000I700000J0D01*
G01*
X133661543Y-100249010D02*
X134031010Y-99879543D01*
X134700990Y-101288457D02*
X135070457Y-100918990D01*
X151265000Y-124227064D02*
X151265000Y-123772936D01*
X152735000Y-124227064D02*
X152735000Y-123772936D01*
X120930936Y-102897000D02*
X121385064Y-102897000D01*
X120930936Y-104367000D02*
X121385064Y-104367000D01*
X107180748Y-128297000D02*
X107703252Y-128297000D01*
X107180748Y-129767000D02*
X107703252Y-129767000D01*
D14*
X136590000Y-84743000D02*
X146874000Y-84743000D01*
X136590000Y-91533000D02*
X136590000Y-84743000D01*
X146874000Y-84743000D02*
X146874000Y-91533000D01*
X146874000Y-91533000D02*
X136590000Y-91533000D01*
X146877000Y-82463000D02*
X146877000Y-84393000D01*
X104576000Y-106604000D02*
X105776000Y-106604000D01*
X106126000Y-106742000D02*
X106726000Y-106742000D01*
X106126000Y-109666000D02*
X106126000Y-106742000D01*
X106726000Y-106742000D02*
X106726000Y-109666000D01*
X106726000Y-109666000D02*
X106126000Y-109666000D01*
D16*
X158765000Y-124227064D02*
X158765000Y-123772936D01*
X160235000Y-124227064D02*
X160235000Y-123772936D01*
X176468000Y-83820000D02*
G75*
G02*
X175068000Y-83820000I-700000J0D01*
G01*
X175068000Y-83820000D02*
G75*
G02*
X176468000Y-83820000I700000J0D01*
G01*
D15*
X82500000Y-100885000D02*
X82500000Y-115515000D01*
X82500000Y-115515000D02*
X90240000Y-115515000D01*
X90240000Y-100885000D02*
X82500000Y-100885000D01*
X96500000Y-101630000D02*
X96500000Y-114770000D01*
D16*
X183923000Y-117594748D02*
X183923000Y-118117252D01*
X185393000Y-117594748D02*
X185393000Y-118117252D01*
D15*
X179070000Y-90184000D02*
X184150000Y-90184000D01*
X179070000Y-97804000D02*
X179070000Y-90184000D01*
X184150000Y-90184000D02*
X184150000Y-97804000D01*
X184150000Y-97804000D02*
X179070000Y-97804000D01*
D14*
X182930000Y-98384000D02*
G75*
G02*
X182830000Y-98384000I-50000J0D01*
G01*
X182830000Y-98384000D02*
G75*
G02*
X182930000Y-98384000I50000J0D01*
G01*
X163260000Y-84743000D02*
X173544000Y-84743000D01*
X163260000Y-91533000D02*
X163260000Y-84743000D01*
X173544000Y-84743000D02*
X173544000Y-91533000D01*
X173544000Y-91533000D02*
X163260000Y-91533000D01*
X173547000Y-82463000D02*
X173547000Y-84393000D01*
D16*
X125922000Y-79756000D02*
G75*
G02*
X124522000Y-79756000I-700000J0D01*
G01*
X124522000Y-79756000D02*
G75*
G02*
X125922000Y-79756000I700000J0D01*
G01*
X104312000Y-97084000D02*
X104312000Y-99004000D01*
X104312000Y-99004000D02*
X107172000Y-99004000D01*
X107172000Y-97084000D02*
X104312000Y-97084000D01*
X155421064Y-108485000D02*
X154966936Y-108485000D01*
X155421064Y-109955000D02*
X154966936Y-109955000D01*
D14*
X104941000Y-120852000D02*
X106791000Y-120852000D01*
X107216000Y-120702000D02*
X110716000Y-120702000D01*
X107216000Y-127202000D02*
X107216000Y-120702000D01*
X110716000Y-120702000D02*
X110716000Y-127202000D01*
X110716000Y-127202000D02*
X107216000Y-127202000D01*
X103720000Y-82479000D02*
X103720000Y-81429000D01*
X104620000Y-82479000D02*
X103720000Y-82479000D01*
D15*
X113220000Y-84079000D02*
X113220000Y-84079000D01*
X113220000Y-84179000D02*
X113220000Y-84179000D01*
D14*
X113620000Y-79579000D02*
X104820000Y-79579000D01*
X113820000Y-82479000D02*
X114720000Y-82479000D01*
X114720000Y-82479000D02*
X114720000Y-81429000D01*
D15*
X113220000Y-84079000D02*
G75*
G02*
X113220000Y-84179000I0J-50000D01*
G01*
X113220000Y-84179000D02*
G75*
G02*
X113220000Y-84079000I0J50000D01*
G01*
D16*
X165634936Y-129225000D02*
X166089064Y-129225000D01*
X165634936Y-130695000D02*
X166089064Y-130695000D01*
X114581000Y-123959252D02*
X114581000Y-123436748D01*
X116051000Y-123959252D02*
X116051000Y-123436748D01*
D14*
X150306000Y-84743000D02*
X160590000Y-84743000D01*
X150306000Y-91533000D02*
X150306000Y-84743000D01*
X160590000Y-84743000D02*
X160590000Y-91533000D01*
X160590000Y-91533000D02*
X150306000Y-91533000D01*
X160593000Y-82463000D02*
X160593000Y-84393000D01*
D15*
X89154000Y-88646000D02*
X96774000Y-88646000D01*
X89154000Y-93726000D02*
X89154000Y-88646000D01*
X96774000Y-88646000D02*
X96774000Y-93726000D01*
X96774000Y-93726000D02*
X89154000Y-93726000D01*
D14*
X88624000Y-92456000D02*
G75*
G02*
X88524000Y-92456000I-50000J0D01*
G01*
X88524000Y-92456000D02*
G75*
G02*
X88624000Y-92456000I50000J0D01*
G01*
D16*
X165738748Y-131765000D02*
X166261252Y-131765000D01*
X165738748Y-133235000D02*
X166261252Y-133235000D01*
%LPC*%
D17*
X151686000Y-129798000D03*
X152686000Y-129798000D03*
X153686000Y-129798000D03*
X154686000Y-129798000D03*
X155686000Y-129798000D03*
X156686000Y-129798000D03*
X157686000Y-129798000D03*
D18*
X150386000Y-132323000D03*
X158986000Y-132323000D03*
D19*
X165608000Y-80772000D03*
D20*
X154156500Y-115824000D03*
X156231500Y-115824000D03*
D21*
X91948000Y-119612500D03*
X91948000Y-121687500D03*
D19*
X133604000Y-80264000D03*
D22*
X183642000Y-79502000D03*
D20*
X171682500Y-116840000D03*
X173757500Y-116840000D03*
D19*
X138938000Y-80010000D03*
D23*
X116840000Y-100575001D03*
X116840000Y-102624999D03*
D24*
X182030000Y-106974000D03*
X182030000Y-107974000D03*
X182030000Y-108974000D03*
X182030000Y-109974000D03*
X182030000Y-110974000D03*
X182030000Y-111974000D03*
D25*
X184554000Y-105674000D03*
X184554000Y-113274000D03*
D26*
X181864000Y-116856000D03*
X181864000Y-118856000D03*
D27*
X107172000Y-101092000D03*
X105172000Y-101092000D03*
D22*
X183642000Y-131318000D03*
D28*
X154500000Y-125000000D03*
X154500000Y-123000000D03*
X162500000Y-128500000D03*
X162500000Y-126500000D03*
X149500000Y-125000000D03*
X149500000Y-123000000D03*
D27*
X177000000Y-130500000D03*
X175000000Y-130500000D03*
D26*
X96266000Y-81804000D03*
X96266000Y-83804000D03*
D19*
X126746000Y-98806000D03*
X152146000Y-80772000D03*
D29*
X121403000Y-123444000D03*
X123453000Y-123444000D03*
D30*
X136165500Y-113500000D03*
X134090500Y-113500000D03*
D31*
X168745000Y-120178000D03*
X168745000Y-124678000D03*
X176695000Y-120178000D03*
X176695000Y-124678000D03*
D26*
X88900000Y-119650000D03*
X88900000Y-121650000D03*
D30*
X150389500Y-116586000D03*
X148314500Y-116586000D03*
D23*
X114046000Y-103877001D03*
X114046000Y-105926999D03*
D19*
X141478000Y-97028000D03*
X160274000Y-100076000D03*
D28*
X157000000Y-125000000D03*
X157000000Y-123000000D03*
D22*
X89408000Y-79502000D03*
D32*
X116602000Y-105918000D03*
X118602000Y-105918000D03*
D19*
X161290000Y-80772000D03*
D33*
X147661000Y-110430000D03*
X147661000Y-109930000D03*
X147661000Y-109430000D03*
X147661000Y-108930000D03*
X147661000Y-108430000D03*
X147661000Y-107930000D03*
X147661000Y-107430000D03*
X147661000Y-106930000D03*
X147661000Y-106430000D03*
X147661000Y-105930000D03*
X147661000Y-105430000D03*
X147661000Y-104930000D03*
X147661000Y-104430000D03*
X147661000Y-103930000D03*
X147661000Y-103430000D03*
X147661000Y-102930000D03*
D34*
X145736000Y-101005000D03*
X145236000Y-101005000D03*
X144736000Y-101005000D03*
X144236000Y-101005000D03*
X143736000Y-101005000D03*
X143236000Y-101005000D03*
X142736000Y-101005000D03*
X142236000Y-101005000D03*
X141736000Y-101005000D03*
X141236000Y-101005000D03*
X140736000Y-101005000D03*
X140236000Y-101005000D03*
X139736000Y-101005000D03*
X139236000Y-101005000D03*
X138736000Y-101005000D03*
X138236000Y-101005000D03*
D33*
X136311000Y-102930000D03*
X136311000Y-103430000D03*
X136311000Y-103930000D03*
X136311000Y-104430000D03*
X136311000Y-104930000D03*
X136311000Y-105430000D03*
X136311000Y-105930000D03*
X136311000Y-106430000D03*
X136311000Y-106930000D03*
X136311000Y-107430000D03*
X136311000Y-107930000D03*
X136311000Y-108430000D03*
X136311000Y-108930000D03*
X136311000Y-109430000D03*
X136311000Y-109930000D03*
X136311000Y-110430000D03*
D34*
X138236000Y-112355000D03*
X138736000Y-112355000D03*
X139236000Y-112355000D03*
X139736000Y-112355000D03*
X140236000Y-112355000D03*
X140736000Y-112355000D03*
X141236000Y-112355000D03*
X141736000Y-112355000D03*
X142236000Y-112355000D03*
X142736000Y-112355000D03*
X143236000Y-112355000D03*
X143736000Y-112355000D03*
X144236000Y-112355000D03*
X144736000Y-112355000D03*
X145236000Y-112355000D03*
X145736000Y-112355000D03*
D27*
X123428000Y-125984000D03*
X121428000Y-125984000D03*
D22*
X89408000Y-131318000D03*
D19*
X162500000Y-123000000D03*
D35*
X131064000Y-131318000D03*
X133604000Y-131318000D03*
X136144000Y-131318000D03*
X138684000Y-131318000D03*
X141224000Y-131318000D03*
D28*
X147000000Y-128500000D03*
X147000000Y-126500000D03*
D21*
X100076000Y-81766500D03*
X100076000Y-83841500D03*
D36*
X154094000Y-113372000D03*
X156294000Y-113372000D03*
X156294000Y-111672000D03*
X154094000Y-111672000D03*
D21*
X158750000Y-111230500D03*
X158750000Y-113305500D03*
D19*
X152908000Y-98298000D03*
D37*
X132969000Y-83174000D03*
X131699000Y-83174000D03*
X130429000Y-83174000D03*
X129159000Y-83174000D03*
X127889000Y-83174000D03*
X126619000Y-83174000D03*
X125349000Y-83174000D03*
X124079000Y-83174000D03*
X124079000Y-92594000D03*
X125349000Y-92594000D03*
X126619000Y-92594000D03*
X127889000Y-92594000D03*
X129159000Y-92594000D03*
X130429000Y-92594000D03*
X131699000Y-92594000D03*
X132969000Y-92594000D03*
D19*
X147320000Y-80772000D03*
D38*
X133632377Y-101317623D03*
X135099623Y-99850377D03*
D28*
X152000000Y-125000000D03*
X152000000Y-123000000D03*
D32*
X120158000Y-103632000D03*
X122158000Y-103632000D03*
D20*
X106404500Y-129032000D03*
X108479500Y-129032000D03*
D37*
X146177000Y-83428000D03*
X144907000Y-83428000D03*
X143637000Y-83428000D03*
X142367000Y-83428000D03*
X141097000Y-83428000D03*
X139827000Y-83428000D03*
X138557000Y-83428000D03*
X137287000Y-83428000D03*
X137287000Y-92848000D03*
X138557000Y-92848000D03*
X139827000Y-92848000D03*
X141097000Y-92848000D03*
X142367000Y-92848000D03*
X143637000Y-92848000D03*
X144907000Y-92848000D03*
X146177000Y-92848000D03*
D39*
X105176000Y-107254000D03*
X105176000Y-108204000D03*
X105176000Y-109154000D03*
X107676000Y-109154000D03*
X107676000Y-108204000D03*
X107676000Y-107254000D03*
D28*
X159500000Y-125000000D03*
X159500000Y-123000000D03*
D19*
X175768000Y-83820000D03*
D40*
X95490000Y-104700000D03*
X95490000Y-107200000D03*
X95490000Y-109200000D03*
X95490000Y-111700000D03*
D41*
X92780000Y-101630000D03*
X92780000Y-114770000D03*
D21*
X184658000Y-116818500D03*
X184658000Y-118893500D03*
D35*
X182880000Y-96534000D03*
X180340000Y-96534000D03*
X182880000Y-93994000D03*
X180340000Y-93994000D03*
X182880000Y-91454000D03*
X180340000Y-91454000D03*
D37*
X172847000Y-83428000D03*
X171577000Y-83428000D03*
X170307000Y-83428000D03*
X169037000Y-83428000D03*
X167767000Y-83428000D03*
X166497000Y-83428000D03*
X165227000Y-83428000D03*
X163957000Y-83428000D03*
X163957000Y-92848000D03*
X165227000Y-92848000D03*
X166497000Y-92848000D03*
X167767000Y-92848000D03*
X169037000Y-92848000D03*
X170307000Y-92848000D03*
X171577000Y-92848000D03*
X172847000Y-92848000D03*
D19*
X125222000Y-79756000D03*
D29*
X105147000Y-98044000D03*
X107197000Y-98044000D03*
D27*
X156194000Y-109220000D03*
X154194000Y-109220000D03*
D42*
X105866000Y-121652000D03*
X105866000Y-123952000D03*
X105866000Y-126252000D03*
D43*
X112066000Y-123952000D03*
D17*
X113220000Y-82804000D03*
X112220000Y-82804000D03*
X111220000Y-82804000D03*
X110220000Y-82804000D03*
X109220000Y-82804000D03*
X108220000Y-82804000D03*
X107220000Y-82804000D03*
X106220000Y-82804000D03*
X105220000Y-82804000D03*
D18*
X114520000Y-80279000D03*
X103920000Y-80279000D03*
D32*
X164862000Y-129960000D03*
X166862000Y-129960000D03*
D44*
X115316000Y-124735500D03*
X115316000Y-122660500D03*
D37*
X159893000Y-83428000D03*
X158623000Y-83428000D03*
X157353000Y-83428000D03*
X156083000Y-83428000D03*
X154813000Y-83428000D03*
X153543000Y-83428000D03*
X152273000Y-83428000D03*
X151003000Y-83428000D03*
X151003000Y-92848000D03*
X152273000Y-92848000D03*
X153543000Y-92848000D03*
X154813000Y-92848000D03*
X156083000Y-92848000D03*
X157353000Y-92848000D03*
X158623000Y-92848000D03*
X159893000Y-92848000D03*
D35*
X90424000Y-92456000D03*
X90424000Y-89916000D03*
X92964000Y-92456000D03*
X92964000Y-89916000D03*
X95504000Y-92456000D03*
X95504000Y-89916000D03*
D20*
X164962500Y-132500000D03*
X167037500Y-132500000D03*
D45*
X134366000Y-110998000D03*
X125222000Y-94742000D03*
X133096000Y-99314000D03*
X179578000Y-118872000D03*
X152400000Y-95033000D03*
X150363347Y-104643347D03*
X94488000Y-83820000D03*
X138557000Y-94488000D03*
X106220000Y-85344000D03*
X166000000Y-124678000D03*
X138049000Y-99441000D03*
X149031771Y-118468229D03*
X103378000Y-98044000D03*
X152400000Y-110490000D03*
X103886000Y-121666000D03*
X178308000Y-107188000D03*
X158750000Y-115824000D03*
D46*
X100000000Y-131000000D03*
D45*
X119000000Y-100575001D03*
X103500000Y-108200000D03*
X166862000Y-128000000D03*
X120142000Y-121666000D03*
X146087000Y-114046000D03*
X179324000Y-124714000D03*
X165354000Y-94742000D03*
X113506000Y-85344000D03*
X146050000Y-99314000D03*
X115316000Y-121158000D03*
X93472000Y-121739052D03*
X173736000Y-115062000D03*
X173500000Y-130500000D03*
X163000000Y-120178000D03*
X130556000Y-95504000D03*
X128270000Y-101346000D03*
X124206000Y-101346000D03*
X122174000Y-83312000D03*
X143011000Y-98806000D03*
X109240000Y-108204000D03*
X134874000Y-126746000D03*
X113157000Y-87757000D03*
X109982000Y-88646000D03*
X145029347Y-114304653D03*
X144586000Y-99314000D03*
X135128000Y-115500000D03*
X147000000Y-112765000D03*
X150000000Y-111000000D03*
X121666000Y-118110000D03*
X131500000Y-98350000D03*
X150114000Y-103378000D03*
X122936000Y-96266000D03*
X139446000Y-99314000D03*
X134366000Y-109644500D03*
X122936000Y-100838000D03*
X121920000Y-100076000D03*
X108966000Y-87884000D03*
X111379000Y-87503000D03*
X107950000Y-87122000D03*
X109728000Y-87122000D03*
X137160000Y-97277347D03*
X137160000Y-94488000D03*
X148336000Y-98044000D03*
X173000000Y-109000000D03*
X177500000Y-109974000D03*
X161250000Y-129750000D03*
X168402000Y-109220000D03*
X154178000Y-103124000D03*
X151892000Y-103124000D03*
X150622000Y-94996000D03*
X152908000Y-103378000D03*
X163576000Y-94742000D03*
X156464000Y-103124000D03*
X149352000Y-108204000D03*
X155686000Y-126500000D03*
X153686000Y-126686000D03*
X151750000Y-127250000D03*
X148250000Y-129750000D03*
X154686000Y-127500000D03*
X157250000Y-127250000D03*
X174498000Y-103124000D03*
X173078306Y-101949000D03*
%LPD*%
M02*
