%TF.GenerationSoftware,KiCad,Pcbnew,8.0.8*%
%TF.CreationDate,2025-03-18T19:15:26-04:00*%
%TF.ProjectId,477,3437372e-6b69-4636-9164-5f7063625858,rev?*%
%TF.SameCoordinates,Original*%
%TF.FileFunction,Drillmap*%
%TF.FilePolarity,Positive*%
%FSLAX45Y45*%
G04 Gerber Fmt 4.5, Leading zero omitted, Abs format (unit mm)*
G04 Created by KiCad (PCBNEW 8.0.8) date 2025-03-18 19:15:26*
%MOMM*%
%LPD*%
G01*
G04 APERTURE LIST*
%ADD10C,0.100000*%
%ADD11C,0.200000*%
%ADD12C,0.320000*%
G04 APERTURE END LIST*
D10*
X8935000Y-13530000D02*
G75*
G02*
X8560000Y-13150000I2500J377500D01*
G01*
X8560000Y-7950000D02*
X8560000Y-13150000D01*
X18725000Y-13150000D02*
G75*
G02*
X18350000Y-13530000I-377500J-2500D01*
G01*
X18350000Y-7570000D02*
X8935000Y-7570000D01*
X18725000Y-13150000D02*
X18725000Y-7950000D01*
X8935000Y-13530000D02*
X18350000Y-13530000D01*
X18350000Y-7570000D02*
G75*
G02*
X18725000Y-7950000I-2500J-377500D01*
G01*
X8560000Y-7950000D02*
G75*
G02*
X8935000Y-7570000I377500J2500D01*
G01*
D11*
D12*
X8780800Y-7790200D02*
X9100800Y-8110200D01*
X9100800Y-7790200D02*
X8780800Y-8110200D01*
X8780800Y-12971800D02*
X9100800Y-13291800D01*
X9100800Y-12971800D02*
X8780800Y-13291800D01*
X18204200Y-7790200D02*
X18524200Y-8110200D01*
X18524200Y-7790200D02*
X18204200Y-8110200D01*
X18204200Y-12971800D02*
X18524200Y-13291800D01*
X18524200Y-12971800D02*
X18204200Y-13291800D01*
D11*
X8815769Y-13846484D02*
X8815769Y-13646484D01*
X8815769Y-13646484D02*
X8863388Y-13646484D01*
X8863388Y-13646484D02*
X8891959Y-13656008D01*
X8891959Y-13656008D02*
X8911007Y-13675055D01*
X8911007Y-13675055D02*
X8920530Y-13694103D01*
X8920530Y-13694103D02*
X8930054Y-13732198D01*
X8930054Y-13732198D02*
X8930054Y-13760769D01*
X8930054Y-13760769D02*
X8920530Y-13798865D01*
X8920530Y-13798865D02*
X8911007Y-13817912D01*
X8911007Y-13817912D02*
X8891959Y-13836960D01*
X8891959Y-13836960D02*
X8863388Y-13846484D01*
X8863388Y-13846484D02*
X8815769Y-13846484D01*
X9015769Y-13846484D02*
X9015769Y-13713150D01*
X9015769Y-13751246D02*
X9025292Y-13732198D01*
X9025292Y-13732198D02*
X9034816Y-13722674D01*
X9034816Y-13722674D02*
X9053864Y-13713150D01*
X9053864Y-13713150D02*
X9072911Y-13713150D01*
X9139578Y-13846484D02*
X9139578Y-13713150D01*
X9139578Y-13646484D02*
X9130054Y-13656008D01*
X9130054Y-13656008D02*
X9139578Y-13665531D01*
X9139578Y-13665531D02*
X9149102Y-13656008D01*
X9149102Y-13656008D02*
X9139578Y-13646484D01*
X9139578Y-13646484D02*
X9139578Y-13665531D01*
X9263388Y-13846484D02*
X9244340Y-13836960D01*
X9244340Y-13836960D02*
X9234816Y-13817912D01*
X9234816Y-13817912D02*
X9234816Y-13646484D01*
X9368149Y-13846484D02*
X9349102Y-13836960D01*
X9349102Y-13836960D02*
X9339578Y-13817912D01*
X9339578Y-13817912D02*
X9339578Y-13646484D01*
X9596721Y-13846484D02*
X9596721Y-13646484D01*
X9596721Y-13646484D02*
X9663388Y-13789341D01*
X9663388Y-13789341D02*
X9730054Y-13646484D01*
X9730054Y-13646484D02*
X9730054Y-13846484D01*
X9911007Y-13846484D02*
X9911007Y-13741722D01*
X9911007Y-13741722D02*
X9901483Y-13722674D01*
X9901483Y-13722674D02*
X9882435Y-13713150D01*
X9882435Y-13713150D02*
X9844340Y-13713150D01*
X9844340Y-13713150D02*
X9825292Y-13722674D01*
X9911007Y-13836960D02*
X9891959Y-13846484D01*
X9891959Y-13846484D02*
X9844340Y-13846484D01*
X9844340Y-13846484D02*
X9825292Y-13836960D01*
X9825292Y-13836960D02*
X9815769Y-13817912D01*
X9815769Y-13817912D02*
X9815769Y-13798865D01*
X9815769Y-13798865D02*
X9825292Y-13779817D01*
X9825292Y-13779817D02*
X9844340Y-13770293D01*
X9844340Y-13770293D02*
X9891959Y-13770293D01*
X9891959Y-13770293D02*
X9911007Y-13760769D01*
X10006245Y-13713150D02*
X10006245Y-13913150D01*
X10006245Y-13722674D02*
X10025292Y-13713150D01*
X10025292Y-13713150D02*
X10063388Y-13713150D01*
X10063388Y-13713150D02*
X10082435Y-13722674D01*
X10082435Y-13722674D02*
X10091959Y-13732198D01*
X10091959Y-13732198D02*
X10101483Y-13751246D01*
X10101483Y-13751246D02*
X10101483Y-13808388D01*
X10101483Y-13808388D02*
X10091959Y-13827436D01*
X10091959Y-13827436D02*
X10082435Y-13836960D01*
X10082435Y-13836960D02*
X10063388Y-13846484D01*
X10063388Y-13846484D02*
X10025292Y-13846484D01*
X10025292Y-13846484D02*
X10006245Y-13836960D01*
X10187197Y-13827436D02*
X10196721Y-13836960D01*
X10196721Y-13836960D02*
X10187197Y-13846484D01*
X10187197Y-13846484D02*
X10177673Y-13836960D01*
X10177673Y-13836960D02*
X10187197Y-13827436D01*
X10187197Y-13827436D02*
X10187197Y-13846484D01*
X10187197Y-13722674D02*
X10196721Y-13732198D01*
X10196721Y-13732198D02*
X10187197Y-13741722D01*
X10187197Y-13741722D02*
X10177673Y-13732198D01*
X10177673Y-13732198D02*
X10187197Y-13722674D01*
X10187197Y-13722674D02*
X10187197Y-13741722D01*
X8354992Y-14075000D02*
X8554992Y-14275000D01*
X8554992Y-14075000D02*
X8354992Y-14275000D01*
X8796721Y-14066484D02*
X8920530Y-14066484D01*
X8920530Y-14066484D02*
X8853864Y-14142674D01*
X8853864Y-14142674D02*
X8882435Y-14142674D01*
X8882435Y-14142674D02*
X8901483Y-14152198D01*
X8901483Y-14152198D02*
X8911007Y-14161722D01*
X8911007Y-14161722D02*
X8920530Y-14180769D01*
X8920530Y-14180769D02*
X8920530Y-14228388D01*
X8920530Y-14228388D02*
X8911007Y-14247436D01*
X8911007Y-14247436D02*
X8901483Y-14256960D01*
X8901483Y-14256960D02*
X8882435Y-14266484D01*
X8882435Y-14266484D02*
X8825292Y-14266484D01*
X8825292Y-14266484D02*
X8806245Y-14256960D01*
X8806245Y-14256960D02*
X8796721Y-14247436D01*
X9006245Y-14247436D02*
X9015769Y-14256960D01*
X9015769Y-14256960D02*
X9006245Y-14266484D01*
X9006245Y-14266484D02*
X8996721Y-14256960D01*
X8996721Y-14256960D02*
X9006245Y-14247436D01*
X9006245Y-14247436D02*
X9006245Y-14266484D01*
X9091959Y-14085531D02*
X9101483Y-14076008D01*
X9101483Y-14076008D02*
X9120530Y-14066484D01*
X9120530Y-14066484D02*
X9168150Y-14066484D01*
X9168150Y-14066484D02*
X9187197Y-14076008D01*
X9187197Y-14076008D02*
X9196721Y-14085531D01*
X9196721Y-14085531D02*
X9206245Y-14104579D01*
X9206245Y-14104579D02*
X9206245Y-14123627D01*
X9206245Y-14123627D02*
X9196721Y-14152198D01*
X9196721Y-14152198D02*
X9082435Y-14266484D01*
X9082435Y-14266484D02*
X9206245Y-14266484D01*
X9330054Y-14066484D02*
X9349102Y-14066484D01*
X9349102Y-14066484D02*
X9368150Y-14076008D01*
X9368150Y-14076008D02*
X9377673Y-14085531D01*
X9377673Y-14085531D02*
X9387197Y-14104579D01*
X9387197Y-14104579D02*
X9396721Y-14142674D01*
X9396721Y-14142674D02*
X9396721Y-14190293D01*
X9396721Y-14190293D02*
X9387197Y-14228388D01*
X9387197Y-14228388D02*
X9377673Y-14247436D01*
X9377673Y-14247436D02*
X9368150Y-14256960D01*
X9368150Y-14256960D02*
X9349102Y-14266484D01*
X9349102Y-14266484D02*
X9330054Y-14266484D01*
X9330054Y-14266484D02*
X9311007Y-14256960D01*
X9311007Y-14256960D02*
X9301483Y-14247436D01*
X9301483Y-14247436D02*
X9291959Y-14228388D01*
X9291959Y-14228388D02*
X9282435Y-14190293D01*
X9282435Y-14190293D02*
X9282435Y-14142674D01*
X9282435Y-14142674D02*
X9291959Y-14104579D01*
X9291959Y-14104579D02*
X9301483Y-14085531D01*
X9301483Y-14085531D02*
X9311007Y-14076008D01*
X9311007Y-14076008D02*
X9330054Y-14066484D01*
X9520530Y-14066484D02*
X9539578Y-14066484D01*
X9539578Y-14066484D02*
X9558626Y-14076008D01*
X9558626Y-14076008D02*
X9568150Y-14085531D01*
X9568150Y-14085531D02*
X9577673Y-14104579D01*
X9577673Y-14104579D02*
X9587197Y-14142674D01*
X9587197Y-14142674D02*
X9587197Y-14190293D01*
X9587197Y-14190293D02*
X9577673Y-14228388D01*
X9577673Y-14228388D02*
X9568150Y-14247436D01*
X9568150Y-14247436D02*
X9558626Y-14256960D01*
X9558626Y-14256960D02*
X9539578Y-14266484D01*
X9539578Y-14266484D02*
X9520530Y-14266484D01*
X9520530Y-14266484D02*
X9501483Y-14256960D01*
X9501483Y-14256960D02*
X9491959Y-14247436D01*
X9491959Y-14247436D02*
X9482435Y-14228388D01*
X9482435Y-14228388D02*
X9472911Y-14190293D01*
X9472911Y-14190293D02*
X9472911Y-14142674D01*
X9472911Y-14142674D02*
X9482435Y-14104579D01*
X9482435Y-14104579D02*
X9491959Y-14085531D01*
X9491959Y-14085531D02*
X9501483Y-14076008D01*
X9501483Y-14076008D02*
X9520530Y-14066484D01*
X9672911Y-14266484D02*
X9672911Y-14133150D01*
X9672911Y-14152198D02*
X9682435Y-14142674D01*
X9682435Y-14142674D02*
X9701483Y-14133150D01*
X9701483Y-14133150D02*
X9730054Y-14133150D01*
X9730054Y-14133150D02*
X9749102Y-14142674D01*
X9749102Y-14142674D02*
X9758626Y-14161722D01*
X9758626Y-14161722D02*
X9758626Y-14266484D01*
X9758626Y-14161722D02*
X9768150Y-14142674D01*
X9768150Y-14142674D02*
X9787197Y-14133150D01*
X9787197Y-14133150D02*
X9815769Y-14133150D01*
X9815769Y-14133150D02*
X9834816Y-14142674D01*
X9834816Y-14142674D02*
X9844340Y-14161722D01*
X9844340Y-14161722D02*
X9844340Y-14266484D01*
X9939578Y-14266484D02*
X9939578Y-14133150D01*
X9939578Y-14152198D02*
X9949102Y-14142674D01*
X9949102Y-14142674D02*
X9968150Y-14133150D01*
X9968150Y-14133150D02*
X9996721Y-14133150D01*
X9996721Y-14133150D02*
X10015769Y-14142674D01*
X10015769Y-14142674D02*
X10025292Y-14161722D01*
X10025292Y-14161722D02*
X10025292Y-14266484D01*
X10025292Y-14161722D02*
X10034816Y-14142674D01*
X10034816Y-14142674D02*
X10053864Y-14133150D01*
X10053864Y-14133150D02*
X10082435Y-14133150D01*
X10082435Y-14133150D02*
X10101483Y-14142674D01*
X10101483Y-14142674D02*
X10111007Y-14161722D01*
X10111007Y-14161722D02*
X10111007Y-14266484D01*
X10501483Y-14056960D02*
X10330054Y-14314103D01*
X10758626Y-14066484D02*
X10777674Y-14066484D01*
X10777674Y-14066484D02*
X10796721Y-14076008D01*
X10796721Y-14076008D02*
X10806245Y-14085531D01*
X10806245Y-14085531D02*
X10815769Y-14104579D01*
X10815769Y-14104579D02*
X10825293Y-14142674D01*
X10825293Y-14142674D02*
X10825293Y-14190293D01*
X10825293Y-14190293D02*
X10815769Y-14228388D01*
X10815769Y-14228388D02*
X10806245Y-14247436D01*
X10806245Y-14247436D02*
X10796721Y-14256960D01*
X10796721Y-14256960D02*
X10777674Y-14266484D01*
X10777674Y-14266484D02*
X10758626Y-14266484D01*
X10758626Y-14266484D02*
X10739578Y-14256960D01*
X10739578Y-14256960D02*
X10730054Y-14247436D01*
X10730054Y-14247436D02*
X10720531Y-14228388D01*
X10720531Y-14228388D02*
X10711007Y-14190293D01*
X10711007Y-14190293D02*
X10711007Y-14142674D01*
X10711007Y-14142674D02*
X10720531Y-14104579D01*
X10720531Y-14104579D02*
X10730054Y-14085531D01*
X10730054Y-14085531D02*
X10739578Y-14076008D01*
X10739578Y-14076008D02*
X10758626Y-14066484D01*
X10911007Y-14247436D02*
X10920531Y-14256960D01*
X10920531Y-14256960D02*
X10911007Y-14266484D01*
X10911007Y-14266484D02*
X10901483Y-14256960D01*
X10901483Y-14256960D02*
X10911007Y-14247436D01*
X10911007Y-14247436D02*
X10911007Y-14266484D01*
X11111007Y-14266484D02*
X10996721Y-14266484D01*
X11053864Y-14266484D02*
X11053864Y-14066484D01*
X11053864Y-14066484D02*
X11034816Y-14095055D01*
X11034816Y-14095055D02*
X11015769Y-14114103D01*
X11015769Y-14114103D02*
X10996721Y-14123627D01*
X11187197Y-14085531D02*
X11196721Y-14076008D01*
X11196721Y-14076008D02*
X11215769Y-14066484D01*
X11215769Y-14066484D02*
X11263388Y-14066484D01*
X11263388Y-14066484D02*
X11282435Y-14076008D01*
X11282435Y-14076008D02*
X11291959Y-14085531D01*
X11291959Y-14085531D02*
X11301483Y-14104579D01*
X11301483Y-14104579D02*
X11301483Y-14123627D01*
X11301483Y-14123627D02*
X11291959Y-14152198D01*
X11291959Y-14152198D02*
X11177674Y-14266484D01*
X11177674Y-14266484D02*
X11301483Y-14266484D01*
X11472912Y-14066484D02*
X11434816Y-14066484D01*
X11434816Y-14066484D02*
X11415769Y-14076008D01*
X11415769Y-14076008D02*
X11406245Y-14085531D01*
X11406245Y-14085531D02*
X11387197Y-14114103D01*
X11387197Y-14114103D02*
X11377673Y-14152198D01*
X11377673Y-14152198D02*
X11377673Y-14228388D01*
X11377673Y-14228388D02*
X11387197Y-14247436D01*
X11387197Y-14247436D02*
X11396721Y-14256960D01*
X11396721Y-14256960D02*
X11415769Y-14266484D01*
X11415769Y-14266484D02*
X11453864Y-14266484D01*
X11453864Y-14266484D02*
X11472912Y-14256960D01*
X11472912Y-14256960D02*
X11482435Y-14247436D01*
X11482435Y-14247436D02*
X11491959Y-14228388D01*
X11491959Y-14228388D02*
X11491959Y-14180769D01*
X11491959Y-14180769D02*
X11482435Y-14161722D01*
X11482435Y-14161722D02*
X11472912Y-14152198D01*
X11472912Y-14152198D02*
X11453864Y-14142674D01*
X11453864Y-14142674D02*
X11415769Y-14142674D01*
X11415769Y-14142674D02*
X11396721Y-14152198D01*
X11396721Y-14152198D02*
X11387197Y-14161722D01*
X11387197Y-14161722D02*
X11377673Y-14180769D01*
X11615769Y-14066484D02*
X11634816Y-14066484D01*
X11634816Y-14066484D02*
X11653864Y-14076008D01*
X11653864Y-14076008D02*
X11663388Y-14085531D01*
X11663388Y-14085531D02*
X11672912Y-14104579D01*
X11672912Y-14104579D02*
X11682435Y-14142674D01*
X11682435Y-14142674D02*
X11682435Y-14190293D01*
X11682435Y-14190293D02*
X11672912Y-14228388D01*
X11672912Y-14228388D02*
X11663388Y-14247436D01*
X11663388Y-14247436D02*
X11653864Y-14256960D01*
X11653864Y-14256960D02*
X11634816Y-14266484D01*
X11634816Y-14266484D02*
X11615769Y-14266484D01*
X11615769Y-14266484D02*
X11596721Y-14256960D01*
X11596721Y-14256960D02*
X11587197Y-14247436D01*
X11587197Y-14247436D02*
X11577673Y-14228388D01*
X11577673Y-14228388D02*
X11568150Y-14190293D01*
X11568150Y-14190293D02*
X11568150Y-14142674D01*
X11568150Y-14142674D02*
X11577673Y-14104579D01*
X11577673Y-14104579D02*
X11587197Y-14085531D01*
X11587197Y-14085531D02*
X11596721Y-14076008D01*
X11596721Y-14076008D02*
X11615769Y-14066484D01*
X11758626Y-14066484D02*
X11758626Y-14104579D01*
X11834816Y-14066484D02*
X11834816Y-14104579D01*
X12130055Y-14342674D02*
X12120531Y-14333150D01*
X12120531Y-14333150D02*
X12101483Y-14304579D01*
X12101483Y-14304579D02*
X12091959Y-14285531D01*
X12091959Y-14285531D02*
X12082435Y-14256960D01*
X12082435Y-14256960D02*
X12072912Y-14209341D01*
X12072912Y-14209341D02*
X12072912Y-14171246D01*
X12072912Y-14171246D02*
X12082435Y-14123627D01*
X12082435Y-14123627D02*
X12091959Y-14095055D01*
X12091959Y-14095055D02*
X12101483Y-14076008D01*
X12101483Y-14076008D02*
X12120531Y-14047436D01*
X12120531Y-14047436D02*
X12130055Y-14037912D01*
X12291959Y-14133150D02*
X12291959Y-14266484D01*
X12244340Y-14056960D02*
X12196721Y-14199817D01*
X12196721Y-14199817D02*
X12320531Y-14199817D01*
X12549102Y-14266484D02*
X12549102Y-14066484D01*
X12634816Y-14266484D02*
X12634816Y-14161722D01*
X12634816Y-14161722D02*
X12625293Y-14142674D01*
X12625293Y-14142674D02*
X12606245Y-14133150D01*
X12606245Y-14133150D02*
X12577674Y-14133150D01*
X12577674Y-14133150D02*
X12558626Y-14142674D01*
X12558626Y-14142674D02*
X12549102Y-14152198D01*
X12758626Y-14266484D02*
X12739578Y-14256960D01*
X12739578Y-14256960D02*
X12730055Y-14247436D01*
X12730055Y-14247436D02*
X12720531Y-14228388D01*
X12720531Y-14228388D02*
X12720531Y-14171246D01*
X12720531Y-14171246D02*
X12730055Y-14152198D01*
X12730055Y-14152198D02*
X12739578Y-14142674D01*
X12739578Y-14142674D02*
X12758626Y-14133150D01*
X12758626Y-14133150D02*
X12787197Y-14133150D01*
X12787197Y-14133150D02*
X12806245Y-14142674D01*
X12806245Y-14142674D02*
X12815769Y-14152198D01*
X12815769Y-14152198D02*
X12825293Y-14171246D01*
X12825293Y-14171246D02*
X12825293Y-14228388D01*
X12825293Y-14228388D02*
X12815769Y-14247436D01*
X12815769Y-14247436D02*
X12806245Y-14256960D01*
X12806245Y-14256960D02*
X12787197Y-14266484D01*
X12787197Y-14266484D02*
X12758626Y-14266484D01*
X12939578Y-14266484D02*
X12920531Y-14256960D01*
X12920531Y-14256960D02*
X12911007Y-14237912D01*
X12911007Y-14237912D02*
X12911007Y-14066484D01*
X13091959Y-14256960D02*
X13072912Y-14266484D01*
X13072912Y-14266484D02*
X13034816Y-14266484D01*
X13034816Y-14266484D02*
X13015769Y-14256960D01*
X13015769Y-14256960D02*
X13006245Y-14237912D01*
X13006245Y-14237912D02*
X13006245Y-14161722D01*
X13006245Y-14161722D02*
X13015769Y-14142674D01*
X13015769Y-14142674D02*
X13034816Y-14133150D01*
X13034816Y-14133150D02*
X13072912Y-14133150D01*
X13072912Y-14133150D02*
X13091959Y-14142674D01*
X13091959Y-14142674D02*
X13101483Y-14161722D01*
X13101483Y-14161722D02*
X13101483Y-14180769D01*
X13101483Y-14180769D02*
X13006245Y-14199817D01*
X13177674Y-14256960D02*
X13196721Y-14266484D01*
X13196721Y-14266484D02*
X13234816Y-14266484D01*
X13234816Y-14266484D02*
X13253864Y-14256960D01*
X13253864Y-14256960D02*
X13263388Y-14237912D01*
X13263388Y-14237912D02*
X13263388Y-14228388D01*
X13263388Y-14228388D02*
X13253864Y-14209341D01*
X13253864Y-14209341D02*
X13234816Y-14199817D01*
X13234816Y-14199817D02*
X13206245Y-14199817D01*
X13206245Y-14199817D02*
X13187197Y-14190293D01*
X13187197Y-14190293D02*
X13177674Y-14171246D01*
X13177674Y-14171246D02*
X13177674Y-14161722D01*
X13177674Y-14161722D02*
X13187197Y-14142674D01*
X13187197Y-14142674D02*
X13206245Y-14133150D01*
X13206245Y-14133150D02*
X13234816Y-14133150D01*
X13234816Y-14133150D02*
X13253864Y-14142674D01*
X13330055Y-14342674D02*
X13339578Y-14333150D01*
X13339578Y-14333150D02*
X13358626Y-14304579D01*
X13358626Y-14304579D02*
X13368150Y-14285531D01*
X13368150Y-14285531D02*
X13377674Y-14256960D01*
X13377674Y-14256960D02*
X13387197Y-14209341D01*
X13387197Y-14209341D02*
X13387197Y-14171246D01*
X13387197Y-14171246D02*
X13377674Y-14123627D01*
X13377674Y-14123627D02*
X13368150Y-14095055D01*
X13368150Y-14095055D02*
X13358626Y-14076008D01*
X13358626Y-14076008D02*
X13339578Y-14047436D01*
X13339578Y-14047436D02*
X13330055Y-14037912D01*
X13691959Y-14342674D02*
X13682436Y-14333150D01*
X13682436Y-14333150D02*
X13663388Y-14304579D01*
X13663388Y-14304579D02*
X13653864Y-14285531D01*
X13653864Y-14285531D02*
X13644340Y-14256960D01*
X13644340Y-14256960D02*
X13634817Y-14209341D01*
X13634817Y-14209341D02*
X13634817Y-14171246D01*
X13634817Y-14171246D02*
X13644340Y-14123627D01*
X13644340Y-14123627D02*
X13653864Y-14095055D01*
X13653864Y-14095055D02*
X13663388Y-14076008D01*
X13663388Y-14076008D02*
X13682436Y-14047436D01*
X13682436Y-14047436D02*
X13691959Y-14037912D01*
X13768150Y-14133150D02*
X13768150Y-14266484D01*
X13768150Y-14152198D02*
X13777674Y-14142674D01*
X13777674Y-14142674D02*
X13796721Y-14133150D01*
X13796721Y-14133150D02*
X13825293Y-14133150D01*
X13825293Y-14133150D02*
X13844340Y-14142674D01*
X13844340Y-14142674D02*
X13853864Y-14161722D01*
X13853864Y-14161722D02*
X13853864Y-14266484D01*
X13977674Y-14266484D02*
X13958626Y-14256960D01*
X13958626Y-14256960D02*
X13949102Y-14247436D01*
X13949102Y-14247436D02*
X13939578Y-14228388D01*
X13939578Y-14228388D02*
X13939578Y-14171246D01*
X13939578Y-14171246D02*
X13949102Y-14152198D01*
X13949102Y-14152198D02*
X13958626Y-14142674D01*
X13958626Y-14142674D02*
X13977674Y-14133150D01*
X13977674Y-14133150D02*
X14006245Y-14133150D01*
X14006245Y-14133150D02*
X14025293Y-14142674D01*
X14025293Y-14142674D02*
X14034817Y-14152198D01*
X14034817Y-14152198D02*
X14044340Y-14171246D01*
X14044340Y-14171246D02*
X14044340Y-14228388D01*
X14044340Y-14228388D02*
X14034817Y-14247436D01*
X14034817Y-14247436D02*
X14025293Y-14256960D01*
X14025293Y-14256960D02*
X14006245Y-14266484D01*
X14006245Y-14266484D02*
X13977674Y-14266484D01*
X14101483Y-14133150D02*
X14177674Y-14133150D01*
X14130055Y-14066484D02*
X14130055Y-14237912D01*
X14130055Y-14237912D02*
X14139578Y-14256960D01*
X14139578Y-14256960D02*
X14158626Y-14266484D01*
X14158626Y-14266484D02*
X14177674Y-14266484D01*
X14396721Y-14133150D02*
X14396721Y-14333150D01*
X14396721Y-14142674D02*
X14415769Y-14133150D01*
X14415769Y-14133150D02*
X14453864Y-14133150D01*
X14453864Y-14133150D02*
X14472912Y-14142674D01*
X14472912Y-14142674D02*
X14482436Y-14152198D01*
X14482436Y-14152198D02*
X14491959Y-14171246D01*
X14491959Y-14171246D02*
X14491959Y-14228388D01*
X14491959Y-14228388D02*
X14482436Y-14247436D01*
X14482436Y-14247436D02*
X14472912Y-14256960D01*
X14472912Y-14256960D02*
X14453864Y-14266484D01*
X14453864Y-14266484D02*
X14415769Y-14266484D01*
X14415769Y-14266484D02*
X14396721Y-14256960D01*
X14606245Y-14266484D02*
X14587198Y-14256960D01*
X14587198Y-14256960D02*
X14577674Y-14237912D01*
X14577674Y-14237912D02*
X14577674Y-14066484D01*
X14768150Y-14266484D02*
X14768150Y-14161722D01*
X14768150Y-14161722D02*
X14758626Y-14142674D01*
X14758626Y-14142674D02*
X14739579Y-14133150D01*
X14739579Y-14133150D02*
X14701483Y-14133150D01*
X14701483Y-14133150D02*
X14682436Y-14142674D01*
X14768150Y-14256960D02*
X14749102Y-14266484D01*
X14749102Y-14266484D02*
X14701483Y-14266484D01*
X14701483Y-14266484D02*
X14682436Y-14256960D01*
X14682436Y-14256960D02*
X14672912Y-14237912D01*
X14672912Y-14237912D02*
X14672912Y-14218865D01*
X14672912Y-14218865D02*
X14682436Y-14199817D01*
X14682436Y-14199817D02*
X14701483Y-14190293D01*
X14701483Y-14190293D02*
X14749102Y-14190293D01*
X14749102Y-14190293D02*
X14768150Y-14180769D01*
X14834817Y-14133150D02*
X14911007Y-14133150D01*
X14863388Y-14066484D02*
X14863388Y-14237912D01*
X14863388Y-14237912D02*
X14872912Y-14256960D01*
X14872912Y-14256960D02*
X14891959Y-14266484D01*
X14891959Y-14266484D02*
X14911007Y-14266484D01*
X15053864Y-14256960D02*
X15034817Y-14266484D01*
X15034817Y-14266484D02*
X14996721Y-14266484D01*
X14996721Y-14266484D02*
X14977674Y-14256960D01*
X14977674Y-14256960D02*
X14968150Y-14237912D01*
X14968150Y-14237912D02*
X14968150Y-14161722D01*
X14968150Y-14161722D02*
X14977674Y-14142674D01*
X14977674Y-14142674D02*
X14996721Y-14133150D01*
X14996721Y-14133150D02*
X15034817Y-14133150D01*
X15034817Y-14133150D02*
X15053864Y-14142674D01*
X15053864Y-14142674D02*
X15063388Y-14161722D01*
X15063388Y-14161722D02*
X15063388Y-14180769D01*
X15063388Y-14180769D02*
X14968150Y-14199817D01*
X15234817Y-14266484D02*
X15234817Y-14066484D01*
X15234817Y-14256960D02*
X15215769Y-14266484D01*
X15215769Y-14266484D02*
X15177674Y-14266484D01*
X15177674Y-14266484D02*
X15158626Y-14256960D01*
X15158626Y-14256960D02*
X15149102Y-14247436D01*
X15149102Y-14247436D02*
X15139579Y-14228388D01*
X15139579Y-14228388D02*
X15139579Y-14171246D01*
X15139579Y-14171246D02*
X15149102Y-14152198D01*
X15149102Y-14152198D02*
X15158626Y-14142674D01*
X15158626Y-14142674D02*
X15177674Y-14133150D01*
X15177674Y-14133150D02*
X15215769Y-14133150D01*
X15215769Y-14133150D02*
X15234817Y-14142674D01*
X15311007Y-14342674D02*
X15320531Y-14333150D01*
X15320531Y-14333150D02*
X15339579Y-14304579D01*
X15339579Y-14304579D02*
X15349102Y-14285531D01*
X15349102Y-14285531D02*
X15358626Y-14256960D01*
X15358626Y-14256960D02*
X15368150Y-14209341D01*
X15368150Y-14209341D02*
X15368150Y-14171246D01*
X15368150Y-14171246D02*
X15358626Y-14123627D01*
X15358626Y-14123627D02*
X15349102Y-14095055D01*
X15349102Y-14095055D02*
X15339579Y-14076008D01*
X15339579Y-14076008D02*
X15320531Y-14047436D01*
X15320531Y-14047436D02*
X15311007Y-14037912D01*
M02*
