%TF.GenerationSoftware,KiCad,Pcbnew,8.0.8*%
%TF.CreationDate,2025-03-18T19:15:26-04:00*%
%TF.ProjectId,477,3437372e-6b69-4636-9164-5f7063625858,rev?*%
%TF.SameCoordinates,Original*%
%TF.FileFunction,Drillmap*%
%TF.FilePolarity,Positive*%
%FSLAX45Y45*%
G04 Gerber Fmt 4.5, Leading zero omitted, Abs format (unit mm)*
G04 Created by KiCad (PCBNEW 8.0.8) date 2025-03-18 19:15:26*
%MOMM*%
%LPD*%
G01*
G04 APERTURE LIST*
%ADD10C,0.100000*%
%ADD11C,0.200000*%
%ADD12C,0.102000*%
%ADD13C,0.238000*%
%ADD14C,0.300000*%
G04 APERTURE END LIST*
D10*
X8935000Y-13530000D02*
G75*
G02*
X8560000Y-13150000I2500J377500D01*
G01*
X8560000Y-7950000D02*
X8560000Y-13150000D01*
X18725000Y-13150000D02*
G75*
G02*
X18350000Y-13530000I-377500J-2500D01*
G01*
X18350000Y-7570000D02*
X8935000Y-7570000D01*
X18725000Y-13150000D02*
X18725000Y-7950000D01*
X8935000Y-13530000D02*
X18350000Y-13530000D01*
X18350000Y-7570000D02*
G75*
G02*
X18725000Y-7950000I-2500J-377500D01*
G01*
X8560000Y-7950000D02*
G75*
G02*
X8935000Y-7570000I377500J2500D01*
G01*
D11*
D10*
X9327200Y-12153905D02*
X9367200Y-12193905D01*
X9367200Y-12153905D02*
X9327200Y-12193905D01*
X9428800Y-8362000D02*
X9468800Y-8402000D01*
X9468800Y-8362000D02*
X9428800Y-8402000D01*
X10317800Y-9784400D02*
X10357800Y-9824400D01*
X10357800Y-9784400D02*
X10317800Y-9824400D01*
X10330000Y-10800000D02*
X10370000Y-10840000D01*
X10370000Y-10800000D02*
X10330000Y-10840000D01*
X10368600Y-12146600D02*
X10408600Y-12186600D01*
X10408600Y-12146600D02*
X10368600Y-12186600D01*
X10602000Y-8514400D02*
X10642000Y-8554400D01*
X10642000Y-8514400D02*
X10602000Y-8554400D01*
X10775000Y-8692200D02*
X10815000Y-8732200D01*
X10815000Y-8692200D02*
X10775000Y-8732200D01*
X10876600Y-8768400D02*
X10916600Y-8808400D01*
X10916600Y-8768400D02*
X10876600Y-8808400D01*
X10904000Y-10800400D02*
X10944000Y-10840400D01*
X10944000Y-10800400D02*
X10904000Y-10840400D01*
X10952800Y-8692200D02*
X10992800Y-8732200D01*
X10992800Y-8692200D02*
X10952800Y-8732200D01*
X10978200Y-8844600D02*
X11018200Y-8884600D01*
X11018200Y-8844600D02*
X10978200Y-8884600D01*
X11117900Y-8730300D02*
X11157900Y-8770300D01*
X11157900Y-8730300D02*
X11117900Y-8770300D01*
X11295700Y-8755700D02*
X11335700Y-8795700D01*
X11335700Y-8755700D02*
X11295700Y-8795700D01*
X11330600Y-8514400D02*
X11370600Y-8554400D01*
X11370600Y-8514400D02*
X11330600Y-8554400D01*
X11511600Y-12095800D02*
X11551600Y-12135800D01*
X11551600Y-12095800D02*
X11511600Y-12135800D01*
X11880000Y-10037500D02*
X11920000Y-10077500D01*
X11920000Y-10037500D02*
X11880000Y-10077500D01*
X11994200Y-12146600D02*
X12034200Y-12186600D01*
X12034200Y-12146600D02*
X11994200Y-12186600D01*
X12146600Y-11791000D02*
X12186600Y-11831000D01*
X12186600Y-11791000D02*
X12146600Y-11831000D01*
X12172000Y-9987600D02*
X12212000Y-10027600D01*
X12212000Y-9987600D02*
X12172000Y-10027600D01*
X12197400Y-8311200D02*
X12237400Y-8351200D01*
X12237400Y-8311200D02*
X12197400Y-8351200D01*
X12273600Y-9606600D02*
X12313600Y-9646600D01*
X12313600Y-9606600D02*
X12273600Y-9646600D01*
X12273600Y-10063800D02*
X12313600Y-10103800D01*
X12313600Y-10063800D02*
X12273600Y-10103800D01*
X12400600Y-10114600D02*
X12440600Y-10154600D01*
X12440600Y-10114600D02*
X12400600Y-10154600D01*
X12502200Y-9454200D02*
X12542200Y-9494200D01*
X12542200Y-9454200D02*
X12502200Y-9494200D01*
X12807000Y-10114600D02*
X12847000Y-10154600D01*
X12847000Y-10114600D02*
X12807000Y-10154600D01*
X13035600Y-9530400D02*
X13075600Y-9570400D01*
X13075600Y-9530400D02*
X13035600Y-9570400D01*
X13130000Y-9815000D02*
X13170000Y-9855000D01*
X13170000Y-9815000D02*
X13130000Y-9855000D01*
X13289600Y-9911400D02*
X13329600Y-9951400D01*
X13329600Y-9911400D02*
X13289600Y-9951400D01*
X13416600Y-10944450D02*
X13456600Y-10984450D01*
X13456600Y-10944450D02*
X13416600Y-10984450D01*
X13416600Y-11079800D02*
X13456600Y-11119800D01*
X13456600Y-11079800D02*
X13416600Y-11119800D01*
X13467400Y-12654600D02*
X13507400Y-12694600D01*
X13507400Y-12654600D02*
X13467400Y-12694600D01*
X13492800Y-11530000D02*
X13532800Y-11570000D01*
X13532800Y-11530000D02*
X13492800Y-11570000D01*
X13696000Y-9428800D02*
X13736000Y-9468800D01*
X13736000Y-9428800D02*
X13696000Y-9468800D01*
X13696000Y-9707735D02*
X13736000Y-9747735D01*
X13736000Y-9707735D02*
X13696000Y-9747735D01*
X13784900Y-9924100D02*
X13824900Y-9964100D01*
X13824900Y-9924100D02*
X13784900Y-9964100D01*
X13835700Y-9428800D02*
X13875700Y-9468800D01*
X13875700Y-9428800D02*
X13835700Y-9468800D01*
X13924600Y-9911400D02*
X13964600Y-9951400D01*
X13964600Y-9911400D02*
X13924600Y-9951400D01*
X14281100Y-9860600D02*
X14321100Y-9900600D01*
X14321100Y-9860600D02*
X14281100Y-9900600D01*
X14438600Y-9911400D02*
X14478600Y-9951400D01*
X14478600Y-9911400D02*
X14438600Y-9951400D01*
X14482935Y-11410465D02*
X14522935Y-11450465D01*
X14522935Y-11410465D02*
X14482935Y-11450465D01*
X14585000Y-9911400D02*
X14625000Y-9951400D01*
X14625000Y-9911400D02*
X14585000Y-9951400D01*
X14588700Y-11384600D02*
X14628700Y-11424600D01*
X14628700Y-11384600D02*
X14588700Y-11424600D01*
X14680000Y-11256500D02*
X14720000Y-11296500D01*
X14720000Y-11256500D02*
X14680000Y-11296500D01*
X14805000Y-12955000D02*
X14845000Y-12995000D01*
X14845000Y-12955000D02*
X14805000Y-12995000D01*
X14813600Y-9784400D02*
X14853600Y-9824400D01*
X14853600Y-9784400D02*
X14813600Y-9824400D01*
X14883177Y-11826823D02*
X14923177Y-11866823D01*
X14923177Y-11826823D02*
X14883177Y-11866823D01*
X14915200Y-10800400D02*
X14955200Y-10840400D01*
X14955200Y-10800400D02*
X14915200Y-10840400D01*
X14980000Y-11080000D02*
X15020000Y-11120000D01*
X15020000Y-11080000D02*
X14980000Y-11120000D01*
X14991400Y-10317800D02*
X15031400Y-10357800D01*
X15031400Y-10317800D02*
X14991400Y-10357800D01*
X15016335Y-10444335D02*
X15056335Y-10484335D01*
X15056335Y-10444335D02*
X15016335Y-10484335D01*
X15042200Y-9479600D02*
X15082200Y-9519600D01*
X15082200Y-9479600D02*
X15042200Y-9519600D01*
X15155000Y-12705000D02*
X15195000Y-12745000D01*
X15195000Y-12705000D02*
X15155000Y-12745000D01*
X15169200Y-10292400D02*
X15209200Y-10332400D01*
X15209200Y-10292400D02*
X15169200Y-10332400D01*
X15220000Y-9483300D02*
X15260000Y-9523300D01*
X15260000Y-9483300D02*
X15220000Y-9523300D01*
X15220000Y-11029000D02*
X15260000Y-11069000D01*
X15260000Y-11029000D02*
X15220000Y-11069000D01*
X15270800Y-10317800D02*
X15310800Y-10357800D01*
X15310800Y-10317800D02*
X15270800Y-10357800D01*
X15348600Y-12648600D02*
X15388600Y-12688600D01*
X15388600Y-12648600D02*
X15348600Y-12688600D01*
X15397800Y-10292400D02*
X15437800Y-10332400D01*
X15437800Y-10292400D02*
X15397800Y-10332400D01*
X15448600Y-12730000D02*
X15488600Y-12770000D01*
X15488600Y-12730000D02*
X15448600Y-12770000D01*
X15548600Y-12630000D02*
X15588600Y-12670000D01*
X15588600Y-12630000D02*
X15548600Y-12670000D01*
X15626400Y-10292400D02*
X15666400Y-10332400D01*
X15666400Y-10292400D02*
X15626400Y-10332400D01*
X15705000Y-12705000D02*
X15745000Y-12745000D01*
X15745000Y-12705000D02*
X15705000Y-12745000D01*
X15855000Y-11562400D02*
X15895000Y-11602400D01*
X15895000Y-11562400D02*
X15855000Y-11602400D01*
X16105000Y-12955000D02*
X16145000Y-12995000D01*
X16145000Y-12955000D02*
X16105000Y-12995000D01*
X16280000Y-11997800D02*
X16320000Y-12037800D01*
X16320000Y-11997800D02*
X16280000Y-12037800D01*
X16337600Y-9454200D02*
X16377600Y-9494200D01*
X16377600Y-9454200D02*
X16337600Y-9494200D01*
X16515400Y-9454200D02*
X16555400Y-9494200D01*
X16555400Y-9454200D02*
X16515400Y-9494200D01*
X16580000Y-12447800D02*
X16620000Y-12487800D01*
X16620000Y-12447800D02*
X16580000Y-12487800D01*
X16666200Y-12780000D02*
X16706200Y-12820000D01*
X16706200Y-12780000D02*
X16666200Y-12820000D01*
X16820200Y-10902000D02*
X16860200Y-10942000D01*
X16860200Y-10902000D02*
X16820200Y-10942000D01*
X17280000Y-10880000D02*
X17320000Y-10920000D01*
X17320000Y-10880000D02*
X17280000Y-10920000D01*
X17287831Y-10174900D02*
X17327831Y-10214900D01*
X17327831Y-10174900D02*
X17287831Y-10214900D01*
X17330000Y-13030000D02*
X17370000Y-13070000D01*
X17370000Y-13030000D02*
X17330000Y-13070000D01*
X17353600Y-11486200D02*
X17393600Y-11526200D01*
X17393600Y-11486200D02*
X17353600Y-11526200D01*
X17429800Y-10292400D02*
X17469800Y-10332400D01*
X17469800Y-10292400D02*
X17429800Y-10332400D01*
X17730000Y-10977400D02*
X17770000Y-11017400D01*
X17770000Y-10977400D02*
X17730000Y-11017400D01*
X17810800Y-10698800D02*
X17850800Y-10738800D01*
X17850800Y-10698800D02*
X17810800Y-10738800D01*
X17912400Y-12451400D02*
X17952400Y-12491400D01*
X17952400Y-12451400D02*
X17912400Y-12491400D01*
X17937800Y-11867200D02*
X17977800Y-11907200D01*
X17977800Y-11867200D02*
X17937800Y-11907200D01*
X12547200Y-7975600D02*
G75*
G02*
X12497200Y-7975600I-25000J0D01*
G01*
X12497200Y-7975600D02*
G75*
G02*
X12547200Y-7975600I25000J0D01*
G01*
X12699600Y-9880600D02*
G75*
G02*
X12649600Y-9880600I-25000J0D01*
G01*
X12649600Y-9880600D02*
G75*
G02*
X12699600Y-9880600I25000J0D01*
G01*
X13385400Y-8026400D02*
G75*
G02*
X13335400Y-8026400I-25000J0D01*
G01*
X13335400Y-8026400D02*
G75*
G02*
X13385400Y-8026400I25000J0D01*
G01*
X13918800Y-8001000D02*
G75*
G02*
X13868800Y-8001000I-25000J0D01*
G01*
X13868800Y-8001000D02*
G75*
G02*
X13918800Y-8001000I25000J0D01*
G01*
X14172800Y-9702800D02*
G75*
G02*
X14122800Y-9702800I-25000J0D01*
G01*
X14122800Y-9702800D02*
G75*
G02*
X14172800Y-9702800I25000J0D01*
G01*
X14757000Y-8077200D02*
G75*
G02*
X14707000Y-8077200I-25000J0D01*
G01*
X14707000Y-8077200D02*
G75*
G02*
X14757000Y-8077200I25000J0D01*
G01*
X15239600Y-8077200D02*
G75*
G02*
X15189600Y-8077200I-25000J0D01*
G01*
X15189600Y-8077200D02*
G75*
G02*
X15239600Y-8077200I25000J0D01*
G01*
X15315800Y-9829800D02*
G75*
G02*
X15265800Y-9829800I-25000J0D01*
G01*
X15265800Y-9829800D02*
G75*
G02*
X15315800Y-9829800I25000J0D01*
G01*
X16052400Y-10007600D02*
G75*
G02*
X16002400Y-10007600I-25000J0D01*
G01*
X16002400Y-10007600D02*
G75*
G02*
X16052400Y-10007600I25000J0D01*
G01*
X16154000Y-8077200D02*
G75*
G02*
X16104000Y-8077200I-25000J0D01*
G01*
X16104000Y-8077200D02*
G75*
G02*
X16154000Y-8077200I25000J0D01*
G01*
X16275000Y-12300000D02*
G75*
G02*
X16225000Y-12300000I-25000J0D01*
G01*
X16225000Y-12300000D02*
G75*
G02*
X16275000Y-12300000I25000J0D01*
G01*
X16585800Y-8077200D02*
G75*
G02*
X16535800Y-8077200I-25000J0D01*
G01*
X16535800Y-8077200D02*
G75*
G02*
X16585800Y-8077200I25000J0D01*
G01*
X17601800Y-8382000D02*
G75*
G02*
X17551800Y-8382000I-25000J0D01*
G01*
X17551800Y-8382000D02*
G75*
G02*
X17601800Y-8382000I25000J0D01*
G01*
X9549000Y-10420000D02*
X9549000Y-10520000D01*
X9499000Y-10470000D02*
X9599000Y-10470000D01*
X9549000Y-10670000D02*
X9549000Y-10770000D01*
X9499000Y-10720000D02*
X9599000Y-10720000D01*
X9549000Y-10870000D02*
X9549000Y-10970000D01*
X9499000Y-10920000D02*
X9599000Y-10920000D01*
X9549000Y-11120000D02*
X9549000Y-11220000D01*
X9499000Y-11170000D02*
X9599000Y-11170000D01*
D12*
X9078463Y-9027663D02*
X9078463Y-8955537D01*
X9006337Y-8955537D01*
X9006337Y-9027663D01*
X9078463Y-9027663D01*
X9078463Y-9281663D02*
X9078463Y-9209537D01*
X9006337Y-9209537D01*
X9006337Y-9281663D01*
X9078463Y-9281663D01*
X9332463Y-9027663D02*
X9332463Y-8955537D01*
X9260337Y-8955537D01*
X9260337Y-9027663D01*
X9332463Y-9027663D01*
X9332463Y-9281663D02*
X9332463Y-9209537D01*
X9260337Y-9209537D01*
X9260337Y-9281663D01*
X9332463Y-9281663D01*
X9586463Y-9027663D02*
X9586463Y-8955537D01*
X9514337Y-8955537D01*
X9514337Y-9027663D01*
X9586463Y-9027663D01*
X9586463Y-9281663D02*
X9586463Y-9209537D01*
X9514337Y-9209537D01*
X9514337Y-9281663D01*
X9586463Y-9281663D01*
X13142463Y-13167863D02*
X13142463Y-13095737D01*
X13070337Y-13095737D01*
X13070337Y-13167863D01*
X13142463Y-13167863D01*
X13396463Y-13167863D02*
X13396463Y-13095737D01*
X13324337Y-13095737D01*
X13324337Y-13167863D01*
X13396463Y-13167863D01*
X13650463Y-13167863D02*
X13650463Y-13095737D01*
X13578337Y-13095737D01*
X13578337Y-13167863D01*
X13650463Y-13167863D01*
X13904463Y-13167863D02*
X13904463Y-13095737D01*
X13832337Y-13095737D01*
X13832337Y-13167863D01*
X13904463Y-13167863D01*
X14158463Y-13167863D02*
X14158463Y-13095737D01*
X14086337Y-13095737D01*
X14086337Y-13167863D01*
X14158463Y-13167863D01*
X18070063Y-9181463D02*
X18070063Y-9109337D01*
X17997937Y-9109337D01*
X17997937Y-9181463D01*
X18070063Y-9181463D01*
X18070063Y-9435463D02*
X18070063Y-9363337D01*
X17997937Y-9363337D01*
X17997937Y-9435463D01*
X18070063Y-9435463D01*
X18070063Y-9689463D02*
X18070063Y-9617337D01*
X17997937Y-9617337D01*
X17997937Y-9689463D01*
X18070063Y-9689463D01*
X18324063Y-9181463D02*
X18324063Y-9109337D01*
X18251937Y-9109337D01*
X18251937Y-9181463D01*
X18324063Y-9181463D01*
X18324063Y-9435463D02*
X18324063Y-9363337D01*
X18251937Y-9363337D01*
X18251937Y-9435463D01*
X18324063Y-9435463D01*
X18324063Y-9689463D02*
X18324063Y-9617337D01*
X18251937Y-9617337D01*
X18251937Y-9689463D01*
X18324063Y-9689463D01*
D13*
X9278000Y-10282000D02*
X9397000Y-10163000D01*
X9278000Y-10044000D01*
X9159000Y-10163000D01*
X9278000Y-10282000D01*
X9278000Y-11596000D02*
X9397000Y-11477000D01*
X9278000Y-11358000D01*
X9159000Y-11477000D01*
X9278000Y-11596000D01*
D14*
X9850000Y-12950000D02*
X10150000Y-13250000D01*
X10150000Y-12950000D02*
X9850000Y-13250000D01*
X10150000Y-13100000D02*
G75*
G02*
X9850000Y-13100000I-150000J0D01*
G01*
X9850000Y-13100000D02*
G75*
G02*
X10150000Y-13100000I150000J0D01*
G01*
D11*
X8815769Y-13846484D02*
X8815769Y-13646484D01*
X8815769Y-13646484D02*
X8863388Y-13646484D01*
X8863388Y-13646484D02*
X8891959Y-13656008D01*
X8891959Y-13656008D02*
X8911007Y-13675055D01*
X8911007Y-13675055D02*
X8920530Y-13694103D01*
X8920530Y-13694103D02*
X8930054Y-13732198D01*
X8930054Y-13732198D02*
X8930054Y-13760769D01*
X8930054Y-13760769D02*
X8920530Y-13798865D01*
X8920530Y-13798865D02*
X8911007Y-13817912D01*
X8911007Y-13817912D02*
X8891959Y-13836960D01*
X8891959Y-13836960D02*
X8863388Y-13846484D01*
X8863388Y-13846484D02*
X8815769Y-13846484D01*
X9015769Y-13846484D02*
X9015769Y-13713150D01*
X9015769Y-13751246D02*
X9025292Y-13732198D01*
X9025292Y-13732198D02*
X9034816Y-13722674D01*
X9034816Y-13722674D02*
X9053864Y-13713150D01*
X9053864Y-13713150D02*
X9072911Y-13713150D01*
X9139578Y-13846484D02*
X9139578Y-13713150D01*
X9139578Y-13646484D02*
X9130054Y-13656008D01*
X9130054Y-13656008D02*
X9139578Y-13665531D01*
X9139578Y-13665531D02*
X9149102Y-13656008D01*
X9149102Y-13656008D02*
X9139578Y-13646484D01*
X9139578Y-13646484D02*
X9139578Y-13665531D01*
X9263388Y-13846484D02*
X9244340Y-13836960D01*
X9244340Y-13836960D02*
X9234816Y-13817912D01*
X9234816Y-13817912D02*
X9234816Y-13646484D01*
X9368149Y-13846484D02*
X9349102Y-13836960D01*
X9349102Y-13836960D02*
X9339578Y-13817912D01*
X9339578Y-13817912D02*
X9339578Y-13646484D01*
X9596721Y-13846484D02*
X9596721Y-13646484D01*
X9596721Y-13646484D02*
X9663388Y-13789341D01*
X9663388Y-13789341D02*
X9730054Y-13646484D01*
X9730054Y-13646484D02*
X9730054Y-13846484D01*
X9911007Y-13846484D02*
X9911007Y-13741722D01*
X9911007Y-13741722D02*
X9901483Y-13722674D01*
X9901483Y-13722674D02*
X9882435Y-13713150D01*
X9882435Y-13713150D02*
X9844340Y-13713150D01*
X9844340Y-13713150D02*
X9825292Y-13722674D01*
X9911007Y-13836960D02*
X9891959Y-13846484D01*
X9891959Y-13846484D02*
X9844340Y-13846484D01*
X9844340Y-13846484D02*
X9825292Y-13836960D01*
X9825292Y-13836960D02*
X9815769Y-13817912D01*
X9815769Y-13817912D02*
X9815769Y-13798865D01*
X9815769Y-13798865D02*
X9825292Y-13779817D01*
X9825292Y-13779817D02*
X9844340Y-13770293D01*
X9844340Y-13770293D02*
X9891959Y-13770293D01*
X9891959Y-13770293D02*
X9911007Y-13760769D01*
X10006245Y-13713150D02*
X10006245Y-13913150D01*
X10006245Y-13722674D02*
X10025292Y-13713150D01*
X10025292Y-13713150D02*
X10063388Y-13713150D01*
X10063388Y-13713150D02*
X10082435Y-13722674D01*
X10082435Y-13722674D02*
X10091959Y-13732198D01*
X10091959Y-13732198D02*
X10101483Y-13751246D01*
X10101483Y-13751246D02*
X10101483Y-13808388D01*
X10101483Y-13808388D02*
X10091959Y-13827436D01*
X10091959Y-13827436D02*
X10082435Y-13836960D01*
X10082435Y-13836960D02*
X10063388Y-13846484D01*
X10063388Y-13846484D02*
X10025292Y-13846484D01*
X10025292Y-13846484D02*
X10006245Y-13836960D01*
X10187197Y-13827436D02*
X10196721Y-13836960D01*
X10196721Y-13836960D02*
X10187197Y-13846484D01*
X10187197Y-13846484D02*
X10177673Y-13836960D01*
X10177673Y-13836960D02*
X10187197Y-13827436D01*
X10187197Y-13827436D02*
X10187197Y-13846484D01*
X10187197Y-13722674D02*
X10196721Y-13732198D01*
X10196721Y-13732198D02*
X10187197Y-13741722D01*
X10187197Y-13741722D02*
X10177673Y-13732198D01*
X10177673Y-13732198D02*
X10187197Y-13722674D01*
X10187197Y-13722674D02*
X10187197Y-13741722D01*
D10*
X8514992Y-14155000D02*
X8554992Y-14195000D01*
X8554992Y-14155000D02*
X8514992Y-14195000D01*
D11*
X8853864Y-14066484D02*
X8872911Y-14066484D01*
X8872911Y-14066484D02*
X8891959Y-14076008D01*
X8891959Y-14076008D02*
X8901483Y-14085531D01*
X8901483Y-14085531D02*
X8911007Y-14104579D01*
X8911007Y-14104579D02*
X8920530Y-14142674D01*
X8920530Y-14142674D02*
X8920530Y-14190293D01*
X8920530Y-14190293D02*
X8911007Y-14228388D01*
X8911007Y-14228388D02*
X8901483Y-14247436D01*
X8901483Y-14247436D02*
X8891959Y-14256960D01*
X8891959Y-14256960D02*
X8872911Y-14266484D01*
X8872911Y-14266484D02*
X8853864Y-14266484D01*
X8853864Y-14266484D02*
X8834816Y-14256960D01*
X8834816Y-14256960D02*
X8825292Y-14247436D01*
X8825292Y-14247436D02*
X8815769Y-14228388D01*
X8815769Y-14228388D02*
X8806245Y-14190293D01*
X8806245Y-14190293D02*
X8806245Y-14142674D01*
X8806245Y-14142674D02*
X8815769Y-14104579D01*
X8815769Y-14104579D02*
X8825292Y-14085531D01*
X8825292Y-14085531D02*
X8834816Y-14076008D01*
X8834816Y-14076008D02*
X8853864Y-14066484D01*
X9006245Y-14247436D02*
X9015769Y-14256960D01*
X9015769Y-14256960D02*
X9006245Y-14266484D01*
X9006245Y-14266484D02*
X8996721Y-14256960D01*
X8996721Y-14256960D02*
X9006245Y-14247436D01*
X9006245Y-14247436D02*
X9006245Y-14266484D01*
X9187197Y-14133150D02*
X9187197Y-14266484D01*
X9139578Y-14056960D02*
X9091959Y-14199817D01*
X9091959Y-14199817D02*
X9215769Y-14199817D01*
X9330054Y-14066484D02*
X9349102Y-14066484D01*
X9349102Y-14066484D02*
X9368150Y-14076008D01*
X9368150Y-14076008D02*
X9377673Y-14085531D01*
X9377673Y-14085531D02*
X9387197Y-14104579D01*
X9387197Y-14104579D02*
X9396721Y-14142674D01*
X9396721Y-14142674D02*
X9396721Y-14190293D01*
X9396721Y-14190293D02*
X9387197Y-14228388D01*
X9387197Y-14228388D02*
X9377673Y-14247436D01*
X9377673Y-14247436D02*
X9368150Y-14256960D01*
X9368150Y-14256960D02*
X9349102Y-14266484D01*
X9349102Y-14266484D02*
X9330054Y-14266484D01*
X9330054Y-14266484D02*
X9311007Y-14256960D01*
X9311007Y-14256960D02*
X9301483Y-14247436D01*
X9301483Y-14247436D02*
X9291959Y-14228388D01*
X9291959Y-14228388D02*
X9282435Y-14190293D01*
X9282435Y-14190293D02*
X9282435Y-14142674D01*
X9282435Y-14142674D02*
X9291959Y-14104579D01*
X9291959Y-14104579D02*
X9301483Y-14085531D01*
X9301483Y-14085531D02*
X9311007Y-14076008D01*
X9311007Y-14076008D02*
X9330054Y-14066484D01*
X9520530Y-14066484D02*
X9539578Y-14066484D01*
X9539578Y-14066484D02*
X9558626Y-14076008D01*
X9558626Y-14076008D02*
X9568150Y-14085531D01*
X9568150Y-14085531D02*
X9577673Y-14104579D01*
X9577673Y-14104579D02*
X9587197Y-14142674D01*
X9587197Y-14142674D02*
X9587197Y-14190293D01*
X9587197Y-14190293D02*
X9577673Y-14228388D01*
X9577673Y-14228388D02*
X9568150Y-14247436D01*
X9568150Y-14247436D02*
X9558626Y-14256960D01*
X9558626Y-14256960D02*
X9539578Y-14266484D01*
X9539578Y-14266484D02*
X9520530Y-14266484D01*
X9520530Y-14266484D02*
X9501483Y-14256960D01*
X9501483Y-14256960D02*
X9491959Y-14247436D01*
X9491959Y-14247436D02*
X9482435Y-14228388D01*
X9482435Y-14228388D02*
X9472911Y-14190293D01*
X9472911Y-14190293D02*
X9472911Y-14142674D01*
X9472911Y-14142674D02*
X9482435Y-14104579D01*
X9482435Y-14104579D02*
X9491959Y-14085531D01*
X9491959Y-14085531D02*
X9501483Y-14076008D01*
X9501483Y-14076008D02*
X9520530Y-14066484D01*
X9672911Y-14266484D02*
X9672911Y-14133150D01*
X9672911Y-14152198D02*
X9682435Y-14142674D01*
X9682435Y-14142674D02*
X9701483Y-14133150D01*
X9701483Y-14133150D02*
X9730054Y-14133150D01*
X9730054Y-14133150D02*
X9749102Y-14142674D01*
X9749102Y-14142674D02*
X9758626Y-14161722D01*
X9758626Y-14161722D02*
X9758626Y-14266484D01*
X9758626Y-14161722D02*
X9768150Y-14142674D01*
X9768150Y-14142674D02*
X9787197Y-14133150D01*
X9787197Y-14133150D02*
X9815769Y-14133150D01*
X9815769Y-14133150D02*
X9834816Y-14142674D01*
X9834816Y-14142674D02*
X9844340Y-14161722D01*
X9844340Y-14161722D02*
X9844340Y-14266484D01*
X9939578Y-14266484D02*
X9939578Y-14133150D01*
X9939578Y-14152198D02*
X9949102Y-14142674D01*
X9949102Y-14142674D02*
X9968150Y-14133150D01*
X9968150Y-14133150D02*
X9996721Y-14133150D01*
X9996721Y-14133150D02*
X10015769Y-14142674D01*
X10015769Y-14142674D02*
X10025292Y-14161722D01*
X10025292Y-14161722D02*
X10025292Y-14266484D01*
X10025292Y-14161722D02*
X10034816Y-14142674D01*
X10034816Y-14142674D02*
X10053864Y-14133150D01*
X10053864Y-14133150D02*
X10082435Y-14133150D01*
X10082435Y-14133150D02*
X10101483Y-14142674D01*
X10101483Y-14142674D02*
X10111007Y-14161722D01*
X10111007Y-14161722D02*
X10111007Y-14266484D01*
X10501483Y-14056960D02*
X10330054Y-14314103D01*
X10758626Y-14066484D02*
X10777674Y-14066484D01*
X10777674Y-14066484D02*
X10796721Y-14076008D01*
X10796721Y-14076008D02*
X10806245Y-14085531D01*
X10806245Y-14085531D02*
X10815769Y-14104579D01*
X10815769Y-14104579D02*
X10825293Y-14142674D01*
X10825293Y-14142674D02*
X10825293Y-14190293D01*
X10825293Y-14190293D02*
X10815769Y-14228388D01*
X10815769Y-14228388D02*
X10806245Y-14247436D01*
X10806245Y-14247436D02*
X10796721Y-14256960D01*
X10796721Y-14256960D02*
X10777674Y-14266484D01*
X10777674Y-14266484D02*
X10758626Y-14266484D01*
X10758626Y-14266484D02*
X10739578Y-14256960D01*
X10739578Y-14256960D02*
X10730054Y-14247436D01*
X10730054Y-14247436D02*
X10720531Y-14228388D01*
X10720531Y-14228388D02*
X10711007Y-14190293D01*
X10711007Y-14190293D02*
X10711007Y-14142674D01*
X10711007Y-14142674D02*
X10720531Y-14104579D01*
X10720531Y-14104579D02*
X10730054Y-14085531D01*
X10730054Y-14085531D02*
X10739578Y-14076008D01*
X10739578Y-14076008D02*
X10758626Y-14066484D01*
X10911007Y-14247436D02*
X10920531Y-14256960D01*
X10920531Y-14256960D02*
X10911007Y-14266484D01*
X10911007Y-14266484D02*
X10901483Y-14256960D01*
X10901483Y-14256960D02*
X10911007Y-14247436D01*
X10911007Y-14247436D02*
X10911007Y-14266484D01*
X11044340Y-14066484D02*
X11063388Y-14066484D01*
X11063388Y-14066484D02*
X11082435Y-14076008D01*
X11082435Y-14076008D02*
X11091959Y-14085531D01*
X11091959Y-14085531D02*
X11101483Y-14104579D01*
X11101483Y-14104579D02*
X11111007Y-14142674D01*
X11111007Y-14142674D02*
X11111007Y-14190293D01*
X11111007Y-14190293D02*
X11101483Y-14228388D01*
X11101483Y-14228388D02*
X11091959Y-14247436D01*
X11091959Y-14247436D02*
X11082435Y-14256960D01*
X11082435Y-14256960D02*
X11063388Y-14266484D01*
X11063388Y-14266484D02*
X11044340Y-14266484D01*
X11044340Y-14266484D02*
X11025293Y-14256960D01*
X11025293Y-14256960D02*
X11015769Y-14247436D01*
X11015769Y-14247436D02*
X11006245Y-14228388D01*
X11006245Y-14228388D02*
X10996721Y-14190293D01*
X10996721Y-14190293D02*
X10996721Y-14142674D01*
X10996721Y-14142674D02*
X11006245Y-14104579D01*
X11006245Y-14104579D02*
X11015769Y-14085531D01*
X11015769Y-14085531D02*
X11025293Y-14076008D01*
X11025293Y-14076008D02*
X11044340Y-14066484D01*
X11301483Y-14266484D02*
X11187197Y-14266484D01*
X11244340Y-14266484D02*
X11244340Y-14066484D01*
X11244340Y-14066484D02*
X11225292Y-14095055D01*
X11225292Y-14095055D02*
X11206245Y-14114103D01*
X11206245Y-14114103D02*
X11187197Y-14123627D01*
X11482435Y-14066484D02*
X11387197Y-14066484D01*
X11387197Y-14066484D02*
X11377673Y-14161722D01*
X11377673Y-14161722D02*
X11387197Y-14152198D01*
X11387197Y-14152198D02*
X11406245Y-14142674D01*
X11406245Y-14142674D02*
X11453864Y-14142674D01*
X11453864Y-14142674D02*
X11472912Y-14152198D01*
X11472912Y-14152198D02*
X11482435Y-14161722D01*
X11482435Y-14161722D02*
X11491959Y-14180769D01*
X11491959Y-14180769D02*
X11491959Y-14228388D01*
X11491959Y-14228388D02*
X11482435Y-14247436D01*
X11482435Y-14247436D02*
X11472912Y-14256960D01*
X11472912Y-14256960D02*
X11453864Y-14266484D01*
X11453864Y-14266484D02*
X11406245Y-14266484D01*
X11406245Y-14266484D02*
X11387197Y-14256960D01*
X11387197Y-14256960D02*
X11377673Y-14247436D01*
X11558626Y-14066484D02*
X11691959Y-14066484D01*
X11691959Y-14066484D02*
X11606245Y-14266484D01*
X11758626Y-14066484D02*
X11758626Y-14104579D01*
X11834816Y-14066484D02*
X11834816Y-14104579D01*
X12130055Y-14342674D02*
X12120531Y-14333150D01*
X12120531Y-14333150D02*
X12101483Y-14304579D01*
X12101483Y-14304579D02*
X12091959Y-14285531D01*
X12091959Y-14285531D02*
X12082435Y-14256960D01*
X12082435Y-14256960D02*
X12072912Y-14209341D01*
X12072912Y-14209341D02*
X12072912Y-14171246D01*
X12072912Y-14171246D02*
X12082435Y-14123627D01*
X12082435Y-14123627D02*
X12091959Y-14095055D01*
X12091959Y-14095055D02*
X12101483Y-14076008D01*
X12101483Y-14076008D02*
X12120531Y-14047436D01*
X12120531Y-14047436D02*
X12130055Y-14037912D01*
X12187197Y-14066484D02*
X12320531Y-14066484D01*
X12320531Y-14066484D02*
X12234816Y-14266484D01*
X12406245Y-14266484D02*
X12444340Y-14266484D01*
X12444340Y-14266484D02*
X12463388Y-14256960D01*
X12463388Y-14256960D02*
X12472912Y-14247436D01*
X12472912Y-14247436D02*
X12491959Y-14218865D01*
X12491959Y-14218865D02*
X12501483Y-14180769D01*
X12501483Y-14180769D02*
X12501483Y-14104579D01*
X12501483Y-14104579D02*
X12491959Y-14085531D01*
X12491959Y-14085531D02*
X12482435Y-14076008D01*
X12482435Y-14076008D02*
X12463388Y-14066484D01*
X12463388Y-14066484D02*
X12425293Y-14066484D01*
X12425293Y-14066484D02*
X12406245Y-14076008D01*
X12406245Y-14076008D02*
X12396721Y-14085531D01*
X12396721Y-14085531D02*
X12387197Y-14104579D01*
X12387197Y-14104579D02*
X12387197Y-14152198D01*
X12387197Y-14152198D02*
X12396721Y-14171246D01*
X12396721Y-14171246D02*
X12406245Y-14180769D01*
X12406245Y-14180769D02*
X12425293Y-14190293D01*
X12425293Y-14190293D02*
X12463388Y-14190293D01*
X12463388Y-14190293D02*
X12482435Y-14180769D01*
X12482435Y-14180769D02*
X12491959Y-14171246D01*
X12491959Y-14171246D02*
X12501483Y-14152198D01*
X12739578Y-14266484D02*
X12739578Y-14066484D01*
X12825293Y-14266484D02*
X12825293Y-14161722D01*
X12825293Y-14161722D02*
X12815769Y-14142674D01*
X12815769Y-14142674D02*
X12796721Y-14133150D01*
X12796721Y-14133150D02*
X12768150Y-14133150D01*
X12768150Y-14133150D02*
X12749102Y-14142674D01*
X12749102Y-14142674D02*
X12739578Y-14152198D01*
X12949102Y-14266484D02*
X12930055Y-14256960D01*
X12930055Y-14256960D02*
X12920531Y-14247436D01*
X12920531Y-14247436D02*
X12911007Y-14228388D01*
X12911007Y-14228388D02*
X12911007Y-14171246D01*
X12911007Y-14171246D02*
X12920531Y-14152198D01*
X12920531Y-14152198D02*
X12930055Y-14142674D01*
X12930055Y-14142674D02*
X12949102Y-14133150D01*
X12949102Y-14133150D02*
X12977674Y-14133150D01*
X12977674Y-14133150D02*
X12996721Y-14142674D01*
X12996721Y-14142674D02*
X13006245Y-14152198D01*
X13006245Y-14152198D02*
X13015769Y-14171246D01*
X13015769Y-14171246D02*
X13015769Y-14228388D01*
X13015769Y-14228388D02*
X13006245Y-14247436D01*
X13006245Y-14247436D02*
X12996721Y-14256960D01*
X12996721Y-14256960D02*
X12977674Y-14266484D01*
X12977674Y-14266484D02*
X12949102Y-14266484D01*
X13130055Y-14266484D02*
X13111007Y-14256960D01*
X13111007Y-14256960D02*
X13101483Y-14237912D01*
X13101483Y-14237912D02*
X13101483Y-14066484D01*
X13282436Y-14256960D02*
X13263388Y-14266484D01*
X13263388Y-14266484D02*
X13225293Y-14266484D01*
X13225293Y-14266484D02*
X13206245Y-14256960D01*
X13206245Y-14256960D02*
X13196721Y-14237912D01*
X13196721Y-14237912D02*
X13196721Y-14161722D01*
X13196721Y-14161722D02*
X13206245Y-14142674D01*
X13206245Y-14142674D02*
X13225293Y-14133150D01*
X13225293Y-14133150D02*
X13263388Y-14133150D01*
X13263388Y-14133150D02*
X13282436Y-14142674D01*
X13282436Y-14142674D02*
X13291959Y-14161722D01*
X13291959Y-14161722D02*
X13291959Y-14180769D01*
X13291959Y-14180769D02*
X13196721Y-14199817D01*
X13368150Y-14256960D02*
X13387197Y-14266484D01*
X13387197Y-14266484D02*
X13425293Y-14266484D01*
X13425293Y-14266484D02*
X13444340Y-14256960D01*
X13444340Y-14256960D02*
X13453864Y-14237912D01*
X13453864Y-14237912D02*
X13453864Y-14228388D01*
X13453864Y-14228388D02*
X13444340Y-14209341D01*
X13444340Y-14209341D02*
X13425293Y-14199817D01*
X13425293Y-14199817D02*
X13396721Y-14199817D01*
X13396721Y-14199817D02*
X13377674Y-14190293D01*
X13377674Y-14190293D02*
X13368150Y-14171246D01*
X13368150Y-14171246D02*
X13368150Y-14161722D01*
X13368150Y-14161722D02*
X13377674Y-14142674D01*
X13377674Y-14142674D02*
X13396721Y-14133150D01*
X13396721Y-14133150D02*
X13425293Y-14133150D01*
X13425293Y-14133150D02*
X13444340Y-14142674D01*
X13520531Y-14342674D02*
X13530055Y-14333150D01*
X13530055Y-14333150D02*
X13549102Y-14304579D01*
X13549102Y-14304579D02*
X13558626Y-14285531D01*
X13558626Y-14285531D02*
X13568150Y-14256960D01*
X13568150Y-14256960D02*
X13577674Y-14209341D01*
X13577674Y-14209341D02*
X13577674Y-14171246D01*
X13577674Y-14171246D02*
X13568150Y-14123627D01*
X13568150Y-14123627D02*
X13558626Y-14095055D01*
X13558626Y-14095055D02*
X13549102Y-14076008D01*
X13549102Y-14076008D02*
X13530055Y-14047436D01*
X13530055Y-14047436D02*
X13520531Y-14037912D01*
D10*
X8554992Y-14439000D02*
G75*
G02*
X8504992Y-14439000I-25000J0D01*
G01*
X8504992Y-14439000D02*
G75*
G02*
X8554992Y-14439000I25000J0D01*
G01*
D11*
X8853864Y-14330484D02*
X8872911Y-14330484D01*
X8872911Y-14330484D02*
X8891959Y-14340008D01*
X8891959Y-14340008D02*
X8901483Y-14349531D01*
X8901483Y-14349531D02*
X8911007Y-14368579D01*
X8911007Y-14368579D02*
X8920530Y-14406674D01*
X8920530Y-14406674D02*
X8920530Y-14454293D01*
X8920530Y-14454293D02*
X8911007Y-14492388D01*
X8911007Y-14492388D02*
X8901483Y-14511436D01*
X8901483Y-14511436D02*
X8891959Y-14520960D01*
X8891959Y-14520960D02*
X8872911Y-14530484D01*
X8872911Y-14530484D02*
X8853864Y-14530484D01*
X8853864Y-14530484D02*
X8834816Y-14520960D01*
X8834816Y-14520960D02*
X8825292Y-14511436D01*
X8825292Y-14511436D02*
X8815769Y-14492388D01*
X8815769Y-14492388D02*
X8806245Y-14454293D01*
X8806245Y-14454293D02*
X8806245Y-14406674D01*
X8806245Y-14406674D02*
X8815769Y-14368579D01*
X8815769Y-14368579D02*
X8825292Y-14349531D01*
X8825292Y-14349531D02*
X8834816Y-14340008D01*
X8834816Y-14340008D02*
X8853864Y-14330484D01*
X9006245Y-14511436D02*
X9015769Y-14520960D01*
X9015769Y-14520960D02*
X9006245Y-14530484D01*
X9006245Y-14530484D02*
X8996721Y-14520960D01*
X8996721Y-14520960D02*
X9006245Y-14511436D01*
X9006245Y-14511436D02*
X9006245Y-14530484D01*
X9196721Y-14330484D02*
X9101483Y-14330484D01*
X9101483Y-14330484D02*
X9091959Y-14425722D01*
X9091959Y-14425722D02*
X9101483Y-14416198D01*
X9101483Y-14416198D02*
X9120530Y-14406674D01*
X9120530Y-14406674D02*
X9168150Y-14406674D01*
X9168150Y-14406674D02*
X9187197Y-14416198D01*
X9187197Y-14416198D02*
X9196721Y-14425722D01*
X9196721Y-14425722D02*
X9206245Y-14444769D01*
X9206245Y-14444769D02*
X9206245Y-14492388D01*
X9206245Y-14492388D02*
X9196721Y-14511436D01*
X9196721Y-14511436D02*
X9187197Y-14520960D01*
X9187197Y-14520960D02*
X9168150Y-14530484D01*
X9168150Y-14530484D02*
X9120530Y-14530484D01*
X9120530Y-14530484D02*
X9101483Y-14520960D01*
X9101483Y-14520960D02*
X9091959Y-14511436D01*
X9330054Y-14330484D02*
X9349102Y-14330484D01*
X9349102Y-14330484D02*
X9368150Y-14340008D01*
X9368150Y-14340008D02*
X9377673Y-14349531D01*
X9377673Y-14349531D02*
X9387197Y-14368579D01*
X9387197Y-14368579D02*
X9396721Y-14406674D01*
X9396721Y-14406674D02*
X9396721Y-14454293D01*
X9396721Y-14454293D02*
X9387197Y-14492388D01*
X9387197Y-14492388D02*
X9377673Y-14511436D01*
X9377673Y-14511436D02*
X9368150Y-14520960D01*
X9368150Y-14520960D02*
X9349102Y-14530484D01*
X9349102Y-14530484D02*
X9330054Y-14530484D01*
X9330054Y-14530484D02*
X9311007Y-14520960D01*
X9311007Y-14520960D02*
X9301483Y-14511436D01*
X9301483Y-14511436D02*
X9291959Y-14492388D01*
X9291959Y-14492388D02*
X9282435Y-14454293D01*
X9282435Y-14454293D02*
X9282435Y-14406674D01*
X9282435Y-14406674D02*
X9291959Y-14368579D01*
X9291959Y-14368579D02*
X9301483Y-14349531D01*
X9301483Y-14349531D02*
X9311007Y-14340008D01*
X9311007Y-14340008D02*
X9330054Y-14330484D01*
X9520530Y-14330484D02*
X9539578Y-14330484D01*
X9539578Y-14330484D02*
X9558626Y-14340008D01*
X9558626Y-14340008D02*
X9568150Y-14349531D01*
X9568150Y-14349531D02*
X9577673Y-14368579D01*
X9577673Y-14368579D02*
X9587197Y-14406674D01*
X9587197Y-14406674D02*
X9587197Y-14454293D01*
X9587197Y-14454293D02*
X9577673Y-14492388D01*
X9577673Y-14492388D02*
X9568150Y-14511436D01*
X9568150Y-14511436D02*
X9558626Y-14520960D01*
X9558626Y-14520960D02*
X9539578Y-14530484D01*
X9539578Y-14530484D02*
X9520530Y-14530484D01*
X9520530Y-14530484D02*
X9501483Y-14520960D01*
X9501483Y-14520960D02*
X9491959Y-14511436D01*
X9491959Y-14511436D02*
X9482435Y-14492388D01*
X9482435Y-14492388D02*
X9472911Y-14454293D01*
X9472911Y-14454293D02*
X9472911Y-14406674D01*
X9472911Y-14406674D02*
X9482435Y-14368579D01*
X9482435Y-14368579D02*
X9491959Y-14349531D01*
X9491959Y-14349531D02*
X9501483Y-14340008D01*
X9501483Y-14340008D02*
X9520530Y-14330484D01*
X9672911Y-14530484D02*
X9672911Y-14397150D01*
X9672911Y-14416198D02*
X9682435Y-14406674D01*
X9682435Y-14406674D02*
X9701483Y-14397150D01*
X9701483Y-14397150D02*
X9730054Y-14397150D01*
X9730054Y-14397150D02*
X9749102Y-14406674D01*
X9749102Y-14406674D02*
X9758626Y-14425722D01*
X9758626Y-14425722D02*
X9758626Y-14530484D01*
X9758626Y-14425722D02*
X9768150Y-14406674D01*
X9768150Y-14406674D02*
X9787197Y-14397150D01*
X9787197Y-14397150D02*
X9815769Y-14397150D01*
X9815769Y-14397150D02*
X9834816Y-14406674D01*
X9834816Y-14406674D02*
X9844340Y-14425722D01*
X9844340Y-14425722D02*
X9844340Y-14530484D01*
X9939578Y-14530484D02*
X9939578Y-14397150D01*
X9939578Y-14416198D02*
X9949102Y-14406674D01*
X9949102Y-14406674D02*
X9968150Y-14397150D01*
X9968150Y-14397150D02*
X9996721Y-14397150D01*
X9996721Y-14397150D02*
X10015769Y-14406674D01*
X10015769Y-14406674D02*
X10025292Y-14425722D01*
X10025292Y-14425722D02*
X10025292Y-14530484D01*
X10025292Y-14425722D02*
X10034816Y-14406674D01*
X10034816Y-14406674D02*
X10053864Y-14397150D01*
X10053864Y-14397150D02*
X10082435Y-14397150D01*
X10082435Y-14397150D02*
X10101483Y-14406674D01*
X10101483Y-14406674D02*
X10111007Y-14425722D01*
X10111007Y-14425722D02*
X10111007Y-14530484D01*
X10501483Y-14320960D02*
X10330054Y-14578103D01*
X10758626Y-14330484D02*
X10777674Y-14330484D01*
X10777674Y-14330484D02*
X10796721Y-14340008D01*
X10796721Y-14340008D02*
X10806245Y-14349531D01*
X10806245Y-14349531D02*
X10815769Y-14368579D01*
X10815769Y-14368579D02*
X10825293Y-14406674D01*
X10825293Y-14406674D02*
X10825293Y-14454293D01*
X10825293Y-14454293D02*
X10815769Y-14492388D01*
X10815769Y-14492388D02*
X10806245Y-14511436D01*
X10806245Y-14511436D02*
X10796721Y-14520960D01*
X10796721Y-14520960D02*
X10777674Y-14530484D01*
X10777674Y-14530484D02*
X10758626Y-14530484D01*
X10758626Y-14530484D02*
X10739578Y-14520960D01*
X10739578Y-14520960D02*
X10730054Y-14511436D01*
X10730054Y-14511436D02*
X10720531Y-14492388D01*
X10720531Y-14492388D02*
X10711007Y-14454293D01*
X10711007Y-14454293D02*
X10711007Y-14406674D01*
X10711007Y-14406674D02*
X10720531Y-14368579D01*
X10720531Y-14368579D02*
X10730054Y-14349531D01*
X10730054Y-14349531D02*
X10739578Y-14340008D01*
X10739578Y-14340008D02*
X10758626Y-14330484D01*
X10911007Y-14511436D02*
X10920531Y-14520960D01*
X10920531Y-14520960D02*
X10911007Y-14530484D01*
X10911007Y-14530484D02*
X10901483Y-14520960D01*
X10901483Y-14520960D02*
X10911007Y-14511436D01*
X10911007Y-14511436D02*
X10911007Y-14530484D01*
X11044340Y-14330484D02*
X11063388Y-14330484D01*
X11063388Y-14330484D02*
X11082435Y-14340008D01*
X11082435Y-14340008D02*
X11091959Y-14349531D01*
X11091959Y-14349531D02*
X11101483Y-14368579D01*
X11101483Y-14368579D02*
X11111007Y-14406674D01*
X11111007Y-14406674D02*
X11111007Y-14454293D01*
X11111007Y-14454293D02*
X11101483Y-14492388D01*
X11101483Y-14492388D02*
X11091959Y-14511436D01*
X11091959Y-14511436D02*
X11082435Y-14520960D01*
X11082435Y-14520960D02*
X11063388Y-14530484D01*
X11063388Y-14530484D02*
X11044340Y-14530484D01*
X11044340Y-14530484D02*
X11025293Y-14520960D01*
X11025293Y-14520960D02*
X11015769Y-14511436D01*
X11015769Y-14511436D02*
X11006245Y-14492388D01*
X11006245Y-14492388D02*
X10996721Y-14454293D01*
X10996721Y-14454293D02*
X10996721Y-14406674D01*
X10996721Y-14406674D02*
X11006245Y-14368579D01*
X11006245Y-14368579D02*
X11015769Y-14349531D01*
X11015769Y-14349531D02*
X11025293Y-14340008D01*
X11025293Y-14340008D02*
X11044340Y-14330484D01*
X11301483Y-14530484D02*
X11187197Y-14530484D01*
X11244340Y-14530484D02*
X11244340Y-14330484D01*
X11244340Y-14330484D02*
X11225292Y-14359055D01*
X11225292Y-14359055D02*
X11206245Y-14378103D01*
X11206245Y-14378103D02*
X11187197Y-14387627D01*
X11396721Y-14530484D02*
X11434816Y-14530484D01*
X11434816Y-14530484D02*
X11453864Y-14520960D01*
X11453864Y-14520960D02*
X11463388Y-14511436D01*
X11463388Y-14511436D02*
X11482435Y-14482865D01*
X11482435Y-14482865D02*
X11491959Y-14444769D01*
X11491959Y-14444769D02*
X11491959Y-14368579D01*
X11491959Y-14368579D02*
X11482435Y-14349531D01*
X11482435Y-14349531D02*
X11472912Y-14340008D01*
X11472912Y-14340008D02*
X11453864Y-14330484D01*
X11453864Y-14330484D02*
X11415769Y-14330484D01*
X11415769Y-14330484D02*
X11396721Y-14340008D01*
X11396721Y-14340008D02*
X11387197Y-14349531D01*
X11387197Y-14349531D02*
X11377673Y-14368579D01*
X11377673Y-14368579D02*
X11377673Y-14416198D01*
X11377673Y-14416198D02*
X11387197Y-14435246D01*
X11387197Y-14435246D02*
X11396721Y-14444769D01*
X11396721Y-14444769D02*
X11415769Y-14454293D01*
X11415769Y-14454293D02*
X11453864Y-14454293D01*
X11453864Y-14454293D02*
X11472912Y-14444769D01*
X11472912Y-14444769D02*
X11482435Y-14435246D01*
X11482435Y-14435246D02*
X11491959Y-14416198D01*
X11558626Y-14330484D02*
X11691959Y-14330484D01*
X11691959Y-14330484D02*
X11606245Y-14530484D01*
X11758626Y-14330484D02*
X11758626Y-14368579D01*
X11834816Y-14330484D02*
X11834816Y-14368579D01*
X12130055Y-14606674D02*
X12120531Y-14597150D01*
X12120531Y-14597150D02*
X12101483Y-14568579D01*
X12101483Y-14568579D02*
X12091959Y-14549531D01*
X12091959Y-14549531D02*
X12082435Y-14520960D01*
X12082435Y-14520960D02*
X12072912Y-14473341D01*
X12072912Y-14473341D02*
X12072912Y-14435246D01*
X12072912Y-14435246D02*
X12082435Y-14387627D01*
X12082435Y-14387627D02*
X12091959Y-14359055D01*
X12091959Y-14359055D02*
X12101483Y-14340008D01*
X12101483Y-14340008D02*
X12120531Y-14311436D01*
X12120531Y-14311436D02*
X12130055Y-14301912D01*
X12311007Y-14530484D02*
X12196721Y-14530484D01*
X12253864Y-14530484D02*
X12253864Y-14330484D01*
X12253864Y-14330484D02*
X12234816Y-14359055D01*
X12234816Y-14359055D02*
X12215769Y-14378103D01*
X12215769Y-14378103D02*
X12196721Y-14387627D01*
X12377674Y-14330484D02*
X12501483Y-14330484D01*
X12501483Y-14330484D02*
X12434816Y-14406674D01*
X12434816Y-14406674D02*
X12463388Y-14406674D01*
X12463388Y-14406674D02*
X12482435Y-14416198D01*
X12482435Y-14416198D02*
X12491959Y-14425722D01*
X12491959Y-14425722D02*
X12501483Y-14444769D01*
X12501483Y-14444769D02*
X12501483Y-14492388D01*
X12501483Y-14492388D02*
X12491959Y-14511436D01*
X12491959Y-14511436D02*
X12482435Y-14520960D01*
X12482435Y-14520960D02*
X12463388Y-14530484D01*
X12463388Y-14530484D02*
X12406245Y-14530484D01*
X12406245Y-14530484D02*
X12387197Y-14520960D01*
X12387197Y-14520960D02*
X12377674Y-14511436D01*
X12739578Y-14530484D02*
X12739578Y-14330484D01*
X12825293Y-14530484D02*
X12825293Y-14425722D01*
X12825293Y-14425722D02*
X12815769Y-14406674D01*
X12815769Y-14406674D02*
X12796721Y-14397150D01*
X12796721Y-14397150D02*
X12768150Y-14397150D01*
X12768150Y-14397150D02*
X12749102Y-14406674D01*
X12749102Y-14406674D02*
X12739578Y-14416198D01*
X12949102Y-14530484D02*
X12930055Y-14520960D01*
X12930055Y-14520960D02*
X12920531Y-14511436D01*
X12920531Y-14511436D02*
X12911007Y-14492388D01*
X12911007Y-14492388D02*
X12911007Y-14435246D01*
X12911007Y-14435246D02*
X12920531Y-14416198D01*
X12920531Y-14416198D02*
X12930055Y-14406674D01*
X12930055Y-14406674D02*
X12949102Y-14397150D01*
X12949102Y-14397150D02*
X12977674Y-14397150D01*
X12977674Y-14397150D02*
X12996721Y-14406674D01*
X12996721Y-14406674D02*
X13006245Y-14416198D01*
X13006245Y-14416198D02*
X13015769Y-14435246D01*
X13015769Y-14435246D02*
X13015769Y-14492388D01*
X13015769Y-14492388D02*
X13006245Y-14511436D01*
X13006245Y-14511436D02*
X12996721Y-14520960D01*
X12996721Y-14520960D02*
X12977674Y-14530484D01*
X12977674Y-14530484D02*
X12949102Y-14530484D01*
X13130055Y-14530484D02*
X13111007Y-14520960D01*
X13111007Y-14520960D02*
X13101483Y-14501912D01*
X13101483Y-14501912D02*
X13101483Y-14330484D01*
X13282436Y-14520960D02*
X13263388Y-14530484D01*
X13263388Y-14530484D02*
X13225293Y-14530484D01*
X13225293Y-14530484D02*
X13206245Y-14520960D01*
X13206245Y-14520960D02*
X13196721Y-14501912D01*
X13196721Y-14501912D02*
X13196721Y-14425722D01*
X13196721Y-14425722D02*
X13206245Y-14406674D01*
X13206245Y-14406674D02*
X13225293Y-14397150D01*
X13225293Y-14397150D02*
X13263388Y-14397150D01*
X13263388Y-14397150D02*
X13282436Y-14406674D01*
X13282436Y-14406674D02*
X13291959Y-14425722D01*
X13291959Y-14425722D02*
X13291959Y-14444769D01*
X13291959Y-14444769D02*
X13196721Y-14463817D01*
X13368150Y-14520960D02*
X13387197Y-14530484D01*
X13387197Y-14530484D02*
X13425293Y-14530484D01*
X13425293Y-14530484D02*
X13444340Y-14520960D01*
X13444340Y-14520960D02*
X13453864Y-14501912D01*
X13453864Y-14501912D02*
X13453864Y-14492388D01*
X13453864Y-14492388D02*
X13444340Y-14473341D01*
X13444340Y-14473341D02*
X13425293Y-14463817D01*
X13425293Y-14463817D02*
X13396721Y-14463817D01*
X13396721Y-14463817D02*
X13377674Y-14454293D01*
X13377674Y-14454293D02*
X13368150Y-14435246D01*
X13368150Y-14435246D02*
X13368150Y-14425722D01*
X13368150Y-14425722D02*
X13377674Y-14406674D01*
X13377674Y-14406674D02*
X13396721Y-14397150D01*
X13396721Y-14397150D02*
X13425293Y-14397150D01*
X13425293Y-14397150D02*
X13444340Y-14406674D01*
X13520531Y-14606674D02*
X13530055Y-14597150D01*
X13530055Y-14597150D02*
X13549102Y-14568579D01*
X13549102Y-14568579D02*
X13558626Y-14549531D01*
X13558626Y-14549531D02*
X13568150Y-14520960D01*
X13568150Y-14520960D02*
X13577674Y-14473341D01*
X13577674Y-14473341D02*
X13577674Y-14435246D01*
X13577674Y-14435246D02*
X13568150Y-14387627D01*
X13568150Y-14387627D02*
X13558626Y-14359055D01*
X13558626Y-14359055D02*
X13549102Y-14340008D01*
X13549102Y-14340008D02*
X13530055Y-14311436D01*
X13530055Y-14311436D02*
X13520531Y-14301912D01*
D10*
X8504992Y-14653000D02*
X8504992Y-14753000D01*
X8454992Y-14703000D02*
X8554992Y-14703000D01*
D11*
X8920530Y-14794484D02*
X8806245Y-14794484D01*
X8863388Y-14794484D02*
X8863388Y-14594484D01*
X8863388Y-14594484D02*
X8844340Y-14623055D01*
X8844340Y-14623055D02*
X8825292Y-14642103D01*
X8825292Y-14642103D02*
X8806245Y-14651627D01*
X9006245Y-14775436D02*
X9015769Y-14784960D01*
X9015769Y-14784960D02*
X9006245Y-14794484D01*
X9006245Y-14794484D02*
X8996721Y-14784960D01*
X8996721Y-14784960D02*
X9006245Y-14775436D01*
X9006245Y-14775436D02*
X9006245Y-14794484D01*
X9139578Y-14594484D02*
X9158626Y-14594484D01*
X9158626Y-14594484D02*
X9177673Y-14604008D01*
X9177673Y-14604008D02*
X9187197Y-14613531D01*
X9187197Y-14613531D02*
X9196721Y-14632579D01*
X9196721Y-14632579D02*
X9206245Y-14670674D01*
X9206245Y-14670674D02*
X9206245Y-14718293D01*
X9206245Y-14718293D02*
X9196721Y-14756388D01*
X9196721Y-14756388D02*
X9187197Y-14775436D01*
X9187197Y-14775436D02*
X9177673Y-14784960D01*
X9177673Y-14784960D02*
X9158626Y-14794484D01*
X9158626Y-14794484D02*
X9139578Y-14794484D01*
X9139578Y-14794484D02*
X9120530Y-14784960D01*
X9120530Y-14784960D02*
X9111007Y-14775436D01*
X9111007Y-14775436D02*
X9101483Y-14756388D01*
X9101483Y-14756388D02*
X9091959Y-14718293D01*
X9091959Y-14718293D02*
X9091959Y-14670674D01*
X9091959Y-14670674D02*
X9101483Y-14632579D01*
X9101483Y-14632579D02*
X9111007Y-14613531D01*
X9111007Y-14613531D02*
X9120530Y-14604008D01*
X9120530Y-14604008D02*
X9139578Y-14594484D01*
X9330054Y-14594484D02*
X9349102Y-14594484D01*
X9349102Y-14594484D02*
X9368150Y-14604008D01*
X9368150Y-14604008D02*
X9377673Y-14613531D01*
X9377673Y-14613531D02*
X9387197Y-14632579D01*
X9387197Y-14632579D02*
X9396721Y-14670674D01*
X9396721Y-14670674D02*
X9396721Y-14718293D01*
X9396721Y-14718293D02*
X9387197Y-14756388D01*
X9387197Y-14756388D02*
X9377673Y-14775436D01*
X9377673Y-14775436D02*
X9368150Y-14784960D01*
X9368150Y-14784960D02*
X9349102Y-14794484D01*
X9349102Y-14794484D02*
X9330054Y-14794484D01*
X9330054Y-14794484D02*
X9311007Y-14784960D01*
X9311007Y-14784960D02*
X9301483Y-14775436D01*
X9301483Y-14775436D02*
X9291959Y-14756388D01*
X9291959Y-14756388D02*
X9282435Y-14718293D01*
X9282435Y-14718293D02*
X9282435Y-14670674D01*
X9282435Y-14670674D02*
X9291959Y-14632579D01*
X9291959Y-14632579D02*
X9301483Y-14613531D01*
X9301483Y-14613531D02*
X9311007Y-14604008D01*
X9311007Y-14604008D02*
X9330054Y-14594484D01*
X9520530Y-14594484D02*
X9539578Y-14594484D01*
X9539578Y-14594484D02*
X9558626Y-14604008D01*
X9558626Y-14604008D02*
X9568150Y-14613531D01*
X9568150Y-14613531D02*
X9577673Y-14632579D01*
X9577673Y-14632579D02*
X9587197Y-14670674D01*
X9587197Y-14670674D02*
X9587197Y-14718293D01*
X9587197Y-14718293D02*
X9577673Y-14756388D01*
X9577673Y-14756388D02*
X9568150Y-14775436D01*
X9568150Y-14775436D02*
X9558626Y-14784960D01*
X9558626Y-14784960D02*
X9539578Y-14794484D01*
X9539578Y-14794484D02*
X9520530Y-14794484D01*
X9520530Y-14794484D02*
X9501483Y-14784960D01*
X9501483Y-14784960D02*
X9491959Y-14775436D01*
X9491959Y-14775436D02*
X9482435Y-14756388D01*
X9482435Y-14756388D02*
X9472911Y-14718293D01*
X9472911Y-14718293D02*
X9472911Y-14670674D01*
X9472911Y-14670674D02*
X9482435Y-14632579D01*
X9482435Y-14632579D02*
X9491959Y-14613531D01*
X9491959Y-14613531D02*
X9501483Y-14604008D01*
X9501483Y-14604008D02*
X9520530Y-14594484D01*
X9672911Y-14794484D02*
X9672911Y-14661150D01*
X9672911Y-14680198D02*
X9682435Y-14670674D01*
X9682435Y-14670674D02*
X9701483Y-14661150D01*
X9701483Y-14661150D02*
X9730054Y-14661150D01*
X9730054Y-14661150D02*
X9749102Y-14670674D01*
X9749102Y-14670674D02*
X9758626Y-14689722D01*
X9758626Y-14689722D02*
X9758626Y-14794484D01*
X9758626Y-14689722D02*
X9768150Y-14670674D01*
X9768150Y-14670674D02*
X9787197Y-14661150D01*
X9787197Y-14661150D02*
X9815769Y-14661150D01*
X9815769Y-14661150D02*
X9834816Y-14670674D01*
X9834816Y-14670674D02*
X9844340Y-14689722D01*
X9844340Y-14689722D02*
X9844340Y-14794484D01*
X9939578Y-14794484D02*
X9939578Y-14661150D01*
X9939578Y-14680198D02*
X9949102Y-14670674D01*
X9949102Y-14670674D02*
X9968150Y-14661150D01*
X9968150Y-14661150D02*
X9996721Y-14661150D01*
X9996721Y-14661150D02*
X10015769Y-14670674D01*
X10015769Y-14670674D02*
X10025292Y-14689722D01*
X10025292Y-14689722D02*
X10025292Y-14794484D01*
X10025292Y-14689722D02*
X10034816Y-14670674D01*
X10034816Y-14670674D02*
X10053864Y-14661150D01*
X10053864Y-14661150D02*
X10082435Y-14661150D01*
X10082435Y-14661150D02*
X10101483Y-14670674D01*
X10101483Y-14670674D02*
X10111007Y-14689722D01*
X10111007Y-14689722D02*
X10111007Y-14794484D01*
X10501483Y-14584960D02*
X10330054Y-14842103D01*
X10758626Y-14594484D02*
X10777674Y-14594484D01*
X10777674Y-14594484D02*
X10796721Y-14604008D01*
X10796721Y-14604008D02*
X10806245Y-14613531D01*
X10806245Y-14613531D02*
X10815769Y-14632579D01*
X10815769Y-14632579D02*
X10825293Y-14670674D01*
X10825293Y-14670674D02*
X10825293Y-14718293D01*
X10825293Y-14718293D02*
X10815769Y-14756388D01*
X10815769Y-14756388D02*
X10806245Y-14775436D01*
X10806245Y-14775436D02*
X10796721Y-14784960D01*
X10796721Y-14784960D02*
X10777674Y-14794484D01*
X10777674Y-14794484D02*
X10758626Y-14794484D01*
X10758626Y-14794484D02*
X10739578Y-14784960D01*
X10739578Y-14784960D02*
X10730054Y-14775436D01*
X10730054Y-14775436D02*
X10720531Y-14756388D01*
X10720531Y-14756388D02*
X10711007Y-14718293D01*
X10711007Y-14718293D02*
X10711007Y-14670674D01*
X10711007Y-14670674D02*
X10720531Y-14632579D01*
X10720531Y-14632579D02*
X10730054Y-14613531D01*
X10730054Y-14613531D02*
X10739578Y-14604008D01*
X10739578Y-14604008D02*
X10758626Y-14594484D01*
X10911007Y-14775436D02*
X10920531Y-14784960D01*
X10920531Y-14784960D02*
X10911007Y-14794484D01*
X10911007Y-14794484D02*
X10901483Y-14784960D01*
X10901483Y-14784960D02*
X10911007Y-14775436D01*
X10911007Y-14775436D02*
X10911007Y-14794484D01*
X11044340Y-14594484D02*
X11063388Y-14594484D01*
X11063388Y-14594484D02*
X11082435Y-14604008D01*
X11082435Y-14604008D02*
X11091959Y-14613531D01*
X11091959Y-14613531D02*
X11101483Y-14632579D01*
X11101483Y-14632579D02*
X11111007Y-14670674D01*
X11111007Y-14670674D02*
X11111007Y-14718293D01*
X11111007Y-14718293D02*
X11101483Y-14756388D01*
X11101483Y-14756388D02*
X11091959Y-14775436D01*
X11091959Y-14775436D02*
X11082435Y-14784960D01*
X11082435Y-14784960D02*
X11063388Y-14794484D01*
X11063388Y-14794484D02*
X11044340Y-14794484D01*
X11044340Y-14794484D02*
X11025293Y-14784960D01*
X11025293Y-14784960D02*
X11015769Y-14775436D01*
X11015769Y-14775436D02*
X11006245Y-14756388D01*
X11006245Y-14756388D02*
X10996721Y-14718293D01*
X10996721Y-14718293D02*
X10996721Y-14670674D01*
X10996721Y-14670674D02*
X11006245Y-14632579D01*
X11006245Y-14632579D02*
X11015769Y-14613531D01*
X11015769Y-14613531D02*
X11025293Y-14604008D01*
X11025293Y-14604008D02*
X11044340Y-14594484D01*
X11177674Y-14594484D02*
X11301483Y-14594484D01*
X11301483Y-14594484D02*
X11234816Y-14670674D01*
X11234816Y-14670674D02*
X11263388Y-14670674D01*
X11263388Y-14670674D02*
X11282435Y-14680198D01*
X11282435Y-14680198D02*
X11291959Y-14689722D01*
X11291959Y-14689722D02*
X11301483Y-14708769D01*
X11301483Y-14708769D02*
X11301483Y-14756388D01*
X11301483Y-14756388D02*
X11291959Y-14775436D01*
X11291959Y-14775436D02*
X11282435Y-14784960D01*
X11282435Y-14784960D02*
X11263388Y-14794484D01*
X11263388Y-14794484D02*
X11206245Y-14794484D01*
X11206245Y-14794484D02*
X11187197Y-14784960D01*
X11187197Y-14784960D02*
X11177674Y-14775436D01*
X11396721Y-14794484D02*
X11434816Y-14794484D01*
X11434816Y-14794484D02*
X11453864Y-14784960D01*
X11453864Y-14784960D02*
X11463388Y-14775436D01*
X11463388Y-14775436D02*
X11482435Y-14746865D01*
X11482435Y-14746865D02*
X11491959Y-14708769D01*
X11491959Y-14708769D02*
X11491959Y-14632579D01*
X11491959Y-14632579D02*
X11482435Y-14613531D01*
X11482435Y-14613531D02*
X11472912Y-14604008D01*
X11472912Y-14604008D02*
X11453864Y-14594484D01*
X11453864Y-14594484D02*
X11415769Y-14594484D01*
X11415769Y-14594484D02*
X11396721Y-14604008D01*
X11396721Y-14604008D02*
X11387197Y-14613531D01*
X11387197Y-14613531D02*
X11377673Y-14632579D01*
X11377673Y-14632579D02*
X11377673Y-14680198D01*
X11377673Y-14680198D02*
X11387197Y-14699246D01*
X11387197Y-14699246D02*
X11396721Y-14708769D01*
X11396721Y-14708769D02*
X11415769Y-14718293D01*
X11415769Y-14718293D02*
X11453864Y-14718293D01*
X11453864Y-14718293D02*
X11472912Y-14708769D01*
X11472912Y-14708769D02*
X11482435Y-14699246D01*
X11482435Y-14699246D02*
X11491959Y-14680198D01*
X11663388Y-14661150D02*
X11663388Y-14794484D01*
X11615769Y-14584960D02*
X11568150Y-14727817D01*
X11568150Y-14727817D02*
X11691959Y-14727817D01*
X11758626Y-14594484D02*
X11758626Y-14632579D01*
X11834816Y-14594484D02*
X11834816Y-14632579D01*
X12130055Y-14870674D02*
X12120531Y-14861150D01*
X12120531Y-14861150D02*
X12101483Y-14832579D01*
X12101483Y-14832579D02*
X12091959Y-14813531D01*
X12091959Y-14813531D02*
X12082435Y-14784960D01*
X12082435Y-14784960D02*
X12072912Y-14737341D01*
X12072912Y-14737341D02*
X12072912Y-14699246D01*
X12072912Y-14699246D02*
X12082435Y-14651627D01*
X12082435Y-14651627D02*
X12091959Y-14623055D01*
X12091959Y-14623055D02*
X12101483Y-14604008D01*
X12101483Y-14604008D02*
X12120531Y-14575436D01*
X12120531Y-14575436D02*
X12130055Y-14565912D01*
X12291959Y-14661150D02*
X12291959Y-14794484D01*
X12244340Y-14584960D02*
X12196721Y-14727817D01*
X12196721Y-14727817D02*
X12320531Y-14727817D01*
X12549102Y-14794484D02*
X12549102Y-14594484D01*
X12634816Y-14794484D02*
X12634816Y-14689722D01*
X12634816Y-14689722D02*
X12625293Y-14670674D01*
X12625293Y-14670674D02*
X12606245Y-14661150D01*
X12606245Y-14661150D02*
X12577674Y-14661150D01*
X12577674Y-14661150D02*
X12558626Y-14670674D01*
X12558626Y-14670674D02*
X12549102Y-14680198D01*
X12758626Y-14794484D02*
X12739578Y-14784960D01*
X12739578Y-14784960D02*
X12730055Y-14775436D01*
X12730055Y-14775436D02*
X12720531Y-14756388D01*
X12720531Y-14756388D02*
X12720531Y-14699246D01*
X12720531Y-14699246D02*
X12730055Y-14680198D01*
X12730055Y-14680198D02*
X12739578Y-14670674D01*
X12739578Y-14670674D02*
X12758626Y-14661150D01*
X12758626Y-14661150D02*
X12787197Y-14661150D01*
X12787197Y-14661150D02*
X12806245Y-14670674D01*
X12806245Y-14670674D02*
X12815769Y-14680198D01*
X12815769Y-14680198D02*
X12825293Y-14699246D01*
X12825293Y-14699246D02*
X12825293Y-14756388D01*
X12825293Y-14756388D02*
X12815769Y-14775436D01*
X12815769Y-14775436D02*
X12806245Y-14784960D01*
X12806245Y-14784960D02*
X12787197Y-14794484D01*
X12787197Y-14794484D02*
X12758626Y-14794484D01*
X12939578Y-14794484D02*
X12920531Y-14784960D01*
X12920531Y-14784960D02*
X12911007Y-14765912D01*
X12911007Y-14765912D02*
X12911007Y-14594484D01*
X13091959Y-14784960D02*
X13072912Y-14794484D01*
X13072912Y-14794484D02*
X13034816Y-14794484D01*
X13034816Y-14794484D02*
X13015769Y-14784960D01*
X13015769Y-14784960D02*
X13006245Y-14765912D01*
X13006245Y-14765912D02*
X13006245Y-14689722D01*
X13006245Y-14689722D02*
X13015769Y-14670674D01*
X13015769Y-14670674D02*
X13034816Y-14661150D01*
X13034816Y-14661150D02*
X13072912Y-14661150D01*
X13072912Y-14661150D02*
X13091959Y-14670674D01*
X13091959Y-14670674D02*
X13101483Y-14689722D01*
X13101483Y-14689722D02*
X13101483Y-14708769D01*
X13101483Y-14708769D02*
X13006245Y-14727817D01*
X13177674Y-14784960D02*
X13196721Y-14794484D01*
X13196721Y-14794484D02*
X13234816Y-14794484D01*
X13234816Y-14794484D02*
X13253864Y-14784960D01*
X13253864Y-14784960D02*
X13263388Y-14765912D01*
X13263388Y-14765912D02*
X13263388Y-14756388D01*
X13263388Y-14756388D02*
X13253864Y-14737341D01*
X13253864Y-14737341D02*
X13234816Y-14727817D01*
X13234816Y-14727817D02*
X13206245Y-14727817D01*
X13206245Y-14727817D02*
X13187197Y-14718293D01*
X13187197Y-14718293D02*
X13177674Y-14699246D01*
X13177674Y-14699246D02*
X13177674Y-14689722D01*
X13177674Y-14689722D02*
X13187197Y-14670674D01*
X13187197Y-14670674D02*
X13206245Y-14661150D01*
X13206245Y-14661150D02*
X13234816Y-14661150D01*
X13234816Y-14661150D02*
X13253864Y-14670674D01*
X13330055Y-14870674D02*
X13339578Y-14861150D01*
X13339578Y-14861150D02*
X13358626Y-14832579D01*
X13358626Y-14832579D02*
X13368150Y-14813531D01*
X13368150Y-14813531D02*
X13377674Y-14784960D01*
X13377674Y-14784960D02*
X13387197Y-14737341D01*
X13387197Y-14737341D02*
X13387197Y-14699246D01*
X13387197Y-14699246D02*
X13377674Y-14651627D01*
X13377674Y-14651627D02*
X13368150Y-14623055D01*
X13368150Y-14623055D02*
X13358626Y-14604008D01*
X13358626Y-14604008D02*
X13339578Y-14575436D01*
X13339578Y-14575436D02*
X13330055Y-14565912D01*
D12*
X8540055Y-15003063D02*
X8540055Y-14930937D01*
X8467929Y-14930937D01*
X8467929Y-15003063D01*
X8540055Y-15003063D01*
D11*
X8920530Y-15058484D02*
X8806245Y-15058484D01*
X8863388Y-15058484D02*
X8863388Y-14858484D01*
X8863388Y-14858484D02*
X8844340Y-14887055D01*
X8844340Y-14887055D02*
X8825292Y-14906103D01*
X8825292Y-14906103D02*
X8806245Y-14915627D01*
X9006245Y-15039436D02*
X9015769Y-15048960D01*
X9015769Y-15048960D02*
X9006245Y-15058484D01*
X9006245Y-15058484D02*
X8996721Y-15048960D01*
X8996721Y-15048960D02*
X9006245Y-15039436D01*
X9006245Y-15039436D02*
X9006245Y-15058484D01*
X9139578Y-14858484D02*
X9158626Y-14858484D01*
X9158626Y-14858484D02*
X9177673Y-14868008D01*
X9177673Y-14868008D02*
X9187197Y-14877531D01*
X9187197Y-14877531D02*
X9196721Y-14896579D01*
X9196721Y-14896579D02*
X9206245Y-14934674D01*
X9206245Y-14934674D02*
X9206245Y-14982293D01*
X9206245Y-14982293D02*
X9196721Y-15020388D01*
X9196721Y-15020388D02*
X9187197Y-15039436D01*
X9187197Y-15039436D02*
X9177673Y-15048960D01*
X9177673Y-15048960D02*
X9158626Y-15058484D01*
X9158626Y-15058484D02*
X9139578Y-15058484D01*
X9139578Y-15058484D02*
X9120530Y-15048960D01*
X9120530Y-15048960D02*
X9111007Y-15039436D01*
X9111007Y-15039436D02*
X9101483Y-15020388D01*
X9101483Y-15020388D02*
X9091959Y-14982293D01*
X9091959Y-14982293D02*
X9091959Y-14934674D01*
X9091959Y-14934674D02*
X9101483Y-14896579D01*
X9101483Y-14896579D02*
X9111007Y-14877531D01*
X9111007Y-14877531D02*
X9120530Y-14868008D01*
X9120530Y-14868008D02*
X9139578Y-14858484D01*
X9282435Y-14877531D02*
X9291959Y-14868008D01*
X9291959Y-14868008D02*
X9311007Y-14858484D01*
X9311007Y-14858484D02*
X9358626Y-14858484D01*
X9358626Y-14858484D02*
X9377673Y-14868008D01*
X9377673Y-14868008D02*
X9387197Y-14877531D01*
X9387197Y-14877531D02*
X9396721Y-14896579D01*
X9396721Y-14896579D02*
X9396721Y-14915627D01*
X9396721Y-14915627D02*
X9387197Y-14944198D01*
X9387197Y-14944198D02*
X9272911Y-15058484D01*
X9272911Y-15058484D02*
X9396721Y-15058484D01*
X9520530Y-14858484D02*
X9539578Y-14858484D01*
X9539578Y-14858484D02*
X9558626Y-14868008D01*
X9558626Y-14868008D02*
X9568150Y-14877531D01*
X9568150Y-14877531D02*
X9577673Y-14896579D01*
X9577673Y-14896579D02*
X9587197Y-14934674D01*
X9587197Y-14934674D02*
X9587197Y-14982293D01*
X9587197Y-14982293D02*
X9577673Y-15020388D01*
X9577673Y-15020388D02*
X9568150Y-15039436D01*
X9568150Y-15039436D02*
X9558626Y-15048960D01*
X9558626Y-15048960D02*
X9539578Y-15058484D01*
X9539578Y-15058484D02*
X9520530Y-15058484D01*
X9520530Y-15058484D02*
X9501483Y-15048960D01*
X9501483Y-15048960D02*
X9491959Y-15039436D01*
X9491959Y-15039436D02*
X9482435Y-15020388D01*
X9482435Y-15020388D02*
X9472911Y-14982293D01*
X9472911Y-14982293D02*
X9472911Y-14934674D01*
X9472911Y-14934674D02*
X9482435Y-14896579D01*
X9482435Y-14896579D02*
X9491959Y-14877531D01*
X9491959Y-14877531D02*
X9501483Y-14868008D01*
X9501483Y-14868008D02*
X9520530Y-14858484D01*
X9672911Y-15058484D02*
X9672911Y-14925150D01*
X9672911Y-14944198D02*
X9682435Y-14934674D01*
X9682435Y-14934674D02*
X9701483Y-14925150D01*
X9701483Y-14925150D02*
X9730054Y-14925150D01*
X9730054Y-14925150D02*
X9749102Y-14934674D01*
X9749102Y-14934674D02*
X9758626Y-14953722D01*
X9758626Y-14953722D02*
X9758626Y-15058484D01*
X9758626Y-14953722D02*
X9768150Y-14934674D01*
X9768150Y-14934674D02*
X9787197Y-14925150D01*
X9787197Y-14925150D02*
X9815769Y-14925150D01*
X9815769Y-14925150D02*
X9834816Y-14934674D01*
X9834816Y-14934674D02*
X9844340Y-14953722D01*
X9844340Y-14953722D02*
X9844340Y-15058484D01*
X9939578Y-15058484D02*
X9939578Y-14925150D01*
X9939578Y-14944198D02*
X9949102Y-14934674D01*
X9949102Y-14934674D02*
X9968150Y-14925150D01*
X9968150Y-14925150D02*
X9996721Y-14925150D01*
X9996721Y-14925150D02*
X10015769Y-14934674D01*
X10015769Y-14934674D02*
X10025292Y-14953722D01*
X10025292Y-14953722D02*
X10025292Y-15058484D01*
X10025292Y-14953722D02*
X10034816Y-14934674D01*
X10034816Y-14934674D02*
X10053864Y-14925150D01*
X10053864Y-14925150D02*
X10082435Y-14925150D01*
X10082435Y-14925150D02*
X10101483Y-14934674D01*
X10101483Y-14934674D02*
X10111007Y-14953722D01*
X10111007Y-14953722D02*
X10111007Y-15058484D01*
X10501483Y-14848960D02*
X10330054Y-15106103D01*
X10758626Y-14858484D02*
X10777674Y-14858484D01*
X10777674Y-14858484D02*
X10796721Y-14868008D01*
X10796721Y-14868008D02*
X10806245Y-14877531D01*
X10806245Y-14877531D02*
X10815769Y-14896579D01*
X10815769Y-14896579D02*
X10825293Y-14934674D01*
X10825293Y-14934674D02*
X10825293Y-14982293D01*
X10825293Y-14982293D02*
X10815769Y-15020388D01*
X10815769Y-15020388D02*
X10806245Y-15039436D01*
X10806245Y-15039436D02*
X10796721Y-15048960D01*
X10796721Y-15048960D02*
X10777674Y-15058484D01*
X10777674Y-15058484D02*
X10758626Y-15058484D01*
X10758626Y-15058484D02*
X10739578Y-15048960D01*
X10739578Y-15048960D02*
X10730054Y-15039436D01*
X10730054Y-15039436D02*
X10720531Y-15020388D01*
X10720531Y-15020388D02*
X10711007Y-14982293D01*
X10711007Y-14982293D02*
X10711007Y-14934674D01*
X10711007Y-14934674D02*
X10720531Y-14896579D01*
X10720531Y-14896579D02*
X10730054Y-14877531D01*
X10730054Y-14877531D02*
X10739578Y-14868008D01*
X10739578Y-14868008D02*
X10758626Y-14858484D01*
X10911007Y-15039436D02*
X10920531Y-15048960D01*
X10920531Y-15048960D02*
X10911007Y-15058484D01*
X10911007Y-15058484D02*
X10901483Y-15048960D01*
X10901483Y-15048960D02*
X10911007Y-15039436D01*
X10911007Y-15039436D02*
X10911007Y-15058484D01*
X11044340Y-14858484D02*
X11063388Y-14858484D01*
X11063388Y-14858484D02*
X11082435Y-14868008D01*
X11082435Y-14868008D02*
X11091959Y-14877531D01*
X11091959Y-14877531D02*
X11101483Y-14896579D01*
X11101483Y-14896579D02*
X11111007Y-14934674D01*
X11111007Y-14934674D02*
X11111007Y-14982293D01*
X11111007Y-14982293D02*
X11101483Y-15020388D01*
X11101483Y-15020388D02*
X11091959Y-15039436D01*
X11091959Y-15039436D02*
X11082435Y-15048960D01*
X11082435Y-15048960D02*
X11063388Y-15058484D01*
X11063388Y-15058484D02*
X11044340Y-15058484D01*
X11044340Y-15058484D02*
X11025293Y-15048960D01*
X11025293Y-15048960D02*
X11015769Y-15039436D01*
X11015769Y-15039436D02*
X11006245Y-15020388D01*
X11006245Y-15020388D02*
X10996721Y-14982293D01*
X10996721Y-14982293D02*
X10996721Y-14934674D01*
X10996721Y-14934674D02*
X11006245Y-14896579D01*
X11006245Y-14896579D02*
X11015769Y-14877531D01*
X11015769Y-14877531D02*
X11025293Y-14868008D01*
X11025293Y-14868008D02*
X11044340Y-14858484D01*
X11282435Y-14925150D02*
X11282435Y-15058484D01*
X11234816Y-14848960D02*
X11187197Y-14991817D01*
X11187197Y-14991817D02*
X11311007Y-14991817D01*
X11425292Y-14858484D02*
X11444340Y-14858484D01*
X11444340Y-14858484D02*
X11463388Y-14868008D01*
X11463388Y-14868008D02*
X11472912Y-14877531D01*
X11472912Y-14877531D02*
X11482435Y-14896579D01*
X11482435Y-14896579D02*
X11491959Y-14934674D01*
X11491959Y-14934674D02*
X11491959Y-14982293D01*
X11491959Y-14982293D02*
X11482435Y-15020388D01*
X11482435Y-15020388D02*
X11472912Y-15039436D01*
X11472912Y-15039436D02*
X11463388Y-15048960D01*
X11463388Y-15048960D02*
X11444340Y-15058484D01*
X11444340Y-15058484D02*
X11425292Y-15058484D01*
X11425292Y-15058484D02*
X11406245Y-15048960D01*
X11406245Y-15048960D02*
X11396721Y-15039436D01*
X11396721Y-15039436D02*
X11387197Y-15020388D01*
X11387197Y-15020388D02*
X11377673Y-14982293D01*
X11377673Y-14982293D02*
X11377673Y-14934674D01*
X11377673Y-14934674D02*
X11387197Y-14896579D01*
X11387197Y-14896579D02*
X11396721Y-14877531D01*
X11396721Y-14877531D02*
X11406245Y-14868008D01*
X11406245Y-14868008D02*
X11425292Y-14858484D01*
X11568150Y-14877531D02*
X11577673Y-14868008D01*
X11577673Y-14868008D02*
X11596721Y-14858484D01*
X11596721Y-14858484D02*
X11644340Y-14858484D01*
X11644340Y-14858484D02*
X11663388Y-14868008D01*
X11663388Y-14868008D02*
X11672912Y-14877531D01*
X11672912Y-14877531D02*
X11682435Y-14896579D01*
X11682435Y-14896579D02*
X11682435Y-14915627D01*
X11682435Y-14915627D02*
X11672912Y-14944198D01*
X11672912Y-14944198D02*
X11558626Y-15058484D01*
X11558626Y-15058484D02*
X11682435Y-15058484D01*
X11758626Y-14858484D02*
X11758626Y-14896579D01*
X11834816Y-14858484D02*
X11834816Y-14896579D01*
X12130055Y-15134674D02*
X12120531Y-15125150D01*
X12120531Y-15125150D02*
X12101483Y-15096579D01*
X12101483Y-15096579D02*
X12091959Y-15077531D01*
X12091959Y-15077531D02*
X12082435Y-15048960D01*
X12082435Y-15048960D02*
X12072912Y-15001341D01*
X12072912Y-15001341D02*
X12072912Y-14963246D01*
X12072912Y-14963246D02*
X12082435Y-14915627D01*
X12082435Y-14915627D02*
X12091959Y-14887055D01*
X12091959Y-14887055D02*
X12101483Y-14868008D01*
X12101483Y-14868008D02*
X12120531Y-14839436D01*
X12120531Y-14839436D02*
X12130055Y-14829912D01*
X12311007Y-15058484D02*
X12196721Y-15058484D01*
X12253864Y-15058484D02*
X12253864Y-14858484D01*
X12253864Y-14858484D02*
X12234816Y-14887055D01*
X12234816Y-14887055D02*
X12215769Y-14906103D01*
X12215769Y-14906103D02*
X12196721Y-14915627D01*
X12377674Y-14858484D02*
X12511007Y-14858484D01*
X12511007Y-14858484D02*
X12425293Y-15058484D01*
X12739578Y-15058484D02*
X12739578Y-14858484D01*
X12825293Y-15058484D02*
X12825293Y-14953722D01*
X12825293Y-14953722D02*
X12815769Y-14934674D01*
X12815769Y-14934674D02*
X12796721Y-14925150D01*
X12796721Y-14925150D02*
X12768150Y-14925150D01*
X12768150Y-14925150D02*
X12749102Y-14934674D01*
X12749102Y-14934674D02*
X12739578Y-14944198D01*
X12949102Y-15058484D02*
X12930055Y-15048960D01*
X12930055Y-15048960D02*
X12920531Y-15039436D01*
X12920531Y-15039436D02*
X12911007Y-15020388D01*
X12911007Y-15020388D02*
X12911007Y-14963246D01*
X12911007Y-14963246D02*
X12920531Y-14944198D01*
X12920531Y-14944198D02*
X12930055Y-14934674D01*
X12930055Y-14934674D02*
X12949102Y-14925150D01*
X12949102Y-14925150D02*
X12977674Y-14925150D01*
X12977674Y-14925150D02*
X12996721Y-14934674D01*
X12996721Y-14934674D02*
X13006245Y-14944198D01*
X13006245Y-14944198D02*
X13015769Y-14963246D01*
X13015769Y-14963246D02*
X13015769Y-15020388D01*
X13015769Y-15020388D02*
X13006245Y-15039436D01*
X13006245Y-15039436D02*
X12996721Y-15048960D01*
X12996721Y-15048960D02*
X12977674Y-15058484D01*
X12977674Y-15058484D02*
X12949102Y-15058484D01*
X13130055Y-15058484D02*
X13111007Y-15048960D01*
X13111007Y-15048960D02*
X13101483Y-15029912D01*
X13101483Y-15029912D02*
X13101483Y-14858484D01*
X13282436Y-15048960D02*
X13263388Y-15058484D01*
X13263388Y-15058484D02*
X13225293Y-15058484D01*
X13225293Y-15058484D02*
X13206245Y-15048960D01*
X13206245Y-15048960D02*
X13196721Y-15029912D01*
X13196721Y-15029912D02*
X13196721Y-14953722D01*
X13196721Y-14953722D02*
X13206245Y-14934674D01*
X13206245Y-14934674D02*
X13225293Y-14925150D01*
X13225293Y-14925150D02*
X13263388Y-14925150D01*
X13263388Y-14925150D02*
X13282436Y-14934674D01*
X13282436Y-14934674D02*
X13291959Y-14953722D01*
X13291959Y-14953722D02*
X13291959Y-14972769D01*
X13291959Y-14972769D02*
X13196721Y-14991817D01*
X13368150Y-15048960D02*
X13387197Y-15058484D01*
X13387197Y-15058484D02*
X13425293Y-15058484D01*
X13425293Y-15058484D02*
X13444340Y-15048960D01*
X13444340Y-15048960D02*
X13453864Y-15029912D01*
X13453864Y-15029912D02*
X13453864Y-15020388D01*
X13453864Y-15020388D02*
X13444340Y-15001341D01*
X13444340Y-15001341D02*
X13425293Y-14991817D01*
X13425293Y-14991817D02*
X13396721Y-14991817D01*
X13396721Y-14991817D02*
X13377674Y-14982293D01*
X13377674Y-14982293D02*
X13368150Y-14963246D01*
X13368150Y-14963246D02*
X13368150Y-14953722D01*
X13368150Y-14953722D02*
X13377674Y-14934674D01*
X13377674Y-14934674D02*
X13396721Y-14925150D01*
X13396721Y-14925150D02*
X13425293Y-14925150D01*
X13425293Y-14925150D02*
X13444340Y-14934674D01*
X13520531Y-15134674D02*
X13530055Y-15125150D01*
X13530055Y-15125150D02*
X13549102Y-15096579D01*
X13549102Y-15096579D02*
X13558626Y-15077531D01*
X13558626Y-15077531D02*
X13568150Y-15048960D01*
X13568150Y-15048960D02*
X13577674Y-15001341D01*
X13577674Y-15001341D02*
X13577674Y-14963246D01*
X13577674Y-14963246D02*
X13568150Y-14915627D01*
X13568150Y-14915627D02*
X13558626Y-14887055D01*
X13558626Y-14887055D02*
X13549102Y-14868008D01*
X13549102Y-14868008D02*
X13530055Y-14839436D01*
X13530055Y-14839436D02*
X13520531Y-14829912D01*
X8454992Y-15331000D02*
X8554992Y-15231000D01*
X8454992Y-15131000D01*
X8354992Y-15231000D01*
X8454992Y-15331000D01*
X8806245Y-15141531D02*
X8815769Y-15132008D01*
X8815769Y-15132008D02*
X8834816Y-15122484D01*
X8834816Y-15122484D02*
X8882435Y-15122484D01*
X8882435Y-15122484D02*
X8901483Y-15132008D01*
X8901483Y-15132008D02*
X8911007Y-15141531D01*
X8911007Y-15141531D02*
X8920530Y-15160579D01*
X8920530Y-15160579D02*
X8920530Y-15179627D01*
X8920530Y-15179627D02*
X8911007Y-15208198D01*
X8911007Y-15208198D02*
X8796721Y-15322484D01*
X8796721Y-15322484D02*
X8920530Y-15322484D01*
X9006245Y-15303436D02*
X9015769Y-15312960D01*
X9015769Y-15312960D02*
X9006245Y-15322484D01*
X9006245Y-15322484D02*
X8996721Y-15312960D01*
X8996721Y-15312960D02*
X9006245Y-15303436D01*
X9006245Y-15303436D02*
X9006245Y-15322484D01*
X9082435Y-15122484D02*
X9206245Y-15122484D01*
X9206245Y-15122484D02*
X9139578Y-15198674D01*
X9139578Y-15198674D02*
X9168150Y-15198674D01*
X9168150Y-15198674D02*
X9187197Y-15208198D01*
X9187197Y-15208198D02*
X9196721Y-15217722D01*
X9196721Y-15217722D02*
X9206245Y-15236769D01*
X9206245Y-15236769D02*
X9206245Y-15284388D01*
X9206245Y-15284388D02*
X9196721Y-15303436D01*
X9196721Y-15303436D02*
X9187197Y-15312960D01*
X9187197Y-15312960D02*
X9168150Y-15322484D01*
X9168150Y-15322484D02*
X9111007Y-15322484D01*
X9111007Y-15322484D02*
X9091959Y-15312960D01*
X9091959Y-15312960D02*
X9082435Y-15303436D01*
X9320530Y-15208198D02*
X9301483Y-15198674D01*
X9301483Y-15198674D02*
X9291959Y-15189150D01*
X9291959Y-15189150D02*
X9282435Y-15170103D01*
X9282435Y-15170103D02*
X9282435Y-15160579D01*
X9282435Y-15160579D02*
X9291959Y-15141531D01*
X9291959Y-15141531D02*
X9301483Y-15132008D01*
X9301483Y-15132008D02*
X9320530Y-15122484D01*
X9320530Y-15122484D02*
X9358626Y-15122484D01*
X9358626Y-15122484D02*
X9377673Y-15132008D01*
X9377673Y-15132008D02*
X9387197Y-15141531D01*
X9387197Y-15141531D02*
X9396721Y-15160579D01*
X9396721Y-15160579D02*
X9396721Y-15170103D01*
X9396721Y-15170103D02*
X9387197Y-15189150D01*
X9387197Y-15189150D02*
X9377673Y-15198674D01*
X9377673Y-15198674D02*
X9358626Y-15208198D01*
X9358626Y-15208198D02*
X9320530Y-15208198D01*
X9320530Y-15208198D02*
X9301483Y-15217722D01*
X9301483Y-15217722D02*
X9291959Y-15227246D01*
X9291959Y-15227246D02*
X9282435Y-15246293D01*
X9282435Y-15246293D02*
X9282435Y-15284388D01*
X9282435Y-15284388D02*
X9291959Y-15303436D01*
X9291959Y-15303436D02*
X9301483Y-15312960D01*
X9301483Y-15312960D02*
X9320530Y-15322484D01*
X9320530Y-15322484D02*
X9358626Y-15322484D01*
X9358626Y-15322484D02*
X9377673Y-15312960D01*
X9377673Y-15312960D02*
X9387197Y-15303436D01*
X9387197Y-15303436D02*
X9396721Y-15284388D01*
X9396721Y-15284388D02*
X9396721Y-15246293D01*
X9396721Y-15246293D02*
X9387197Y-15227246D01*
X9387197Y-15227246D02*
X9377673Y-15217722D01*
X9377673Y-15217722D02*
X9358626Y-15208198D01*
X9520530Y-15122484D02*
X9539578Y-15122484D01*
X9539578Y-15122484D02*
X9558626Y-15132008D01*
X9558626Y-15132008D02*
X9568150Y-15141531D01*
X9568150Y-15141531D02*
X9577673Y-15160579D01*
X9577673Y-15160579D02*
X9587197Y-15198674D01*
X9587197Y-15198674D02*
X9587197Y-15246293D01*
X9587197Y-15246293D02*
X9577673Y-15284388D01*
X9577673Y-15284388D02*
X9568150Y-15303436D01*
X9568150Y-15303436D02*
X9558626Y-15312960D01*
X9558626Y-15312960D02*
X9539578Y-15322484D01*
X9539578Y-15322484D02*
X9520530Y-15322484D01*
X9520530Y-15322484D02*
X9501483Y-15312960D01*
X9501483Y-15312960D02*
X9491959Y-15303436D01*
X9491959Y-15303436D02*
X9482435Y-15284388D01*
X9482435Y-15284388D02*
X9472911Y-15246293D01*
X9472911Y-15246293D02*
X9472911Y-15198674D01*
X9472911Y-15198674D02*
X9482435Y-15160579D01*
X9482435Y-15160579D02*
X9491959Y-15141531D01*
X9491959Y-15141531D02*
X9501483Y-15132008D01*
X9501483Y-15132008D02*
X9520530Y-15122484D01*
X9672911Y-15322484D02*
X9672911Y-15189150D01*
X9672911Y-15208198D02*
X9682435Y-15198674D01*
X9682435Y-15198674D02*
X9701483Y-15189150D01*
X9701483Y-15189150D02*
X9730054Y-15189150D01*
X9730054Y-15189150D02*
X9749102Y-15198674D01*
X9749102Y-15198674D02*
X9758626Y-15217722D01*
X9758626Y-15217722D02*
X9758626Y-15322484D01*
X9758626Y-15217722D02*
X9768150Y-15198674D01*
X9768150Y-15198674D02*
X9787197Y-15189150D01*
X9787197Y-15189150D02*
X9815769Y-15189150D01*
X9815769Y-15189150D02*
X9834816Y-15198674D01*
X9834816Y-15198674D02*
X9844340Y-15217722D01*
X9844340Y-15217722D02*
X9844340Y-15322484D01*
X9939578Y-15322484D02*
X9939578Y-15189150D01*
X9939578Y-15208198D02*
X9949102Y-15198674D01*
X9949102Y-15198674D02*
X9968150Y-15189150D01*
X9968150Y-15189150D02*
X9996721Y-15189150D01*
X9996721Y-15189150D02*
X10015769Y-15198674D01*
X10015769Y-15198674D02*
X10025292Y-15217722D01*
X10025292Y-15217722D02*
X10025292Y-15322484D01*
X10025292Y-15217722D02*
X10034816Y-15198674D01*
X10034816Y-15198674D02*
X10053864Y-15189150D01*
X10053864Y-15189150D02*
X10082435Y-15189150D01*
X10082435Y-15189150D02*
X10101483Y-15198674D01*
X10101483Y-15198674D02*
X10111007Y-15217722D01*
X10111007Y-15217722D02*
X10111007Y-15322484D01*
X10501483Y-15112960D02*
X10330054Y-15370103D01*
X10758626Y-15122484D02*
X10777674Y-15122484D01*
X10777674Y-15122484D02*
X10796721Y-15132008D01*
X10796721Y-15132008D02*
X10806245Y-15141531D01*
X10806245Y-15141531D02*
X10815769Y-15160579D01*
X10815769Y-15160579D02*
X10825293Y-15198674D01*
X10825293Y-15198674D02*
X10825293Y-15246293D01*
X10825293Y-15246293D02*
X10815769Y-15284388D01*
X10815769Y-15284388D02*
X10806245Y-15303436D01*
X10806245Y-15303436D02*
X10796721Y-15312960D01*
X10796721Y-15312960D02*
X10777674Y-15322484D01*
X10777674Y-15322484D02*
X10758626Y-15322484D01*
X10758626Y-15322484D02*
X10739578Y-15312960D01*
X10739578Y-15312960D02*
X10730054Y-15303436D01*
X10730054Y-15303436D02*
X10720531Y-15284388D01*
X10720531Y-15284388D02*
X10711007Y-15246293D01*
X10711007Y-15246293D02*
X10711007Y-15198674D01*
X10711007Y-15198674D02*
X10720531Y-15160579D01*
X10720531Y-15160579D02*
X10730054Y-15141531D01*
X10730054Y-15141531D02*
X10739578Y-15132008D01*
X10739578Y-15132008D02*
X10758626Y-15122484D01*
X10911007Y-15303436D02*
X10920531Y-15312960D01*
X10920531Y-15312960D02*
X10911007Y-15322484D01*
X10911007Y-15322484D02*
X10901483Y-15312960D01*
X10901483Y-15312960D02*
X10911007Y-15303436D01*
X10911007Y-15303436D02*
X10911007Y-15322484D01*
X11044340Y-15122484D02*
X11063388Y-15122484D01*
X11063388Y-15122484D02*
X11082435Y-15132008D01*
X11082435Y-15132008D02*
X11091959Y-15141531D01*
X11091959Y-15141531D02*
X11101483Y-15160579D01*
X11101483Y-15160579D02*
X11111007Y-15198674D01*
X11111007Y-15198674D02*
X11111007Y-15246293D01*
X11111007Y-15246293D02*
X11101483Y-15284388D01*
X11101483Y-15284388D02*
X11091959Y-15303436D01*
X11091959Y-15303436D02*
X11082435Y-15312960D01*
X11082435Y-15312960D02*
X11063388Y-15322484D01*
X11063388Y-15322484D02*
X11044340Y-15322484D01*
X11044340Y-15322484D02*
X11025293Y-15312960D01*
X11025293Y-15312960D02*
X11015769Y-15303436D01*
X11015769Y-15303436D02*
X11006245Y-15284388D01*
X11006245Y-15284388D02*
X10996721Y-15246293D01*
X10996721Y-15246293D02*
X10996721Y-15198674D01*
X10996721Y-15198674D02*
X11006245Y-15160579D01*
X11006245Y-15160579D02*
X11015769Y-15141531D01*
X11015769Y-15141531D02*
X11025293Y-15132008D01*
X11025293Y-15132008D02*
X11044340Y-15122484D01*
X11206245Y-15322484D02*
X11244340Y-15322484D01*
X11244340Y-15322484D02*
X11263388Y-15312960D01*
X11263388Y-15312960D02*
X11272912Y-15303436D01*
X11272912Y-15303436D02*
X11291959Y-15274865D01*
X11291959Y-15274865D02*
X11301483Y-15236769D01*
X11301483Y-15236769D02*
X11301483Y-15160579D01*
X11301483Y-15160579D02*
X11291959Y-15141531D01*
X11291959Y-15141531D02*
X11282435Y-15132008D01*
X11282435Y-15132008D02*
X11263388Y-15122484D01*
X11263388Y-15122484D02*
X11225292Y-15122484D01*
X11225292Y-15122484D02*
X11206245Y-15132008D01*
X11206245Y-15132008D02*
X11196721Y-15141531D01*
X11196721Y-15141531D02*
X11187197Y-15160579D01*
X11187197Y-15160579D02*
X11187197Y-15208198D01*
X11187197Y-15208198D02*
X11196721Y-15227246D01*
X11196721Y-15227246D02*
X11206245Y-15236769D01*
X11206245Y-15236769D02*
X11225292Y-15246293D01*
X11225292Y-15246293D02*
X11263388Y-15246293D01*
X11263388Y-15246293D02*
X11282435Y-15236769D01*
X11282435Y-15236769D02*
X11291959Y-15227246D01*
X11291959Y-15227246D02*
X11301483Y-15208198D01*
X11368150Y-15122484D02*
X11491959Y-15122484D01*
X11491959Y-15122484D02*
X11425292Y-15198674D01*
X11425292Y-15198674D02*
X11453864Y-15198674D01*
X11453864Y-15198674D02*
X11472912Y-15208198D01*
X11472912Y-15208198D02*
X11482435Y-15217722D01*
X11482435Y-15217722D02*
X11491959Y-15236769D01*
X11491959Y-15236769D02*
X11491959Y-15284388D01*
X11491959Y-15284388D02*
X11482435Y-15303436D01*
X11482435Y-15303436D02*
X11472912Y-15312960D01*
X11472912Y-15312960D02*
X11453864Y-15322484D01*
X11453864Y-15322484D02*
X11396721Y-15322484D01*
X11396721Y-15322484D02*
X11377673Y-15312960D01*
X11377673Y-15312960D02*
X11368150Y-15303436D01*
X11558626Y-15122484D02*
X11691959Y-15122484D01*
X11691959Y-15122484D02*
X11606245Y-15322484D01*
X11758626Y-15122484D02*
X11758626Y-15160579D01*
X11834816Y-15122484D02*
X11834816Y-15160579D01*
X12130055Y-15398674D02*
X12120531Y-15389150D01*
X12120531Y-15389150D02*
X12101483Y-15360579D01*
X12101483Y-15360579D02*
X12091959Y-15341531D01*
X12091959Y-15341531D02*
X12082435Y-15312960D01*
X12082435Y-15312960D02*
X12072912Y-15265341D01*
X12072912Y-15265341D02*
X12072912Y-15227246D01*
X12072912Y-15227246D02*
X12082435Y-15179627D01*
X12082435Y-15179627D02*
X12091959Y-15151055D01*
X12091959Y-15151055D02*
X12101483Y-15132008D01*
X12101483Y-15132008D02*
X12120531Y-15103436D01*
X12120531Y-15103436D02*
X12130055Y-15093912D01*
X12196721Y-15141531D02*
X12206245Y-15132008D01*
X12206245Y-15132008D02*
X12225293Y-15122484D01*
X12225293Y-15122484D02*
X12272912Y-15122484D01*
X12272912Y-15122484D02*
X12291959Y-15132008D01*
X12291959Y-15132008D02*
X12301483Y-15141531D01*
X12301483Y-15141531D02*
X12311007Y-15160579D01*
X12311007Y-15160579D02*
X12311007Y-15179627D01*
X12311007Y-15179627D02*
X12301483Y-15208198D01*
X12301483Y-15208198D02*
X12187197Y-15322484D01*
X12187197Y-15322484D02*
X12311007Y-15322484D01*
X12549102Y-15322484D02*
X12549102Y-15122484D01*
X12634816Y-15322484D02*
X12634816Y-15217722D01*
X12634816Y-15217722D02*
X12625293Y-15198674D01*
X12625293Y-15198674D02*
X12606245Y-15189150D01*
X12606245Y-15189150D02*
X12577674Y-15189150D01*
X12577674Y-15189150D02*
X12558626Y-15198674D01*
X12558626Y-15198674D02*
X12549102Y-15208198D01*
X12758626Y-15322484D02*
X12739578Y-15312960D01*
X12739578Y-15312960D02*
X12730055Y-15303436D01*
X12730055Y-15303436D02*
X12720531Y-15284388D01*
X12720531Y-15284388D02*
X12720531Y-15227246D01*
X12720531Y-15227246D02*
X12730055Y-15208198D01*
X12730055Y-15208198D02*
X12739578Y-15198674D01*
X12739578Y-15198674D02*
X12758626Y-15189150D01*
X12758626Y-15189150D02*
X12787197Y-15189150D01*
X12787197Y-15189150D02*
X12806245Y-15198674D01*
X12806245Y-15198674D02*
X12815769Y-15208198D01*
X12815769Y-15208198D02*
X12825293Y-15227246D01*
X12825293Y-15227246D02*
X12825293Y-15284388D01*
X12825293Y-15284388D02*
X12815769Y-15303436D01*
X12815769Y-15303436D02*
X12806245Y-15312960D01*
X12806245Y-15312960D02*
X12787197Y-15322484D01*
X12787197Y-15322484D02*
X12758626Y-15322484D01*
X12939578Y-15322484D02*
X12920531Y-15312960D01*
X12920531Y-15312960D02*
X12911007Y-15293912D01*
X12911007Y-15293912D02*
X12911007Y-15122484D01*
X13091959Y-15312960D02*
X13072912Y-15322484D01*
X13072912Y-15322484D02*
X13034816Y-15322484D01*
X13034816Y-15322484D02*
X13015769Y-15312960D01*
X13015769Y-15312960D02*
X13006245Y-15293912D01*
X13006245Y-15293912D02*
X13006245Y-15217722D01*
X13006245Y-15217722D02*
X13015769Y-15198674D01*
X13015769Y-15198674D02*
X13034816Y-15189150D01*
X13034816Y-15189150D02*
X13072912Y-15189150D01*
X13072912Y-15189150D02*
X13091959Y-15198674D01*
X13091959Y-15198674D02*
X13101483Y-15217722D01*
X13101483Y-15217722D02*
X13101483Y-15236769D01*
X13101483Y-15236769D02*
X13006245Y-15255817D01*
X13177674Y-15312960D02*
X13196721Y-15322484D01*
X13196721Y-15322484D02*
X13234816Y-15322484D01*
X13234816Y-15322484D02*
X13253864Y-15312960D01*
X13253864Y-15312960D02*
X13263388Y-15293912D01*
X13263388Y-15293912D02*
X13263388Y-15284388D01*
X13263388Y-15284388D02*
X13253864Y-15265341D01*
X13253864Y-15265341D02*
X13234816Y-15255817D01*
X13234816Y-15255817D02*
X13206245Y-15255817D01*
X13206245Y-15255817D02*
X13187197Y-15246293D01*
X13187197Y-15246293D02*
X13177674Y-15227246D01*
X13177674Y-15227246D02*
X13177674Y-15217722D01*
X13177674Y-15217722D02*
X13187197Y-15198674D01*
X13187197Y-15198674D02*
X13206245Y-15189150D01*
X13206245Y-15189150D02*
X13234816Y-15189150D01*
X13234816Y-15189150D02*
X13253864Y-15198674D01*
X13330055Y-15398674D02*
X13339578Y-15389150D01*
X13339578Y-15389150D02*
X13358626Y-15360579D01*
X13358626Y-15360579D02*
X13368150Y-15341531D01*
X13368150Y-15341531D02*
X13377674Y-15312960D01*
X13377674Y-15312960D02*
X13387197Y-15265341D01*
X13387197Y-15265341D02*
X13387197Y-15227246D01*
X13387197Y-15227246D02*
X13377674Y-15179627D01*
X13377674Y-15179627D02*
X13368150Y-15151055D01*
X13368150Y-15151055D02*
X13358626Y-15132008D01*
X13358626Y-15132008D02*
X13339578Y-15103436D01*
X13339578Y-15103436D02*
X13330055Y-15093912D01*
X8354992Y-15451000D02*
X8554992Y-15651000D01*
X8554992Y-15451000D02*
X8354992Y-15651000D01*
X8554992Y-15551000D02*
G75*
G02*
X8354992Y-15551000I-100000J0D01*
G01*
X8354992Y-15551000D02*
G75*
G02*
X8554992Y-15551000I100000J0D01*
G01*
X8796721Y-15442484D02*
X8920530Y-15442484D01*
X8920530Y-15442484D02*
X8853864Y-15518674D01*
X8853864Y-15518674D02*
X8882435Y-15518674D01*
X8882435Y-15518674D02*
X8901483Y-15528198D01*
X8901483Y-15528198D02*
X8911007Y-15537722D01*
X8911007Y-15537722D02*
X8920530Y-15556769D01*
X8920530Y-15556769D02*
X8920530Y-15604388D01*
X8920530Y-15604388D02*
X8911007Y-15623436D01*
X8911007Y-15623436D02*
X8901483Y-15632960D01*
X8901483Y-15632960D02*
X8882435Y-15642484D01*
X8882435Y-15642484D02*
X8825292Y-15642484D01*
X8825292Y-15642484D02*
X8806245Y-15632960D01*
X8806245Y-15632960D02*
X8796721Y-15623436D01*
X9006245Y-15623436D02*
X9015769Y-15632960D01*
X9015769Y-15632960D02*
X9006245Y-15642484D01*
X9006245Y-15642484D02*
X8996721Y-15632960D01*
X8996721Y-15632960D02*
X9006245Y-15623436D01*
X9006245Y-15623436D02*
X9006245Y-15642484D01*
X9139578Y-15442484D02*
X9158626Y-15442484D01*
X9158626Y-15442484D02*
X9177673Y-15452008D01*
X9177673Y-15452008D02*
X9187197Y-15461531D01*
X9187197Y-15461531D02*
X9196721Y-15480579D01*
X9196721Y-15480579D02*
X9206245Y-15518674D01*
X9206245Y-15518674D02*
X9206245Y-15566293D01*
X9206245Y-15566293D02*
X9196721Y-15604388D01*
X9196721Y-15604388D02*
X9187197Y-15623436D01*
X9187197Y-15623436D02*
X9177673Y-15632960D01*
X9177673Y-15632960D02*
X9158626Y-15642484D01*
X9158626Y-15642484D02*
X9139578Y-15642484D01*
X9139578Y-15642484D02*
X9120530Y-15632960D01*
X9120530Y-15632960D02*
X9111007Y-15623436D01*
X9111007Y-15623436D02*
X9101483Y-15604388D01*
X9101483Y-15604388D02*
X9091959Y-15566293D01*
X9091959Y-15566293D02*
X9091959Y-15518674D01*
X9091959Y-15518674D02*
X9101483Y-15480579D01*
X9101483Y-15480579D02*
X9111007Y-15461531D01*
X9111007Y-15461531D02*
X9120530Y-15452008D01*
X9120530Y-15452008D02*
X9139578Y-15442484D01*
X9330054Y-15442484D02*
X9349102Y-15442484D01*
X9349102Y-15442484D02*
X9368150Y-15452008D01*
X9368150Y-15452008D02*
X9377673Y-15461531D01*
X9377673Y-15461531D02*
X9387197Y-15480579D01*
X9387197Y-15480579D02*
X9396721Y-15518674D01*
X9396721Y-15518674D02*
X9396721Y-15566293D01*
X9396721Y-15566293D02*
X9387197Y-15604388D01*
X9387197Y-15604388D02*
X9377673Y-15623436D01*
X9377673Y-15623436D02*
X9368150Y-15632960D01*
X9368150Y-15632960D02*
X9349102Y-15642484D01*
X9349102Y-15642484D02*
X9330054Y-15642484D01*
X9330054Y-15642484D02*
X9311007Y-15632960D01*
X9311007Y-15632960D02*
X9301483Y-15623436D01*
X9301483Y-15623436D02*
X9291959Y-15604388D01*
X9291959Y-15604388D02*
X9282435Y-15566293D01*
X9282435Y-15566293D02*
X9282435Y-15518674D01*
X9282435Y-15518674D02*
X9291959Y-15480579D01*
X9291959Y-15480579D02*
X9301483Y-15461531D01*
X9301483Y-15461531D02*
X9311007Y-15452008D01*
X9311007Y-15452008D02*
X9330054Y-15442484D01*
X9520530Y-15442484D02*
X9539578Y-15442484D01*
X9539578Y-15442484D02*
X9558626Y-15452008D01*
X9558626Y-15452008D02*
X9568150Y-15461531D01*
X9568150Y-15461531D02*
X9577673Y-15480579D01*
X9577673Y-15480579D02*
X9587197Y-15518674D01*
X9587197Y-15518674D02*
X9587197Y-15566293D01*
X9587197Y-15566293D02*
X9577673Y-15604388D01*
X9577673Y-15604388D02*
X9568150Y-15623436D01*
X9568150Y-15623436D02*
X9558626Y-15632960D01*
X9558626Y-15632960D02*
X9539578Y-15642484D01*
X9539578Y-15642484D02*
X9520530Y-15642484D01*
X9520530Y-15642484D02*
X9501483Y-15632960D01*
X9501483Y-15632960D02*
X9491959Y-15623436D01*
X9491959Y-15623436D02*
X9482435Y-15604388D01*
X9482435Y-15604388D02*
X9472911Y-15566293D01*
X9472911Y-15566293D02*
X9472911Y-15518674D01*
X9472911Y-15518674D02*
X9482435Y-15480579D01*
X9482435Y-15480579D02*
X9491959Y-15461531D01*
X9491959Y-15461531D02*
X9501483Y-15452008D01*
X9501483Y-15452008D02*
X9520530Y-15442484D01*
X9672911Y-15642484D02*
X9672911Y-15509150D01*
X9672911Y-15528198D02*
X9682435Y-15518674D01*
X9682435Y-15518674D02*
X9701483Y-15509150D01*
X9701483Y-15509150D02*
X9730054Y-15509150D01*
X9730054Y-15509150D02*
X9749102Y-15518674D01*
X9749102Y-15518674D02*
X9758626Y-15537722D01*
X9758626Y-15537722D02*
X9758626Y-15642484D01*
X9758626Y-15537722D02*
X9768150Y-15518674D01*
X9768150Y-15518674D02*
X9787197Y-15509150D01*
X9787197Y-15509150D02*
X9815769Y-15509150D01*
X9815769Y-15509150D02*
X9834816Y-15518674D01*
X9834816Y-15518674D02*
X9844340Y-15537722D01*
X9844340Y-15537722D02*
X9844340Y-15642484D01*
X9939578Y-15642484D02*
X9939578Y-15509150D01*
X9939578Y-15528198D02*
X9949102Y-15518674D01*
X9949102Y-15518674D02*
X9968150Y-15509150D01*
X9968150Y-15509150D02*
X9996721Y-15509150D01*
X9996721Y-15509150D02*
X10015769Y-15518674D01*
X10015769Y-15518674D02*
X10025292Y-15537722D01*
X10025292Y-15537722D02*
X10025292Y-15642484D01*
X10025292Y-15537722D02*
X10034816Y-15518674D01*
X10034816Y-15518674D02*
X10053864Y-15509150D01*
X10053864Y-15509150D02*
X10082435Y-15509150D01*
X10082435Y-15509150D02*
X10101483Y-15518674D01*
X10101483Y-15518674D02*
X10111007Y-15537722D01*
X10111007Y-15537722D02*
X10111007Y-15642484D01*
X10501483Y-15432960D02*
X10330054Y-15690103D01*
X10758626Y-15442484D02*
X10777674Y-15442484D01*
X10777674Y-15442484D02*
X10796721Y-15452008D01*
X10796721Y-15452008D02*
X10806245Y-15461531D01*
X10806245Y-15461531D02*
X10815769Y-15480579D01*
X10815769Y-15480579D02*
X10825293Y-15518674D01*
X10825293Y-15518674D02*
X10825293Y-15566293D01*
X10825293Y-15566293D02*
X10815769Y-15604388D01*
X10815769Y-15604388D02*
X10806245Y-15623436D01*
X10806245Y-15623436D02*
X10796721Y-15632960D01*
X10796721Y-15632960D02*
X10777674Y-15642484D01*
X10777674Y-15642484D02*
X10758626Y-15642484D01*
X10758626Y-15642484D02*
X10739578Y-15632960D01*
X10739578Y-15632960D02*
X10730054Y-15623436D01*
X10730054Y-15623436D02*
X10720531Y-15604388D01*
X10720531Y-15604388D02*
X10711007Y-15566293D01*
X10711007Y-15566293D02*
X10711007Y-15518674D01*
X10711007Y-15518674D02*
X10720531Y-15480579D01*
X10720531Y-15480579D02*
X10730054Y-15461531D01*
X10730054Y-15461531D02*
X10739578Y-15452008D01*
X10739578Y-15452008D02*
X10758626Y-15442484D01*
X10911007Y-15623436D02*
X10920531Y-15632960D01*
X10920531Y-15632960D02*
X10911007Y-15642484D01*
X10911007Y-15642484D02*
X10901483Y-15632960D01*
X10901483Y-15632960D02*
X10911007Y-15623436D01*
X10911007Y-15623436D02*
X10911007Y-15642484D01*
X11111007Y-15642484D02*
X10996721Y-15642484D01*
X11053864Y-15642484D02*
X11053864Y-15442484D01*
X11053864Y-15442484D02*
X11034816Y-15471055D01*
X11034816Y-15471055D02*
X11015769Y-15490103D01*
X11015769Y-15490103D02*
X10996721Y-15499627D01*
X11301483Y-15642484D02*
X11187197Y-15642484D01*
X11244340Y-15642484D02*
X11244340Y-15442484D01*
X11244340Y-15442484D02*
X11225292Y-15471055D01*
X11225292Y-15471055D02*
X11206245Y-15490103D01*
X11206245Y-15490103D02*
X11187197Y-15499627D01*
X11415769Y-15528198D02*
X11396721Y-15518674D01*
X11396721Y-15518674D02*
X11387197Y-15509150D01*
X11387197Y-15509150D02*
X11377673Y-15490103D01*
X11377673Y-15490103D02*
X11377673Y-15480579D01*
X11377673Y-15480579D02*
X11387197Y-15461531D01*
X11387197Y-15461531D02*
X11396721Y-15452008D01*
X11396721Y-15452008D02*
X11415769Y-15442484D01*
X11415769Y-15442484D02*
X11453864Y-15442484D01*
X11453864Y-15442484D02*
X11472912Y-15452008D01*
X11472912Y-15452008D02*
X11482435Y-15461531D01*
X11482435Y-15461531D02*
X11491959Y-15480579D01*
X11491959Y-15480579D02*
X11491959Y-15490103D01*
X11491959Y-15490103D02*
X11482435Y-15509150D01*
X11482435Y-15509150D02*
X11472912Y-15518674D01*
X11472912Y-15518674D02*
X11453864Y-15528198D01*
X11453864Y-15528198D02*
X11415769Y-15528198D01*
X11415769Y-15528198D02*
X11396721Y-15537722D01*
X11396721Y-15537722D02*
X11387197Y-15547246D01*
X11387197Y-15547246D02*
X11377673Y-15566293D01*
X11377673Y-15566293D02*
X11377673Y-15604388D01*
X11377673Y-15604388D02*
X11387197Y-15623436D01*
X11387197Y-15623436D02*
X11396721Y-15632960D01*
X11396721Y-15632960D02*
X11415769Y-15642484D01*
X11415769Y-15642484D02*
X11453864Y-15642484D01*
X11453864Y-15642484D02*
X11472912Y-15632960D01*
X11472912Y-15632960D02*
X11482435Y-15623436D01*
X11482435Y-15623436D02*
X11491959Y-15604388D01*
X11491959Y-15604388D02*
X11491959Y-15566293D01*
X11491959Y-15566293D02*
X11482435Y-15547246D01*
X11482435Y-15547246D02*
X11472912Y-15537722D01*
X11472912Y-15537722D02*
X11453864Y-15528198D01*
X11682435Y-15642484D02*
X11568150Y-15642484D01*
X11625292Y-15642484D02*
X11625292Y-15442484D01*
X11625292Y-15442484D02*
X11606245Y-15471055D01*
X11606245Y-15471055D02*
X11587197Y-15490103D01*
X11587197Y-15490103D02*
X11568150Y-15499627D01*
X11758626Y-15442484D02*
X11758626Y-15480579D01*
X11834816Y-15442484D02*
X11834816Y-15480579D01*
X12130055Y-15718674D02*
X12120531Y-15709150D01*
X12120531Y-15709150D02*
X12101483Y-15680579D01*
X12101483Y-15680579D02*
X12091959Y-15661531D01*
X12091959Y-15661531D02*
X12082435Y-15632960D01*
X12082435Y-15632960D02*
X12072912Y-15585341D01*
X12072912Y-15585341D02*
X12072912Y-15547246D01*
X12072912Y-15547246D02*
X12082435Y-15499627D01*
X12082435Y-15499627D02*
X12091959Y-15471055D01*
X12091959Y-15471055D02*
X12101483Y-15452008D01*
X12101483Y-15452008D02*
X12120531Y-15423436D01*
X12120531Y-15423436D02*
X12130055Y-15413912D01*
X12311007Y-15642484D02*
X12196721Y-15642484D01*
X12253864Y-15642484D02*
X12253864Y-15442484D01*
X12253864Y-15442484D02*
X12234816Y-15471055D01*
X12234816Y-15471055D02*
X12215769Y-15490103D01*
X12215769Y-15490103D02*
X12196721Y-15499627D01*
X12549102Y-15642484D02*
X12549102Y-15442484D01*
X12634816Y-15642484D02*
X12634816Y-15537722D01*
X12634816Y-15537722D02*
X12625293Y-15518674D01*
X12625293Y-15518674D02*
X12606245Y-15509150D01*
X12606245Y-15509150D02*
X12577674Y-15509150D01*
X12577674Y-15509150D02*
X12558626Y-15518674D01*
X12558626Y-15518674D02*
X12549102Y-15528198D01*
X12758626Y-15642484D02*
X12739578Y-15632960D01*
X12739578Y-15632960D02*
X12730055Y-15623436D01*
X12730055Y-15623436D02*
X12720531Y-15604388D01*
X12720531Y-15604388D02*
X12720531Y-15547246D01*
X12720531Y-15547246D02*
X12730055Y-15528198D01*
X12730055Y-15528198D02*
X12739578Y-15518674D01*
X12739578Y-15518674D02*
X12758626Y-15509150D01*
X12758626Y-15509150D02*
X12787197Y-15509150D01*
X12787197Y-15509150D02*
X12806245Y-15518674D01*
X12806245Y-15518674D02*
X12815769Y-15528198D01*
X12815769Y-15528198D02*
X12825293Y-15547246D01*
X12825293Y-15547246D02*
X12825293Y-15604388D01*
X12825293Y-15604388D02*
X12815769Y-15623436D01*
X12815769Y-15623436D02*
X12806245Y-15632960D01*
X12806245Y-15632960D02*
X12787197Y-15642484D01*
X12787197Y-15642484D02*
X12758626Y-15642484D01*
X12939578Y-15642484D02*
X12920531Y-15632960D01*
X12920531Y-15632960D02*
X12911007Y-15613912D01*
X12911007Y-15613912D02*
X12911007Y-15442484D01*
X13091959Y-15632960D02*
X13072912Y-15642484D01*
X13072912Y-15642484D02*
X13034816Y-15642484D01*
X13034816Y-15642484D02*
X13015769Y-15632960D01*
X13015769Y-15632960D02*
X13006245Y-15613912D01*
X13006245Y-15613912D02*
X13006245Y-15537722D01*
X13006245Y-15537722D02*
X13015769Y-15518674D01*
X13015769Y-15518674D02*
X13034816Y-15509150D01*
X13034816Y-15509150D02*
X13072912Y-15509150D01*
X13072912Y-15509150D02*
X13091959Y-15518674D01*
X13091959Y-15518674D02*
X13101483Y-15537722D01*
X13101483Y-15537722D02*
X13101483Y-15556769D01*
X13101483Y-15556769D02*
X13006245Y-15575817D01*
X13168150Y-15718674D02*
X13177674Y-15709150D01*
X13177674Y-15709150D02*
X13196721Y-15680579D01*
X13196721Y-15680579D02*
X13206245Y-15661531D01*
X13206245Y-15661531D02*
X13215769Y-15632960D01*
X13215769Y-15632960D02*
X13225293Y-15585341D01*
X13225293Y-15585341D02*
X13225293Y-15547246D01*
X13225293Y-15547246D02*
X13215769Y-15499627D01*
X13215769Y-15499627D02*
X13206245Y-15471055D01*
X13206245Y-15471055D02*
X13196721Y-15452008D01*
X13196721Y-15452008D02*
X13177674Y-15423436D01*
X13177674Y-15423436D02*
X13168150Y-15413912D01*
M02*
