M48
; DRILL file {KiCad 8.0.8} date 2025-03-18T19:12:26-0400
; FORMAT={-:-/ absolute / metric / decimal}
; #@! TF.CreationDate,2025-03-18T19:12:26-04:00
; #@! TF.GenerationSoftware,Kicad,Pcbnew,8.0.8
; #@! TF.FileFunction,Plated,1,2,PTH
FMAT,2
METRIC
; #@! TA.AperFunction,Plated,PTH,ViaDrill
T1C0.400
; #@! TA.AperFunction,Plated,PTH,ComponentDrill
T2C0.500
; #@! TA.AperFunction,Plated,PTH,ComponentDrill
T3C1.000
; #@! TA.AperFunction,Plated,PTH,ComponentDrill
T4C1.020
; #@! TA.AperFunction,Plated,PTH,ComponentDrill
T5C2.380
; #@! TA.AperFunction,Plated,PTH,ViaDrill
T6C3.000
%
G90
G05
T1
X93.472Y-121.739
X94.488Y-83.82
X103.378Y-98.044
X103.5Y-108.2
X103.886Y-121.666
X106.22Y-85.344
X107.95Y-87.122
X108.966Y-87.884
X109.24Y-108.204
X109.728Y-87.122
X109.982Y-88.646
X111.379Y-87.503
X113.157Y-87.757
X113.506Y-85.344
X115.316Y-121.158
X119.0Y-100.575
X120.142Y-121.666
X121.666Y-118.11
X121.92Y-100.076
X122.174Y-83.312
X122.936Y-96.266
X122.936Y-100.838
X124.206Y-101.346
X125.222Y-94.742
X128.27Y-101.346
X130.556Y-95.504
X131.5Y-98.35
X133.096Y-99.314
X134.366Y-109.644
X134.366Y-110.998
X134.874Y-126.746
X135.128Y-115.5
X137.16Y-94.488
X137.16Y-97.277
X138.049Y-99.441
X138.557Y-94.488
X139.446Y-99.314
X143.011Y-98.806
X144.586Y-99.314
X145.029Y-114.305
X146.05Y-99.314
X146.087Y-114.046
X147.0Y-112.765
X148.25Y-129.75
X148.336Y-98.044
X149.032Y-118.468
X149.352Y-108.204
X150.0Y-111.0
X150.114Y-103.378
X150.363Y-104.643
X150.622Y-94.996
X151.75Y-127.25
X151.892Y-103.124
X152.4Y-95.033
X152.4Y-110.49
X152.908Y-103.378
X153.686Y-126.686
X154.178Y-103.124
X154.686Y-127.5
X155.686Y-126.5
X156.464Y-103.124
X157.25Y-127.25
X158.75Y-115.824
X161.25Y-129.75
X163.0Y-120.178
X163.576Y-94.742
X165.354Y-94.742
X166.0Y-124.678
X166.862Y-128.0
X168.402Y-109.22
X173.0Y-109.0
X173.078Y-101.949
X173.5Y-130.5
X173.736Y-115.062
X174.498Y-103.124
X177.5Y-109.974
X178.308Y-107.188
X179.324Y-124.714
X179.578Y-118.872
T2
X125.222Y-79.756
X126.746Y-98.806
X133.604Y-80.264
X138.938Y-80.01
X141.478Y-97.028
X147.32Y-80.772
X152.146Y-80.772
X152.908Y-98.298
X160.274Y-100.076
X161.29Y-80.772
X162.5Y-123.0
X165.608Y-80.772
X175.768Y-83.82
T3
X95.49Y-104.7
X95.49Y-107.2
X95.49Y-109.2
X95.49Y-111.7
T4
X90.424Y-89.916
X90.424Y-92.456
X92.964Y-89.916
X92.964Y-92.456
X95.504Y-89.916
X95.504Y-92.456
X131.064Y-131.318
X133.604Y-131.318
X136.144Y-131.318
X138.684Y-131.318
X141.224Y-131.318
X180.34Y-91.454
X180.34Y-93.994
X180.34Y-96.534
X182.88Y-91.454
X182.88Y-93.994
X182.88Y-96.534
T5
X92.78Y-101.63
X92.78Y-114.77
T6
X100.0Y-131.0
M30
