G04 #@! TF.GenerationSoftware,KiCad,Pcbnew,8.0.8*
G04 #@! TF.CreationDate,2025-03-18T19:08:41-04:00*
G04 #@! TF.ProjectId,477,3437372e-6b69-4636-9164-5f7063625858,rev?*
G04 #@! TF.SameCoordinates,Original*
G04 #@! TF.FileFunction,Copper,L2,Bot*
G04 #@! TF.FilePolarity,Positive*
%FSLAX46Y46*%
G04 Gerber Fmt 4.6, Leading zero omitted, Abs format (unit mm)*
G04 Created by KiCad (PCBNEW 8.0.8) date 2025-03-18 19:08:41*
%MOMM*%
%LPD*%
G01*
G04 APERTURE LIST*
G04 Aperture macros list*
%AMRoundRect*
0 Rectangle with rounded corners*
0 $1 Rounding radius*
0 $2 $3 $4 $5 $6 $7 $8 $9 X,Y pos of 4 corners*
0 Add a 4 corners polygon primitive as box body*
4,1,4,$2,$3,$4,$5,$6,$7,$8,$9,$2,$3,0*
0 Add four circle primitives for the rounded corners*
1,1,$1+$1,$2,$3*
1,1,$1+$1,$4,$5*
1,1,$1+$1,$6,$7*
1,1,$1+$1,$8,$9*
0 Add four rect primitives between the rounded corners*
20,1,$1+$1,$2,$3,$4,$5,0*
20,1,$1+$1,$4,$5,$6,$7,0*
20,1,$1+$1,$6,$7,$8,$9,0*
20,1,$1+$1,$8,$9,$2,$3,0*%
G04 Aperture macros list end*
G04 #@! TA.AperFunction,ComponentPad*
%ADD10C,1.000000*%
G04 #@! TD*
G04 #@! TA.AperFunction,ComponentPad*
%ADD11C,1.550000*%
G04 #@! TD*
G04 #@! TA.AperFunction,ComponentPad*
%ADD12C,1.500000*%
G04 #@! TD*
G04 #@! TA.AperFunction,ComponentPad*
%ADD13C,3.570000*%
G04 #@! TD*
G04 #@! TA.AperFunction,SMDPad,CuDef*
%ADD14RoundRect,0.250000X0.337500X0.475000X-0.337500X0.475000X-0.337500X-0.475000X0.337500X-0.475000X0*%
G04 #@! TD*
G04 #@! TA.AperFunction,SMDPad,CuDef*
%ADD15R,1.100000X0.650000*%
G04 #@! TD*
G04 #@! TA.AperFunction,SMDPad,CuDef*
%ADD16RoundRect,0.250000X0.450000X-0.350000X0.450000X0.350000X-0.450000X0.350000X-0.450000X-0.350000X0*%
G04 #@! TD*
G04 #@! TA.AperFunction,SMDPad,CuDef*
%ADD17RoundRect,0.250000X-0.475000X0.337500X-0.475000X-0.337500X0.475000X-0.337500X0.475000X0.337500X0*%
G04 #@! TD*
G04 #@! TA.AperFunction,SMDPad,CuDef*
%ADD18RoundRect,0.250000X-0.337500X-0.475000X0.337500X-0.475000X0.337500X0.475000X-0.337500X0.475000X0*%
G04 #@! TD*
G04 #@! TA.AperFunction,SMDPad,CuDef*
%ADD19R,0.650000X1.100000*%
G04 #@! TD*
G04 #@! TA.AperFunction,SMDPad,CuDef*
%ADD20RoundRect,0.250000X0.475000X-0.337500X0.475000X0.337500X-0.475000X0.337500X-0.475000X-0.337500X0*%
G04 #@! TD*
G04 #@! TA.AperFunction,ViaPad*
%ADD21C,0.800000*%
G04 #@! TD*
G04 #@! TA.AperFunction,ViaPad*
%ADD22C,6.000000*%
G04 #@! TD*
G04 #@! TA.AperFunction,Conductor*
%ADD23C,0.500000*%
G04 #@! TD*
G04 #@! TA.AperFunction,Conductor*
%ADD24C,0.250000*%
G04 #@! TD*
G04 APERTURE END LIST*
D10*
X165608000Y-80772000D03*
X133604000Y-80264000D03*
X138938000Y-80010000D03*
X126746000Y-98806000D03*
X152146000Y-80772000D03*
X141478000Y-97028000D03*
X160274000Y-100076000D03*
X161290000Y-80772000D03*
X162500000Y-123000000D03*
D11*
X131064000Y-131318000D03*
X133604000Y-131318000D03*
X136144000Y-131318000D03*
X138684000Y-131318000D03*
X141224000Y-131318000D03*
D10*
X152908000Y-98298000D03*
X147320000Y-80772000D03*
X175768000Y-83820000D03*
D12*
X95490000Y-104700000D03*
X95490000Y-107200000D03*
X95490000Y-109200000D03*
X95490000Y-111700000D03*
D13*
X92780000Y-101630000D03*
X92780000Y-114770000D03*
D11*
X182880000Y-96534000D03*
X180340000Y-96534000D03*
X182880000Y-93994000D03*
X180340000Y-93994000D03*
X182880000Y-91454000D03*
X180340000Y-91454000D03*
D10*
X125222000Y-79756000D03*
D11*
X90424000Y-92456000D03*
X90424000Y-89916000D03*
X92964000Y-92456000D03*
X92964000Y-89916000D03*
X95504000Y-92456000D03*
X95504000Y-89916000D03*
D14*
X144634500Y-102870000D03*
X142559500Y-102870000D03*
D15*
X145900000Y-133460000D03*
X145900000Y-131540000D03*
X148000000Y-132500000D03*
X163100000Y-131540000D03*
X163100000Y-133460000D03*
X161000000Y-132500000D03*
D16*
X176000000Y-107000000D03*
X176000000Y-105000000D03*
D17*
X145796000Y-104880500D03*
X145796000Y-106955500D03*
X148411000Y-112260000D03*
X148411000Y-114335000D03*
D15*
X163600000Y-126040000D03*
X163600000Y-127960000D03*
X161500000Y-127000000D03*
X175400000Y-113960000D03*
X175400000Y-112040000D03*
X177500000Y-113000000D03*
D18*
X137987500Y-110490000D03*
X140062500Y-110490000D03*
X137987500Y-108458000D03*
X140062500Y-108458000D03*
D16*
X173000000Y-107000000D03*
X173000000Y-105000000D03*
D19*
X157540000Y-122900000D03*
X159460000Y-122900000D03*
X158500000Y-125000000D03*
D20*
X145868500Y-110744000D03*
X145868500Y-108669000D03*
D19*
X149540000Y-122900000D03*
X151460000Y-122900000D03*
X150500000Y-125000000D03*
X153540000Y-122900000D03*
X155460000Y-122900000D03*
X154500000Y-125000000D03*
D17*
X138263000Y-102594500D03*
X138263000Y-104669500D03*
D15*
X170900000Y-112960000D03*
X170900000Y-111040000D03*
X173000000Y-112000000D03*
D16*
X143597000Y-110982000D03*
X143597000Y-108982000D03*
D15*
X145400000Y-127960000D03*
X145400000Y-126040000D03*
X147500000Y-127000000D03*
D17*
X140295000Y-102594500D03*
X140295000Y-104669500D03*
D21*
X134366000Y-110998000D03*
X125222000Y-94742000D03*
X133096000Y-99314000D03*
X179578000Y-118872000D03*
X152400000Y-95033000D03*
X150363347Y-104643347D03*
X94488000Y-83820000D03*
X138557000Y-94488000D03*
X106220000Y-85344000D03*
X166000000Y-124678000D03*
X138049000Y-99441000D03*
X149031771Y-118468229D03*
X103378000Y-98044000D03*
X152400000Y-110490000D03*
X103886000Y-121666000D03*
X178308000Y-107188000D03*
X158750000Y-115824000D03*
D22*
X100000000Y-131000000D03*
D21*
X119000000Y-100575001D03*
X103500000Y-108200000D03*
X166862000Y-128000000D03*
X120142000Y-121666000D03*
X146087000Y-114046000D03*
X179324000Y-124714000D03*
X165354000Y-94742000D03*
X113506000Y-85344000D03*
X146050000Y-99314000D03*
X115316000Y-121158000D03*
X93472000Y-121739052D03*
X173736000Y-115062000D03*
X173500000Y-130500000D03*
X163000000Y-120178000D03*
X130556000Y-95504000D03*
X128270000Y-101346000D03*
X124206000Y-101346000D03*
X122174000Y-83312000D03*
X143011000Y-98806000D03*
X109240000Y-108204000D03*
X134874000Y-126746000D03*
X113157000Y-87757000D03*
X109982000Y-88646000D03*
X145029347Y-114304653D03*
X144586000Y-99314000D03*
X135128000Y-115500000D03*
X147000000Y-112765000D03*
X150000000Y-111000000D03*
X121666000Y-118110000D03*
X131500000Y-98350000D03*
X150114000Y-103378000D03*
X122936000Y-96266000D03*
X139446000Y-99314000D03*
X134366000Y-109644500D03*
X122936000Y-100838000D03*
X121920000Y-100076000D03*
X108966000Y-87884000D03*
X111379000Y-87503000D03*
X107950000Y-87122000D03*
X109728000Y-87122000D03*
X137160000Y-97277347D03*
X137160000Y-94488000D03*
X148336000Y-98044000D03*
X173000000Y-109000000D03*
X177500000Y-109974000D03*
X161250000Y-129750000D03*
X168402000Y-109220000D03*
X154178000Y-103124000D03*
X151892000Y-103124000D03*
X150622000Y-94996000D03*
X152908000Y-103378000D03*
X163576000Y-94742000D03*
X156464000Y-103124000D03*
X149352000Y-108204000D03*
X155686000Y-126500000D03*
X153686000Y-126686000D03*
X151750000Y-127250000D03*
X148250000Y-129750000D03*
X154686000Y-127500000D03*
X157250000Y-127250000D03*
X174498000Y-103124000D03*
X173078306Y-101949000D03*
D23*
X148411000Y-114335000D02*
X151665000Y-114335000D01*
D24*
X146050000Y-99060000D02*
X145034000Y-98044000D01*
X144272000Y-98044000D02*
X143861000Y-98455000D01*
D23*
X152400000Y-113600000D02*
X151665000Y-114335000D01*
D24*
X140295000Y-104669500D02*
X140760000Y-104669500D01*
X146050000Y-99314000D02*
X146050000Y-99060000D01*
X145034000Y-98044000D02*
X144272000Y-98044000D01*
X143861000Y-98455000D02*
X143861000Y-99217000D01*
D23*
X145555500Y-108982000D02*
X145868500Y-108669000D01*
D24*
X142559500Y-100518500D02*
X142559500Y-102870000D01*
X143861000Y-99217000D02*
X142559500Y-100518500D01*
D23*
X140062500Y-110490000D02*
X140062500Y-108458000D01*
X152400000Y-110490000D02*
X152400000Y-113600000D01*
X140760000Y-104669500D02*
X142559500Y-102870000D01*
D24*
X163000000Y-120178000D02*
X173322000Y-130500000D01*
X147822000Y-120178000D02*
X163000000Y-120178000D01*
X141224000Y-126776000D02*
X147822000Y-120178000D01*
X141224000Y-131318000D02*
X141224000Y-126776000D01*
X130556000Y-95504000D02*
X130556000Y-92202000D01*
X133091758Y-89666242D02*
X133091758Y-80776242D01*
X130556000Y-92202000D02*
X133091758Y-89666242D01*
X133091758Y-80776242D02*
X133604000Y-80264000D01*
X128270000Y-101346000D02*
X124206000Y-101346000D01*
X122174000Y-83312000D02*
X122174000Y-93980000D01*
X122174000Y-93980000D02*
X123698000Y-95504000D01*
X136535198Y-98298000D02*
X142503000Y-98298000D01*
X131000000Y-97500000D02*
X135737198Y-97500000D01*
X129004000Y-95504000D02*
X131000000Y-97500000D01*
X142503000Y-98298000D02*
X143011000Y-98806000D01*
X123698000Y-95504000D02*
X129004000Y-95504000D01*
X135737198Y-97500000D02*
X136535198Y-98298000D01*
D23*
X105736000Y-104700000D02*
X109240000Y-108204000D01*
X95490000Y-104700000D02*
X105736000Y-104700000D01*
D24*
X134874000Y-126746000D02*
X134874000Y-127508000D01*
X134874000Y-127508000D02*
X138684000Y-131318000D01*
X109982000Y-88646000D02*
X112268000Y-88646000D01*
X112268000Y-88646000D02*
X113157000Y-87757000D01*
X145029347Y-114304653D02*
X143597000Y-112872306D01*
X143597000Y-112872306D02*
X143597000Y-110982000D01*
D23*
X148740000Y-112260000D02*
X150000000Y-111000000D01*
X147000000Y-112765000D02*
X146265000Y-112765000D01*
D24*
X141500000Y-111000000D02*
X141500000Y-106150000D01*
D23*
X146000000Y-112500000D02*
X146000000Y-112000000D01*
D24*
X137987500Y-110809500D02*
X139178000Y-112000000D01*
D23*
X135128000Y-117094000D02*
X136144000Y-118110000D01*
X143764000Y-118110000D02*
X147000000Y-114874000D01*
D24*
X144634500Y-102870000D02*
X144634500Y-99362500D01*
D23*
X135128000Y-112582000D02*
X136165500Y-111544500D01*
D24*
X146000000Y-112000000D02*
X145868500Y-111868500D01*
D23*
X148611500Y-104880500D02*
X150114000Y-103378000D01*
X145796000Y-104031500D02*
X144634500Y-102870000D01*
X134112000Y-118110000D02*
X135128000Y-117094000D01*
D24*
X141500000Y-106150000D02*
X142769500Y-104880500D01*
X148411000Y-112260000D02*
X147505000Y-112260000D01*
D23*
X147000000Y-114874000D02*
X147000000Y-112765000D01*
D24*
X140500000Y-112000000D02*
X141500000Y-111000000D01*
X147505000Y-112260000D02*
X147000000Y-112765000D01*
D23*
X138263000Y-102594500D02*
X138263000Y-101263000D01*
X148411000Y-112260000D02*
X148740000Y-112260000D01*
X135636000Y-98298000D02*
X136938250Y-99600250D01*
X127254000Y-96266000D02*
X129286000Y-98298000D01*
X122936000Y-96266000D02*
X127254000Y-96266000D01*
X136165500Y-111544500D02*
X136933000Y-111544500D01*
X121666000Y-118110000D02*
X134112000Y-118110000D01*
X137870250Y-100870250D02*
X136938250Y-100870250D01*
D24*
X142769500Y-104880500D02*
X145796000Y-104880500D01*
X139178000Y-112000000D02*
X140500000Y-112000000D01*
D23*
X135128000Y-117094000D02*
X135128000Y-112582000D01*
X136938250Y-99600250D02*
X136938250Y-100870250D01*
X145796000Y-104880500D02*
X145796000Y-104031500D01*
X146265000Y-112765000D02*
X146000000Y-112500000D01*
X129286000Y-98298000D02*
X135636000Y-98298000D01*
X138263000Y-101263000D02*
X137870250Y-100870250D01*
D24*
X137987500Y-110490000D02*
X137987500Y-110809500D01*
X145796000Y-104880500D02*
X145774500Y-104902000D01*
D23*
X145796000Y-104880500D02*
X148611500Y-104880500D01*
X136144000Y-118110000D02*
X143764000Y-118110000D01*
X145868500Y-111868500D02*
X145868500Y-110744000D01*
D24*
X144634500Y-99362500D02*
X144586000Y-99314000D01*
D23*
X136933000Y-111544500D02*
X137987500Y-110490000D01*
D24*
X139446000Y-101513000D02*
X140273500Y-102340500D01*
X140273500Y-102340500D02*
X140273500Y-102870000D01*
X139446000Y-99314000D02*
X139446000Y-101513000D01*
X137098000Y-109644500D02*
X137987500Y-108755000D01*
X137987500Y-108755000D02*
X137987500Y-108458000D01*
X134366000Y-109644500D02*
X137098000Y-109644500D01*
X122936000Y-100838000D02*
X124968000Y-98806000D01*
X124968000Y-98806000D02*
X126746000Y-98806000D01*
X120650000Y-93343604D02*
X120650000Y-81788000D01*
X121920000Y-100076000D02*
X121920000Y-96021305D01*
X121920000Y-100076000D02*
X121920000Y-100330000D01*
X120904000Y-93597604D02*
X120650000Y-93343604D01*
X122682000Y-80518000D02*
X123444000Y-79756000D01*
X123444000Y-79756000D02*
X125222000Y-79756000D01*
X121920000Y-96021305D02*
X120904000Y-95005305D01*
X121920000Y-80518000D02*
X122682000Y-80518000D01*
X120904000Y-95005305D02*
X120904000Y-93597604D01*
X120650000Y-81788000D02*
X121920000Y-80518000D01*
X110871000Y-87503000D02*
X111379000Y-87503000D01*
X108966000Y-87884000D02*
X110490000Y-87884000D01*
X110490000Y-87884000D02*
X110871000Y-87503000D01*
X107950000Y-87122000D02*
X109728000Y-87122000D01*
X136901347Y-97277347D02*
X136144000Y-96520000D01*
X135890000Y-81280000D02*
X137160000Y-80010000D01*
X134620000Y-96266000D02*
X134620000Y-81788000D01*
X136144000Y-96520000D02*
X134874000Y-96520000D01*
X137160000Y-80010000D02*
X138938000Y-80010000D01*
X134874000Y-81534000D02*
X135128000Y-81534000D01*
X137160000Y-97277347D02*
X136901347Y-97277347D01*
X134620000Y-81788000D02*
X134874000Y-81534000D01*
X135382000Y-81280000D02*
X135890000Y-81280000D01*
X135128000Y-81534000D02*
X135382000Y-81280000D01*
X134874000Y-96520000D02*
X134620000Y-96266000D01*
X137160000Y-94497305D02*
X138478695Y-95816000D01*
X138478695Y-95816000D02*
X140266000Y-95816000D01*
X137160000Y-94488000D02*
X137160000Y-94497305D01*
X140266000Y-95816000D02*
X141478000Y-97028000D01*
X148336000Y-84845209D02*
X148326791Y-84836000D01*
X148326791Y-81778791D02*
X147320000Y-80772000D01*
X148326791Y-84836000D02*
X148326791Y-81778791D01*
X148336000Y-98044000D02*
X148336000Y-84845209D01*
X173000000Y-107000000D02*
X173000000Y-109000000D01*
X173228000Y-107228000D02*
X173000000Y-107000000D01*
X173000000Y-109000000D02*
X173000000Y-112000000D01*
X177500000Y-109974000D02*
X176000000Y-108474000D01*
X177500000Y-109974000D02*
X177500000Y-113000000D01*
X177500000Y-109974000D02*
X177437500Y-110036500D01*
X176000000Y-108474000D02*
X176000000Y-107000000D01*
X161250000Y-129750000D02*
X161000000Y-130000000D01*
X161000000Y-130000000D02*
X161000000Y-132500000D01*
X176022000Y-97790000D02*
X176022000Y-84836000D01*
X171205305Y-99060000D02*
X174752000Y-99060000D01*
X176022000Y-84836000D02*
X175768000Y-84582000D01*
X168402000Y-109220000D02*
X168402000Y-101863305D01*
X175768000Y-84582000D02*
X175768000Y-83820000D01*
X168402000Y-101863305D02*
X171205305Y-99060000D01*
X174752000Y-99060000D02*
X176022000Y-97790000D01*
X154178000Y-97028000D02*
X161798000Y-89408000D01*
X161798000Y-82296000D02*
X161290000Y-81788000D01*
X154178000Y-103124000D02*
X154178000Y-97028000D01*
X161798000Y-89408000D02*
X161798000Y-82296000D01*
X161290000Y-81788000D02*
X161290000Y-80772000D01*
X151892000Y-100076000D02*
X149352000Y-97536000D01*
X151892000Y-103124000D02*
X151892000Y-100076000D01*
X150368000Y-80772000D02*
X152146000Y-80772000D01*
X149352000Y-97536000D02*
X149352000Y-81788000D01*
X149352000Y-81788000D02*
X150368000Y-80772000D01*
X150622000Y-94996000D02*
X150622000Y-98044000D01*
X153416000Y-99568000D02*
X153416000Y-98806000D01*
X152654000Y-98044000D02*
X152908000Y-98298000D01*
X152908000Y-103378000D02*
X152908000Y-100076000D01*
X152908000Y-100076000D02*
X153416000Y-99568000D01*
X150622000Y-98044000D02*
X150876000Y-98298000D01*
X150876000Y-98298000D02*
X152908000Y-98298000D01*
X153416000Y-98806000D02*
X152908000Y-98298000D01*
X158242000Y-100076000D02*
X160274000Y-100076000D01*
X156464000Y-101854000D02*
X158242000Y-100076000D01*
X156464000Y-103124000D02*
X156464000Y-101854000D01*
X163576000Y-97536000D02*
X163576000Y-94742000D01*
X161036000Y-100076000D02*
X163576000Y-97536000D01*
X160274000Y-100076000D02*
X161036000Y-100076000D01*
X149352000Y-108204000D02*
X149352000Y-106680000D01*
X149352000Y-106680000D02*
X151892000Y-104140000D01*
X166116000Y-81280000D02*
X165608000Y-80772000D01*
X164846000Y-97790000D02*
X166624000Y-97790000D01*
X166370000Y-81280000D02*
X166116000Y-81280000D01*
X167386000Y-82296000D02*
X166370000Y-81280000D01*
X167386000Y-97028000D02*
X167386000Y-82296000D01*
X151892000Y-104140000D02*
X158496000Y-104140000D01*
X158496000Y-104140000D02*
X164846000Y-97790000D01*
X166624000Y-97790000D02*
X167386000Y-97028000D01*
X155686000Y-126500000D02*
X157186000Y-125000000D01*
X157186000Y-125000000D02*
X158500000Y-125000000D01*
X152000000Y-125000000D02*
X150500000Y-125000000D01*
X153686000Y-126686000D02*
X152000000Y-125000000D01*
X151750000Y-127250000D02*
X151500000Y-127000000D01*
X151500000Y-127000000D02*
X147500000Y-127000000D01*
X148000000Y-132500000D02*
X148000000Y-130000000D01*
X148000000Y-130000000D02*
X148250000Y-129750000D01*
X154500000Y-127314000D02*
X154500000Y-125000000D01*
X154686000Y-127500000D02*
X154500000Y-127314000D01*
X157500000Y-127000000D02*
X161500000Y-127000000D01*
X157250000Y-127250000D02*
X157500000Y-127000000D01*
X174850000Y-105000000D02*
X176000000Y-105000000D01*
X174498000Y-104648000D02*
X174850000Y-105000000D01*
X180340000Y-99568000D02*
X183642000Y-99568000D01*
X185000000Y-96114000D02*
X182880000Y-93994000D01*
X174498000Y-103124000D02*
X176784000Y-103124000D01*
X183642000Y-99568000D02*
X185000000Y-98210000D01*
X185000000Y-98210000D02*
X185000000Y-96114000D01*
X174498000Y-103124000D02*
X174498000Y-104648000D01*
X176784000Y-103124000D02*
X180340000Y-99568000D01*
X181864000Y-98552000D02*
X181864000Y-97550000D01*
X181864000Y-97550000D02*
X182880000Y-96534000D01*
X179832000Y-98806000D02*
X181610000Y-98806000D01*
X173000000Y-102027306D02*
X173078306Y-101949000D01*
X173078306Y-101949000D02*
X173078306Y-102257694D01*
X176689000Y-101949000D02*
X179832000Y-98806000D01*
X173000000Y-105000000D02*
X173000000Y-102027306D01*
X173078306Y-101949000D02*
X176689000Y-101949000D01*
X181610000Y-98806000D02*
X181864000Y-98552000D01*
G04 #@! TA.AperFunction,Conductor*
G36*
X144899389Y-111649465D02*
G01*
X144907617Y-111656985D01*
X144924844Y-111674212D01*
X145059097Y-111757019D01*
X145105821Y-111808965D01*
X145118000Y-111862557D01*
X145118000Y-111942418D01*
X145118000Y-111942420D01*
X145117999Y-111942420D01*
X145146840Y-112087407D01*
X145146843Y-112087417D01*
X145203413Y-112223990D01*
X145203415Y-112223993D01*
X145203416Y-112223995D01*
X145211363Y-112235889D01*
X145228601Y-112261686D01*
X145249480Y-112328363D01*
X145249500Y-112330578D01*
X145249500Y-112573918D01*
X145249500Y-112573920D01*
X145249499Y-112573920D01*
X145278340Y-112718907D01*
X145278342Y-112718913D01*
X145322491Y-112825499D01*
X145334916Y-112855494D01*
X145334918Y-112855498D01*
X145338900Y-112861457D01*
X145338902Y-112861464D01*
X145338904Y-112861463D01*
X145394205Y-112944229D01*
X145417051Y-112978420D01*
X145417052Y-112978421D01*
X145786579Y-113347947D01*
X145786582Y-113347949D01*
X145786585Y-113347952D01*
X145786587Y-113347953D01*
X145786661Y-113348003D01*
X145786656Y-113348010D01*
X145786699Y-113348045D01*
X145786760Y-113348069D01*
X145909505Y-113430084D01*
X145928346Y-113437888D01*
X146046088Y-113486659D01*
X146149694Y-113507267D01*
X146211601Y-113539650D01*
X146246176Y-113600365D01*
X146249500Y-113628883D01*
X146249500Y-114511770D01*
X146229815Y-114578809D01*
X146213185Y-114599446D01*
X146139702Y-114672930D01*
X146085453Y-114727179D01*
X146024130Y-114760663D01*
X145954438Y-114755679D01*
X145898505Y-114713807D01*
X145874088Y-114648343D01*
X145879840Y-114601183D01*
X145915021Y-114492909D01*
X145934807Y-114304653D01*
X145915021Y-114116397D01*
X145856526Y-113936369D01*
X145761880Y-113772437D01*
X145635218Y-113631765D01*
X145635217Y-113631764D01*
X145482081Y-113520504D01*
X145482076Y-113520501D01*
X145309154Y-113443510D01*
X145309149Y-113443508D01*
X145163348Y-113412518D01*
X145123993Y-113404153D01*
X145123992Y-113404153D01*
X145064800Y-113404153D01*
X144997761Y-113384468D01*
X144977119Y-113367834D01*
X144258819Y-112649534D01*
X144225334Y-112588211D01*
X144222500Y-112561853D01*
X144222500Y-112154016D01*
X144242185Y-112086977D01*
X144294989Y-112041222D01*
X144307488Y-112036313D01*
X144366334Y-112016814D01*
X144515656Y-111924712D01*
X144639712Y-111800656D01*
X144714399Y-111679567D01*
X144766344Y-111632845D01*
X144835307Y-111621622D01*
X144899389Y-111649465D01*
G37*
G04 #@! TD.AperFunction*
G04 #@! TA.AperFunction,Conductor*
G36*
X142079284Y-98943185D02*
G01*
X142125039Y-98995989D01*
X142130176Y-99009182D01*
X142183818Y-99174278D01*
X142183821Y-99174284D01*
X142278467Y-99338216D01*
X142393339Y-99465794D01*
X142405129Y-99478888D01*
X142558265Y-99590148D01*
X142558270Y-99590151D01*
X142731192Y-99667142D01*
X142731197Y-99667144D01*
X142916354Y-99706500D01*
X142916355Y-99706500D01*
X143105644Y-99706500D01*
X143105646Y-99706500D01*
X143290803Y-99667144D01*
X143463730Y-99590151D01*
X143540170Y-99534614D01*
X143605975Y-99511135D01*
X143674029Y-99526960D01*
X143722724Y-99577066D01*
X143730985Y-99596615D01*
X143758818Y-99682277D01*
X143758821Y-99682284D01*
X143853467Y-99846216D01*
X143977150Y-99983579D01*
X144007380Y-100046570D01*
X144009000Y-100066551D01*
X144009000Y-101621652D01*
X143989315Y-101688691D01*
X143950098Y-101727189D01*
X143895698Y-101760744D01*
X143828342Y-101802289D01*
X143704288Y-101926343D01*
X143704283Y-101926349D01*
X143702241Y-101929661D01*
X143700247Y-101931453D01*
X143699807Y-101932011D01*
X143699711Y-101931935D01*
X143650291Y-101976383D01*
X143581328Y-101987602D01*
X143517247Y-101959755D01*
X143491168Y-101929656D01*
X143489319Y-101926659D01*
X143489316Y-101926655D01*
X143365345Y-101802684D01*
X143216124Y-101710643D01*
X143216119Y-101710641D01*
X143049697Y-101655494D01*
X143049690Y-101655493D01*
X142946986Y-101645000D01*
X142809500Y-101645000D01*
X142809500Y-102746000D01*
X142789815Y-102813039D01*
X142737011Y-102858794D01*
X142685500Y-102870000D01*
X142433500Y-102870000D01*
X142366461Y-102850315D01*
X142320706Y-102797511D01*
X142309500Y-102746000D01*
X142309500Y-101645000D01*
X142172027Y-101645000D01*
X142172012Y-101645001D01*
X142069302Y-101655494D01*
X141902880Y-101710641D01*
X141902875Y-101710643D01*
X141753657Y-101802682D01*
X141628216Y-101928123D01*
X141566893Y-101961607D01*
X141497201Y-101956623D01*
X141441268Y-101914751D01*
X141435004Y-101905549D01*
X141362712Y-101788344D01*
X141238656Y-101664288D01*
X141121309Y-101591908D01*
X141089336Y-101572187D01*
X141089331Y-101572185D01*
X141073723Y-101567013D01*
X140922797Y-101517001D01*
X140922795Y-101517000D01*
X140820016Y-101506500D01*
X140820009Y-101506500D01*
X140375452Y-101506500D01*
X140308413Y-101486815D01*
X140287771Y-101470181D01*
X140107819Y-101290228D01*
X140074334Y-101228905D01*
X140071500Y-101202547D01*
X140071500Y-100012687D01*
X140091185Y-99945648D01*
X140103350Y-99929715D01*
X140136779Y-99892588D01*
X140178533Y-99846216D01*
X140273179Y-99682284D01*
X140331674Y-99502256D01*
X140351460Y-99314000D01*
X140331674Y-99125744D01*
X140318700Y-99085817D01*
X140316706Y-99015978D01*
X140352786Y-98956145D01*
X140415487Y-98925316D01*
X140436632Y-98923500D01*
X142012245Y-98923500D01*
X142079284Y-98943185D01*
G37*
G04 #@! TD.AperFunction*
G04 #@! TA.AperFunction,Conductor*
G36*
X138522407Y-98943185D02*
G01*
X138568162Y-98995989D01*
X138578106Y-99065147D01*
X138573300Y-99085813D01*
X138571948Y-99089976D01*
X138560326Y-99125742D01*
X138543445Y-99286358D01*
X138540540Y-99314000D01*
X138560326Y-99502256D01*
X138560327Y-99502259D01*
X138618818Y-99682277D01*
X138618821Y-99682284D01*
X138713467Y-99846216D01*
X138739203Y-99874798D01*
X138788650Y-99929715D01*
X138818880Y-99992706D01*
X138820500Y-100012687D01*
X138820500Y-100459770D01*
X138800815Y-100526809D01*
X138748011Y-100572564D01*
X138678853Y-100582508D01*
X138615297Y-100553483D01*
X138608819Y-100547451D01*
X138348668Y-100287299D01*
X138348666Y-100287297D01*
X138302240Y-100256278D01*
X138271427Y-100235690D01*
X138225745Y-100205166D01*
X138225744Y-100205165D01*
X138225742Y-100205164D01*
X138225740Y-100205163D01*
X138089167Y-100148593D01*
X138089157Y-100148590D01*
X137944170Y-100119750D01*
X137944168Y-100119750D01*
X137812750Y-100119750D01*
X137745711Y-100100065D01*
X137699956Y-100047261D01*
X137688750Y-99995750D01*
X137688750Y-99526332D01*
X137686870Y-99516883D01*
X137676707Y-99465790D01*
X137675303Y-99458733D01*
X137659910Y-99381345D01*
X137659909Y-99381338D01*
X137606498Y-99252394D01*
X137603334Y-99244755D01*
X137529431Y-99134151D01*
X137521202Y-99121835D01*
X137517816Y-99116767D01*
X137520116Y-99115229D01*
X137497446Y-99061882D01*
X137509222Y-98993012D01*
X137556363Y-98941442D01*
X137620609Y-98923500D01*
X138455368Y-98923500D01*
X138522407Y-98943185D01*
G37*
G04 #@! TD.AperFunction*
G04 #@! TA.AperFunction,Conductor*
G36*
X182404755Y-91650853D02*
G01*
X182471898Y-91767147D01*
X182566853Y-91862102D01*
X182683147Y-91929245D01*
X182742425Y-91945128D01*
X182172477Y-92515074D01*
X182240063Y-92562398D01*
X182345021Y-92611340D01*
X182397461Y-92657512D01*
X182416613Y-92724706D01*
X182396398Y-92791587D01*
X182345023Y-92836105D01*
X182239812Y-92885166D01*
X182191787Y-92918794D01*
X182056993Y-93013178D01*
X182056991Y-93013179D01*
X182056988Y-93013182D01*
X181899182Y-93170988D01*
X181899179Y-93170991D01*
X181899178Y-93170993D01*
X181879658Y-93198871D01*
X181771164Y-93353814D01*
X181722382Y-93458430D01*
X181676210Y-93510869D01*
X181609016Y-93530021D01*
X181542135Y-93509805D01*
X181497618Y-93458430D01*
X181448835Y-93353814D01*
X181320822Y-93170993D01*
X181163007Y-93013178D01*
X180980186Y-92885165D01*
X180875569Y-92836381D01*
X180823130Y-92790210D01*
X180803978Y-92723017D01*
X180824193Y-92656135D01*
X180875570Y-92611618D01*
X180876166Y-92611340D01*
X180980186Y-92562835D01*
X181163007Y-92434822D01*
X181320822Y-92277007D01*
X181448835Y-92094186D01*
X181497894Y-91988977D01*
X181544066Y-91936538D01*
X181611259Y-91917386D01*
X181678141Y-91937601D01*
X181722658Y-91988978D01*
X181771596Y-92093928D01*
X181818924Y-92161520D01*
X182388871Y-91591574D01*
X182404755Y-91650853D01*
G37*
G04 #@! TD.AperFunction*
G04 #@! TA.AperFunction,Conductor*
G36*
X91761865Y-90400193D02*
G01*
X91806381Y-90451569D01*
X91855165Y-90556186D01*
X91983178Y-90739007D01*
X92140993Y-90896822D01*
X92311318Y-91016085D01*
X92323814Y-91024835D01*
X92429022Y-91073894D01*
X92481461Y-91120066D01*
X92500613Y-91187260D01*
X92480397Y-91254141D01*
X92429022Y-91298658D01*
X92324061Y-91347602D01*
X92256478Y-91394923D01*
X92256477Y-91394924D01*
X92826425Y-91964871D01*
X92767147Y-91980755D01*
X92650853Y-92047898D01*
X92555898Y-92142853D01*
X92488755Y-92259147D01*
X92472871Y-92318424D01*
X91902924Y-91748477D01*
X91902923Y-91748478D01*
X91855602Y-91816061D01*
X91806382Y-91921614D01*
X91760210Y-91974053D01*
X91693016Y-91993205D01*
X91626135Y-91972989D01*
X91581618Y-91921614D01*
X91532399Y-91816065D01*
X91485074Y-91748477D01*
X90915128Y-92318424D01*
X90899245Y-92259147D01*
X90832102Y-92142853D01*
X90737147Y-92047898D01*
X90620853Y-91980755D01*
X90561574Y-91964871D01*
X91131521Y-91394924D01*
X91063928Y-91347596D01*
X90958978Y-91298658D01*
X90906538Y-91252486D01*
X90887386Y-91185293D01*
X90907601Y-91118411D01*
X90958978Y-91073894D01*
X91064186Y-91024835D01*
X91247007Y-90896822D01*
X91404822Y-90739007D01*
X91532835Y-90556186D01*
X91581618Y-90451569D01*
X91627790Y-90399130D01*
X91694983Y-90379978D01*
X91761865Y-90400193D01*
G37*
G04 #@! TD.AperFunction*
G04 #@! TA.AperFunction,Conductor*
G36*
X94301865Y-90400193D02*
G01*
X94346381Y-90451569D01*
X94395165Y-90556186D01*
X94523178Y-90739007D01*
X94680993Y-90896822D01*
X94851318Y-91016085D01*
X94863814Y-91024835D01*
X94969022Y-91073894D01*
X95021461Y-91120066D01*
X95040613Y-91187260D01*
X95020397Y-91254141D01*
X94969022Y-91298658D01*
X94864061Y-91347602D01*
X94796478Y-91394923D01*
X94796477Y-91394924D01*
X95366425Y-91964871D01*
X95307147Y-91980755D01*
X95190853Y-92047898D01*
X95095898Y-92142853D01*
X95028755Y-92259147D01*
X95012871Y-92318424D01*
X94442924Y-91748477D01*
X94442923Y-91748478D01*
X94395602Y-91816061D01*
X94346382Y-91921614D01*
X94300210Y-91974053D01*
X94233016Y-91993205D01*
X94166135Y-91972989D01*
X94121618Y-91921614D01*
X94072399Y-91816065D01*
X94025074Y-91748477D01*
X93455128Y-92318424D01*
X93439245Y-92259147D01*
X93372102Y-92142853D01*
X93277147Y-92047898D01*
X93160853Y-91980755D01*
X93101574Y-91964871D01*
X93671521Y-91394924D01*
X93603928Y-91347596D01*
X93498978Y-91298658D01*
X93446538Y-91252486D01*
X93427386Y-91185293D01*
X93447601Y-91118411D01*
X93498978Y-91073894D01*
X93604186Y-91024835D01*
X93787007Y-90896822D01*
X93944822Y-90739007D01*
X94072835Y-90556186D01*
X94121618Y-90451569D01*
X94167790Y-90399130D01*
X94234983Y-90379978D01*
X94301865Y-90400193D01*
G37*
G04 #@! TD.AperFunction*
G04 #@! TA.AperFunction,Conductor*
G36*
X178943039Y-75719685D02*
G01*
X178988794Y-75772489D01*
X179000000Y-75824000D01*
X179000000Y-84000000D01*
X187126000Y-84000000D01*
X187193039Y-84019685D01*
X187238794Y-84072489D01*
X187250000Y-84124000D01*
X187250000Y-126876000D01*
X187230315Y-126943039D01*
X187177511Y-126988794D01*
X187126000Y-127000000D01*
X179500000Y-127000000D01*
X179500000Y-135176000D01*
X179480315Y-135243039D01*
X179427511Y-135288794D01*
X179376000Y-135300000D01*
X94124000Y-135300000D01*
X94056961Y-135280315D01*
X94011206Y-135227511D01*
X94000000Y-135176000D01*
X94000000Y-133832844D01*
X144850000Y-133832844D01*
X144856401Y-133892372D01*
X144856403Y-133892379D01*
X144906645Y-134027086D01*
X144906649Y-134027093D01*
X144992809Y-134142187D01*
X144992812Y-134142190D01*
X145107906Y-134228350D01*
X145107913Y-134228354D01*
X145242620Y-134278596D01*
X145242627Y-134278598D01*
X145302155Y-134284999D01*
X145302172Y-134285000D01*
X145650000Y-134285000D01*
X146150000Y-134285000D01*
X146497828Y-134285000D01*
X146497844Y-134284999D01*
X146557372Y-134278598D01*
X146557379Y-134278596D01*
X146692086Y-134228354D01*
X146692093Y-134228350D01*
X146807187Y-134142190D01*
X146807190Y-134142187D01*
X146893350Y-134027093D01*
X146893354Y-134027086D01*
X146943596Y-133892379D01*
X146943598Y-133892372D01*
X146949999Y-133832844D01*
X162050000Y-133832844D01*
X162056401Y-133892372D01*
X162056403Y-133892379D01*
X162106645Y-134027086D01*
X162106649Y-134027093D01*
X162192809Y-134142187D01*
X162192812Y-134142190D01*
X162307906Y-134228350D01*
X162307913Y-134228354D01*
X162442620Y-134278596D01*
X162442627Y-134278598D01*
X162502155Y-134284999D01*
X162502172Y-134285000D01*
X162850000Y-134285000D01*
X163350000Y-134285000D01*
X163697828Y-134285000D01*
X163697844Y-134284999D01*
X163757372Y-134278598D01*
X163757379Y-134278596D01*
X163892086Y-134228354D01*
X163892093Y-134228350D01*
X164007187Y-134142190D01*
X164007190Y-134142187D01*
X164093350Y-134027093D01*
X164093354Y-134027086D01*
X164143596Y-133892379D01*
X164143598Y-133892372D01*
X164149999Y-133832844D01*
X164150000Y-133832827D01*
X164150000Y-133710000D01*
X163350000Y-133710000D01*
X163350000Y-134285000D01*
X162850000Y-134285000D01*
X162850000Y-133710000D01*
X162050000Y-133710000D01*
X162050000Y-133832844D01*
X146949999Y-133832844D01*
X146950000Y-133832827D01*
X146950000Y-133710000D01*
X146150000Y-133710000D01*
X146150000Y-134285000D01*
X145650000Y-134285000D01*
X145650000Y-133710000D01*
X144850000Y-133710000D01*
X144850000Y-133832844D01*
X94000000Y-133832844D01*
X94000000Y-133087155D01*
X144850000Y-133087155D01*
X144850000Y-133210000D01*
X145650000Y-133210000D01*
X145650000Y-132635000D01*
X145302155Y-132635000D01*
X145242627Y-132641401D01*
X145242620Y-132641403D01*
X145107913Y-132691645D01*
X145107906Y-132691649D01*
X144992812Y-132777809D01*
X144992809Y-132777812D01*
X144906649Y-132892906D01*
X144906645Y-132892913D01*
X144856403Y-133027620D01*
X144856401Y-133027627D01*
X144850000Y-133087155D01*
X94000000Y-133087155D01*
X94000000Y-131317999D01*
X129783628Y-131317999D01*
X129783628Y-131318000D01*
X129803079Y-131540329D01*
X129803081Y-131540339D01*
X129860841Y-131755905D01*
X129860843Y-131755909D01*
X129860844Y-131755913D01*
X129955165Y-131958186D01*
X130083178Y-132141007D01*
X130240993Y-132298822D01*
X130423814Y-132426835D01*
X130626087Y-132521156D01*
X130841666Y-132578920D01*
X131019533Y-132594481D01*
X131063999Y-132598372D01*
X131064000Y-132598372D01*
X131064001Y-132598372D01*
X131101055Y-132595130D01*
X131286334Y-132578920D01*
X131501913Y-132521156D01*
X131704186Y-132426835D01*
X131887007Y-132298822D01*
X132044822Y-132141007D01*
X132172835Y-131958186D01*
X132221618Y-131853569D01*
X132267790Y-131801130D01*
X132334983Y-131781978D01*
X132401865Y-131802193D01*
X132446381Y-131853569D01*
X132495165Y-131958186D01*
X132623178Y-132141007D01*
X132780993Y-132298822D01*
X132963814Y-132426835D01*
X133166087Y-132521156D01*
X133381666Y-132578920D01*
X133559533Y-132594481D01*
X133603999Y-132598372D01*
X133604000Y-132598372D01*
X133604001Y-132598372D01*
X133641055Y-132595130D01*
X133826334Y-132578920D01*
X134041913Y-132521156D01*
X134244186Y-132426835D01*
X134427007Y-132298822D01*
X134584822Y-132141007D01*
X134712835Y-131958186D01*
X134761894Y-131852977D01*
X134808066Y-131800538D01*
X134875259Y-131781386D01*
X134942141Y-131801601D01*
X134986658Y-131852978D01*
X135035596Y-131957928D01*
X135082924Y-132025520D01*
X135652871Y-131455574D01*
X135668755Y-131514853D01*
X135735898Y-131631147D01*
X135830853Y-131726102D01*
X135947147Y-131793245D01*
X136006425Y-131809128D01*
X135436477Y-132379074D01*
X135504066Y-132426400D01*
X135504068Y-132426401D01*
X135706252Y-132520681D01*
X135706263Y-132520685D01*
X135921751Y-132578425D01*
X135921758Y-132578426D01*
X136143998Y-132597870D01*
X136144002Y-132597870D01*
X136366241Y-132578426D01*
X136366248Y-132578425D01*
X136581736Y-132520685D01*
X136581747Y-132520681D01*
X136783931Y-132426401D01*
X136783941Y-132426395D01*
X136851521Y-132379075D01*
X136281574Y-131809128D01*
X136340853Y-131793245D01*
X136457147Y-131726102D01*
X136552102Y-131631147D01*
X136619245Y-131514853D01*
X136635128Y-131455574D01*
X137205075Y-132025521D01*
X137252395Y-131957941D01*
X137252398Y-131957936D01*
X137301340Y-131852979D01*
X137347512Y-131800539D01*
X137414705Y-131781386D01*
X137481587Y-131801601D01*
X137526105Y-131852977D01*
X137575164Y-131958185D01*
X137575165Y-131958186D01*
X137703178Y-132141007D01*
X137860993Y-132298822D01*
X138043814Y-132426835D01*
X138246087Y-132521156D01*
X138461666Y-132578920D01*
X138639533Y-132594481D01*
X138683999Y-132598372D01*
X138684000Y-132598372D01*
X138684001Y-132598372D01*
X138721055Y-132595130D01*
X138906334Y-132578920D01*
X139121913Y-132521156D01*
X139324186Y-132426835D01*
X139507007Y-132298822D01*
X139664822Y-132141007D01*
X139792835Y-131958186D01*
X139841618Y-131853569D01*
X139887790Y-131801130D01*
X139954983Y-131781978D01*
X140021865Y-131802193D01*
X140066381Y-131853569D01*
X140115165Y-131958186D01*
X140243178Y-132141007D01*
X140400993Y-132298822D01*
X140583814Y-132426835D01*
X140786087Y-132521156D01*
X141001666Y-132578920D01*
X141179533Y-132594481D01*
X141223999Y-132598372D01*
X141224000Y-132598372D01*
X141224001Y-132598372D01*
X141261055Y-132595130D01*
X141446334Y-132578920D01*
X141661913Y-132521156D01*
X141864186Y-132426835D01*
X142047007Y-132298822D01*
X142204822Y-132141007D01*
X142332835Y-131958186D01*
X142353978Y-131912844D01*
X144850000Y-131912844D01*
X144856401Y-131972372D01*
X144856403Y-131972379D01*
X144906645Y-132107086D01*
X144906649Y-132107093D01*
X144992809Y-132222187D01*
X144992812Y-132222190D01*
X145107906Y-132308350D01*
X145107913Y-132308354D01*
X145242620Y-132358596D01*
X145242627Y-132358598D01*
X145302155Y-132364999D01*
X145302172Y-132365000D01*
X145650000Y-132365000D01*
X145650000Y-131790000D01*
X146150000Y-131790000D01*
X146150000Y-132365000D01*
X146497828Y-132365000D01*
X146497844Y-132364999D01*
X146557372Y-132358598D01*
X146557379Y-132358596D01*
X146692086Y-132308354D01*
X146692089Y-132308352D01*
X146751188Y-132264111D01*
X146816652Y-132239693D01*
X146884926Y-132254544D01*
X146934331Y-132303949D01*
X146949500Y-132363377D01*
X146949500Y-132636623D01*
X146929815Y-132703662D01*
X146877011Y-132749417D01*
X146807853Y-132759361D01*
X146751188Y-132735889D01*
X146692089Y-132691647D01*
X146692086Y-132691645D01*
X146557379Y-132641403D01*
X146557372Y-132641401D01*
X146497844Y-132635000D01*
X146150000Y-132635000D01*
X146150000Y-133210000D01*
X146949999Y-133210000D01*
X146950709Y-133209290D01*
X147012031Y-133175804D01*
X147081723Y-133180788D01*
X147112702Y-133197704D01*
X147207664Y-133268793D01*
X147207671Y-133268797D01*
X147342517Y-133319091D01*
X147342516Y-133319091D01*
X147349444Y-133319835D01*
X147402127Y-133325500D01*
X148597872Y-133325499D01*
X148657483Y-133319091D01*
X148792331Y-133268796D01*
X148907546Y-133182546D01*
X148993796Y-133067331D01*
X149044091Y-132932483D01*
X149050500Y-132872873D01*
X149050499Y-132127128D01*
X149050499Y-132127127D01*
X159949500Y-132127127D01*
X159949500Y-132127134D01*
X159949500Y-132127135D01*
X159949500Y-132872870D01*
X159949501Y-132872876D01*
X159955908Y-132932483D01*
X160006202Y-133067328D01*
X160006206Y-133067335D01*
X160092452Y-133182544D01*
X160092455Y-133182547D01*
X160207664Y-133268793D01*
X160207671Y-133268797D01*
X160342517Y-133319091D01*
X160342516Y-133319091D01*
X160349444Y-133319835D01*
X160402127Y-133325500D01*
X161597872Y-133325499D01*
X161657483Y-133319091D01*
X161792331Y-133268796D01*
X161887299Y-133197702D01*
X161952760Y-133173286D01*
X162021033Y-133188137D01*
X162049289Y-133209289D01*
X162050000Y-133210000D01*
X162850000Y-133210000D01*
X163350000Y-133210000D01*
X164150000Y-133210000D01*
X164150000Y-133087172D01*
X164149999Y-133087155D01*
X164143598Y-133027627D01*
X164143596Y-133027620D01*
X164093354Y-132892913D01*
X164093350Y-132892906D01*
X164007190Y-132777812D01*
X164007187Y-132777809D01*
X163892093Y-132691649D01*
X163892086Y-132691645D01*
X163757379Y-132641403D01*
X163757372Y-132641401D01*
X163697844Y-132635000D01*
X163350000Y-132635000D01*
X163350000Y-133210000D01*
X162850000Y-133210000D01*
X162850000Y-132635000D01*
X162502155Y-132635000D01*
X162442627Y-132641401D01*
X162442620Y-132641403D01*
X162307913Y-132691645D01*
X162307906Y-132691649D01*
X162248809Y-132735889D01*
X162183345Y-132760306D01*
X162115072Y-132745454D01*
X162065667Y-132696048D01*
X162050499Y-132636624D01*
X162050499Y-132363374D01*
X162070184Y-132296337D01*
X162122988Y-132250582D01*
X162192146Y-132240638D01*
X162248811Y-132264110D01*
X162307910Y-132308352D01*
X162307913Y-132308354D01*
X162442620Y-132358596D01*
X162442627Y-132358598D01*
X162502155Y-132364999D01*
X162502172Y-132365000D01*
X162850000Y-132365000D01*
X163350000Y-132365000D01*
X163697828Y-132365000D01*
X163697844Y-132364999D01*
X163757372Y-132358598D01*
X163757379Y-132358596D01*
X163892086Y-132308354D01*
X163892093Y-132308350D01*
X164007187Y-132222190D01*
X164007190Y-132222187D01*
X164093350Y-132107093D01*
X164093354Y-132107086D01*
X164143596Y-131972379D01*
X164143598Y-131972372D01*
X164149999Y-131912844D01*
X164150000Y-131912827D01*
X164150000Y-131790000D01*
X163350000Y-131790000D01*
X163350000Y-132365000D01*
X162850000Y-132365000D01*
X162850000Y-131790000D01*
X162049999Y-131790000D01*
X162049288Y-131790711D01*
X161987964Y-131824196D01*
X161918273Y-131819210D01*
X161887297Y-131802295D01*
X161792335Y-131731206D01*
X161792330Y-131731203D01*
X161706166Y-131699066D01*
X161650233Y-131657194D01*
X161625816Y-131591730D01*
X161625500Y-131582884D01*
X161625500Y-131167155D01*
X162050000Y-131167155D01*
X162050000Y-131290000D01*
X162850000Y-131290000D01*
X163350000Y-131290000D01*
X164150000Y-131290000D01*
X164150000Y-131167172D01*
X164149999Y-131167155D01*
X164143598Y-131107627D01*
X164143596Y-131107620D01*
X164093354Y-130972913D01*
X164093350Y-130972906D01*
X164007190Y-130857812D01*
X164007187Y-130857809D01*
X163892093Y-130771649D01*
X163892086Y-130771645D01*
X163757379Y-130721403D01*
X163757372Y-130721401D01*
X163697844Y-130715000D01*
X163350000Y-130715000D01*
X163350000Y-131290000D01*
X162850000Y-131290000D01*
X162850000Y-130715000D01*
X162502155Y-130715000D01*
X162442627Y-130721401D01*
X162442620Y-130721403D01*
X162307913Y-130771645D01*
X162307906Y-130771649D01*
X162192812Y-130857809D01*
X162192809Y-130857812D01*
X162106649Y-130972906D01*
X162106645Y-130972913D01*
X162056403Y-131107620D01*
X162056401Y-131107627D01*
X162050000Y-131167155D01*
X161625500Y-131167155D01*
X161625500Y-130649062D01*
X161645185Y-130582023D01*
X161697989Y-130536268D01*
X161699013Y-130535805D01*
X161702730Y-130534151D01*
X161855871Y-130422888D01*
X161982533Y-130282216D01*
X162077179Y-130118284D01*
X162135674Y-129938256D01*
X162155460Y-129750000D01*
X162135674Y-129561744D01*
X162077179Y-129381716D01*
X161982533Y-129217784D01*
X161855871Y-129077112D01*
X161855870Y-129077111D01*
X161702734Y-128965851D01*
X161702729Y-128965848D01*
X161529807Y-128888857D01*
X161529802Y-128888855D01*
X161384001Y-128857865D01*
X161344646Y-128849500D01*
X161155354Y-128849500D01*
X161122897Y-128856398D01*
X160970197Y-128888855D01*
X160970192Y-128888857D01*
X160797270Y-128965848D01*
X160797265Y-128965851D01*
X160644129Y-129077111D01*
X160517466Y-129217785D01*
X160422821Y-129381715D01*
X160422818Y-129381722D01*
X160364327Y-129561740D01*
X160364326Y-129561744D01*
X160344540Y-129750000D01*
X160364326Y-129938256D01*
X160364326Y-129938258D01*
X160364327Y-129938260D01*
X160368430Y-129950887D01*
X160374500Y-129989207D01*
X160374500Y-131582884D01*
X160354815Y-131649923D01*
X160302011Y-131695678D01*
X160293834Y-131699066D01*
X160207669Y-131731203D01*
X160207664Y-131731206D01*
X160092455Y-131817452D01*
X160092452Y-131817455D01*
X160006206Y-131932664D01*
X160006202Y-131932671D01*
X159971572Y-132025521D01*
X159955909Y-132067517D01*
X159949500Y-132127127D01*
X149050499Y-132127127D01*
X149044091Y-132067517D01*
X149008604Y-131972372D01*
X148993797Y-131932671D01*
X148993793Y-131932664D01*
X148907547Y-131817455D01*
X148907544Y-131817452D01*
X148792335Y-131731206D01*
X148792330Y-131731203D01*
X148706166Y-131699066D01*
X148650233Y-131657194D01*
X148625816Y-131591730D01*
X148625500Y-131582884D01*
X148625500Y-130649062D01*
X148645185Y-130582023D01*
X148697989Y-130536268D01*
X148699013Y-130535805D01*
X148702730Y-130534151D01*
X148855871Y-130422888D01*
X148982533Y-130282216D01*
X149077179Y-130118284D01*
X149135674Y-129938256D01*
X149155460Y-129750000D01*
X149135674Y-129561744D01*
X149077179Y-129381716D01*
X148982533Y-129217784D01*
X148855871Y-129077112D01*
X148855870Y-129077111D01*
X148702734Y-128965851D01*
X148702729Y-128965848D01*
X148529807Y-128888857D01*
X148529802Y-128888855D01*
X148384001Y-128857865D01*
X148344646Y-128849500D01*
X148155354Y-128849500D01*
X148122897Y-128856398D01*
X147970197Y-128888855D01*
X147970192Y-128888857D01*
X147797270Y-128965848D01*
X147797265Y-128965851D01*
X147644129Y-129077111D01*
X147517466Y-129217785D01*
X147422821Y-129381715D01*
X147422818Y-129381722D01*
X147364327Y-129561740D01*
X147364326Y-129561744D01*
X147344540Y-129750000D01*
X147364326Y-129938256D01*
X147364326Y-129938258D01*
X147364327Y-129938260D01*
X147368430Y-129950887D01*
X147374500Y-129989207D01*
X147374500Y-131582884D01*
X147354815Y-131649923D01*
X147302011Y-131695678D01*
X147293834Y-131699066D01*
X147207669Y-131731203D01*
X147207668Y-131731204D01*
X147112702Y-131802296D01*
X147047238Y-131826713D01*
X146978965Y-131811861D01*
X146950710Y-131790710D01*
X146950000Y-131790000D01*
X146150000Y-131790000D01*
X145650000Y-131790000D01*
X144850000Y-131790000D01*
X144850000Y-131912844D01*
X142353978Y-131912844D01*
X142427156Y-131755913D01*
X142484920Y-131540334D01*
X142504372Y-131318000D01*
X142491175Y-131167155D01*
X144850000Y-131167155D01*
X144850000Y-131290000D01*
X145650000Y-131290000D01*
X146150000Y-131290000D01*
X146950000Y-131290000D01*
X146950000Y-131167172D01*
X146949999Y-131167155D01*
X146943598Y-131107627D01*
X146943596Y-131107620D01*
X146893354Y-130972913D01*
X146893350Y-130972906D01*
X146807190Y-130857812D01*
X146807187Y-130857809D01*
X146692093Y-130771649D01*
X146692086Y-130771645D01*
X146557379Y-130721403D01*
X146557372Y-130721401D01*
X146497844Y-130715000D01*
X146150000Y-130715000D01*
X146150000Y-131290000D01*
X145650000Y-131290000D01*
X145650000Y-130715000D01*
X145302155Y-130715000D01*
X145242627Y-130721401D01*
X145242620Y-130721403D01*
X145107913Y-130771645D01*
X145107906Y-130771649D01*
X144992812Y-130857809D01*
X144992809Y-130857812D01*
X144906649Y-130972906D01*
X144906645Y-130972913D01*
X144856403Y-131107620D01*
X144856401Y-131107627D01*
X144850000Y-131167155D01*
X142491175Y-131167155D01*
X142484920Y-131095666D01*
X142427156Y-130880087D01*
X142332835Y-130677814D01*
X142204822Y-130494993D01*
X142047007Y-130337178D01*
X142010678Y-130311740D01*
X141902376Y-130235905D01*
X141858751Y-130181328D01*
X141849500Y-130134331D01*
X141849500Y-128332844D01*
X144350000Y-128332844D01*
X144356401Y-128392372D01*
X144356403Y-128392379D01*
X144406645Y-128527086D01*
X144406649Y-128527093D01*
X144492809Y-128642187D01*
X144492812Y-128642190D01*
X144607906Y-128728350D01*
X144607913Y-128728354D01*
X144742620Y-128778596D01*
X144742627Y-128778598D01*
X144802155Y-128784999D01*
X144802172Y-128785000D01*
X145150000Y-128785000D01*
X145650000Y-128785000D01*
X145997828Y-128785000D01*
X145997844Y-128784999D01*
X146057372Y-128778598D01*
X146057379Y-128778596D01*
X146192086Y-128728354D01*
X146192093Y-128728350D01*
X146307187Y-128642190D01*
X146307190Y-128642187D01*
X146393350Y-128527093D01*
X146393354Y-128527086D01*
X146443596Y-128392379D01*
X146443598Y-128392372D01*
X146449999Y-128332844D01*
X146450000Y-128332827D01*
X146450000Y-128210000D01*
X145650000Y-128210000D01*
X145650000Y-128785000D01*
X145150000Y-128785000D01*
X145150000Y-128210000D01*
X144350000Y-128210000D01*
X144350000Y-128332844D01*
X141849500Y-128332844D01*
X141849500Y-127587155D01*
X144350000Y-127587155D01*
X144350000Y-127710000D01*
X145150000Y-127710000D01*
X145150000Y-127135000D01*
X144802155Y-127135000D01*
X144742627Y-127141401D01*
X144742620Y-127141403D01*
X144607913Y-127191645D01*
X144607906Y-127191649D01*
X144492812Y-127277809D01*
X144492809Y-127277812D01*
X144406649Y-127392906D01*
X144406645Y-127392913D01*
X144356403Y-127527620D01*
X144356401Y-127527627D01*
X144350000Y-127587155D01*
X141849500Y-127587155D01*
X141849500Y-127086452D01*
X141869185Y-127019413D01*
X141885819Y-126998771D01*
X142471746Y-126412844D01*
X144350000Y-126412844D01*
X144356401Y-126472372D01*
X144356403Y-126472379D01*
X144406645Y-126607086D01*
X144406649Y-126607093D01*
X144492809Y-126722187D01*
X144492812Y-126722190D01*
X144607906Y-126808350D01*
X144607913Y-126808354D01*
X144742620Y-126858596D01*
X144742627Y-126858598D01*
X144802155Y-126864999D01*
X144802172Y-126865000D01*
X145150000Y-126865000D01*
X145150000Y-126290000D01*
X145650000Y-126290000D01*
X145650000Y-126865000D01*
X145997828Y-126865000D01*
X145997844Y-126864999D01*
X146057372Y-126858598D01*
X146057379Y-126858596D01*
X146192086Y-126808354D01*
X146192089Y-126808352D01*
X146251188Y-126764111D01*
X146316652Y-126739693D01*
X146384926Y-126754544D01*
X146434331Y-126803949D01*
X146449500Y-126863377D01*
X146449500Y-127136623D01*
X146429815Y-127203662D01*
X146377011Y-127249417D01*
X146307853Y-127259361D01*
X146251188Y-127235889D01*
X146192089Y-127191647D01*
X146192086Y-127191645D01*
X146057379Y-127141403D01*
X146057372Y-127141401D01*
X145997844Y-127135000D01*
X145650000Y-127135000D01*
X145650000Y-127710000D01*
X146449999Y-127710000D01*
X146450709Y-127709290D01*
X146512031Y-127675804D01*
X146581723Y-127680788D01*
X146612702Y-127697704D01*
X146707664Y-127768793D01*
X146707671Y-127768797D01*
X146842517Y-127819091D01*
X146842516Y-127819091D01*
X146849444Y-127819835D01*
X146902127Y-127825500D01*
X148097872Y-127825499D01*
X148157483Y-127819091D01*
X148292331Y-127768796D01*
X148407546Y-127682546D01*
X148413052Y-127675191D01*
X148468985Y-127633319D01*
X148512320Y-127625500D01*
X150855396Y-127625500D01*
X150922435Y-127645185D01*
X150962783Y-127687501D01*
X151017463Y-127782211D01*
X151017465Y-127782214D01*
X151144129Y-127922888D01*
X151297265Y-128034148D01*
X151297270Y-128034151D01*
X151470192Y-128111142D01*
X151470197Y-128111144D01*
X151655354Y-128150500D01*
X151655355Y-128150500D01*
X151844644Y-128150500D01*
X151844646Y-128150500D01*
X152029803Y-128111144D01*
X152202730Y-128034151D01*
X152355871Y-127922888D01*
X152482533Y-127782216D01*
X152577179Y-127618284D01*
X152635674Y-127438256D01*
X152655460Y-127250000D01*
X152646029Y-127160273D01*
X152658598Y-127091547D01*
X152706330Y-127040523D01*
X152774070Y-127023405D01*
X152840312Y-127045627D01*
X152876736Y-127085314D01*
X152953467Y-127218216D01*
X153080129Y-127358888D01*
X153233265Y-127470148D01*
X153233270Y-127470151D01*
X153406192Y-127547142D01*
X153406197Y-127547144D01*
X153591354Y-127586500D01*
X153591355Y-127586500D01*
X153678284Y-127586500D01*
X153745323Y-127606185D01*
X153791078Y-127658989D01*
X153799574Y-127684719D01*
X153800325Y-127688254D01*
X153858818Y-127868277D01*
X153858821Y-127868284D01*
X153953467Y-128032216D01*
X154059971Y-128150500D01*
X154080129Y-128172888D01*
X154233265Y-128284148D01*
X154233270Y-128284151D01*
X154406192Y-128361142D01*
X154406197Y-128361144D01*
X154591354Y-128400500D01*
X154591355Y-128400500D01*
X154780644Y-128400500D01*
X154780646Y-128400500D01*
X154965803Y-128361144D01*
X155029365Y-128332844D01*
X162550000Y-128332844D01*
X162556401Y-128392372D01*
X162556403Y-128392379D01*
X162606645Y-128527086D01*
X162606649Y-128527093D01*
X162692809Y-128642187D01*
X162692812Y-128642190D01*
X162807906Y-128728350D01*
X162807913Y-128728354D01*
X162942620Y-128778596D01*
X162942627Y-128778598D01*
X163002155Y-128784999D01*
X163002172Y-128785000D01*
X163350000Y-128785000D01*
X163850000Y-128785000D01*
X164197828Y-128785000D01*
X164197844Y-128784999D01*
X164257372Y-128778598D01*
X164257379Y-128778596D01*
X164392086Y-128728354D01*
X164392093Y-128728350D01*
X164507187Y-128642190D01*
X164507190Y-128642187D01*
X164593350Y-128527093D01*
X164593354Y-128527086D01*
X164643596Y-128392379D01*
X164643598Y-128392372D01*
X164649999Y-128332844D01*
X164650000Y-128332827D01*
X164650000Y-128210000D01*
X163850000Y-128210000D01*
X163850000Y-128785000D01*
X163350000Y-128785000D01*
X163350000Y-128210000D01*
X162550000Y-128210000D01*
X162550000Y-128332844D01*
X155029365Y-128332844D01*
X155138730Y-128284151D01*
X155291871Y-128172888D01*
X155418533Y-128032216D01*
X155513179Y-127868284D01*
X155571674Y-127688256D01*
X155590247Y-127511536D01*
X155616832Y-127446924D01*
X155674129Y-127406939D01*
X155713568Y-127400500D01*
X155780644Y-127400500D01*
X155780646Y-127400500D01*
X155965803Y-127361144D01*
X156138730Y-127284151D01*
X156159515Y-127269049D01*
X156225320Y-127245568D01*
X156293374Y-127261392D01*
X156342070Y-127311497D01*
X156355723Y-127356403D01*
X156364326Y-127438256D01*
X156364327Y-127438259D01*
X156422818Y-127618277D01*
X156422821Y-127618284D01*
X156517467Y-127782216D01*
X156629581Y-127906731D01*
X156644129Y-127922888D01*
X156797265Y-128034148D01*
X156797270Y-128034151D01*
X156970192Y-128111142D01*
X156970197Y-128111144D01*
X157155354Y-128150500D01*
X157155355Y-128150500D01*
X157344644Y-128150500D01*
X157344646Y-128150500D01*
X157529803Y-128111144D01*
X157702730Y-128034151D01*
X157855871Y-127922888D01*
X157982533Y-127782216D01*
X157982536Y-127782211D01*
X158037217Y-127687501D01*
X158087783Y-127639285D01*
X158144604Y-127625500D01*
X160487680Y-127625500D01*
X160554719Y-127645185D01*
X160586948Y-127675191D01*
X160592454Y-127682546D01*
X160621095Y-127703987D01*
X160707664Y-127768793D01*
X160707671Y-127768797D01*
X160842517Y-127819091D01*
X160842516Y-127819091D01*
X160849444Y-127819835D01*
X160902127Y-127825500D01*
X162097872Y-127825499D01*
X162157483Y-127819091D01*
X162292331Y-127768796D01*
X162387299Y-127697702D01*
X162452760Y-127673286D01*
X162521033Y-127688137D01*
X162549289Y-127709289D01*
X162550000Y-127710000D01*
X163350000Y-127710000D01*
X163850000Y-127710000D01*
X164650000Y-127710000D01*
X164650000Y-127587172D01*
X164649999Y-127587155D01*
X164643598Y-127527627D01*
X164643596Y-127527620D01*
X164593354Y-127392913D01*
X164593350Y-127392906D01*
X164507190Y-127277812D01*
X164507187Y-127277809D01*
X164392093Y-127191649D01*
X164392086Y-127191645D01*
X164257379Y-127141403D01*
X164257372Y-127141401D01*
X164197844Y-127135000D01*
X163850000Y-127135000D01*
X163850000Y-127710000D01*
X163350000Y-127710000D01*
X163350000Y-127135000D01*
X163002155Y-127135000D01*
X162942627Y-127141401D01*
X162942620Y-127141403D01*
X162807913Y-127191645D01*
X162807906Y-127191649D01*
X162748809Y-127235889D01*
X162683345Y-127260306D01*
X162615072Y-127245454D01*
X162565667Y-127196048D01*
X162550499Y-127136624D01*
X162550499Y-126863374D01*
X162570184Y-126796337D01*
X162622988Y-126750582D01*
X162692146Y-126740638D01*
X162748811Y-126764110D01*
X162807910Y-126808352D01*
X162807913Y-126808354D01*
X162942620Y-126858596D01*
X162942627Y-126858598D01*
X163002155Y-126864999D01*
X163002172Y-126865000D01*
X163350000Y-126865000D01*
X163850000Y-126865000D01*
X164197828Y-126865000D01*
X164197844Y-126864999D01*
X164257372Y-126858598D01*
X164257379Y-126858596D01*
X164392086Y-126808354D01*
X164392093Y-126808350D01*
X164507187Y-126722190D01*
X164507190Y-126722187D01*
X164593350Y-126607093D01*
X164593354Y-126607086D01*
X164643596Y-126472379D01*
X164643598Y-126472372D01*
X164649999Y-126412844D01*
X164650000Y-126412827D01*
X164650000Y-126290000D01*
X163850000Y-126290000D01*
X163850000Y-126865000D01*
X163350000Y-126865000D01*
X163350000Y-126290000D01*
X162549999Y-126290000D01*
X162549288Y-126290711D01*
X162487964Y-126324196D01*
X162418273Y-126319210D01*
X162387297Y-126302295D01*
X162292335Y-126231206D01*
X162292328Y-126231202D01*
X162157482Y-126180908D01*
X162157483Y-126180908D01*
X162097883Y-126174501D01*
X162097881Y-126174500D01*
X162097873Y-126174500D01*
X162097864Y-126174500D01*
X160902129Y-126174500D01*
X160902123Y-126174501D01*
X160842516Y-126180908D01*
X160707671Y-126231202D01*
X160707664Y-126231206D01*
X160592457Y-126317451D01*
X160592451Y-126317457D01*
X160586948Y-126324809D01*
X160531015Y-126366681D01*
X160487680Y-126374500D01*
X157475294Y-126374500D01*
X157449513Y-126371790D01*
X157425477Y-126366681D01*
X157344646Y-126349500D01*
X157155354Y-126349500D01*
X157155353Y-126349500D01*
X157013336Y-126379686D01*
X156943669Y-126374370D01*
X156887936Y-126332233D01*
X156863831Y-126266653D01*
X156879008Y-126198451D01*
X156899875Y-126170715D01*
X157020091Y-126050500D01*
X157408772Y-125661819D01*
X157470095Y-125628334D01*
X157496453Y-125625500D01*
X157582885Y-125625500D01*
X157649924Y-125645185D01*
X157695679Y-125697989D01*
X157699067Y-125706167D01*
X157731202Y-125792328D01*
X157731206Y-125792335D01*
X157817452Y-125907544D01*
X157817455Y-125907547D01*
X157932664Y-125993793D01*
X157932671Y-125993797D01*
X157977618Y-126010561D01*
X158067517Y-126044091D01*
X158127127Y-126050500D01*
X158872872Y-126050499D01*
X158932483Y-126044091D01*
X159067331Y-125993796D01*
X159182546Y-125907546D01*
X159268796Y-125792331D01*
X159315484Y-125667155D01*
X162550000Y-125667155D01*
X162550000Y-125790000D01*
X163350000Y-125790000D01*
X163850000Y-125790000D01*
X164650000Y-125790000D01*
X164650000Y-125667172D01*
X164649999Y-125667155D01*
X164643598Y-125607627D01*
X164643596Y-125607620D01*
X164593354Y-125472913D01*
X164593350Y-125472906D01*
X164507190Y-125357812D01*
X164507187Y-125357809D01*
X164392093Y-125271649D01*
X164392086Y-125271645D01*
X164257379Y-125221403D01*
X164257372Y-125221401D01*
X164197844Y-125215000D01*
X163850000Y-125215000D01*
X163850000Y-125790000D01*
X163350000Y-125790000D01*
X163350000Y-125215000D01*
X163002155Y-125215000D01*
X162942627Y-125221401D01*
X162942620Y-125221403D01*
X162807913Y-125271645D01*
X162807906Y-125271649D01*
X162692812Y-125357809D01*
X162692809Y-125357812D01*
X162606649Y-125472906D01*
X162606645Y-125472913D01*
X162556403Y-125607620D01*
X162556401Y-125607627D01*
X162550000Y-125667155D01*
X159315484Y-125667155D01*
X159319091Y-125657483D01*
X159325500Y-125597873D01*
X159325499Y-124402128D01*
X159319091Y-124342517D01*
X159303983Y-124302011D01*
X159268797Y-124207671D01*
X159268793Y-124207664D01*
X159197704Y-124112702D01*
X159173286Y-124047238D01*
X159188137Y-123978965D01*
X159209290Y-123950709D01*
X159209999Y-123950000D01*
X159710000Y-123950000D01*
X159832828Y-123950000D01*
X159832844Y-123949999D01*
X159892372Y-123943598D01*
X159892379Y-123943596D01*
X160027086Y-123893354D01*
X160027093Y-123893350D01*
X160142187Y-123807190D01*
X160142190Y-123807187D01*
X160228350Y-123692093D01*
X160228354Y-123692086D01*
X160278596Y-123557379D01*
X160278598Y-123557372D01*
X160284999Y-123497844D01*
X160285000Y-123497827D01*
X160285000Y-123150000D01*
X159710000Y-123150000D01*
X159710000Y-123950000D01*
X159209999Y-123950000D01*
X159210000Y-123949999D01*
X159210000Y-123150000D01*
X158635000Y-123150000D01*
X158635000Y-123497844D01*
X158641401Y-123557372D01*
X158641403Y-123557379D01*
X158691645Y-123692086D01*
X158691647Y-123692089D01*
X158735889Y-123751189D01*
X158760306Y-123816654D01*
X158745454Y-123884927D01*
X158696049Y-123934332D01*
X158636622Y-123949500D01*
X158363376Y-123949500D01*
X158296337Y-123929815D01*
X158250582Y-123877011D01*
X158240638Y-123807853D01*
X158264111Y-123751187D01*
X158308352Y-123692090D01*
X158308354Y-123692086D01*
X158358596Y-123557379D01*
X158358598Y-123557372D01*
X158364999Y-123497844D01*
X158365000Y-123497827D01*
X158365000Y-123150000D01*
X157790000Y-123150000D01*
X157790000Y-123950000D01*
X157790710Y-123950710D01*
X157824195Y-124012033D01*
X157819211Y-124081725D01*
X157802296Y-124112702D01*
X157731204Y-124207668D01*
X157731203Y-124207669D01*
X157699066Y-124293834D01*
X157657194Y-124349767D01*
X157591730Y-124374184D01*
X157582884Y-124374500D01*
X157124389Y-124374500D01*
X157063971Y-124386518D01*
X157020743Y-124395116D01*
X157003546Y-124398537D01*
X156889712Y-124445689D01*
X156889706Y-124445693D01*
X156787266Y-124514142D01*
X156787262Y-124514145D01*
X155738229Y-125563181D01*
X155676906Y-125596666D01*
X155650548Y-125599500D01*
X155591354Y-125599500D01*
X155505006Y-125617853D01*
X155475279Y-125624172D01*
X155405612Y-125618855D01*
X155349878Y-125576717D01*
X155325774Y-125511137D01*
X155325499Y-125502908D01*
X155325499Y-124402128D01*
X155319091Y-124342517D01*
X155303983Y-124302011D01*
X155268797Y-124207671D01*
X155268793Y-124207664D01*
X155197704Y-124112702D01*
X155173286Y-124047238D01*
X155188137Y-123978965D01*
X155209290Y-123950709D01*
X155209999Y-123950000D01*
X155710000Y-123950000D01*
X155832828Y-123950000D01*
X155832844Y-123949999D01*
X155892372Y-123943598D01*
X155892379Y-123943596D01*
X156027086Y-123893354D01*
X156027093Y-123893350D01*
X156142187Y-123807190D01*
X156142190Y-123807187D01*
X156228350Y-123692093D01*
X156228354Y-123692086D01*
X156278596Y-123557379D01*
X156278598Y-123557372D01*
X156284999Y-123497844D01*
X156715000Y-123497844D01*
X156721401Y-123557372D01*
X156721403Y-123557379D01*
X156771645Y-123692086D01*
X156771649Y-123692093D01*
X156857809Y-123807187D01*
X156857812Y-123807190D01*
X156972906Y-123893350D01*
X156972913Y-123893354D01*
X157107620Y-123943596D01*
X157107627Y-123943598D01*
X157167155Y-123949999D01*
X157167172Y-123950000D01*
X157290000Y-123950000D01*
X157290000Y-123150000D01*
X156715000Y-123150000D01*
X156715000Y-123497844D01*
X156284999Y-123497844D01*
X156285000Y-123497827D01*
X156285000Y-123150000D01*
X155710000Y-123150000D01*
X155710000Y-123950000D01*
X155209999Y-123950000D01*
X155210000Y-123949999D01*
X155210000Y-123150000D01*
X154635000Y-123150000D01*
X154635000Y-123497844D01*
X154641401Y-123557372D01*
X154641403Y-123557379D01*
X154691645Y-123692086D01*
X154691647Y-123692089D01*
X154735889Y-123751189D01*
X154760306Y-123816654D01*
X154745454Y-123884927D01*
X154696049Y-123934332D01*
X154636622Y-123949500D01*
X154363376Y-123949500D01*
X154296337Y-123929815D01*
X154250582Y-123877011D01*
X154240638Y-123807853D01*
X154264111Y-123751187D01*
X154308352Y-123692090D01*
X154308354Y-123692086D01*
X154358596Y-123557379D01*
X154358598Y-123557372D01*
X154364999Y-123497844D01*
X154365000Y-123497827D01*
X154365000Y-123150000D01*
X153790000Y-123150000D01*
X153790000Y-123950000D01*
X153790710Y-123950710D01*
X153824195Y-124012033D01*
X153819211Y-124081725D01*
X153802296Y-124112702D01*
X153731204Y-124207668D01*
X153731202Y-124207671D01*
X153680908Y-124342517D01*
X153674501Y-124402116D01*
X153674500Y-124402127D01*
X153674500Y-125490548D01*
X153654815Y-125557587D01*
X153602011Y-125603342D01*
X153532853Y-125613286D01*
X153469297Y-125584261D01*
X153462819Y-125578229D01*
X152490198Y-124605608D01*
X152490178Y-124605586D01*
X152398733Y-124514141D01*
X152347509Y-124479915D01*
X152296287Y-124445689D01*
X152296286Y-124445688D01*
X152191122Y-124402128D01*
X152191119Y-124402126D01*
X152191119Y-124402127D01*
X152182454Y-124398537D01*
X152162403Y-124394549D01*
X152122029Y-124386518D01*
X152061610Y-124374500D01*
X152061607Y-124374500D01*
X152061606Y-124374500D01*
X151417115Y-124374500D01*
X151350076Y-124354815D01*
X151304321Y-124302011D01*
X151300933Y-124293833D01*
X151268797Y-124207671D01*
X151268793Y-124207664D01*
X151197704Y-124112702D01*
X151173286Y-124047238D01*
X151188137Y-123978965D01*
X151209290Y-123950709D01*
X151209999Y-123950000D01*
X151710000Y-123950000D01*
X151832828Y-123950000D01*
X151832844Y-123949999D01*
X151892372Y-123943598D01*
X151892379Y-123943596D01*
X152027086Y-123893354D01*
X152027093Y-123893350D01*
X152142187Y-123807190D01*
X152142190Y-123807187D01*
X152228350Y-123692093D01*
X152228354Y-123692086D01*
X152278596Y-123557379D01*
X152278598Y-123557372D01*
X152284999Y-123497844D01*
X152715000Y-123497844D01*
X152721401Y-123557372D01*
X152721403Y-123557379D01*
X152771645Y-123692086D01*
X152771649Y-123692093D01*
X152857809Y-123807187D01*
X152857812Y-123807190D01*
X152972906Y-123893350D01*
X152972913Y-123893354D01*
X153107620Y-123943596D01*
X153107627Y-123943598D01*
X153167155Y-123949999D01*
X153167172Y-123950000D01*
X153290000Y-123950000D01*
X153290000Y-123150000D01*
X152715000Y-123150000D01*
X152715000Y-123497844D01*
X152284999Y-123497844D01*
X152285000Y-123497827D01*
X152285000Y-123150000D01*
X151710000Y-123150000D01*
X151710000Y-123950000D01*
X151209999Y-123950000D01*
X151210000Y-123949999D01*
X151210000Y-123150000D01*
X150635000Y-123150000D01*
X150635000Y-123497844D01*
X150641401Y-123557372D01*
X150641403Y-123557379D01*
X150691645Y-123692086D01*
X150691647Y-123692089D01*
X150735889Y-123751189D01*
X150760306Y-123816654D01*
X150745454Y-123884927D01*
X150696049Y-123934332D01*
X150636622Y-123949500D01*
X150363376Y-123949500D01*
X150296337Y-123929815D01*
X150250582Y-123877011D01*
X150240638Y-123807853D01*
X150264111Y-123751187D01*
X150308352Y-123692090D01*
X150308354Y-123692086D01*
X150358596Y-123557379D01*
X150358598Y-123557372D01*
X150364999Y-123497844D01*
X150365000Y-123497827D01*
X150365000Y-123150000D01*
X149790000Y-123150000D01*
X149790000Y-123950000D01*
X149790710Y-123950710D01*
X149824195Y-124012033D01*
X149819211Y-124081725D01*
X149802296Y-124112702D01*
X149731204Y-124207668D01*
X149731202Y-124207671D01*
X149680908Y-124342517D01*
X149674501Y-124402116D01*
X149674500Y-124402127D01*
X149674500Y-125597870D01*
X149674501Y-125597876D01*
X149680908Y-125657483D01*
X149731202Y-125792328D01*
X149731206Y-125792335D01*
X149817452Y-125907544D01*
X149817455Y-125907547D01*
X149932664Y-125993793D01*
X149932671Y-125993797D01*
X149977618Y-126010561D01*
X150067517Y-126044091D01*
X150127127Y-126050500D01*
X150872872Y-126050499D01*
X150932483Y-126044091D01*
X151067331Y-125993796D01*
X151182546Y-125907546D01*
X151268796Y-125792331D01*
X151281559Y-125758111D01*
X151300934Y-125706166D01*
X151342806Y-125650233D01*
X151408270Y-125625816D01*
X151417116Y-125625500D01*
X151689548Y-125625500D01*
X151756587Y-125645185D01*
X151777229Y-125661819D01*
X152472868Y-126357458D01*
X152506353Y-126418781D01*
X152501369Y-126488473D01*
X152459497Y-126544406D01*
X152394033Y-126568823D01*
X152325760Y-126553971D01*
X152312302Y-126545457D01*
X152202734Y-126465851D01*
X152202729Y-126465848D01*
X152029807Y-126388857D01*
X152029802Y-126388855D01*
X151869651Y-126354815D01*
X151844646Y-126349500D01*
X151655354Y-126349500D01*
X151574523Y-126366681D01*
X151550487Y-126371790D01*
X151524706Y-126374500D01*
X148512320Y-126374500D01*
X148445281Y-126354815D01*
X148413052Y-126324809D01*
X148412593Y-126324196D01*
X148407546Y-126317454D01*
X148371821Y-126290710D01*
X148292335Y-126231206D01*
X148292328Y-126231202D01*
X148157482Y-126180908D01*
X148157483Y-126180908D01*
X148097883Y-126174501D01*
X148097881Y-126174500D01*
X148097873Y-126174500D01*
X148097864Y-126174500D01*
X146902129Y-126174500D01*
X146902123Y-126174501D01*
X146842516Y-126180908D01*
X146707671Y-126231202D01*
X146707668Y-126231204D01*
X146612702Y-126302296D01*
X146547238Y-126326713D01*
X146478965Y-126311861D01*
X146450710Y-126290710D01*
X146450000Y-126290000D01*
X145650000Y-126290000D01*
X145150000Y-126290000D01*
X144350000Y-126290000D01*
X144350000Y-126412844D01*
X142471746Y-126412844D01*
X143217435Y-125667155D01*
X144350000Y-125667155D01*
X144350000Y-125790000D01*
X145150000Y-125790000D01*
X145650000Y-125790000D01*
X146450000Y-125790000D01*
X146450000Y-125667172D01*
X146449999Y-125667155D01*
X146443598Y-125607627D01*
X146443596Y-125607620D01*
X146393354Y-125472913D01*
X146393350Y-125472906D01*
X146307190Y-125357812D01*
X146307187Y-125357809D01*
X146192093Y-125271649D01*
X146192086Y-125271645D01*
X146057379Y-125221403D01*
X146057372Y-125221401D01*
X145997844Y-125215000D01*
X145650000Y-125215000D01*
X145650000Y-125790000D01*
X145150000Y-125790000D01*
X145150000Y-125215000D01*
X144802155Y-125215000D01*
X144742627Y-125221401D01*
X144742620Y-125221403D01*
X144607913Y-125271645D01*
X144607906Y-125271649D01*
X144492812Y-125357809D01*
X144492809Y-125357812D01*
X144406649Y-125472906D01*
X144406645Y-125472913D01*
X144356403Y-125607620D01*
X144356401Y-125607627D01*
X144350000Y-125667155D01*
X143217435Y-125667155D01*
X145386746Y-123497844D01*
X148715000Y-123497844D01*
X148721401Y-123557372D01*
X148721403Y-123557379D01*
X148771645Y-123692086D01*
X148771649Y-123692093D01*
X148857809Y-123807187D01*
X148857812Y-123807190D01*
X148972906Y-123893350D01*
X148972913Y-123893354D01*
X149107620Y-123943596D01*
X149107627Y-123943598D01*
X149167155Y-123949999D01*
X149167172Y-123950000D01*
X149290000Y-123950000D01*
X149290000Y-123150000D01*
X148715000Y-123150000D01*
X148715000Y-123497844D01*
X145386746Y-123497844D01*
X145884590Y-123000000D01*
X161494659Y-123000000D01*
X161513975Y-123196129D01*
X161571188Y-123384733D01*
X161664086Y-123558532D01*
X161664090Y-123558539D01*
X161789116Y-123710883D01*
X161941460Y-123835909D01*
X161941467Y-123835913D01*
X162115266Y-123928811D01*
X162115269Y-123928811D01*
X162115273Y-123928814D01*
X162303868Y-123986024D01*
X162500000Y-124005341D01*
X162696132Y-123986024D01*
X162884727Y-123928814D01*
X162951076Y-123893350D01*
X162971632Y-123882362D01*
X163058538Y-123835910D01*
X163210883Y-123710883D01*
X163335910Y-123558538D01*
X163428814Y-123384727D01*
X163486024Y-123196132D01*
X163505341Y-123000000D01*
X163486024Y-122803868D01*
X163428814Y-122615273D01*
X163428811Y-122615269D01*
X163428811Y-122615266D01*
X163335913Y-122441467D01*
X163335909Y-122441460D01*
X163210883Y-122289116D01*
X163058539Y-122164090D01*
X163058532Y-122164086D01*
X162884733Y-122071188D01*
X162884727Y-122071186D01*
X162696132Y-122013976D01*
X162696129Y-122013975D01*
X162500000Y-121994659D01*
X162303870Y-122013975D01*
X162115266Y-122071188D01*
X161941467Y-122164086D01*
X161941460Y-122164090D01*
X161789116Y-122289116D01*
X161664090Y-122441460D01*
X161664086Y-122441467D01*
X161571188Y-122615266D01*
X161513975Y-122803870D01*
X161494659Y-123000000D01*
X145884590Y-123000000D01*
X146582435Y-122302155D01*
X148715000Y-122302155D01*
X148715000Y-122650000D01*
X149290000Y-122650000D01*
X149790000Y-122650000D01*
X150365000Y-122650000D01*
X150365000Y-122302172D01*
X150364999Y-122302155D01*
X150635000Y-122302155D01*
X150635000Y-122650000D01*
X151210000Y-122650000D01*
X151710000Y-122650000D01*
X152285000Y-122650000D01*
X152285000Y-122302172D01*
X152284999Y-122302155D01*
X152715000Y-122302155D01*
X152715000Y-122650000D01*
X153290000Y-122650000D01*
X153790000Y-122650000D01*
X154365000Y-122650000D01*
X154365000Y-122302172D01*
X154364999Y-122302155D01*
X154635000Y-122302155D01*
X154635000Y-122650000D01*
X155210000Y-122650000D01*
X155710000Y-122650000D01*
X156285000Y-122650000D01*
X156285000Y-122302172D01*
X156284999Y-122302155D01*
X156715000Y-122302155D01*
X156715000Y-122650000D01*
X157290000Y-122650000D01*
X157790000Y-122650000D01*
X158365000Y-122650000D01*
X158365000Y-122302172D01*
X158364999Y-122302155D01*
X158635000Y-122302155D01*
X158635000Y-122650000D01*
X159210000Y-122650000D01*
X159710000Y-122650000D01*
X160285000Y-122650000D01*
X160285000Y-122302172D01*
X160284999Y-122302155D01*
X160278598Y-122242627D01*
X160278596Y-122242620D01*
X160228354Y-122107913D01*
X160228350Y-122107906D01*
X160142190Y-121992812D01*
X160142187Y-121992809D01*
X160027093Y-121906649D01*
X160027086Y-121906645D01*
X159892379Y-121856403D01*
X159892372Y-121856401D01*
X159832844Y-121850000D01*
X159710000Y-121850000D01*
X159710000Y-122650000D01*
X159210000Y-122650000D01*
X159210000Y-121850000D01*
X159087155Y-121850000D01*
X159027627Y-121856401D01*
X159027620Y-121856403D01*
X158892913Y-121906645D01*
X158892906Y-121906649D01*
X158777812Y-121992809D01*
X158777809Y-121992812D01*
X158691649Y-122107906D01*
X158691645Y-122107913D01*
X158641403Y-122242620D01*
X158641401Y-122242627D01*
X158635000Y-122302155D01*
X158364999Y-122302155D01*
X158358598Y-122242627D01*
X158358596Y-122242620D01*
X158308354Y-122107913D01*
X158308350Y-122107906D01*
X158222190Y-121992812D01*
X158222187Y-121992809D01*
X158107093Y-121906649D01*
X158107086Y-121906645D01*
X157972379Y-121856403D01*
X157972372Y-121856401D01*
X157912844Y-121850000D01*
X157790000Y-121850000D01*
X157790000Y-122650000D01*
X157290000Y-122650000D01*
X157290000Y-121850000D01*
X157167155Y-121850000D01*
X157107627Y-121856401D01*
X157107620Y-121856403D01*
X156972913Y-121906645D01*
X156972906Y-121906649D01*
X156857812Y-121992809D01*
X156857809Y-121992812D01*
X156771649Y-122107906D01*
X156771645Y-122107913D01*
X156721403Y-122242620D01*
X156721401Y-122242627D01*
X156715000Y-122302155D01*
X156284999Y-122302155D01*
X156278598Y-122242627D01*
X156278596Y-122242620D01*
X156228354Y-122107913D01*
X156228350Y-122107906D01*
X156142190Y-121992812D01*
X156142187Y-121992809D01*
X156027093Y-121906649D01*
X156027086Y-121906645D01*
X155892379Y-121856403D01*
X155892372Y-121856401D01*
X155832844Y-121850000D01*
X155710000Y-121850000D01*
X155710000Y-122650000D01*
X155210000Y-122650000D01*
X155210000Y-121850000D01*
X155087155Y-121850000D01*
X155027627Y-121856401D01*
X155027620Y-121856403D01*
X154892913Y-121906645D01*
X154892906Y-121906649D01*
X154777812Y-121992809D01*
X154777809Y-121992812D01*
X154691649Y-122107906D01*
X154691645Y-122107913D01*
X154641403Y-122242620D01*
X154641401Y-122242627D01*
X154635000Y-122302155D01*
X154364999Y-122302155D01*
X154358598Y-122242627D01*
X154358596Y-122242620D01*
X154308354Y-122107913D01*
X154308350Y-122107906D01*
X154222190Y-121992812D01*
X154222187Y-121992809D01*
X154107093Y-121906649D01*
X154107086Y-121906645D01*
X153972379Y-121856403D01*
X153972372Y-121856401D01*
X153912844Y-121850000D01*
X153790000Y-121850000D01*
X153790000Y-122650000D01*
X153290000Y-122650000D01*
X153290000Y-121850000D01*
X153167155Y-121850000D01*
X153107627Y-121856401D01*
X153107620Y-121856403D01*
X152972913Y-121906645D01*
X152972906Y-121906649D01*
X152857812Y-121992809D01*
X152857809Y-121992812D01*
X152771649Y-122107906D01*
X152771645Y-122107913D01*
X152721403Y-122242620D01*
X152721401Y-122242627D01*
X152715000Y-122302155D01*
X152284999Y-122302155D01*
X152278598Y-122242627D01*
X152278596Y-122242620D01*
X152228354Y-122107913D01*
X152228350Y-122107906D01*
X152142190Y-121992812D01*
X152142187Y-121992809D01*
X152027093Y-121906649D01*
X152027086Y-121906645D01*
X151892379Y-121856403D01*
X151892372Y-121856401D01*
X151832844Y-121850000D01*
X151710000Y-121850000D01*
X151710000Y-122650000D01*
X151210000Y-122650000D01*
X151210000Y-121850000D01*
X151087155Y-121850000D01*
X151027627Y-121856401D01*
X151027620Y-121856403D01*
X150892913Y-121906645D01*
X150892906Y-121906649D01*
X150777812Y-121992809D01*
X150777809Y-121992812D01*
X150691649Y-122107906D01*
X150691645Y-122107913D01*
X150641403Y-122242620D01*
X150641401Y-122242627D01*
X150635000Y-122302155D01*
X150364999Y-122302155D01*
X150358598Y-122242627D01*
X150358596Y-122242620D01*
X150308354Y-122107913D01*
X150308350Y-122107906D01*
X150222190Y-121992812D01*
X150222187Y-121992809D01*
X150107093Y-121906649D01*
X150107086Y-121906645D01*
X149972379Y-121856403D01*
X149972372Y-121856401D01*
X149912844Y-121850000D01*
X149790000Y-121850000D01*
X149790000Y-122650000D01*
X149290000Y-122650000D01*
X149290000Y-121850000D01*
X149167155Y-121850000D01*
X149107627Y-121856401D01*
X149107620Y-121856403D01*
X148972913Y-121906645D01*
X148972906Y-121906649D01*
X148857812Y-121992809D01*
X148857809Y-121992812D01*
X148771649Y-122107906D01*
X148771645Y-122107913D01*
X148721403Y-122242620D01*
X148721401Y-122242627D01*
X148715000Y-122302155D01*
X146582435Y-122302155D01*
X148044771Y-120839819D01*
X148106094Y-120806334D01*
X148132452Y-120803500D01*
X162296252Y-120803500D01*
X162363291Y-120823185D01*
X162388400Y-120844526D01*
X162394126Y-120850885D01*
X162394130Y-120850889D01*
X162547265Y-120962148D01*
X162547270Y-120962151D01*
X162720192Y-121039142D01*
X162720197Y-121039144D01*
X162905354Y-121078500D01*
X162964548Y-121078500D01*
X163031587Y-121098185D01*
X163052229Y-121114819D01*
X172587817Y-130650408D01*
X172618067Y-130699771D01*
X172672818Y-130868277D01*
X172672821Y-130868284D01*
X172767467Y-131032216D01*
X172835368Y-131107627D01*
X172894129Y-131172888D01*
X173047265Y-131284148D01*
X173047270Y-131284151D01*
X173220192Y-131361142D01*
X173220197Y-131361144D01*
X173405354Y-131400500D01*
X173405355Y-131400500D01*
X173594644Y-131400500D01*
X173594646Y-131400500D01*
X173779803Y-131361144D01*
X173952730Y-131284151D01*
X174105871Y-131172888D01*
X174232533Y-131032216D01*
X174327179Y-130868284D01*
X174385674Y-130688256D01*
X174405460Y-130500000D01*
X174385674Y-130311744D01*
X174327179Y-130131716D01*
X174232533Y-129967784D01*
X174105871Y-129827112D01*
X174105870Y-129827111D01*
X173952734Y-129715851D01*
X173952729Y-129715848D01*
X173779807Y-129638857D01*
X173779802Y-129638855D01*
X173610651Y-129602902D01*
X173594646Y-129599500D01*
X173405354Y-129599500D01*
X173405349Y-129599500D01*
X173389340Y-129602902D01*
X173319673Y-129597583D01*
X173275883Y-129569292D01*
X163938960Y-120232370D01*
X163905475Y-120171047D01*
X163903323Y-120157671D01*
X163885674Y-119989744D01*
X163827179Y-119809716D01*
X163732533Y-119645784D01*
X163605871Y-119505112D01*
X163605870Y-119505111D01*
X163452734Y-119393851D01*
X163452729Y-119393848D01*
X163279807Y-119316857D01*
X163279802Y-119316855D01*
X163134001Y-119285865D01*
X163094646Y-119277500D01*
X162905354Y-119277500D01*
X162872897Y-119284398D01*
X162720197Y-119316855D01*
X162720192Y-119316857D01*
X162547270Y-119393848D01*
X162547265Y-119393851D01*
X162394130Y-119505110D01*
X162394126Y-119505114D01*
X162388400Y-119511474D01*
X162328913Y-119548121D01*
X162296252Y-119552500D01*
X147760389Y-119552500D01*
X147699971Y-119564518D01*
X147662259Y-119572019D01*
X147639550Y-119576536D01*
X147639548Y-119576537D01*
X147606207Y-119590347D01*
X147525719Y-119623684D01*
X147525705Y-119623692D01*
X147423272Y-119692138D01*
X147423264Y-119692144D01*
X144115409Y-123000000D01*
X140825270Y-126290139D01*
X140825267Y-126290142D01*
X140797958Y-126317451D01*
X140738141Y-126377267D01*
X140723928Y-126398537D01*
X140723929Y-126398538D01*
X140678953Y-126465849D01*
X140669688Y-126479714D01*
X140654191Y-126517128D01*
X140622538Y-126593544D01*
X140622535Y-126593556D01*
X140598500Y-126714389D01*
X140598500Y-130134331D01*
X140578815Y-130201370D01*
X140545624Y-130235905D01*
X140400992Y-130337178D01*
X140243182Y-130494988D01*
X140243179Y-130494991D01*
X140243178Y-130494993D01*
X140215761Y-130534148D01*
X140115164Y-130677814D01*
X140066382Y-130782430D01*
X140020210Y-130834869D01*
X139953016Y-130854021D01*
X139886135Y-130833805D01*
X139841618Y-130782430D01*
X139792835Y-130677814D01*
X139773645Y-130650408D01*
X139664822Y-130494993D01*
X139507007Y-130337178D01*
X139324186Y-130209165D01*
X139121913Y-130114844D01*
X139121909Y-130114843D01*
X139121905Y-130114841D01*
X138906339Y-130057081D01*
X138906329Y-130057079D01*
X138684001Y-130037628D01*
X138683999Y-130037628D01*
X138461671Y-130057079D01*
X138461662Y-130057081D01*
X138409361Y-130071094D01*
X138339512Y-130069429D01*
X138289590Y-130038999D01*
X135645363Y-127394773D01*
X135611878Y-127333450D01*
X135616862Y-127263758D01*
X135625657Y-127245092D01*
X135641175Y-127218214D01*
X135701179Y-127114284D01*
X135759674Y-126934256D01*
X135779460Y-126746000D01*
X135759674Y-126557744D01*
X135701179Y-126377716D01*
X135606533Y-126213784D01*
X135479871Y-126073112D01*
X135479870Y-126073111D01*
X135326734Y-125961851D01*
X135326729Y-125961848D01*
X135153807Y-125884857D01*
X135153802Y-125884855D01*
X135008001Y-125853865D01*
X134968646Y-125845500D01*
X134779354Y-125845500D01*
X134746897Y-125852398D01*
X134594197Y-125884855D01*
X134594192Y-125884857D01*
X134421270Y-125961848D01*
X134421265Y-125961851D01*
X134268129Y-126073111D01*
X134141466Y-126213785D01*
X134046821Y-126377715D01*
X134046818Y-126377722D01*
X133992318Y-126545457D01*
X133988326Y-126557744D01*
X133968540Y-126746000D01*
X133988326Y-126934256D01*
X133988327Y-126934259D01*
X134046818Y-127114277D01*
X134046821Y-127114284D01*
X134141467Y-127278216D01*
X134171434Y-127311497D01*
X134216650Y-127361715D01*
X134246880Y-127424706D01*
X134248500Y-127444687D01*
X134248500Y-127569606D01*
X134256590Y-127610284D01*
X134272535Y-127690446D01*
X134272537Y-127690452D01*
X134286347Y-127723792D01*
X134286347Y-127723793D01*
X134319685Y-127804281D01*
X134319687Y-127804284D01*
X134319688Y-127804286D01*
X134335487Y-127827930D01*
X134388140Y-127906731D01*
X134388141Y-127906732D01*
X134388142Y-127906733D01*
X134475267Y-127993858D01*
X134475268Y-127993858D01*
X134482335Y-128000925D01*
X134482334Y-128000925D01*
X134482338Y-128000928D01*
X136314642Y-129833233D01*
X136348127Y-129894556D01*
X136343143Y-129964248D01*
X136301271Y-130020181D01*
X136235807Y-130044598D01*
X136216154Y-130044442D01*
X136144002Y-130038130D01*
X136143998Y-130038130D01*
X135921758Y-130057573D01*
X135921751Y-130057574D01*
X135706263Y-130115314D01*
X135706252Y-130115318D01*
X135504064Y-130209600D01*
X135504062Y-130209601D01*
X135436478Y-130256923D01*
X135436477Y-130256924D01*
X136006425Y-130826871D01*
X135947147Y-130842755D01*
X135830853Y-130909898D01*
X135735898Y-131004853D01*
X135668755Y-131121147D01*
X135652871Y-131180424D01*
X135082924Y-130610477D01*
X135082923Y-130610478D01*
X135035602Y-130678061D01*
X134986658Y-130783022D01*
X134940486Y-130835461D01*
X134873292Y-130854613D01*
X134806411Y-130834397D01*
X134761894Y-130783022D01*
X134712835Y-130677814D01*
X134693645Y-130650408D01*
X134584822Y-130494993D01*
X134427007Y-130337178D01*
X134244186Y-130209165D01*
X134041913Y-130114844D01*
X134041909Y-130114843D01*
X134041905Y-130114841D01*
X133826339Y-130057081D01*
X133826329Y-130057079D01*
X133604001Y-130037628D01*
X133603999Y-130037628D01*
X133381670Y-130057079D01*
X133381660Y-130057081D01*
X133166094Y-130114841D01*
X133166087Y-130114843D01*
X133166087Y-130114844D01*
X132963814Y-130209165D01*
X132780993Y-130337178D01*
X132780991Y-130337179D01*
X132780988Y-130337182D01*
X132623182Y-130494988D01*
X132623179Y-130494991D01*
X132623178Y-130494993D01*
X132595761Y-130534148D01*
X132495164Y-130677814D01*
X132446382Y-130782430D01*
X132400210Y-130834869D01*
X132333016Y-130854021D01*
X132266135Y-130833805D01*
X132221618Y-130782430D01*
X132172835Y-130677814D01*
X132153645Y-130650408D01*
X132044822Y-130494993D01*
X131887007Y-130337178D01*
X131704186Y-130209165D01*
X131501913Y-130114844D01*
X131501909Y-130114843D01*
X131501905Y-130114841D01*
X131286339Y-130057081D01*
X131286329Y-130057079D01*
X131064001Y-130037628D01*
X131063999Y-130037628D01*
X130841670Y-130057079D01*
X130841660Y-130057081D01*
X130626094Y-130114841D01*
X130626087Y-130114843D01*
X130626087Y-130114844D01*
X130423814Y-130209165D01*
X130240993Y-130337178D01*
X130240991Y-130337179D01*
X130240988Y-130337182D01*
X130083182Y-130494988D01*
X130083179Y-130494991D01*
X130083178Y-130494993D01*
X129955165Y-130677814D01*
X129882150Y-130834397D01*
X129860845Y-130880085D01*
X129860841Y-130880094D01*
X129803081Y-131095660D01*
X129803079Y-131095670D01*
X129783628Y-131317999D01*
X94000000Y-131317999D01*
X94000000Y-127000000D01*
X85724000Y-127000000D01*
X85656961Y-126980315D01*
X85611206Y-126927511D01*
X85600000Y-126876000D01*
X85600000Y-114770000D01*
X90489596Y-114770000D01*
X90509191Y-115068956D01*
X90509193Y-115068968D01*
X90567638Y-115362792D01*
X90567643Y-115362812D01*
X90663939Y-115646492D01*
X90663943Y-115646502D01*
X90796452Y-115915203D01*
X90962901Y-116164311D01*
X91160439Y-116389560D01*
X91336339Y-116543820D01*
X91385690Y-116587100D01*
X91551008Y-116697561D01*
X91634796Y-116753547D01*
X91903497Y-116886056D01*
X91903507Y-116886060D01*
X92187187Y-116982356D01*
X92187191Y-116982357D01*
X92187200Y-116982360D01*
X92481042Y-117040809D01*
X92780000Y-117060404D01*
X93078958Y-117040809D01*
X93372800Y-116982360D01*
X93372812Y-116982356D01*
X93656492Y-116886060D01*
X93656502Y-116886056D01*
X93925202Y-116753548D01*
X94174310Y-116587100D01*
X94399560Y-116389560D01*
X94597100Y-116164310D01*
X94763548Y-115915202D01*
X94896057Y-115646500D01*
X94979261Y-115401390D01*
X94992356Y-115362812D01*
X94992356Y-115362811D01*
X94992360Y-115362800D01*
X95050809Y-115068958D01*
X95070404Y-114770000D01*
X95050809Y-114471042D01*
X94992360Y-114177200D01*
X94980398Y-114141961D01*
X94896060Y-113893507D01*
X94896056Y-113893497D01*
X94763547Y-113624796D01*
X94671246Y-113486658D01*
X94597100Y-113375690D01*
X94553820Y-113326339D01*
X94399560Y-113150439D01*
X94174311Y-112952901D01*
X94161332Y-112944229D01*
X94042758Y-112865000D01*
X93925203Y-112786452D01*
X93656502Y-112653943D01*
X93656492Y-112653939D01*
X93372812Y-112557643D01*
X93372792Y-112557638D01*
X93078968Y-112499193D01*
X93078958Y-112499191D01*
X92780000Y-112479596D01*
X92481042Y-112499191D01*
X92481036Y-112499192D01*
X92481031Y-112499193D01*
X92187207Y-112557638D01*
X92187187Y-112557643D01*
X91903507Y-112653939D01*
X91903497Y-112653943D01*
X91634796Y-112786452D01*
X91385688Y-112952901D01*
X91160439Y-113150439D01*
X90962901Y-113375688D01*
X90796452Y-113624796D01*
X90663943Y-113893497D01*
X90663939Y-113893507D01*
X90567643Y-114177187D01*
X90567638Y-114177207D01*
X90524921Y-114391961D01*
X90509191Y-114471042D01*
X90501722Y-114585000D01*
X90489596Y-114770000D01*
X85600000Y-114770000D01*
X85600000Y-104699997D01*
X94234723Y-104699997D01*
X94234723Y-104700002D01*
X94253793Y-104917975D01*
X94253793Y-104917979D01*
X94310422Y-105129322D01*
X94310424Y-105129326D01*
X94310425Y-105129330D01*
X94356661Y-105228484D01*
X94402897Y-105327638D01*
X94402898Y-105327639D01*
X94528402Y-105506877D01*
X94683123Y-105661598D01*
X94819370Y-105756999D01*
X94862361Y-105787102D01*
X94970693Y-105837618D01*
X95023132Y-105883790D01*
X95042284Y-105950984D01*
X95022068Y-106017865D01*
X94970693Y-106062382D01*
X94862362Y-106112898D01*
X94862357Y-106112900D01*
X94683121Y-106238402D01*
X94528402Y-106393121D01*
X94402900Y-106572357D01*
X94402898Y-106572361D01*
X94310426Y-106770668D01*
X94310422Y-106770677D01*
X94253793Y-106982020D01*
X94253793Y-106982024D01*
X94234723Y-107199997D01*
X94234723Y-107200002D01*
X94253793Y-107417975D01*
X94253793Y-107417979D01*
X94310422Y-107629322D01*
X94310424Y-107629326D01*
X94310425Y-107629330D01*
X94351673Y-107717787D01*
X94402897Y-107827638D01*
X94427766Y-107863154D01*
X94528402Y-108006877D01*
X94528406Y-108006881D01*
X94633843Y-108112318D01*
X94667328Y-108173641D01*
X94662344Y-108243333D01*
X94633844Y-108287680D01*
X94528400Y-108393124D01*
X94402900Y-108572357D01*
X94402898Y-108572361D01*
X94310426Y-108770668D01*
X94310422Y-108770677D01*
X94253793Y-108982020D01*
X94253793Y-108982024D01*
X94234723Y-109199997D01*
X94234723Y-109200002D01*
X94253793Y-109417975D01*
X94253793Y-109417979D01*
X94310422Y-109629322D01*
X94310424Y-109629326D01*
X94310425Y-109629330D01*
X94339105Y-109690834D01*
X94402897Y-109827638D01*
X94402898Y-109827639D01*
X94528402Y-110006877D01*
X94683123Y-110161598D01*
X94862361Y-110287102D01*
X94917187Y-110312668D01*
X94971285Y-110337894D01*
X95023724Y-110384066D01*
X95042876Y-110451260D01*
X95022660Y-110518141D01*
X94971285Y-110562658D01*
X94862614Y-110613332D01*
X94862612Y-110613333D01*
X94800428Y-110656875D01*
X94800427Y-110656875D01*
X95360590Y-111217037D01*
X95297007Y-111234075D01*
X95182993Y-111299901D01*
X95089901Y-111392993D01*
X95024075Y-111507007D01*
X95007037Y-111570590D01*
X94446875Y-111010427D01*
X94446875Y-111010428D01*
X94403333Y-111072612D01*
X94403332Y-111072614D01*
X94310898Y-111270840D01*
X94310894Y-111270849D01*
X94254289Y-111482105D01*
X94254289Y-111482107D01*
X94235225Y-111699999D01*
X94235225Y-111700000D01*
X94254287Y-111917884D01*
X94254289Y-111917894D01*
X94310894Y-112129150D01*
X94310898Y-112129159D01*
X94403333Y-112327387D01*
X94446874Y-112389571D01*
X95007037Y-111829408D01*
X95024075Y-111892993D01*
X95089901Y-112007007D01*
X95182993Y-112100099D01*
X95297007Y-112165925D01*
X95360590Y-112182962D01*
X94800427Y-112743124D01*
X94862612Y-112786666D01*
X95060840Y-112879101D01*
X95060849Y-112879105D01*
X95272105Y-112935710D01*
X95272115Y-112935712D01*
X95489999Y-112954775D01*
X95490001Y-112954775D01*
X95707884Y-112935712D01*
X95707894Y-112935710D01*
X95919150Y-112879105D01*
X95919164Y-112879100D01*
X96117383Y-112786669D01*
X96117385Y-112786668D01*
X96179571Y-112743124D01*
X95619410Y-112182962D01*
X95682993Y-112165925D01*
X95797007Y-112100099D01*
X95890099Y-112007007D01*
X95955925Y-111892993D01*
X95972962Y-111829409D01*
X96533124Y-112389570D01*
X96576668Y-112327385D01*
X96576669Y-112327383D01*
X96669100Y-112129164D01*
X96669105Y-112129150D01*
X96725710Y-111917894D01*
X96725712Y-111917884D01*
X96744775Y-111700000D01*
X96744775Y-111699999D01*
X96725711Y-111482107D01*
X96725710Y-111482105D01*
X96669105Y-111270849D01*
X96669101Y-111270840D01*
X96576668Y-111072615D01*
X96533123Y-111010428D01*
X95972962Y-111570589D01*
X95955925Y-111507007D01*
X95890099Y-111392993D01*
X95797007Y-111299901D01*
X95682993Y-111234075D01*
X95619409Y-111217037D01*
X96179571Y-110656874D01*
X96117386Y-110613332D01*
X96117384Y-110613331D01*
X96008715Y-110562658D01*
X95956275Y-110516486D01*
X95937123Y-110449292D01*
X95957339Y-110382411D01*
X96008715Y-110337894D01*
X96031839Y-110327111D01*
X96117639Y-110287102D01*
X96296877Y-110161598D01*
X96451598Y-110006877D01*
X96577102Y-109827639D01*
X96669575Y-109629330D01*
X96704229Y-109500000D01*
X104500000Y-109500000D01*
X106500000Y-109500000D01*
X106500000Y-107000000D01*
X104500000Y-107000000D01*
X104500000Y-109500000D01*
X96704229Y-109500000D01*
X96726207Y-109417977D01*
X96745277Y-109200000D01*
X96726207Y-108982023D01*
X96676094Y-108795000D01*
X96669577Y-108770677D01*
X96669576Y-108770676D01*
X96669575Y-108770670D01*
X96577102Y-108572362D01*
X96577100Y-108572359D01*
X96577099Y-108572357D01*
X96451597Y-108393121D01*
X96346156Y-108287680D01*
X96312671Y-108226357D01*
X96317655Y-108156665D01*
X96346152Y-108112322D01*
X96451598Y-108006877D01*
X96577102Y-107827639D01*
X96669575Y-107629330D01*
X96726207Y-107417977D01*
X96745277Y-107200000D01*
X96726207Y-106982023D01*
X96669575Y-106770670D01*
X96577102Y-106572362D01*
X96577100Y-106572359D01*
X96577099Y-106572357D01*
X96451599Y-106393124D01*
X96389138Y-106330663D01*
X96296877Y-106238402D01*
X96117639Y-106112898D01*
X96009306Y-106062381D01*
X95956867Y-106016210D01*
X95937715Y-105949016D01*
X95957931Y-105882135D01*
X96009307Y-105837618D01*
X96026742Y-105829488D01*
X96117639Y-105787102D01*
X96296877Y-105661598D01*
X96451598Y-105506877D01*
X96454050Y-105503374D01*
X96508628Y-105459751D01*
X96555624Y-105450500D01*
X105373770Y-105450500D01*
X105440809Y-105470185D01*
X105461451Y-105486819D01*
X108327228Y-108352595D01*
X108357478Y-108401958D01*
X108412818Y-108572277D01*
X108412821Y-108572284D01*
X108507467Y-108736216D01*
X108617122Y-108858000D01*
X108634129Y-108876888D01*
X108787265Y-108988148D01*
X108787270Y-108988151D01*
X108960192Y-109065142D01*
X108960197Y-109065144D01*
X109145354Y-109104500D01*
X109145355Y-109104500D01*
X109334644Y-109104500D01*
X109334646Y-109104500D01*
X109519803Y-109065144D01*
X109692730Y-108988151D01*
X109845871Y-108876888D01*
X109972533Y-108736216D01*
X110067179Y-108572284D01*
X110125674Y-108392256D01*
X110145460Y-108204000D01*
X110125674Y-108015744D01*
X110067179Y-107835716D01*
X109972533Y-107671784D01*
X109845871Y-107531112D01*
X109845870Y-107531111D01*
X109692734Y-107419851D01*
X109692729Y-107419848D01*
X109519807Y-107342857D01*
X109519802Y-107342855D01*
X109454669Y-107329011D01*
X109393187Y-107295818D01*
X109392769Y-107295402D01*
X107154354Y-105056986D01*
X137038001Y-105056986D01*
X137048494Y-105159697D01*
X137103641Y-105326119D01*
X137103643Y-105326124D01*
X137195684Y-105475345D01*
X137319654Y-105599315D01*
X137468875Y-105691356D01*
X137468880Y-105691358D01*
X137635302Y-105746505D01*
X137635309Y-105746506D01*
X137738019Y-105756999D01*
X138012999Y-105756999D01*
X138513000Y-105756999D01*
X138787972Y-105756999D01*
X138787986Y-105756998D01*
X138890697Y-105746505D01*
X139057119Y-105691358D01*
X139057124Y-105691356D01*
X139212491Y-105595525D01*
X139213955Y-105597898D01*
X139266858Y-105576543D01*
X139335503Y-105589568D01*
X139345299Y-105595864D01*
X139345509Y-105595525D01*
X139500875Y-105691356D01*
X139500880Y-105691358D01*
X139667302Y-105746505D01*
X139667309Y-105746506D01*
X139770019Y-105756999D01*
X140044999Y-105756999D01*
X140045000Y-105756998D01*
X140045000Y-104919500D01*
X138513000Y-104919500D01*
X138513000Y-105756999D01*
X138012999Y-105756999D01*
X138013000Y-105756998D01*
X138013000Y-104919500D01*
X137038001Y-104919500D01*
X137038001Y-105056986D01*
X107154354Y-105056986D01*
X106214421Y-104117052D01*
X106214420Y-104117051D01*
X106208885Y-104113353D01*
X106124977Y-104057288D01*
X106113766Y-104049797D01*
X106091500Y-104034919D01*
X106091488Y-104034912D01*
X105954917Y-103978343D01*
X105954907Y-103978340D01*
X105809920Y-103949500D01*
X105809918Y-103949500D01*
X96555624Y-103949500D01*
X96488585Y-103929815D01*
X96454048Y-103896622D01*
X96451598Y-103893123D01*
X96382459Y-103823984D01*
X96296877Y-103738402D01*
X96123232Y-103616814D01*
X96117638Y-103612897D01*
X95989361Y-103553081D01*
X95919330Y-103520425D01*
X95919326Y-103520424D01*
X95919322Y-103520422D01*
X95707977Y-103463793D01*
X95490002Y-103444723D01*
X95489998Y-103444723D01*
X95344682Y-103457436D01*
X95272023Y-103463793D01*
X95272020Y-103463793D01*
X95060677Y-103520422D01*
X95060668Y-103520426D01*
X94862361Y-103612898D01*
X94862357Y-103612900D01*
X94683121Y-103738402D01*
X94528402Y-103893121D01*
X94402900Y-104072357D01*
X94402898Y-104072361D01*
X94310426Y-104270668D01*
X94310422Y-104270677D01*
X94253793Y-104482020D01*
X94253793Y-104482024D01*
X94234723Y-104699997D01*
X85600000Y-104699997D01*
X85600000Y-101630000D01*
X90489596Y-101630000D01*
X90500914Y-101802684D01*
X90509191Y-101928956D01*
X90509193Y-101928968D01*
X90567638Y-102222792D01*
X90567643Y-102222812D01*
X90663939Y-102506492D01*
X90663943Y-102506502D01*
X90796452Y-102775203D01*
X90860880Y-102871626D01*
X90934635Y-102982009D01*
X90962901Y-103024311D01*
X91160439Y-103249560D01*
X91264216Y-103340570D01*
X91385690Y-103447100D01*
X91508695Y-103529289D01*
X91634796Y-103613547D01*
X91903497Y-103746056D01*
X91903507Y-103746060D01*
X92187187Y-103842356D01*
X92187191Y-103842357D01*
X92187200Y-103842360D01*
X92481042Y-103900809D01*
X92780000Y-103920404D01*
X93078958Y-103900809D01*
X93372800Y-103842360D01*
X93372812Y-103842356D01*
X93656492Y-103746060D01*
X93656502Y-103746056D01*
X93698256Y-103725465D01*
X93925202Y-103613548D01*
X94174310Y-103447100D01*
X94399560Y-103249560D01*
X94597100Y-103024310D01*
X94763548Y-102775202D01*
X94896057Y-102506500D01*
X94902352Y-102487957D01*
X94992356Y-102222812D01*
X94992356Y-102222811D01*
X94992360Y-102222800D01*
X95050809Y-101928958D01*
X95070404Y-101630000D01*
X95050809Y-101331042D01*
X94992360Y-101037200D01*
X94988645Y-101026256D01*
X94896060Y-100753507D01*
X94896056Y-100753497D01*
X94763547Y-100484796D01*
X94707561Y-100401008D01*
X94597100Y-100235690D01*
X94495423Y-100119750D01*
X94399560Y-100010439D01*
X94174311Y-99812901D01*
X94171976Y-99811341D01*
X94037997Y-99721819D01*
X93925203Y-99646452D01*
X93656502Y-99513943D01*
X93656492Y-99513939D01*
X93372812Y-99417643D01*
X93372792Y-99417638D01*
X93078968Y-99359193D01*
X93078958Y-99359191D01*
X92780000Y-99339596D01*
X92481042Y-99359191D01*
X92481036Y-99359192D01*
X92481031Y-99359193D01*
X92187207Y-99417638D01*
X92187187Y-99417643D01*
X91903507Y-99513939D01*
X91903497Y-99513943D01*
X91634796Y-99646452D01*
X91385688Y-99812901D01*
X91160439Y-100010439D01*
X90962901Y-100235688D01*
X90796452Y-100484796D01*
X90663943Y-100753497D01*
X90663939Y-100753507D01*
X90567643Y-101037187D01*
X90567638Y-101037207D01*
X90517309Y-101290228D01*
X90509191Y-101331042D01*
X90489596Y-101630000D01*
X85600000Y-101630000D01*
X85600000Y-89915999D01*
X89143628Y-89915999D01*
X89143628Y-89916000D01*
X89163079Y-90138329D01*
X89163081Y-90138339D01*
X89220841Y-90353905D01*
X89220843Y-90353909D01*
X89220844Y-90353913D01*
X89315165Y-90556186D01*
X89443178Y-90739007D01*
X89600993Y-90896822D01*
X89771318Y-91016085D01*
X89783814Y-91024835D01*
X89889022Y-91073894D01*
X89941461Y-91120066D01*
X89960613Y-91187260D01*
X89940397Y-91254141D01*
X89889022Y-91298658D01*
X89784061Y-91347602D01*
X89716478Y-91394923D01*
X89716477Y-91394924D01*
X90286425Y-91964871D01*
X90227147Y-91980755D01*
X90110853Y-92047898D01*
X90015898Y-92142853D01*
X89948755Y-92259147D01*
X89932871Y-92318424D01*
X89362924Y-91748477D01*
X89362923Y-91748478D01*
X89315601Y-91816062D01*
X89315600Y-91816064D01*
X89221318Y-92018252D01*
X89221314Y-92018263D01*
X89163574Y-92233751D01*
X89163573Y-92233758D01*
X89144130Y-92455998D01*
X89144130Y-92456001D01*
X89163573Y-92678241D01*
X89163574Y-92678248D01*
X89221314Y-92893736D01*
X89221318Y-92893747D01*
X89315596Y-93095928D01*
X89362924Y-93163520D01*
X89932871Y-92593574D01*
X89948755Y-92652853D01*
X90015898Y-92769147D01*
X90110853Y-92864102D01*
X90227147Y-92931245D01*
X90286425Y-92947128D01*
X89716477Y-93517074D01*
X89784066Y-93564400D01*
X89784068Y-93564401D01*
X89986252Y-93658681D01*
X89986263Y-93658685D01*
X90201751Y-93716425D01*
X90201758Y-93716426D01*
X90423998Y-93735870D01*
X90424002Y-93735870D01*
X90646241Y-93716426D01*
X90646248Y-93716425D01*
X90861736Y-93658685D01*
X90861747Y-93658681D01*
X91063931Y-93564401D01*
X91063941Y-93564395D01*
X91131521Y-93517075D01*
X90561574Y-92947128D01*
X90620853Y-92931245D01*
X90737147Y-92864102D01*
X90832102Y-92769147D01*
X90899245Y-92652853D01*
X90915128Y-92593574D01*
X91485075Y-93163521D01*
X91532395Y-93095941D01*
X91532401Y-93095931D01*
X91581618Y-92990386D01*
X91627790Y-92937946D01*
X91694983Y-92918794D01*
X91761865Y-92939009D01*
X91806382Y-92990386D01*
X91855596Y-93095928D01*
X91902924Y-93163520D01*
X92472871Y-92593574D01*
X92488755Y-92652853D01*
X92555898Y-92769147D01*
X92650853Y-92864102D01*
X92767147Y-92931245D01*
X92826425Y-92947128D01*
X92256477Y-93517074D01*
X92324066Y-93564400D01*
X92324068Y-93564401D01*
X92526252Y-93658681D01*
X92526263Y-93658685D01*
X92741751Y-93716425D01*
X92741758Y-93716426D01*
X92963998Y-93735870D01*
X92964002Y-93735870D01*
X93186241Y-93716426D01*
X93186248Y-93716425D01*
X93401736Y-93658685D01*
X93401747Y-93658681D01*
X93603931Y-93564401D01*
X93603941Y-93564395D01*
X93671521Y-93517075D01*
X93101574Y-92947128D01*
X93160853Y-92931245D01*
X93277147Y-92864102D01*
X93372102Y-92769147D01*
X93439245Y-92652853D01*
X93455128Y-92593574D01*
X94025075Y-93163521D01*
X94072395Y-93095941D01*
X94072401Y-93095931D01*
X94121618Y-92990386D01*
X94167790Y-92937946D01*
X94234983Y-92918794D01*
X94301865Y-92939009D01*
X94346382Y-92990386D01*
X94395596Y-93095928D01*
X94442924Y-93163520D01*
X95012871Y-92593574D01*
X95028755Y-92652853D01*
X95095898Y-92769147D01*
X95190853Y-92864102D01*
X95307147Y-92931245D01*
X95366425Y-92947128D01*
X94796477Y-93517074D01*
X94864066Y-93564400D01*
X94864068Y-93564401D01*
X95066252Y-93658681D01*
X95066263Y-93658685D01*
X95281751Y-93716425D01*
X95281758Y-93716426D01*
X95503998Y-93735870D01*
X95504002Y-93735870D01*
X95726241Y-93716426D01*
X95726248Y-93716425D01*
X95941736Y-93658685D01*
X95941747Y-93658681D01*
X96143931Y-93564401D01*
X96143941Y-93564395D01*
X96211521Y-93517075D01*
X95641574Y-92947128D01*
X95700853Y-92931245D01*
X95817147Y-92864102D01*
X95912102Y-92769147D01*
X95979245Y-92652853D01*
X95995128Y-92593574D01*
X96565075Y-93163521D01*
X96612395Y-93095941D01*
X96612401Y-93095931D01*
X96706681Y-92893747D01*
X96706685Y-92893736D01*
X96764425Y-92678248D01*
X96764426Y-92678241D01*
X96783870Y-92456001D01*
X96783870Y-92455998D01*
X96764426Y-92233758D01*
X96764425Y-92233751D01*
X96706685Y-92018263D01*
X96706681Y-92018252D01*
X96612401Y-91816068D01*
X96612400Y-91816066D01*
X96565074Y-91748477D01*
X95995128Y-92318424D01*
X95979245Y-92259147D01*
X95912102Y-92142853D01*
X95817147Y-92047898D01*
X95700853Y-91980755D01*
X95641574Y-91964871D01*
X96211521Y-91394924D01*
X96143928Y-91347596D01*
X96038978Y-91298658D01*
X95986538Y-91252486D01*
X95967386Y-91185293D01*
X95987601Y-91118411D01*
X96038978Y-91073894D01*
X96144186Y-91024835D01*
X96327007Y-90896822D01*
X96484822Y-90739007D01*
X96612835Y-90556186D01*
X96707156Y-90353913D01*
X96764920Y-90138334D01*
X96784372Y-89916000D01*
X96764920Y-89693666D01*
X96707156Y-89478087D01*
X96612835Y-89275814D01*
X96484822Y-89092993D01*
X96327007Y-88935178D01*
X96144186Y-88807165D01*
X95941913Y-88712844D01*
X95941909Y-88712843D01*
X95941905Y-88712841D01*
X95726339Y-88655081D01*
X95726329Y-88655079D01*
X95504001Y-88635628D01*
X95503999Y-88635628D01*
X95281670Y-88655079D01*
X95281660Y-88655081D01*
X95066094Y-88712841D01*
X95066087Y-88712843D01*
X95066087Y-88712844D01*
X94863814Y-88807165D01*
X94680993Y-88935178D01*
X94680991Y-88935179D01*
X94680988Y-88935182D01*
X94523182Y-89092988D01*
X94523179Y-89092991D01*
X94523178Y-89092993D01*
X94484025Y-89148909D01*
X94395164Y-89275814D01*
X94346382Y-89380430D01*
X94300210Y-89432869D01*
X94233016Y-89452021D01*
X94166135Y-89431805D01*
X94121618Y-89380430D01*
X94072835Y-89275814D01*
X94052983Y-89247463D01*
X93944822Y-89092993D01*
X93787007Y-88935178D01*
X93604186Y-88807165D01*
X93401913Y-88712844D01*
X93401909Y-88712843D01*
X93401905Y-88712841D01*
X93186339Y-88655081D01*
X93186329Y-88655079D01*
X92964001Y-88635628D01*
X92963999Y-88635628D01*
X92741670Y-88655079D01*
X92741660Y-88655081D01*
X92526094Y-88712841D01*
X92526087Y-88712843D01*
X92526087Y-88712844D01*
X92323814Y-88807165D01*
X92140993Y-88935178D01*
X92140991Y-88935179D01*
X92140988Y-88935182D01*
X91983182Y-89092988D01*
X91983179Y-89092991D01*
X91983178Y-89092993D01*
X91944025Y-89148909D01*
X91855164Y-89275814D01*
X91806382Y-89380430D01*
X91760210Y-89432869D01*
X91693016Y-89452021D01*
X91626135Y-89431805D01*
X91581618Y-89380430D01*
X91532835Y-89275814D01*
X91512983Y-89247463D01*
X91404822Y-89092993D01*
X91247007Y-88935178D01*
X91064186Y-88807165D01*
X90861913Y-88712844D01*
X90861909Y-88712843D01*
X90861905Y-88712841D01*
X90646339Y-88655081D01*
X90646329Y-88655079D01*
X90424001Y-88635628D01*
X90423999Y-88635628D01*
X90201670Y-88655079D01*
X90201660Y-88655081D01*
X89986094Y-88712841D01*
X89986087Y-88712843D01*
X89986087Y-88712844D01*
X89783814Y-88807165D01*
X89600993Y-88935178D01*
X89600991Y-88935179D01*
X89600988Y-88935182D01*
X89443182Y-89092988D01*
X89443179Y-89092991D01*
X89443178Y-89092993D01*
X89350361Y-89225549D01*
X89315165Y-89275814D01*
X89220845Y-89478085D01*
X89220841Y-89478094D01*
X89163081Y-89693660D01*
X89163080Y-89693667D01*
X89143628Y-89915999D01*
X85600000Y-89915999D01*
X85600000Y-87122000D01*
X107044540Y-87122000D01*
X107064326Y-87310256D01*
X107064327Y-87310259D01*
X107122818Y-87490277D01*
X107122821Y-87490284D01*
X107217467Y-87654216D01*
X107327019Y-87775885D01*
X107344129Y-87794888D01*
X107497265Y-87906148D01*
X107497270Y-87906151D01*
X107670192Y-87983142D01*
X107670197Y-87983144D01*
X107855354Y-88022500D01*
X107855355Y-88022500D01*
X107974068Y-88022500D01*
X108041107Y-88042185D01*
X108086862Y-88094989D01*
X108091999Y-88108182D01*
X108138818Y-88252277D01*
X108138821Y-88252284D01*
X108233467Y-88416216D01*
X108345957Y-88541148D01*
X108360129Y-88556888D01*
X108513265Y-88668148D01*
X108513270Y-88668151D01*
X108686192Y-88745142D01*
X108686197Y-88745144D01*
X108871354Y-88784500D01*
X108871355Y-88784500D01*
X108990068Y-88784500D01*
X109057107Y-88804185D01*
X109102862Y-88856989D01*
X109107999Y-88870182D01*
X109154818Y-89014277D01*
X109154821Y-89014284D01*
X109249467Y-89178216D01*
X109370401Y-89312526D01*
X109376129Y-89318888D01*
X109529265Y-89430148D01*
X109529270Y-89430151D01*
X109702192Y-89507142D01*
X109702197Y-89507144D01*
X109887354Y-89546500D01*
X109887355Y-89546500D01*
X110076644Y-89546500D01*
X110076646Y-89546500D01*
X110261803Y-89507144D01*
X110434730Y-89430151D01*
X110587871Y-89318888D01*
X110590788Y-89315647D01*
X110593600Y-89312526D01*
X110653087Y-89275879D01*
X110685748Y-89271500D01*
X112329607Y-89271500D01*
X112390029Y-89259481D01*
X112450452Y-89247463D01*
X112503357Y-89225549D01*
X112564286Y-89200312D01*
X112615509Y-89166084D01*
X112666733Y-89131858D01*
X112753858Y-89044733D01*
X112753859Y-89044731D01*
X112760925Y-89037665D01*
X112760927Y-89037661D01*
X113104771Y-88693819D01*
X113166094Y-88660334D01*
X113192452Y-88657500D01*
X113251644Y-88657500D01*
X113251646Y-88657500D01*
X113436803Y-88618144D01*
X113609730Y-88541151D01*
X113762871Y-88429888D01*
X113889533Y-88289216D01*
X113984179Y-88125284D01*
X114042674Y-87945256D01*
X114062460Y-87757000D01*
X114042674Y-87568744D01*
X113984179Y-87388716D01*
X113889533Y-87224784D01*
X113762871Y-87084112D01*
X113762867Y-87084109D01*
X113609734Y-86972851D01*
X113609729Y-86972848D01*
X113436807Y-86895857D01*
X113436802Y-86895855D01*
X113284226Y-86863425D01*
X113251646Y-86856500D01*
X113062354Y-86856500D01*
X113029897Y-86863398D01*
X112877197Y-86895855D01*
X112877192Y-86895857D01*
X112704270Y-86972848D01*
X112704265Y-86972851D01*
X112551132Y-87084109D01*
X112551129Y-87084111D01*
X112551129Y-87084112D01*
X112432493Y-87215870D01*
X112429279Y-87219440D01*
X112369792Y-87256088D01*
X112299935Y-87254757D01*
X112241887Y-87215870D01*
X112219198Y-87174784D01*
X112206182Y-87134724D01*
X112206180Y-87134720D01*
X112206179Y-87134716D01*
X112111533Y-86970784D01*
X111984871Y-86830112D01*
X111984870Y-86830111D01*
X111831734Y-86718851D01*
X111831729Y-86718848D01*
X111658807Y-86641857D01*
X111658802Y-86641855D01*
X111513001Y-86610865D01*
X111473646Y-86602500D01*
X111284354Y-86602500D01*
X111251897Y-86609398D01*
X111099197Y-86641855D01*
X111099192Y-86641857D01*
X110926270Y-86718848D01*
X110926265Y-86718851D01*
X110773131Y-86830110D01*
X110768300Y-86834460D01*
X110766994Y-86833009D01*
X110715409Y-86864773D01*
X110645552Y-86863425D01*
X110587514Y-86824525D01*
X110564844Y-86783461D01*
X110555182Y-86753724D01*
X110555180Y-86753720D01*
X110555179Y-86753716D01*
X110460533Y-86589784D01*
X110333871Y-86449112D01*
X110333870Y-86449111D01*
X110180734Y-86337851D01*
X110180729Y-86337848D01*
X110007807Y-86260857D01*
X110007802Y-86260855D01*
X109862001Y-86229865D01*
X109822646Y-86221500D01*
X109633354Y-86221500D01*
X109600897Y-86228398D01*
X109448197Y-86260855D01*
X109448192Y-86260857D01*
X109275270Y-86337848D01*
X109275265Y-86337851D01*
X109122130Y-86449110D01*
X109122126Y-86449114D01*
X109116400Y-86455474D01*
X109056913Y-86492121D01*
X109024252Y-86496500D01*
X108653748Y-86496500D01*
X108586709Y-86476815D01*
X108561600Y-86455474D01*
X108555873Y-86449114D01*
X108555869Y-86449110D01*
X108402734Y-86337851D01*
X108402729Y-86337848D01*
X108229807Y-86260857D01*
X108229802Y-86260855D01*
X108084001Y-86229865D01*
X108044646Y-86221500D01*
X107855354Y-86221500D01*
X107822897Y-86228398D01*
X107670197Y-86260855D01*
X107670192Y-86260857D01*
X107497270Y-86337848D01*
X107497265Y-86337851D01*
X107344129Y-86449111D01*
X107217466Y-86589785D01*
X107122821Y-86753715D01*
X107122818Y-86753722D01*
X107064668Y-86932692D01*
X107064326Y-86933744D01*
X107044540Y-87122000D01*
X85600000Y-87122000D01*
X85600000Y-83624000D01*
X85619685Y-83556961D01*
X85672489Y-83511206D01*
X85724000Y-83500000D01*
X94000000Y-83500000D01*
X94000000Y-81726394D01*
X120024500Y-81726394D01*
X120024500Y-81726397D01*
X120024500Y-93405215D01*
X120048535Y-93526048D01*
X120048540Y-93526065D01*
X120095685Y-93639884D01*
X120095690Y-93639893D01*
X120124970Y-93683712D01*
X120124971Y-93683714D01*
X120164141Y-93742336D01*
X120164144Y-93742340D01*
X120242181Y-93820377D01*
X120275666Y-93881700D01*
X120278500Y-93908058D01*
X120278500Y-95066910D01*
X120286129Y-95105266D01*
X120286129Y-95105275D01*
X120302535Y-95187750D01*
X120302539Y-95187765D01*
X120310801Y-95207708D01*
X120310802Y-95207714D01*
X120310803Y-95207714D01*
X120349686Y-95301588D01*
X120349687Y-95301590D01*
X120349688Y-95301591D01*
X120381462Y-95349142D01*
X120381463Y-95349145D01*
X120418138Y-95404033D01*
X120418144Y-95404041D01*
X120509586Y-95495483D01*
X120509608Y-95495503D01*
X121258181Y-96244076D01*
X121291666Y-96305399D01*
X121294500Y-96331757D01*
X121294500Y-99377312D01*
X121274815Y-99444351D01*
X121262650Y-99460284D01*
X121187466Y-99543784D01*
X121092821Y-99707715D01*
X121092818Y-99707722D01*
X121034327Y-99887740D01*
X121034326Y-99887744D01*
X121014540Y-100076000D01*
X121034326Y-100264256D01*
X121034327Y-100264259D01*
X121092818Y-100444277D01*
X121092821Y-100444284D01*
X121187467Y-100608216D01*
X121288568Y-100720500D01*
X121314129Y-100748888D01*
X121467265Y-100860148D01*
X121467270Y-100860151D01*
X121640192Y-100937142D01*
X121640197Y-100937144D01*
X121825354Y-100976500D01*
X121825355Y-100976500D01*
X121944068Y-100976500D01*
X122011107Y-100996185D01*
X122056862Y-101048989D01*
X122061999Y-101062182D01*
X122108818Y-101206277D01*
X122108821Y-101206284D01*
X122203467Y-101370216D01*
X122326178Y-101506500D01*
X122330129Y-101510888D01*
X122483265Y-101622148D01*
X122483270Y-101622151D01*
X122656192Y-101699142D01*
X122656197Y-101699144D01*
X122841354Y-101738500D01*
X122841355Y-101738500D01*
X123030644Y-101738500D01*
X123030646Y-101738500D01*
X123215803Y-101699144D01*
X123236534Y-101689913D01*
X123305782Y-101680628D01*
X123369059Y-101710256D01*
X123394356Y-101741192D01*
X123473467Y-101878216D01*
X123561857Y-101976383D01*
X123600129Y-102018888D01*
X123753265Y-102130148D01*
X123753270Y-102130151D01*
X123926192Y-102207142D01*
X123926197Y-102207144D01*
X124111354Y-102246500D01*
X124111355Y-102246500D01*
X124300644Y-102246500D01*
X124300646Y-102246500D01*
X124485803Y-102207144D01*
X124658730Y-102130151D01*
X124811871Y-102018888D01*
X124814788Y-102015647D01*
X124817600Y-102012526D01*
X124877087Y-101975879D01*
X124909748Y-101971500D01*
X127566252Y-101971500D01*
X127633291Y-101991185D01*
X127658400Y-102012526D01*
X127664126Y-102018885D01*
X127664130Y-102018889D01*
X127817265Y-102130148D01*
X127817270Y-102130151D01*
X127990192Y-102207142D01*
X127990197Y-102207144D01*
X128175354Y-102246500D01*
X128175355Y-102246500D01*
X128364644Y-102246500D01*
X128364646Y-102246500D01*
X128549803Y-102207144D01*
X128722730Y-102130151D01*
X128875871Y-102018888D01*
X129002533Y-101878216D01*
X129097179Y-101714284D01*
X129155674Y-101534256D01*
X129175460Y-101346000D01*
X129155674Y-101157744D01*
X129097179Y-100977716D01*
X129002533Y-100813784D01*
X128875871Y-100673112D01*
X128875870Y-100673111D01*
X128722734Y-100561851D01*
X128722729Y-100561848D01*
X128549807Y-100484857D01*
X128549802Y-100484855D01*
X128404001Y-100453865D01*
X128364646Y-100445500D01*
X128175354Y-100445500D01*
X128142897Y-100452398D01*
X127990197Y-100484855D01*
X127990192Y-100484857D01*
X127817270Y-100561848D01*
X127817265Y-100561851D01*
X127664130Y-100673110D01*
X127664126Y-100673114D01*
X127658400Y-100679474D01*
X127598913Y-100716121D01*
X127566252Y-100720500D01*
X124909748Y-100720500D01*
X124842709Y-100700815D01*
X124817600Y-100679474D01*
X124811873Y-100673114D01*
X124811869Y-100673110D01*
X124658734Y-100561851D01*
X124658729Y-100561848D01*
X124485807Y-100484857D01*
X124485800Y-100484855D01*
X124451827Y-100477634D01*
X124390345Y-100444442D01*
X124356568Y-100383279D01*
X124361220Y-100313565D01*
X124389924Y-100268665D01*
X125190771Y-99467819D01*
X125252094Y-99434334D01*
X125278452Y-99431500D01*
X125906397Y-99431500D01*
X125973436Y-99451185D01*
X126002250Y-99476835D01*
X126035116Y-99516883D01*
X126187460Y-99641909D01*
X126187467Y-99641913D01*
X126361266Y-99734811D01*
X126361269Y-99734811D01*
X126361273Y-99734814D01*
X126549868Y-99792024D01*
X126746000Y-99811341D01*
X126942132Y-99792024D01*
X127130727Y-99734814D01*
X127304538Y-99641910D01*
X127456883Y-99516883D01*
X127581910Y-99364538D01*
X127674814Y-99190727D01*
X127732024Y-99002132D01*
X127751341Y-98806000D01*
X127732024Y-98609868D01*
X127674814Y-98421273D01*
X127674811Y-98421269D01*
X127674811Y-98421266D01*
X127581913Y-98247467D01*
X127581909Y-98247460D01*
X127456883Y-98095116D01*
X127304539Y-97970090D01*
X127304532Y-97970086D01*
X127130733Y-97877188D01*
X127130727Y-97877186D01*
X126942132Y-97819976D01*
X126942129Y-97819975D01*
X126746000Y-97800659D01*
X126549870Y-97819975D01*
X126361266Y-97877188D01*
X126187467Y-97970086D01*
X126187460Y-97970090D01*
X126035116Y-98095116D01*
X126002250Y-98135165D01*
X125944505Y-98174499D01*
X125906397Y-98180500D01*
X124906389Y-98180500D01*
X124845971Y-98192518D01*
X124785548Y-98204537D01*
X124785543Y-98204538D01*
X124751546Y-98218620D01*
X124738397Y-98224067D01*
X124671718Y-98251685D01*
X124652571Y-98264479D01*
X124646190Y-98268743D01*
X124646189Y-98268744D01*
X124646188Y-98268743D01*
X124569266Y-98320142D01*
X124569265Y-98320143D01*
X124545100Y-98344309D01*
X124482142Y-98407267D01*
X124482139Y-98407270D01*
X122996820Y-99892588D01*
X122935497Y-99926073D01*
X122865805Y-99921089D01*
X122809872Y-99879217D01*
X122791208Y-99843224D01*
X122781355Y-99812900D01*
X122755983Y-99734811D01*
X122747182Y-99707724D01*
X122747180Y-99707720D01*
X122747179Y-99707716D01*
X122652533Y-99543784D01*
X122625664Y-99513943D01*
X122577350Y-99460284D01*
X122547120Y-99397292D01*
X122545500Y-99377312D01*
X122545500Y-97256741D01*
X122565185Y-97189702D01*
X122617989Y-97143947D01*
X122687147Y-97134003D01*
X122695266Y-97135448D01*
X122841354Y-97166500D01*
X122841355Y-97166500D01*
X123030644Y-97166500D01*
X123030646Y-97166500D01*
X123215803Y-97127144D01*
X123388730Y-97050151D01*
X123390776Y-97048664D01*
X123402452Y-97040182D01*
X123468258Y-97016702D01*
X123475337Y-97016500D01*
X126891770Y-97016500D01*
X126958809Y-97036185D01*
X126979451Y-97052819D01*
X128807578Y-98880947D01*
X128807585Y-98880953D01*
X128871258Y-98923497D01*
X128871260Y-98923498D01*
X128871263Y-98923500D01*
X128930505Y-98963084D01*
X128930506Y-98963084D01*
X128930507Y-98963085D01*
X129067082Y-99019656D01*
X129067087Y-99019658D01*
X129067091Y-99019658D01*
X129067092Y-99019659D01*
X129212079Y-99048500D01*
X129212082Y-99048500D01*
X129212083Y-99048500D01*
X129359917Y-99048500D01*
X130889091Y-99048500D01*
X130956130Y-99068185D01*
X130961976Y-99072182D01*
X131047265Y-99134148D01*
X131047270Y-99134151D01*
X131220192Y-99211142D01*
X131220197Y-99211144D01*
X131405354Y-99250500D01*
X131405355Y-99250500D01*
X131594644Y-99250500D01*
X131594646Y-99250500D01*
X131779803Y-99211144D01*
X131952730Y-99134151D01*
X132013532Y-99089976D01*
X132038024Y-99072182D01*
X132103830Y-99048702D01*
X132110909Y-99048500D01*
X135273770Y-99048500D01*
X135340809Y-99068185D01*
X135361451Y-99084819D01*
X136151431Y-99874798D01*
X136184916Y-99936121D01*
X136187750Y-99962479D01*
X136187750Y-100944168D01*
X136187750Y-100944170D01*
X136187749Y-100944170D01*
X136216590Y-101089157D01*
X136216593Y-101089167D01*
X136273162Y-101225738D01*
X136273169Y-101225751D01*
X136355298Y-101348665D01*
X136355301Y-101348669D01*
X136459830Y-101453198D01*
X136459834Y-101453201D01*
X136582748Y-101535330D01*
X136582761Y-101535337D01*
X136719332Y-101591906D01*
X136719337Y-101591908D01*
X136719341Y-101591908D01*
X136719342Y-101591909D01*
X136864329Y-101620750D01*
X136864332Y-101620750D01*
X137012168Y-101620750D01*
X137076486Y-101620750D01*
X137143525Y-101640435D01*
X137189280Y-101693239D01*
X137199224Y-101762397D01*
X137182025Y-101809846D01*
X137103189Y-101937659D01*
X137103185Y-101937668D01*
X137078380Y-102012526D01*
X137048001Y-102104203D01*
X137048001Y-102104204D01*
X137048000Y-102104204D01*
X137037500Y-102206983D01*
X137037500Y-102982001D01*
X137037501Y-102982019D01*
X137048000Y-103084796D01*
X137048001Y-103084799D01*
X137073394Y-103161429D01*
X137103186Y-103251334D01*
X137195288Y-103400656D01*
X137319344Y-103524712D01*
X137320894Y-103525668D01*
X137322653Y-103526753D01*
X137324445Y-103528746D01*
X137325011Y-103529193D01*
X137324934Y-103529289D01*
X137369379Y-103578699D01*
X137380603Y-103647661D01*
X137352761Y-103711744D01*
X137322665Y-103737826D01*
X137319660Y-103739679D01*
X137319655Y-103739683D01*
X137195684Y-103863654D01*
X137103643Y-104012875D01*
X137103641Y-104012880D01*
X137048494Y-104179302D01*
X137048493Y-104179309D01*
X137038000Y-104282013D01*
X137038000Y-104419500D01*
X141519999Y-104419500D01*
X141519999Y-104282028D01*
X141519998Y-104282013D01*
X141509505Y-104179302D01*
X141454358Y-104012880D01*
X141454356Y-104012875D01*
X141362315Y-103863654D01*
X141238344Y-103739683D01*
X141238341Y-103739681D01*
X141235339Y-103737829D01*
X141233713Y-103736021D01*
X141232677Y-103735202D01*
X141232817Y-103735024D01*
X141188617Y-103685880D01*
X141177397Y-103616917D01*
X141205243Y-103552836D01*
X141235344Y-103526754D01*
X141238656Y-103524712D01*
X141286377Y-103476990D01*
X141347698Y-103443506D01*
X141417389Y-103448490D01*
X141473323Y-103490361D01*
X141491763Y-103525668D01*
X141537641Y-103664119D01*
X141537643Y-103664124D01*
X141629684Y-103813345D01*
X141753654Y-103937315D01*
X141902875Y-104029356D01*
X141902880Y-104029358D01*
X142069302Y-104084505D01*
X142069309Y-104084506D01*
X142172019Y-104094999D01*
X142410699Y-104094999D01*
X142477739Y-104114683D01*
X142523494Y-104167487D01*
X142533438Y-104236646D01*
X142504413Y-104300201D01*
X142477531Y-104321682D01*
X142478280Y-104322803D01*
X142473214Y-104326187D01*
X142473214Y-104326188D01*
X142435013Y-104351714D01*
X142370768Y-104394640D01*
X142345909Y-104419500D01*
X142283642Y-104481767D01*
X142283639Y-104481770D01*
X141731681Y-105033727D01*
X141670358Y-105067212D01*
X141600666Y-105062228D01*
X141544733Y-105020356D01*
X141520316Y-104954892D01*
X141520000Y-104946046D01*
X141520000Y-104919500D01*
X140545000Y-104919500D01*
X140545000Y-105756999D01*
X140800171Y-105756999D01*
X140867210Y-105776684D01*
X140912965Y-105829488D01*
X140922909Y-105898646D01*
X140914733Y-105928447D01*
X140905399Y-105950984D01*
X140899520Y-105965177D01*
X140899516Y-105965186D01*
X140898537Y-105967547D01*
X140898536Y-105967551D01*
X140876462Y-106078532D01*
X140874500Y-106088394D01*
X140874500Y-107178409D01*
X140854815Y-107245448D01*
X140802011Y-107291203D01*
X140732853Y-107301147D01*
X140711496Y-107296115D01*
X140552697Y-107243494D01*
X140552690Y-107243493D01*
X140449986Y-107233000D01*
X140312500Y-107233000D01*
X140312500Y-110366000D01*
X140292815Y-110433039D01*
X140240011Y-110478794D01*
X140188500Y-110490000D01*
X139936500Y-110490000D01*
X139869461Y-110470315D01*
X139823706Y-110417511D01*
X139812500Y-110366000D01*
X139812500Y-107233000D01*
X139675027Y-107233000D01*
X139675012Y-107233001D01*
X139572302Y-107243494D01*
X139405880Y-107298641D01*
X139405875Y-107298643D01*
X139256654Y-107390684D01*
X139132683Y-107514655D01*
X139132679Y-107514660D01*
X139130826Y-107517665D01*
X139129018Y-107519290D01*
X139128202Y-107520323D01*
X139128025Y-107520183D01*
X139078874Y-107564385D01*
X139009911Y-107575601D01*
X138945831Y-107547752D01*
X138919753Y-107517653D01*
X138919737Y-107517628D01*
X138917712Y-107514344D01*
X138793656Y-107390288D01*
X138644334Y-107298186D01*
X138477797Y-107243001D01*
X138477795Y-107243000D01*
X138375010Y-107232500D01*
X137599998Y-107232500D01*
X137599980Y-107232501D01*
X137497203Y-107243000D01*
X137497200Y-107243001D01*
X137330668Y-107298185D01*
X137330663Y-107298187D01*
X137181342Y-107390289D01*
X137057289Y-107514342D01*
X136965187Y-107663663D01*
X136965185Y-107663668D01*
X136954464Y-107696023D01*
X136910001Y-107830203D01*
X136910001Y-107830204D01*
X136910000Y-107830204D01*
X136899500Y-107932983D01*
X136899500Y-108895000D01*
X136879815Y-108962039D01*
X136827011Y-109007794D01*
X136775500Y-109019000D01*
X135069748Y-109019000D01*
X135002709Y-108999315D01*
X134977600Y-108977974D01*
X134971873Y-108971614D01*
X134971869Y-108971610D01*
X134818734Y-108860351D01*
X134818729Y-108860348D01*
X134645807Y-108783357D01*
X134645802Y-108783355D01*
X134500001Y-108752365D01*
X134460646Y-108744000D01*
X134271354Y-108744000D01*
X134238897Y-108750898D01*
X134086197Y-108783355D01*
X134086192Y-108783357D01*
X133913270Y-108860348D01*
X133913265Y-108860351D01*
X133760129Y-108971611D01*
X133633466Y-109112285D01*
X133538821Y-109276215D01*
X133538818Y-109276222D01*
X133492759Y-109417979D01*
X133480326Y-109456244D01*
X133460540Y-109644500D01*
X133480326Y-109832756D01*
X133480327Y-109832759D01*
X133538818Y-110012777D01*
X133538821Y-110012784D01*
X133633467Y-110176716D01*
X133732859Y-110287102D01*
X133760129Y-110317388D01*
X133913265Y-110428648D01*
X133913270Y-110428651D01*
X134086192Y-110505642D01*
X134086197Y-110505644D01*
X134271354Y-110545000D01*
X134271355Y-110545000D01*
X134460644Y-110545000D01*
X134460646Y-110545000D01*
X134645803Y-110505644D01*
X134818730Y-110428651D01*
X134971871Y-110317388D01*
X134976123Y-110312666D01*
X134977600Y-110311026D01*
X135037087Y-110274379D01*
X135069748Y-110270000D01*
X136775500Y-110270000D01*
X136842539Y-110289685D01*
X136888294Y-110342489D01*
X136899500Y-110394000D01*
X136899500Y-110465269D01*
X136879815Y-110532308D01*
X136863181Y-110552950D01*
X136658451Y-110757681D01*
X136597128Y-110791166D01*
X136570770Y-110794000D01*
X136091581Y-110794000D01*
X136077636Y-110796774D01*
X136063691Y-110799548D01*
X136063690Y-110799548D01*
X135946595Y-110822839D01*
X135946592Y-110822840D01*
X135946588Y-110822841D01*
X135866580Y-110855981D01*
X135866578Y-110855981D01*
X135810006Y-110879415D01*
X135748677Y-110920394D01*
X135687082Y-110961549D01*
X135687079Y-110961552D01*
X134545052Y-112103578D01*
X134545049Y-112103581D01*
X134504154Y-112164785D01*
X134504155Y-112164786D01*
X134462914Y-112226508D01*
X134406343Y-112363082D01*
X134406340Y-112363092D01*
X134377500Y-112508079D01*
X134377500Y-114965677D01*
X134360887Y-115027677D01*
X134300821Y-115131714D01*
X134257574Y-115264815D01*
X134242326Y-115311744D01*
X134222540Y-115500000D01*
X134242326Y-115688256D01*
X134242327Y-115688259D01*
X134300818Y-115868277D01*
X134300821Y-115868284D01*
X134360887Y-115972321D01*
X134377500Y-116034321D01*
X134377500Y-116731770D01*
X134357815Y-116798809D01*
X134341181Y-116819451D01*
X133837451Y-117323181D01*
X133776128Y-117356666D01*
X133749770Y-117359500D01*
X122205337Y-117359500D01*
X122138298Y-117339815D01*
X122132452Y-117335818D01*
X122118734Y-117325851D01*
X122118729Y-117325848D01*
X121945807Y-117248857D01*
X121945802Y-117248855D01*
X121800001Y-117217865D01*
X121760646Y-117209500D01*
X121571354Y-117209500D01*
X121538897Y-117216398D01*
X121386197Y-117248855D01*
X121386192Y-117248857D01*
X121213270Y-117325848D01*
X121213265Y-117325851D01*
X121060129Y-117437111D01*
X120933466Y-117577785D01*
X120838821Y-117741715D01*
X120838818Y-117741722D01*
X120780327Y-117921740D01*
X120780326Y-117921744D01*
X120760540Y-118110000D01*
X120780326Y-118298256D01*
X120780327Y-118298259D01*
X120838818Y-118478277D01*
X120838821Y-118478284D01*
X120933467Y-118642216D01*
X121053101Y-118775083D01*
X121060129Y-118782888D01*
X121213265Y-118894148D01*
X121213270Y-118894151D01*
X121386192Y-118971142D01*
X121386197Y-118971144D01*
X121571354Y-119010500D01*
X121571355Y-119010500D01*
X121760644Y-119010500D01*
X121760646Y-119010500D01*
X121945803Y-118971144D01*
X122118730Y-118894151D01*
X122120776Y-118892664D01*
X122132452Y-118884182D01*
X122198258Y-118860702D01*
X122205337Y-118860500D01*
X134185920Y-118860500D01*
X134283462Y-118841096D01*
X134330913Y-118831658D01*
X134467495Y-118775084D01*
X134516729Y-118742186D01*
X134516734Y-118742183D01*
X134541071Y-118725921D01*
X134590416Y-118692952D01*
X135040319Y-118243049D01*
X135101642Y-118209564D01*
X135171334Y-118214548D01*
X135215681Y-118243049D01*
X135665586Y-118692954D01*
X135695058Y-118712645D01*
X135739270Y-118742186D01*
X135788505Y-118775084D01*
X135788506Y-118775084D01*
X135788507Y-118775085D01*
X135788509Y-118775086D01*
X135925082Y-118831656D01*
X135925087Y-118831658D01*
X135925091Y-118831658D01*
X135925092Y-118831659D01*
X136070079Y-118860500D01*
X136070082Y-118860500D01*
X143837920Y-118860500D01*
X143935462Y-118841096D01*
X143982913Y-118831658D01*
X144119495Y-118775084D01*
X144168729Y-118742186D01*
X144168734Y-118742183D01*
X144193071Y-118725921D01*
X144242416Y-118692952D01*
X147533978Y-115401388D01*
X147595299Y-115367905D01*
X147660662Y-115371365D01*
X147783305Y-115412005D01*
X147783309Y-115412006D01*
X147886019Y-115422499D01*
X148160999Y-115422499D01*
X148661000Y-115422499D01*
X148935972Y-115422499D01*
X148935986Y-115422498D01*
X149038697Y-115412005D01*
X149205119Y-115356858D01*
X149205124Y-115356856D01*
X149354345Y-115264815D01*
X149478315Y-115140845D01*
X149570356Y-114991624D01*
X149570358Y-114991619D01*
X149625505Y-114825197D01*
X149625506Y-114825190D01*
X149635999Y-114722486D01*
X149636000Y-114722473D01*
X149636000Y-114585000D01*
X148661000Y-114585000D01*
X148661000Y-115422499D01*
X148160999Y-115422499D01*
X148161000Y-115422498D01*
X148161000Y-114500000D01*
X153000000Y-114500000D01*
X157500000Y-114500000D01*
X157500000Y-114332844D01*
X174350000Y-114332844D01*
X174356401Y-114392372D01*
X174356403Y-114392379D01*
X174406645Y-114527086D01*
X174406649Y-114527093D01*
X174492809Y-114642187D01*
X174492812Y-114642190D01*
X174607906Y-114728350D01*
X174607913Y-114728354D01*
X174742620Y-114778596D01*
X174742627Y-114778598D01*
X174802155Y-114784999D01*
X174802172Y-114785000D01*
X175150000Y-114785000D01*
X175650000Y-114785000D01*
X175997828Y-114785000D01*
X175997844Y-114784999D01*
X176057372Y-114778598D01*
X176057379Y-114778596D01*
X176192086Y-114728354D01*
X176192093Y-114728350D01*
X176307187Y-114642190D01*
X176307190Y-114642187D01*
X176393350Y-114527093D01*
X176393354Y-114527086D01*
X176443596Y-114392379D01*
X176443598Y-114392372D01*
X176449999Y-114332844D01*
X176450000Y-114332827D01*
X176450000Y-114210000D01*
X175650000Y-114210000D01*
X175650000Y-114785000D01*
X175150000Y-114785000D01*
X175150000Y-114210000D01*
X174350000Y-114210000D01*
X174350000Y-114332844D01*
X157500000Y-114332844D01*
X157500000Y-113332844D01*
X169850000Y-113332844D01*
X169856401Y-113392372D01*
X169856403Y-113392379D01*
X169906645Y-113527086D01*
X169906649Y-113527093D01*
X169992809Y-113642187D01*
X169992812Y-113642190D01*
X170107906Y-113728350D01*
X170107913Y-113728354D01*
X170242620Y-113778596D01*
X170242627Y-113778598D01*
X170302155Y-113784999D01*
X170302172Y-113785000D01*
X170650000Y-113785000D01*
X171150000Y-113785000D01*
X171497828Y-113785000D01*
X171497844Y-113784999D01*
X171557372Y-113778598D01*
X171557379Y-113778596D01*
X171692086Y-113728354D01*
X171692093Y-113728350D01*
X171807187Y-113642190D01*
X171807190Y-113642187D01*
X171848387Y-113587155D01*
X174350000Y-113587155D01*
X174350000Y-113710000D01*
X175150000Y-113710000D01*
X175150000Y-113135000D01*
X174802155Y-113135000D01*
X174742627Y-113141401D01*
X174742620Y-113141403D01*
X174607913Y-113191645D01*
X174607906Y-113191649D01*
X174492812Y-113277809D01*
X174492809Y-113277812D01*
X174406649Y-113392906D01*
X174406645Y-113392913D01*
X174356403Y-113527620D01*
X174356401Y-113527627D01*
X174350000Y-113587155D01*
X171848387Y-113587155D01*
X171893350Y-113527093D01*
X171893354Y-113527086D01*
X171943596Y-113392379D01*
X171943598Y-113392372D01*
X171949999Y-113332844D01*
X171950000Y-113332827D01*
X171950000Y-113210000D01*
X171150000Y-113210000D01*
X171150000Y-113785000D01*
X170650000Y-113785000D01*
X170650000Y-113210000D01*
X169850000Y-113210000D01*
X169850000Y-113332844D01*
X157500000Y-113332844D01*
X157500000Y-112587155D01*
X169850000Y-112587155D01*
X169850000Y-112710000D01*
X170650000Y-112710000D01*
X170650000Y-112135000D01*
X170302155Y-112135000D01*
X170242627Y-112141401D01*
X170242620Y-112141403D01*
X170107913Y-112191645D01*
X170107906Y-112191649D01*
X169992812Y-112277809D01*
X169992809Y-112277812D01*
X169906649Y-112392906D01*
X169906645Y-112392913D01*
X169856403Y-112527620D01*
X169856401Y-112527627D01*
X169850000Y-112587155D01*
X157500000Y-112587155D01*
X157500000Y-111412844D01*
X169850000Y-111412844D01*
X169856401Y-111472372D01*
X169856403Y-111472379D01*
X169906645Y-111607086D01*
X169906649Y-111607093D01*
X169992809Y-111722187D01*
X169992812Y-111722190D01*
X170107906Y-111808350D01*
X170107913Y-111808354D01*
X170242620Y-111858596D01*
X170242627Y-111858598D01*
X170302155Y-111864999D01*
X170302172Y-111865000D01*
X170650000Y-111865000D01*
X170650000Y-111290000D01*
X171150000Y-111290000D01*
X171150000Y-111865000D01*
X171497828Y-111865000D01*
X171497844Y-111864999D01*
X171557372Y-111858598D01*
X171557379Y-111858596D01*
X171692086Y-111808354D01*
X171692089Y-111808352D01*
X171751188Y-111764111D01*
X171816652Y-111739693D01*
X171884926Y-111754544D01*
X171934331Y-111803949D01*
X171949500Y-111863377D01*
X171949500Y-112136623D01*
X171929815Y-112203662D01*
X171877011Y-112249417D01*
X171807853Y-112259361D01*
X171751188Y-112235889D01*
X171692089Y-112191647D01*
X171692086Y-112191645D01*
X171557379Y-112141403D01*
X171557372Y-112141401D01*
X171497844Y-112135000D01*
X171150000Y-112135000D01*
X171150000Y-112710000D01*
X171949999Y-112710000D01*
X171950709Y-112709290D01*
X172012031Y-112675804D01*
X172081723Y-112680788D01*
X172112702Y-112697704D01*
X172207664Y-112768793D01*
X172207671Y-112768797D01*
X172342517Y-112819091D01*
X172342516Y-112819091D01*
X172349444Y-112819835D01*
X172402127Y-112825500D01*
X173597872Y-112825499D01*
X173657483Y-112819091D01*
X173792331Y-112768796D01*
X173907546Y-112682546D01*
X173993796Y-112567331D01*
X174044091Y-112432483D01*
X174046202Y-112412844D01*
X174350000Y-112412844D01*
X174356401Y-112472372D01*
X174356403Y-112472379D01*
X174406645Y-112607086D01*
X174406649Y-112607093D01*
X174492809Y-112722187D01*
X174492812Y-112722190D01*
X174607906Y-112808350D01*
X174607913Y-112808354D01*
X174742620Y-112858596D01*
X174742627Y-112858598D01*
X174802155Y-112864999D01*
X174802172Y-112865000D01*
X175150000Y-112865000D01*
X175150000Y-112290000D01*
X174350000Y-112290000D01*
X174350000Y-112412844D01*
X174046202Y-112412844D01*
X174050500Y-112372873D01*
X174050499Y-111667155D01*
X174350000Y-111667155D01*
X174350000Y-111790000D01*
X175150000Y-111790000D01*
X175650000Y-111790000D01*
X176450000Y-111790000D01*
X176450000Y-111667172D01*
X176449999Y-111667155D01*
X176443598Y-111607627D01*
X176443596Y-111607620D01*
X176393354Y-111472913D01*
X176393350Y-111472906D01*
X176307190Y-111357812D01*
X176307187Y-111357809D01*
X176192093Y-111271649D01*
X176192086Y-111271645D01*
X176057379Y-111221403D01*
X176057372Y-111221401D01*
X175997844Y-111215000D01*
X175650000Y-111215000D01*
X175650000Y-111790000D01*
X175150000Y-111790000D01*
X175150000Y-111215000D01*
X174802155Y-111215000D01*
X174742627Y-111221401D01*
X174742620Y-111221403D01*
X174607913Y-111271645D01*
X174607906Y-111271649D01*
X174492812Y-111357809D01*
X174492809Y-111357812D01*
X174406649Y-111472906D01*
X174406645Y-111472913D01*
X174356403Y-111607620D01*
X174356401Y-111607627D01*
X174350000Y-111667155D01*
X174050499Y-111667155D01*
X174050499Y-111627128D01*
X174044091Y-111567517D01*
X174037616Y-111550157D01*
X173993797Y-111432671D01*
X173993793Y-111432664D01*
X173907547Y-111317455D01*
X173907544Y-111317452D01*
X173792335Y-111231206D01*
X173792330Y-111231203D01*
X173706166Y-111199066D01*
X173650233Y-111157194D01*
X173625816Y-111091730D01*
X173625500Y-111082884D01*
X173625500Y-109698687D01*
X173645185Y-109631648D01*
X173657350Y-109615715D01*
X173675891Y-109595122D01*
X173732533Y-109532216D01*
X173827179Y-109368284D01*
X173885674Y-109188256D01*
X173905460Y-109000000D01*
X173885674Y-108811744D01*
X173827179Y-108631716D01*
X173732533Y-108467784D01*
X173682659Y-108412393D01*
X173657350Y-108384284D01*
X173627120Y-108321292D01*
X173625500Y-108301312D01*
X173625500Y-108172016D01*
X173645185Y-108104977D01*
X173697989Y-108059222D01*
X173710488Y-108054313D01*
X173769334Y-108034814D01*
X173918656Y-107942712D01*
X174042712Y-107818656D01*
X174134814Y-107669334D01*
X174189999Y-107502797D01*
X174200500Y-107400009D01*
X174200499Y-106599992D01*
X174197676Y-106572361D01*
X174189999Y-106497203D01*
X174189998Y-106497200D01*
X174155606Y-106393413D01*
X174134814Y-106330666D01*
X174042712Y-106181344D01*
X173949049Y-106087681D01*
X173915564Y-106026358D01*
X173920548Y-105956666D01*
X173949049Y-105912319D01*
X173981793Y-105879575D01*
X174042712Y-105818656D01*
X174134814Y-105669334D01*
X174189999Y-105502797D01*
X174190000Y-105502779D01*
X174191328Y-105496583D01*
X174224608Y-105435149D01*
X174285819Y-105401459D01*
X174355527Y-105406210D01*
X174400263Y-105434855D01*
X174451263Y-105485855D01*
X174451267Y-105485858D01*
X174553707Y-105554307D01*
X174553713Y-105554310D01*
X174553714Y-105554311D01*
X174667548Y-105601463D01*
X174727971Y-105613481D01*
X174788393Y-105625500D01*
X174792123Y-105626242D01*
X174854034Y-105658628D01*
X174873469Y-105682763D01*
X174957287Y-105818655D01*
X175050951Y-105912319D01*
X175084436Y-105973642D01*
X175079452Y-106043334D01*
X175050951Y-106087681D01*
X174957289Y-106181342D01*
X174865187Y-106330663D01*
X174865185Y-106330668D01*
X174847606Y-106383718D01*
X174810001Y-106497203D01*
X174810001Y-106497204D01*
X174810000Y-106497204D01*
X174799500Y-106599983D01*
X174799500Y-107400001D01*
X174799501Y-107400019D01*
X174810000Y-107502796D01*
X174810001Y-107502799D01*
X174846227Y-107612119D01*
X174865186Y-107669334D01*
X174957288Y-107818656D01*
X175081344Y-107942712D01*
X175230666Y-108034814D01*
X175230668Y-108034815D01*
X175245363Y-108039684D01*
X175289502Y-108054310D01*
X175346947Y-108094081D01*
X175373772Y-108158596D01*
X175374500Y-108172016D01*
X175374500Y-108535611D01*
X175398535Y-108656444D01*
X175398540Y-108656461D01*
X175445685Y-108770280D01*
X175445687Y-108770283D01*
X175445688Y-108770286D01*
X175473387Y-108811740D01*
X175479914Y-108821507D01*
X175479915Y-108821509D01*
X175514140Y-108872731D01*
X175514141Y-108872732D01*
X175514142Y-108872733D01*
X175601267Y-108959858D01*
X175601268Y-108959858D01*
X175608335Y-108966925D01*
X175608334Y-108966925D01*
X175608338Y-108966928D01*
X176561038Y-109919629D01*
X176594523Y-109980952D01*
X176596678Y-109994348D01*
X176598616Y-110012784D01*
X176614326Y-110162256D01*
X176614327Y-110162259D01*
X176672818Y-110342277D01*
X176672821Y-110342284D01*
X176767467Y-110506216D01*
X176790961Y-110532308D01*
X176842650Y-110589715D01*
X176872880Y-110652706D01*
X176874500Y-110672687D01*
X176874500Y-112082884D01*
X176854815Y-112149923D01*
X176802011Y-112195678D01*
X176793834Y-112199066D01*
X176707669Y-112231203D01*
X176707668Y-112231204D01*
X176612702Y-112302296D01*
X176547238Y-112326713D01*
X176478965Y-112311861D01*
X176450710Y-112290710D01*
X176450000Y-112290000D01*
X175650000Y-112290000D01*
X175650000Y-112865000D01*
X175997828Y-112865000D01*
X175997844Y-112864999D01*
X176057372Y-112858598D01*
X176057379Y-112858596D01*
X176192086Y-112808354D01*
X176192089Y-112808352D01*
X176251188Y-112764111D01*
X176316652Y-112739693D01*
X176384926Y-112754544D01*
X176434331Y-112803949D01*
X176449500Y-112863377D01*
X176449500Y-113136623D01*
X176429815Y-113203662D01*
X176377011Y-113249417D01*
X176307853Y-113259361D01*
X176251188Y-113235889D01*
X176192089Y-113191647D01*
X176192086Y-113191645D01*
X176057379Y-113141403D01*
X176057372Y-113141401D01*
X175997844Y-113135000D01*
X175650000Y-113135000D01*
X175650000Y-113710000D01*
X176449999Y-113710000D01*
X176450709Y-113709290D01*
X176512031Y-113675804D01*
X176581723Y-113680788D01*
X176612702Y-113697704D01*
X176707664Y-113768793D01*
X176707671Y-113768797D01*
X176842517Y-113819091D01*
X176842516Y-113819091D01*
X176849444Y-113819835D01*
X176902127Y-113825500D01*
X178097872Y-113825499D01*
X178157483Y-113819091D01*
X178292331Y-113768796D01*
X178407546Y-113682546D01*
X178493796Y-113567331D01*
X178544091Y-113432483D01*
X178550500Y-113372873D01*
X178550499Y-112627128D01*
X178544091Y-112567517D01*
X178541978Y-112561853D01*
X178493797Y-112432671D01*
X178493793Y-112432664D01*
X178407547Y-112317455D01*
X178407544Y-112317452D01*
X178292335Y-112231206D01*
X178292330Y-112231203D01*
X178206166Y-112199066D01*
X178150233Y-112157194D01*
X178125816Y-112091730D01*
X178125500Y-112082884D01*
X178125500Y-110672687D01*
X178145185Y-110605648D01*
X178157350Y-110589715D01*
X178197611Y-110545000D01*
X178232533Y-110506216D01*
X178327179Y-110342284D01*
X178385674Y-110162256D01*
X178405460Y-109974000D01*
X178385674Y-109785744D01*
X178327179Y-109605716D01*
X178232533Y-109441784D01*
X178105871Y-109301112D01*
X178071613Y-109276222D01*
X177952734Y-109189851D01*
X177952729Y-109189848D01*
X177779807Y-109112857D01*
X177779802Y-109112855D01*
X177634001Y-109081865D01*
X177594646Y-109073500D01*
X177594645Y-109073500D01*
X177535453Y-109073500D01*
X177468414Y-109053815D01*
X177447772Y-109037181D01*
X176668180Y-108257589D01*
X176634695Y-108196266D01*
X176639679Y-108126574D01*
X176681551Y-108070641D01*
X176716855Y-108052203D01*
X176769334Y-108034814D01*
X176918656Y-107942712D01*
X177042712Y-107818656D01*
X177134814Y-107669334D01*
X177189999Y-107502797D01*
X177200500Y-107400009D01*
X177200499Y-106599992D01*
X177197676Y-106572361D01*
X177189999Y-106497203D01*
X177189998Y-106497200D01*
X177155606Y-106393413D01*
X177134814Y-106330666D01*
X177042712Y-106181344D01*
X176949049Y-106087681D01*
X176915564Y-106026358D01*
X176920548Y-105956666D01*
X176949049Y-105912319D01*
X176981793Y-105879575D01*
X177042712Y-105818656D01*
X177134814Y-105669334D01*
X177189999Y-105502797D01*
X177200500Y-105400009D01*
X177200499Y-104599992D01*
X177189999Y-104497203D01*
X177134814Y-104330666D01*
X177042712Y-104181344D01*
X176918656Y-104057288D01*
X176918655Y-104057287D01*
X176791078Y-103978598D01*
X176744353Y-103926650D01*
X176733130Y-103857688D01*
X176760973Y-103793606D01*
X176819042Y-103754749D01*
X176844026Y-103749656D01*
X176845605Y-103749500D01*
X176845607Y-103749500D01*
X176926076Y-103733494D01*
X176926077Y-103733494D01*
X176939782Y-103730767D01*
X176966452Y-103725463D01*
X176999792Y-103711652D01*
X177080286Y-103678312D01*
X177131509Y-103644084D01*
X177182733Y-103609858D01*
X177269858Y-103522733D01*
X177269858Y-103522731D01*
X177280066Y-103512524D01*
X177280067Y-103512521D01*
X180562772Y-100229819D01*
X180624095Y-100196334D01*
X180650453Y-100193500D01*
X183703608Y-100193500D01*
X183703608Y-100193499D01*
X183780476Y-100178210D01*
X183780477Y-100178210D01*
X183795268Y-100175267D01*
X183824452Y-100169463D01*
X183824457Y-100169460D01*
X183824460Y-100169460D01*
X183857787Y-100155654D01*
X183857786Y-100155654D01*
X183857792Y-100155652D01*
X183938286Y-100122312D01*
X184007595Y-100076000D01*
X184040733Y-100053858D01*
X184127858Y-99966733D01*
X184127859Y-99966731D01*
X184134925Y-99959665D01*
X184134928Y-99959661D01*
X185398729Y-98695860D01*
X185398733Y-98695858D01*
X185485858Y-98608733D01*
X185520084Y-98557509D01*
X185554312Y-98506286D01*
X185591916Y-98415500D01*
X185601463Y-98392452D01*
X185615846Y-98320140D01*
X185624655Y-98275857D01*
X185624658Y-98275857D01*
X185624658Y-98275837D01*
X185625500Y-98271607D01*
X185625500Y-98148393D01*
X185625500Y-96052394D01*
X185625499Y-96052391D01*
X185625499Y-96052386D01*
X185624655Y-96048146D01*
X185624651Y-96048130D01*
X185623427Y-96041975D01*
X185601463Y-95931549D01*
X185596073Y-95918537D01*
X185563068Y-95838854D01*
X185561083Y-95834063D01*
X185554313Y-95817716D01*
X185554310Y-95817712D01*
X185529207Y-95780142D01*
X185529207Y-95780143D01*
X185485858Y-95715266D01*
X185395637Y-95625045D01*
X185395606Y-95625016D01*
X184158999Y-94388409D01*
X184125514Y-94327086D01*
X184126906Y-94268632D01*
X184140919Y-94216338D01*
X184140919Y-94216337D01*
X184140920Y-94216334D01*
X184160372Y-93994000D01*
X184140920Y-93771666D01*
X184085384Y-93564401D01*
X184083158Y-93556094D01*
X184083157Y-93556093D01*
X184083156Y-93556087D01*
X183988835Y-93353814D01*
X183860822Y-93170993D01*
X183703007Y-93013178D01*
X183556750Y-92910767D01*
X183520185Y-92885164D01*
X183414977Y-92836105D01*
X183362538Y-92789932D01*
X183343386Y-92722739D01*
X183363602Y-92655858D01*
X183414979Y-92611340D01*
X183519936Y-92562398D01*
X183519941Y-92562395D01*
X183587521Y-92515075D01*
X183017574Y-91945128D01*
X183076853Y-91929245D01*
X183193147Y-91862102D01*
X183288102Y-91767147D01*
X183355245Y-91650853D01*
X183371128Y-91591574D01*
X183941075Y-92161521D01*
X183988395Y-92093941D01*
X183988401Y-92093931D01*
X184082681Y-91891747D01*
X184082685Y-91891736D01*
X184140425Y-91676248D01*
X184140426Y-91676241D01*
X184159870Y-91454001D01*
X184159870Y-91453998D01*
X184140426Y-91231758D01*
X184140425Y-91231751D01*
X184082685Y-91016263D01*
X184082681Y-91016252D01*
X183988401Y-90814068D01*
X183988400Y-90814066D01*
X183941074Y-90746477D01*
X183371128Y-91316424D01*
X183355245Y-91257147D01*
X183288102Y-91140853D01*
X183193147Y-91045898D01*
X183076853Y-90978755D01*
X183017574Y-90962871D01*
X183587521Y-90392924D01*
X183519928Y-90345596D01*
X183317747Y-90251318D01*
X183317736Y-90251314D01*
X183102248Y-90193574D01*
X183102241Y-90193573D01*
X182880002Y-90174130D01*
X182879998Y-90174130D01*
X182657758Y-90193573D01*
X182657751Y-90193574D01*
X182442263Y-90251314D01*
X182442252Y-90251318D01*
X182240064Y-90345600D01*
X182240062Y-90345601D01*
X182172478Y-90392923D01*
X182172477Y-90392924D01*
X182742425Y-90962871D01*
X182683147Y-90978755D01*
X182566853Y-91045898D01*
X182471898Y-91140853D01*
X182404755Y-91257147D01*
X182388871Y-91316424D01*
X181818924Y-90746477D01*
X181818923Y-90746478D01*
X181771602Y-90814061D01*
X181722658Y-90919022D01*
X181676486Y-90971461D01*
X181609292Y-90990613D01*
X181542411Y-90970397D01*
X181497894Y-90919022D01*
X181448835Y-90813814D01*
X181320822Y-90630993D01*
X181163007Y-90473178D01*
X180980186Y-90345165D01*
X180777913Y-90250844D01*
X180777909Y-90250843D01*
X180777905Y-90250841D01*
X180562339Y-90193081D01*
X180562329Y-90193079D01*
X180340001Y-90173628D01*
X180339999Y-90173628D01*
X180117670Y-90193079D01*
X180117660Y-90193081D01*
X179902094Y-90250841D01*
X179902087Y-90250843D01*
X179902087Y-90250844D01*
X179699814Y-90345165D01*
X179516993Y-90473178D01*
X179516991Y-90473179D01*
X179516988Y-90473182D01*
X179359182Y-90630988D01*
X179359179Y-90630991D01*
X179359178Y-90630993D01*
X179231165Y-90813814D01*
X179158150Y-90970397D01*
X179136845Y-91016085D01*
X179136841Y-91016094D01*
X179079081Y-91231660D01*
X179079079Y-91231670D01*
X179059628Y-91453999D01*
X179059628Y-91454000D01*
X179079079Y-91676329D01*
X179079081Y-91676339D01*
X179136841Y-91891905D01*
X179136843Y-91891909D01*
X179136844Y-91891913D01*
X179231165Y-92094186D01*
X179359178Y-92277007D01*
X179516993Y-92434822D01*
X179699186Y-92562395D01*
X179699814Y-92562835D01*
X179804430Y-92611618D01*
X179856869Y-92657790D01*
X179876021Y-92724984D01*
X179855805Y-92791865D01*
X179804430Y-92836382D01*
X179699814Y-92885164D01*
X179584370Y-92966000D01*
X179516993Y-93013178D01*
X179516991Y-93013179D01*
X179516988Y-93013182D01*
X179359182Y-93170988D01*
X179359179Y-93170991D01*
X179359178Y-93170993D01*
X179339658Y-93198871D01*
X179231165Y-93353814D01*
X179136845Y-93556085D01*
X179136841Y-93556094D01*
X179079081Y-93771660D01*
X179079079Y-93771670D01*
X179059628Y-93993999D01*
X179059628Y-93994000D01*
X179079079Y-94216329D01*
X179079081Y-94216339D01*
X179136841Y-94431905D01*
X179136843Y-94431909D01*
X179136844Y-94431913D01*
X179231165Y-94634186D01*
X179359178Y-94817007D01*
X179516993Y-94974822D01*
X179648511Y-95066912D01*
X179699814Y-95102835D01*
X179804430Y-95151618D01*
X179856869Y-95197790D01*
X179876021Y-95264984D01*
X179855805Y-95331865D01*
X179804430Y-95376382D01*
X179699814Y-95425164D01*
X179605559Y-95491163D01*
X179516993Y-95553178D01*
X179516991Y-95553179D01*
X179516988Y-95553182D01*
X179359182Y-95710988D01*
X179359179Y-95710991D01*
X179359178Y-95710993D01*
X179284450Y-95817715D01*
X179231165Y-95893814D01*
X179136845Y-96096085D01*
X179136841Y-96096094D01*
X179079081Y-96311660D01*
X179079079Y-96311670D01*
X179059628Y-96533999D01*
X179059628Y-96534000D01*
X179079079Y-96756329D01*
X179079081Y-96756339D01*
X179136841Y-96971905D01*
X179136843Y-96971909D01*
X179136844Y-96971913D01*
X179231165Y-97174186D01*
X179359178Y-97357007D01*
X179516993Y-97514822D01*
X179699814Y-97642835D01*
X179902087Y-97737156D01*
X180117666Y-97794920D01*
X180295533Y-97810481D01*
X180339999Y-97814372D01*
X180340000Y-97814372D01*
X180340001Y-97814372D01*
X180377055Y-97811130D01*
X180562334Y-97794920D01*
X180777913Y-97737156D01*
X180980186Y-97642835D01*
X181043378Y-97598587D01*
X181109582Y-97576261D01*
X181177349Y-97593271D01*
X181225163Y-97644219D01*
X181238500Y-97700163D01*
X181238500Y-98056500D01*
X181218815Y-98123539D01*
X181166011Y-98169294D01*
X181114500Y-98180500D01*
X179770389Y-98180500D01*
X179709971Y-98192518D01*
X179666743Y-98201116D01*
X179649546Y-98204537D01*
X179535716Y-98251687D01*
X179535707Y-98251692D01*
X179433268Y-98320140D01*
X179409100Y-98344309D01*
X179346142Y-98407267D01*
X179346139Y-98407270D01*
X176466229Y-101287181D01*
X176404906Y-101320666D01*
X176378548Y-101323500D01*
X173782054Y-101323500D01*
X173715015Y-101303815D01*
X173689906Y-101282474D01*
X173684179Y-101276114D01*
X173684175Y-101276110D01*
X173531040Y-101164851D01*
X173531035Y-101164848D01*
X173358113Y-101087857D01*
X173358108Y-101087855D01*
X173212307Y-101056865D01*
X173172952Y-101048500D01*
X172983660Y-101048500D01*
X172951203Y-101055398D01*
X172798503Y-101087855D01*
X172798498Y-101087857D01*
X172625576Y-101164848D01*
X172625571Y-101164851D01*
X172472435Y-101276111D01*
X172345772Y-101416785D01*
X172251127Y-101580715D01*
X172251124Y-101580722D01*
X172192633Y-101760740D01*
X172192632Y-101760744D01*
X172172846Y-101949000D01*
X172192632Y-102137256D01*
X172192633Y-102137259D01*
X172251124Y-102317277D01*
X172251127Y-102317284D01*
X172345772Y-102481215D01*
X172349591Y-102486471D01*
X172347545Y-102487957D01*
X172372876Y-102540716D01*
X172374500Y-102560719D01*
X172374500Y-103827983D01*
X172354815Y-103895022D01*
X172302011Y-103940777D01*
X172289510Y-103945686D01*
X172230666Y-103965186D01*
X172230663Y-103965187D01*
X172081342Y-104057289D01*
X171957289Y-104181342D01*
X171865187Y-104330663D01*
X171865185Y-104330668D01*
X171858211Y-104351714D01*
X171810001Y-104497203D01*
X171810001Y-104497204D01*
X171810000Y-104497204D01*
X171799500Y-104599983D01*
X171799500Y-105400001D01*
X171799501Y-105400019D01*
X171810000Y-105502796D01*
X171810001Y-105502799D01*
X171865185Y-105669331D01*
X171865187Y-105669336D01*
X171873469Y-105682763D01*
X171957287Y-105818655D01*
X171957289Y-105818657D01*
X172050951Y-105912319D01*
X172084436Y-105973642D01*
X172079452Y-106043334D01*
X172050951Y-106087681D01*
X171957289Y-106181342D01*
X171865187Y-106330663D01*
X171865185Y-106330668D01*
X171847606Y-106383718D01*
X171810001Y-106497203D01*
X171810001Y-106497204D01*
X171810000Y-106497204D01*
X171799500Y-106599983D01*
X171799500Y-107400001D01*
X171799501Y-107400019D01*
X171810000Y-107502796D01*
X171810001Y-107502799D01*
X171846227Y-107612119D01*
X171865186Y-107669334D01*
X171957288Y-107818656D01*
X172081344Y-107942712D01*
X172230666Y-108034814D01*
X172230668Y-108034815D01*
X172245363Y-108039684D01*
X172289502Y-108054310D01*
X172346947Y-108094081D01*
X172373772Y-108158596D01*
X172374500Y-108172016D01*
X172374500Y-108301312D01*
X172354815Y-108368351D01*
X172342650Y-108384284D01*
X172267466Y-108467784D01*
X172172821Y-108631715D01*
X172172818Y-108631722D01*
X172119766Y-108795000D01*
X172114326Y-108811744D01*
X172094540Y-109000000D01*
X172114326Y-109188256D01*
X172114327Y-109188259D01*
X172172818Y-109368277D01*
X172172821Y-109368284D01*
X172267467Y-109532216D01*
X172310772Y-109580310D01*
X172342650Y-109615715D01*
X172372880Y-109678706D01*
X172374500Y-109698687D01*
X172374500Y-111082884D01*
X172354815Y-111149923D01*
X172302011Y-111195678D01*
X172293834Y-111199066D01*
X172207669Y-111231203D01*
X172207668Y-111231204D01*
X172112702Y-111302296D01*
X172047238Y-111326713D01*
X171978965Y-111311861D01*
X171950710Y-111290710D01*
X171950000Y-111290000D01*
X171150000Y-111290000D01*
X170650000Y-111290000D01*
X169850000Y-111290000D01*
X169850000Y-111412844D01*
X157500000Y-111412844D01*
X157500000Y-110667155D01*
X169850000Y-110667155D01*
X169850000Y-110790000D01*
X170650000Y-110790000D01*
X171150000Y-110790000D01*
X171950000Y-110790000D01*
X171950000Y-110667172D01*
X171949999Y-110667155D01*
X171943598Y-110607627D01*
X171943596Y-110607620D01*
X171893354Y-110472913D01*
X171893350Y-110472906D01*
X171807190Y-110357812D01*
X171807187Y-110357809D01*
X171692093Y-110271649D01*
X171692086Y-110271645D01*
X171557379Y-110221403D01*
X171557372Y-110221401D01*
X171497844Y-110215000D01*
X171150000Y-110215000D01*
X171150000Y-110790000D01*
X170650000Y-110790000D01*
X170650000Y-110215000D01*
X170302155Y-110215000D01*
X170242627Y-110221401D01*
X170242620Y-110221403D01*
X170107913Y-110271645D01*
X170107906Y-110271649D01*
X169992812Y-110357809D01*
X169992809Y-110357812D01*
X169906649Y-110472906D01*
X169906645Y-110472913D01*
X169856403Y-110607620D01*
X169856401Y-110607627D01*
X169850000Y-110667155D01*
X157500000Y-110667155D01*
X157500000Y-110500000D01*
X153000000Y-110500000D01*
X153000000Y-114500000D01*
X148161000Y-114500000D01*
X148161000Y-114459000D01*
X148180685Y-114391961D01*
X148233489Y-114346206D01*
X148285000Y-114335000D01*
X148411000Y-114335000D01*
X148411000Y-114209000D01*
X148430685Y-114141961D01*
X148483489Y-114096206D01*
X148535000Y-114085000D01*
X149635999Y-114085000D01*
X149635999Y-113947528D01*
X149635998Y-113947513D01*
X149625505Y-113844802D01*
X149570358Y-113678380D01*
X149570356Y-113678375D01*
X149478315Y-113529154D01*
X149354344Y-113405183D01*
X149354341Y-113405181D01*
X149351339Y-113403329D01*
X149349713Y-113401521D01*
X149348677Y-113400702D01*
X149348817Y-113400524D01*
X149304617Y-113351380D01*
X149293397Y-113282417D01*
X149321243Y-113218336D01*
X149351344Y-113192254D01*
X149354656Y-113190212D01*
X149478712Y-113066156D01*
X149570814Y-112916834D01*
X149625999Y-112750297D01*
X149636500Y-112647509D01*
X149636499Y-112476228D01*
X149656183Y-112409189D01*
X149672813Y-112388552D01*
X150152770Y-111908595D01*
X150214091Y-111875112D01*
X150214427Y-111875039D01*
X150279803Y-111861144D01*
X150452730Y-111784151D01*
X150605871Y-111672888D01*
X150732533Y-111532216D01*
X150827179Y-111368284D01*
X150885674Y-111188256D01*
X150905460Y-111000000D01*
X150885674Y-110811744D01*
X150827179Y-110631716D01*
X150732533Y-110467784D01*
X150605871Y-110327112D01*
X150605870Y-110327111D01*
X150452734Y-110215851D01*
X150452729Y-110215848D01*
X150279807Y-110138857D01*
X150279802Y-110138855D01*
X150134001Y-110107865D01*
X150094646Y-110099500D01*
X149905354Y-110099500D01*
X149872897Y-110106398D01*
X149720197Y-110138855D01*
X149720192Y-110138857D01*
X149547270Y-110215848D01*
X149547265Y-110215851D01*
X149394129Y-110327111D01*
X149267466Y-110467785D01*
X149172821Y-110631715D01*
X149172819Y-110631719D01*
X149117478Y-110802041D01*
X149087228Y-110851403D01*
X148802950Y-111135681D01*
X148741627Y-111169166D01*
X148715269Y-111172000D01*
X147885998Y-111172000D01*
X147885980Y-111172001D01*
X147783203Y-111182500D01*
X147783200Y-111182501D01*
X147616668Y-111237685D01*
X147616663Y-111237687D01*
X147467342Y-111329789D01*
X147343289Y-111453842D01*
X147251185Y-111603167D01*
X147233026Y-111657965D01*
X147193252Y-111715409D01*
X147184212Y-111722060D01*
X147106267Y-111774141D01*
X147106263Y-111774144D01*
X147052229Y-111828180D01*
X146990906Y-111861666D01*
X146964547Y-111864500D01*
X146921230Y-111864500D01*
X146854191Y-111844815D01*
X146808436Y-111792011D01*
X146798492Y-111722853D01*
X146827517Y-111659297D01*
X146833549Y-111652819D01*
X146883202Y-111603166D01*
X146936212Y-111550156D01*
X147028314Y-111400834D01*
X147083499Y-111234297D01*
X147094000Y-111131509D01*
X147093999Y-110356492D01*
X147090004Y-110317388D01*
X147083499Y-110253703D01*
X147083498Y-110253700D01*
X147052978Y-110161598D01*
X147028314Y-110087166D01*
X146936212Y-109937844D01*
X146812156Y-109813788D01*
X146808842Y-109811743D01*
X146807046Y-109809748D01*
X146806489Y-109809307D01*
X146806564Y-109809211D01*
X146762118Y-109759797D01*
X146750897Y-109690834D01*
X146778740Y-109626752D01*
X146808848Y-109600665D01*
X146811842Y-109598818D01*
X146935815Y-109474845D01*
X147027856Y-109325624D01*
X147027858Y-109325619D01*
X147062857Y-109220000D01*
X167496540Y-109220000D01*
X167516326Y-109408256D01*
X167516327Y-109408259D01*
X167574818Y-109588277D01*
X167574821Y-109588284D01*
X167669467Y-109752216D01*
X167768500Y-109862203D01*
X167796129Y-109892888D01*
X167949265Y-110004148D01*
X167949270Y-110004151D01*
X168122192Y-110081142D01*
X168122197Y-110081144D01*
X168307354Y-110120500D01*
X168307355Y-110120500D01*
X168496644Y-110120500D01*
X168496646Y-110120500D01*
X168681803Y-110081144D01*
X168854730Y-110004151D01*
X169007871Y-109892888D01*
X169134533Y-109752216D01*
X169229179Y-109588284D01*
X169287674Y-109408256D01*
X169307460Y-109220000D01*
X169287674Y-109031744D01*
X169229179Y-108851716D01*
X169134533Y-108687784D01*
X169106321Y-108656451D01*
X169059350Y-108604284D01*
X169029120Y-108541292D01*
X169027500Y-108521312D01*
X169027500Y-102173757D01*
X169047185Y-102106718D01*
X169063819Y-102086076D01*
X171428076Y-99721819D01*
X171489399Y-99688334D01*
X171515757Y-99685500D01*
X174813607Y-99685500D01*
X174874029Y-99673481D01*
X174934452Y-99661463D01*
X174934455Y-99661461D01*
X174934458Y-99661461D01*
X174967787Y-99647654D01*
X174967786Y-99647654D01*
X174967792Y-99647652D01*
X175048286Y-99614312D01*
X175099509Y-99580084D01*
X175150733Y-99545858D01*
X175237858Y-99458733D01*
X175237859Y-99458731D01*
X175244925Y-99451665D01*
X175244928Y-99451661D01*
X176420729Y-98275860D01*
X176420733Y-98275858D01*
X176507858Y-98188733D01*
X176576311Y-98086286D01*
X176623463Y-97972452D01*
X176647500Y-97851606D01*
X176647500Y-84774394D01*
X176645523Y-84764457D01*
X176645523Y-84764452D01*
X176645522Y-84764453D01*
X176645522Y-84764452D01*
X176623463Y-84653549D01*
X176619344Y-84643606D01*
X176576311Y-84539714D01*
X176576310Y-84539712D01*
X176574079Y-84535537D01*
X176559841Y-84467133D01*
X176584846Y-84401891D01*
X176587568Y-84398450D01*
X176603910Y-84378538D01*
X176696814Y-84204727D01*
X176754024Y-84016132D01*
X176773341Y-83820000D01*
X176754024Y-83623868D01*
X176696814Y-83435273D01*
X176696811Y-83435269D01*
X176696811Y-83435266D01*
X176603913Y-83261467D01*
X176603909Y-83261460D01*
X176478883Y-83109116D01*
X176326539Y-82984090D01*
X176326532Y-82984086D01*
X176152733Y-82891188D01*
X176152727Y-82891186D01*
X175964132Y-82833976D01*
X175964129Y-82833975D01*
X175768000Y-82814659D01*
X175571870Y-82833975D01*
X175383266Y-82891188D01*
X175209467Y-82984086D01*
X175209460Y-82984090D01*
X175057116Y-83109116D01*
X174932090Y-83261460D01*
X174932086Y-83261467D01*
X174839188Y-83435266D01*
X174781975Y-83623870D01*
X174762659Y-83820000D01*
X174781975Y-84016129D01*
X174839188Y-84204733D01*
X174932086Y-84378532D01*
X174932090Y-84378539D01*
X175057115Y-84530882D01*
X175081153Y-84550609D01*
X175098225Y-84564620D01*
X175137560Y-84622364D01*
X175140762Y-84637741D01*
X175141311Y-84637632D01*
X175166535Y-84764444D01*
X175166536Y-84764449D01*
X175166537Y-84764451D01*
X175166537Y-84764452D01*
X175166540Y-84764460D01*
X175213685Y-84878280D01*
X175213686Y-84878282D01*
X175213688Y-84878286D01*
X175232751Y-84906815D01*
X175282141Y-84980732D01*
X175282144Y-84980736D01*
X175360181Y-85058773D01*
X175393666Y-85120096D01*
X175396500Y-85146454D01*
X175396500Y-97479548D01*
X175376815Y-97546587D01*
X175360181Y-97567229D01*
X174529229Y-98398181D01*
X174467906Y-98431666D01*
X174441548Y-98434500D01*
X171143694Y-98434500D01*
X171083276Y-98446518D01*
X171022853Y-98458537D01*
X171022848Y-98458538D01*
X170988851Y-98472620D01*
X170975702Y-98478067D01*
X170909024Y-98505685D01*
X170909020Y-98505688D01*
X170892221Y-98516913D01*
X170806573Y-98574140D01*
X170771981Y-98608733D01*
X170719447Y-98661267D01*
X170719444Y-98661270D01*
X168003270Y-101377444D01*
X168003267Y-101377447D01*
X167963930Y-101416784D01*
X167916142Y-101464571D01*
X167888126Y-101506501D01*
X167888125Y-101506502D01*
X167847690Y-101567013D01*
X167847688Y-101567018D01*
X167825299Y-101621068D01*
X167825300Y-101621069D01*
X167825300Y-101621070D01*
X167800631Y-101680628D01*
X167800537Y-101680854D01*
X167800535Y-101680861D01*
X167789070Y-101738498D01*
X167789071Y-101738499D01*
X167780792Y-101780124D01*
X167780791Y-101780129D01*
X167776500Y-101801698D01*
X167776500Y-108521312D01*
X167756815Y-108588351D01*
X167744650Y-108604284D01*
X167669466Y-108687784D01*
X167574821Y-108851715D01*
X167574818Y-108851722D01*
X167516327Y-109031740D01*
X167516326Y-109031744D01*
X167496540Y-109220000D01*
X147062857Y-109220000D01*
X147083005Y-109159197D01*
X147083006Y-109159190D01*
X147093499Y-109056486D01*
X147093500Y-109056473D01*
X147093500Y-108919000D01*
X145992500Y-108919000D01*
X145925461Y-108899315D01*
X145879706Y-108846511D01*
X145868500Y-108795000D01*
X145868500Y-108669000D01*
X145742500Y-108669000D01*
X145675461Y-108649315D01*
X145629706Y-108596511D01*
X145618500Y-108545000D01*
X145618500Y-108173000D01*
X145582319Y-108136819D01*
X145548834Y-108075496D01*
X145546000Y-108049138D01*
X145546000Y-107451500D01*
X146046000Y-107451500D01*
X146082181Y-107487681D01*
X146115666Y-107549004D01*
X146118500Y-107575362D01*
X146118500Y-108419000D01*
X147093499Y-108419000D01*
X147093499Y-108281528D01*
X147093498Y-108281513D01*
X147083005Y-108178802D01*
X147027858Y-108012380D01*
X147027856Y-108012375D01*
X146935815Y-107863154D01*
X146921463Y-107848802D01*
X146887978Y-107787479D01*
X146892962Y-107717787D01*
X146903606Y-107696023D01*
X146955355Y-107612126D01*
X146955358Y-107612119D01*
X147010505Y-107445697D01*
X147010506Y-107445690D01*
X147020999Y-107342986D01*
X147021000Y-107342973D01*
X147021000Y-107205500D01*
X146046000Y-107205500D01*
X146046000Y-107451500D01*
X145546000Y-107451500D01*
X145546000Y-107205500D01*
X144571001Y-107205500D01*
X144571001Y-107342986D01*
X144581494Y-107445697D01*
X144636641Y-107612119D01*
X144636643Y-107612124D01*
X144728684Y-107761345D01*
X144743036Y-107775697D01*
X144776521Y-107837020D01*
X144771537Y-107906712D01*
X144760893Y-107928476D01*
X144707119Y-108015656D01*
X144655171Y-108062380D01*
X144586208Y-108073601D01*
X144522126Y-108045758D01*
X144516351Y-108040479D01*
X144515346Y-108039684D01*
X144366124Y-107947643D01*
X144366119Y-107947641D01*
X144199697Y-107892494D01*
X144199690Y-107892493D01*
X144096986Y-107882000D01*
X143847000Y-107882000D01*
X143847000Y-108858000D01*
X143827315Y-108925039D01*
X143774511Y-108970794D01*
X143723000Y-108982000D01*
X143597000Y-108982000D01*
X143597000Y-109108000D01*
X143577315Y-109175039D01*
X143524511Y-109220794D01*
X143473000Y-109232000D01*
X142397001Y-109232000D01*
X142397001Y-109381986D01*
X142407494Y-109484697D01*
X142462641Y-109651119D01*
X142462643Y-109651124D01*
X142554684Y-109800345D01*
X142648304Y-109893965D01*
X142681789Y-109955288D01*
X142676805Y-110024980D01*
X142648305Y-110069327D01*
X142554287Y-110163345D01*
X142462187Y-110312663D01*
X142462185Y-110312668D01*
X142439075Y-110382411D01*
X142407001Y-110479203D01*
X142407001Y-110479204D01*
X142407000Y-110479204D01*
X142396500Y-110581983D01*
X142396500Y-111382001D01*
X142396501Y-111382019D01*
X142407000Y-111484796D01*
X142407001Y-111484799D01*
X142462185Y-111651331D01*
X142462187Y-111651336D01*
X142476297Y-111674212D01*
X142554288Y-111800656D01*
X142678344Y-111924712D01*
X142827666Y-112016814D01*
X142827668Y-112016815D01*
X142848110Y-112023588D01*
X142886502Y-112036310D01*
X142943947Y-112076081D01*
X142970772Y-112140596D01*
X142971500Y-112154016D01*
X142971500Y-112933916D01*
X142975649Y-112954775D01*
X142983518Y-112994335D01*
X142993146Y-113042740D01*
X142995537Y-113054759D01*
X142995537Y-113054760D01*
X143005784Y-113079496D01*
X143005785Y-113079500D01*
X143042685Y-113168586D01*
X143042687Y-113168589D01*
X143042688Y-113168592D01*
X143057134Y-113190212D01*
X143076914Y-113219813D01*
X143076915Y-113219815D01*
X143111140Y-113271037D01*
X143111141Y-113271038D01*
X143111142Y-113271039D01*
X143198267Y-113358164D01*
X143198268Y-113358164D01*
X143205335Y-113365231D01*
X143205334Y-113365231D01*
X143205338Y-113365234D01*
X144090385Y-114250282D01*
X144123870Y-114311605D01*
X144126025Y-114325001D01*
X144128254Y-114346206D01*
X144143673Y-114492909D01*
X144143674Y-114492912D01*
X144202165Y-114672930D01*
X144202168Y-114672937D01*
X144296814Y-114836869D01*
X144396803Y-114947918D01*
X144423476Y-114977541D01*
X144576612Y-115088801D01*
X144576617Y-115088804D01*
X144749539Y-115165795D01*
X144749544Y-115165797D01*
X144934701Y-115205153D01*
X144934702Y-115205153D01*
X145123991Y-115205153D01*
X145123993Y-115205153D01*
X145309150Y-115165797D01*
X145309152Y-115165795D01*
X145315334Y-115163788D01*
X145315945Y-115165670D01*
X145375870Y-115157627D01*
X145439152Y-115187245D01*
X145476374Y-115246375D01*
X145475720Y-115316241D01*
X145444756Y-115367875D01*
X143489451Y-117323181D01*
X143428128Y-117356666D01*
X143401770Y-117359500D01*
X136506230Y-117359500D01*
X136439191Y-117339815D01*
X136418549Y-117323181D01*
X135914819Y-116819451D01*
X135881334Y-116758128D01*
X135878500Y-116731770D01*
X135878500Y-116034321D01*
X135895113Y-115972321D01*
X135928090Y-115915203D01*
X135955179Y-115868284D01*
X136013674Y-115688256D01*
X136033460Y-115500000D01*
X136013674Y-115311744D01*
X135955179Y-115131716D01*
X135955178Y-115131714D01*
X135895113Y-115027677D01*
X135878500Y-114965677D01*
X135878500Y-112944229D01*
X135898185Y-112877190D01*
X135914819Y-112856548D01*
X136440048Y-112331319D01*
X136501371Y-112297834D01*
X136527729Y-112295000D01*
X137006920Y-112295000D01*
X137104462Y-112275596D01*
X137151913Y-112266158D01*
X137288495Y-112209584D01*
X137355540Y-112164786D01*
X137411416Y-112127452D01*
X137787049Y-111751816D01*
X137848370Y-111718333D01*
X137874729Y-111715499D01*
X137957547Y-111715499D01*
X138024586Y-111735184D01*
X138045228Y-111751818D01*
X138689016Y-112395606D01*
X138689045Y-112395637D01*
X138779263Y-112485855D01*
X138779267Y-112485858D01*
X138881707Y-112554307D01*
X138881713Y-112554310D01*
X138881714Y-112554311D01*
X138995548Y-112601463D01*
X139055971Y-112613481D01*
X139116393Y-112625500D01*
X140561607Y-112625500D01*
X140622029Y-112613481D01*
X140682452Y-112601463D01*
X140728112Y-112582549D01*
X140728115Y-112582549D01*
X140796281Y-112554314D01*
X140796280Y-112554314D01*
X140796286Y-112554312D01*
X140847509Y-112520084D01*
X140898733Y-112485858D01*
X140985858Y-112398733D01*
X140985858Y-112398731D01*
X140996066Y-112388524D01*
X140996067Y-112388521D01*
X141985858Y-111398733D01*
X142054312Y-111296285D01*
X142098748Y-111189006D01*
X142101463Y-111182452D01*
X142110766Y-111135681D01*
X142111596Y-111131511D01*
X142111596Y-111131507D01*
X142125501Y-111061606D01*
X142125501Y-110938393D01*
X142125501Y-110933283D01*
X142125500Y-110933257D01*
X142125500Y-108582013D01*
X142397000Y-108582013D01*
X142397000Y-108732000D01*
X143347000Y-108732000D01*
X143347000Y-107882000D01*
X143097029Y-107882000D01*
X143097012Y-107882001D01*
X142994302Y-107892494D01*
X142827880Y-107947641D01*
X142827875Y-107947643D01*
X142678654Y-108039684D01*
X142554684Y-108163654D01*
X142462643Y-108312875D01*
X142462641Y-108312880D01*
X142407494Y-108479302D01*
X142407493Y-108479309D01*
X142397000Y-108582013D01*
X142125500Y-108582013D01*
X142125500Y-106460452D01*
X142145185Y-106393413D01*
X142161819Y-106372771D01*
X142992271Y-105542319D01*
X143053594Y-105508834D01*
X143079952Y-105506000D01*
X144547652Y-105506000D01*
X144614691Y-105525685D01*
X144653189Y-105564901D01*
X144728288Y-105686656D01*
X144852344Y-105810712D01*
X144855628Y-105812737D01*
X144855653Y-105812753D01*
X144857445Y-105814746D01*
X144858011Y-105815193D01*
X144857934Y-105815289D01*
X144902379Y-105864699D01*
X144913603Y-105933661D01*
X144885761Y-105997744D01*
X144855665Y-106023826D01*
X144852660Y-106025679D01*
X144852655Y-106025683D01*
X144728684Y-106149654D01*
X144636643Y-106298875D01*
X144636641Y-106298880D01*
X144581494Y-106465302D01*
X144581493Y-106465309D01*
X144571000Y-106568013D01*
X144571000Y-106705500D01*
X147020999Y-106705500D01*
X147020999Y-106568028D01*
X147020998Y-106568013D01*
X147010505Y-106465302D01*
X146955358Y-106298880D01*
X146955356Y-106298875D01*
X146863315Y-106149654D01*
X146739344Y-106025683D01*
X146739341Y-106025681D01*
X146736339Y-106023829D01*
X146734713Y-106022021D01*
X146733677Y-106021202D01*
X146733817Y-106021024D01*
X146689617Y-105971880D01*
X146678397Y-105902917D01*
X146706243Y-105838836D01*
X146736344Y-105812754D01*
X146739656Y-105810712D01*
X146863712Y-105686656D01*
X146863715Y-105686650D01*
X146868193Y-105680989D01*
X146870015Y-105682430D01*
X146913665Y-105643175D01*
X146967248Y-105631000D01*
X148685420Y-105631000D01*
X148782962Y-105611596D01*
X148830413Y-105602158D01*
X148966995Y-105545584D01*
X149030034Y-105503463D01*
X149030037Y-105503460D01*
X149030039Y-105503460D01*
X149079839Y-105470185D01*
X149089916Y-105463452D01*
X150266771Y-104286595D01*
X150328092Y-104253112D01*
X150328448Y-104253034D01*
X150393803Y-104239144D01*
X150566730Y-104162151D01*
X150719871Y-104050888D01*
X150846533Y-103910216D01*
X150941179Y-103746284D01*
X150954198Y-103706213D01*
X150993634Y-103648540D01*
X151057992Y-103621341D01*
X151126839Y-103633254D01*
X151164278Y-103661559D01*
X151179362Y-103678312D01*
X151237899Y-103743324D01*
X151268129Y-103806316D01*
X151259503Y-103875651D01*
X151233430Y-103913977D01*
X149521909Y-105625500D01*
X148953269Y-106194140D01*
X148953267Y-106194142D01*
X148909705Y-106237703D01*
X148866144Y-106281264D01*
X148866142Y-106281267D01*
X148854374Y-106298880D01*
X148844692Y-106313370D01*
X148844691Y-106313370D01*
X148797690Y-106383709D01*
X148797685Y-106383718D01*
X148765902Y-106460452D01*
X148764347Y-106464207D01*
X148763891Y-106465309D01*
X148750537Y-106497545D01*
X148750535Y-106497553D01*
X148726500Y-106618389D01*
X148726500Y-107505312D01*
X148706815Y-107572351D01*
X148694650Y-107588284D01*
X148619466Y-107671784D01*
X148524821Y-107835715D01*
X148524818Y-107835722D01*
X148466327Y-108015740D01*
X148466326Y-108015744D01*
X148446540Y-108204000D01*
X148466326Y-108392256D01*
X148466327Y-108392259D01*
X148524818Y-108572277D01*
X148524821Y-108572284D01*
X148619467Y-108736216D01*
X148729122Y-108858000D01*
X148746129Y-108876888D01*
X148899265Y-108988148D01*
X148899270Y-108988151D01*
X149072192Y-109065142D01*
X149072197Y-109065144D01*
X149257354Y-109104500D01*
X149257355Y-109104500D01*
X149446644Y-109104500D01*
X149446646Y-109104500D01*
X149631803Y-109065144D01*
X149804730Y-108988151D01*
X149957871Y-108876888D01*
X150084533Y-108736216D01*
X150179179Y-108572284D01*
X150237674Y-108392256D01*
X150257460Y-108204000D01*
X150237674Y-108015744D01*
X150179179Y-107835716D01*
X150084533Y-107671784D01*
X150077221Y-107663663D01*
X150009350Y-107588284D01*
X149979120Y-107525292D01*
X149977500Y-107505312D01*
X149977500Y-106990452D01*
X149997185Y-106923413D01*
X150013819Y-106902771D01*
X152114772Y-104801819D01*
X152176095Y-104768334D01*
X152202453Y-104765500D01*
X158557607Y-104765500D01*
X158619655Y-104753158D01*
X158619656Y-104753158D01*
X158634454Y-104750214D01*
X158678452Y-104741463D01*
X158731357Y-104719549D01*
X158792286Y-104694312D01*
X158843509Y-104660084D01*
X158894733Y-104625858D01*
X158981858Y-104538733D01*
X158981859Y-104538731D01*
X158988925Y-104531665D01*
X158988927Y-104531661D01*
X165068771Y-98451819D01*
X165130094Y-98418334D01*
X165156452Y-98415500D01*
X166685607Y-98415500D01*
X166746029Y-98403481D01*
X166806452Y-98391463D01*
X166806455Y-98391461D01*
X166806458Y-98391461D01*
X166839787Y-98377654D01*
X166839786Y-98377654D01*
X166839792Y-98377652D01*
X166920286Y-98344312D01*
X166989595Y-98298000D01*
X167022733Y-98275858D01*
X167109858Y-98188733D01*
X167109859Y-98188731D01*
X167116925Y-98181665D01*
X167116928Y-98181661D01*
X167784729Y-97513860D01*
X167784733Y-97513858D01*
X167871858Y-97426733D01*
X167940311Y-97324286D01*
X167940312Y-97324285D01*
X167977010Y-97235688D01*
X167987463Y-97210452D01*
X168011500Y-97089606D01*
X168011500Y-82234394D01*
X167987463Y-82113548D01*
X167981210Y-82098452D01*
X167971527Y-82075074D01*
X167940313Y-81999716D01*
X167940312Y-81999714D01*
X167920755Y-81970446D01*
X167906084Y-81948490D01*
X167871858Y-81897267D01*
X167871857Y-81897266D01*
X167871856Y-81897264D01*
X167781637Y-81807045D01*
X167781606Y-81807016D01*
X166860198Y-80885608D01*
X166860178Y-80885586D01*
X166768736Y-80794144D01*
X166768728Y-80794138D01*
X166691322Y-80742417D01*
X166691320Y-80742415D01*
X166691320Y-80742416D01*
X166666286Y-80725688D01*
X166666284Y-80725687D01*
X166664032Y-80724483D01*
X166663073Y-80723541D01*
X166661220Y-80722303D01*
X166661454Y-80721951D01*
X166614190Y-80675518D01*
X166599087Y-80627279D01*
X166594024Y-80575871D01*
X166594024Y-80575870D01*
X166594024Y-80575868D01*
X166536814Y-80387273D01*
X166536811Y-80387269D01*
X166536811Y-80387266D01*
X166443913Y-80213467D01*
X166443909Y-80213460D01*
X166318883Y-80061116D01*
X166166539Y-79936090D01*
X166166532Y-79936086D01*
X165992733Y-79843188D01*
X165992727Y-79843186D01*
X165804132Y-79785976D01*
X165804129Y-79785975D01*
X165608000Y-79766659D01*
X165411870Y-79785975D01*
X165223266Y-79843188D01*
X165049467Y-79936086D01*
X165049460Y-79936090D01*
X164897116Y-80061116D01*
X164772090Y-80213460D01*
X164772086Y-80213467D01*
X164679188Y-80387266D01*
X164621975Y-80575870D01*
X164602659Y-80772000D01*
X164621975Y-80968129D01*
X164621976Y-80968132D01*
X164661234Y-81097549D01*
X164679188Y-81156733D01*
X164772086Y-81330532D01*
X164772090Y-81330539D01*
X164897116Y-81482883D01*
X165049460Y-81607909D01*
X165049467Y-81607913D01*
X165223266Y-81700811D01*
X165223269Y-81700811D01*
X165223273Y-81700814D01*
X165411868Y-81758024D01*
X165608000Y-81777341D01*
X165674055Y-81770834D01*
X165742697Y-81783852D01*
X165755094Y-81791133D01*
X165783543Y-81810142D01*
X165819714Y-81834311D01*
X165933548Y-81881463D01*
X166054388Y-81905499D01*
X166054392Y-81905500D01*
X166054393Y-81905500D01*
X166054394Y-81905500D01*
X166059548Y-81905500D01*
X166126587Y-81925185D01*
X166147229Y-81941819D01*
X166724181Y-82518771D01*
X166757666Y-82580094D01*
X166760500Y-82606452D01*
X166760500Y-96717548D01*
X166740815Y-96784587D01*
X166724181Y-96805229D01*
X166401229Y-97128181D01*
X166339906Y-97161666D01*
X166313548Y-97164500D01*
X164784389Y-97164500D01*
X164735700Y-97174185D01*
X164723971Y-97176518D01*
X164686259Y-97184019D01*
X164663550Y-97188536D01*
X164663548Y-97188537D01*
X164630207Y-97202347D01*
X164549718Y-97235685D01*
X164549709Y-97235690D01*
X164513555Y-97259849D01*
X164513554Y-97259850D01*
X164447267Y-97304141D01*
X164447263Y-97304144D01*
X164413181Y-97338227D01*
X164351858Y-97371712D01*
X164282166Y-97366728D01*
X164226233Y-97324856D01*
X164201816Y-97259392D01*
X164201500Y-97250546D01*
X164201500Y-95440687D01*
X164221185Y-95373648D01*
X164233350Y-95357715D01*
X164266666Y-95320713D01*
X164308533Y-95274216D01*
X164403179Y-95110284D01*
X164461674Y-94930256D01*
X164481460Y-94742000D01*
X164461674Y-94553744D01*
X164403179Y-94373716D01*
X164308533Y-94209784D01*
X164181871Y-94069112D01*
X164181870Y-94069111D01*
X164028734Y-93957851D01*
X164028729Y-93957848D01*
X163855807Y-93880857D01*
X163855802Y-93880855D01*
X163710001Y-93849865D01*
X163670646Y-93841500D01*
X163481354Y-93841500D01*
X163448897Y-93848398D01*
X163296197Y-93880855D01*
X163296192Y-93880857D01*
X163123270Y-93957848D01*
X163123265Y-93957851D01*
X162970129Y-94069111D01*
X162843466Y-94209785D01*
X162748821Y-94373715D01*
X162748818Y-94373722D01*
X162690643Y-94552767D01*
X162690326Y-94553744D01*
X162670540Y-94742000D01*
X162690326Y-94930256D01*
X162690327Y-94930259D01*
X162748818Y-95110277D01*
X162748821Y-95110284D01*
X162843467Y-95274216D01*
X162868113Y-95301588D01*
X162918650Y-95357715D01*
X162948880Y-95420706D01*
X162950500Y-95440687D01*
X162950500Y-97225547D01*
X162930815Y-97292586D01*
X162914181Y-97313228D01*
X160997020Y-99230388D01*
X160935697Y-99263873D01*
X160866005Y-99258889D01*
X160838048Y-99242803D01*
X160837601Y-99243473D01*
X160832532Y-99240086D01*
X160658733Y-99147188D01*
X160658727Y-99147186D01*
X160470132Y-99089976D01*
X160470129Y-99089975D01*
X160274000Y-99070659D01*
X160077870Y-99089975D01*
X159889266Y-99147188D01*
X159715467Y-99240086D01*
X159715460Y-99240090D01*
X159563116Y-99365116D01*
X159530250Y-99405165D01*
X159472505Y-99444499D01*
X159434397Y-99450500D01*
X158180389Y-99450500D01*
X158059553Y-99474535D01*
X158059541Y-99474539D01*
X158027262Y-99487909D01*
X158012397Y-99494067D01*
X157945719Y-99521685D01*
X157945717Y-99521686D01*
X157843266Y-99590141D01*
X157843263Y-99590144D01*
X156496267Y-100937142D01*
X156065269Y-101368140D01*
X156065267Y-101368142D01*
X156021704Y-101411704D01*
X155978142Y-101455266D01*
X155968177Y-101470181D01*
X155949729Y-101497790D01*
X155909690Y-101557710D01*
X155909685Y-101557719D01*
X155895524Y-101591908D01*
X155865545Y-101664288D01*
X155865545Y-101664289D01*
X155862537Y-101671549D01*
X155862536Y-101671550D01*
X155847225Y-101748526D01*
X155840941Y-101780128D01*
X155839309Y-101788331D01*
X155839305Y-101788347D01*
X155838500Y-101792386D01*
X155838500Y-102425312D01*
X155818815Y-102492351D01*
X155806650Y-102508284D01*
X155731466Y-102591784D01*
X155636821Y-102755715D01*
X155636818Y-102755722D01*
X155579234Y-102932949D01*
X155578326Y-102935744D01*
X155562660Y-103084797D01*
X155558540Y-103124000D01*
X155571736Y-103249560D01*
X155578326Y-103312256D01*
X155591299Y-103352182D01*
X155593294Y-103422022D01*
X155557214Y-103481855D01*
X155494513Y-103512684D01*
X155473368Y-103514500D01*
X155168632Y-103514500D01*
X155101593Y-103494815D01*
X155055838Y-103442011D01*
X155045894Y-103372853D01*
X155050699Y-103352186D01*
X155063674Y-103312256D01*
X155083460Y-103124000D01*
X155063674Y-102935744D01*
X155005179Y-102755716D01*
X154910533Y-102591784D01*
X154835350Y-102508284D01*
X154805120Y-102445292D01*
X154803500Y-102425312D01*
X154803500Y-97338452D01*
X154823185Y-97271413D01*
X154839819Y-97250771D01*
X158554593Y-93535998D01*
X162283857Y-89806734D01*
X162352311Y-89704286D01*
X162356710Y-89693666D01*
X162399463Y-89590452D01*
X162411481Y-89530029D01*
X162423500Y-89469607D01*
X162423500Y-89346394D01*
X162423500Y-82234394D01*
X162399463Y-82113548D01*
X162356891Y-82010771D01*
X162352312Y-81999716D01*
X162352307Y-81999707D01*
X162283858Y-81897267D01*
X162254240Y-81867649D01*
X162196733Y-81810142D01*
X162196732Y-81810141D01*
X162021119Y-81634528D01*
X161987634Y-81573205D01*
X161992618Y-81503513D01*
X162012943Y-81468187D01*
X162125910Y-81330538D01*
X162199527Y-81192810D01*
X162218811Y-81156733D01*
X162218811Y-81156732D01*
X162218814Y-81156727D01*
X162276024Y-80968132D01*
X162295341Y-80772000D01*
X162276024Y-80575868D01*
X162218814Y-80387273D01*
X162218811Y-80387269D01*
X162218811Y-80387266D01*
X162125913Y-80213467D01*
X162125909Y-80213460D01*
X162000883Y-80061116D01*
X161848539Y-79936090D01*
X161848532Y-79936086D01*
X161674733Y-79843188D01*
X161674727Y-79843186D01*
X161486132Y-79785976D01*
X161486129Y-79785975D01*
X161290000Y-79766659D01*
X161093870Y-79785975D01*
X160905266Y-79843188D01*
X160731467Y-79936086D01*
X160731460Y-79936090D01*
X160579116Y-80061116D01*
X160454090Y-80213460D01*
X160454086Y-80213467D01*
X160361188Y-80387266D01*
X160303975Y-80575870D01*
X160284659Y-80772000D01*
X160303975Y-80968129D01*
X160303976Y-80968132D01*
X160343234Y-81097549D01*
X160361188Y-81156733D01*
X160454086Y-81330532D01*
X160454090Y-81330539D01*
X160579117Y-81482884D01*
X160619163Y-81515748D01*
X160658499Y-81573493D01*
X160664500Y-81611602D01*
X160664500Y-81849609D01*
X160673979Y-81897261D01*
X160673980Y-81897267D01*
X160681033Y-81932730D01*
X160688535Y-81970446D01*
X160735688Y-82084286D01*
X160735690Y-82084290D01*
X160755241Y-82113549D01*
X160755242Y-82113550D01*
X160804140Y-82186731D01*
X160804141Y-82186732D01*
X160804142Y-82186733D01*
X160891267Y-82273858D01*
X160891268Y-82273858D01*
X160898335Y-82280925D01*
X160898334Y-82280925D01*
X160898338Y-82280928D01*
X161136181Y-82518771D01*
X161169666Y-82580094D01*
X161172500Y-82606452D01*
X161172500Y-89097547D01*
X161152815Y-89164586D01*
X161136181Y-89185228D01*
X153692144Y-96629264D01*
X153692138Y-96629272D01*
X153623690Y-96731708D01*
X153623689Y-96731710D01*
X153598928Y-96791487D01*
X153598929Y-96791488D01*
X153582205Y-96831865D01*
X153576539Y-96845542D01*
X153576537Y-96845548D01*
X153576537Y-96845549D01*
X153558163Y-96937928D01*
X153556620Y-96945685D01*
X153556619Y-96945690D01*
X153552500Y-96966394D01*
X153552500Y-97301155D01*
X153532815Y-97368194D01*
X153480011Y-97413949D01*
X153410853Y-97423893D01*
X153370048Y-97410514D01*
X153292731Y-97369188D01*
X153292730Y-97369187D01*
X153292727Y-97369186D01*
X153123483Y-97317846D01*
X153104129Y-97311975D01*
X152908000Y-97292659D01*
X152711870Y-97311975D01*
X152523266Y-97369188D01*
X152349467Y-97462086D01*
X152349460Y-97462090D01*
X152197116Y-97587116D01*
X152164250Y-97627165D01*
X152106505Y-97666499D01*
X152068397Y-97672500D01*
X151371500Y-97672500D01*
X151304461Y-97652815D01*
X151258706Y-97600011D01*
X151247500Y-97548500D01*
X151247500Y-95694687D01*
X151267185Y-95627648D01*
X151279350Y-95611715D01*
X151297891Y-95591122D01*
X151354533Y-95528216D01*
X151449179Y-95364284D01*
X151507674Y-95184256D01*
X151527460Y-94996000D01*
X151507674Y-94807744D01*
X151449179Y-94627716D01*
X151354533Y-94463784D01*
X151227871Y-94323112D01*
X151195708Y-94299744D01*
X151074734Y-94211851D01*
X151074729Y-94211848D01*
X150901807Y-94134857D01*
X150901802Y-94134855D01*
X150756001Y-94103865D01*
X150716646Y-94095500D01*
X150527354Y-94095500D01*
X150494897Y-94102398D01*
X150342197Y-94134855D01*
X150342192Y-94134857D01*
X150169270Y-94211848D01*
X150163637Y-94215101D01*
X150162145Y-94212517D01*
X150108483Y-94231617D01*
X150040441Y-94215739D01*
X149991785Y-94165595D01*
X149977500Y-94107814D01*
X149977500Y-82098452D01*
X149997185Y-82031413D01*
X150013819Y-82010771D01*
X150590771Y-81433819D01*
X150652094Y-81400334D01*
X150678452Y-81397500D01*
X151306397Y-81397500D01*
X151373436Y-81417185D01*
X151402250Y-81442835D01*
X151435116Y-81482883D01*
X151587460Y-81607909D01*
X151587467Y-81607913D01*
X151761266Y-81700811D01*
X151761269Y-81700811D01*
X151761273Y-81700814D01*
X151949868Y-81758024D01*
X152146000Y-81777341D01*
X152342132Y-81758024D01*
X152530727Y-81700814D01*
X152704538Y-81607910D01*
X152856883Y-81482883D01*
X152981910Y-81330538D01*
X153055527Y-81192810D01*
X153074811Y-81156733D01*
X153074811Y-81156732D01*
X153074814Y-81156727D01*
X153132024Y-80968132D01*
X153151341Y-80772000D01*
X153132024Y-80575868D01*
X153074814Y-80387273D01*
X153074811Y-80387269D01*
X153074811Y-80387266D01*
X152981913Y-80213467D01*
X152981909Y-80213460D01*
X152856883Y-80061116D01*
X152704539Y-79936090D01*
X152704532Y-79936086D01*
X152530733Y-79843188D01*
X152530727Y-79843186D01*
X152342132Y-79785976D01*
X152342129Y-79785975D01*
X152146000Y-79766659D01*
X151949870Y-79785975D01*
X151761266Y-79843188D01*
X151587467Y-79936086D01*
X151587460Y-79936090D01*
X151435116Y-80061116D01*
X151402250Y-80101165D01*
X151344505Y-80140499D01*
X151306397Y-80146500D01*
X150306389Y-80146500D01*
X150245971Y-80158518D01*
X150208259Y-80166019D01*
X150185550Y-80170536D01*
X150185548Y-80170537D01*
X150152207Y-80184347D01*
X150071719Y-80217684D01*
X150071705Y-80217692D01*
X149969272Y-80286138D01*
X149969264Y-80286144D01*
X148953267Y-81302142D01*
X148953265Y-81302144D01*
X148931679Y-81323729D01*
X148870355Y-81357213D01*
X148800664Y-81352227D01*
X148756320Y-81323729D01*
X148725524Y-81292933D01*
X148725523Y-81292932D01*
X148355983Y-80923393D01*
X148322499Y-80862071D01*
X148320262Y-80823562D01*
X148325341Y-80772000D01*
X148306024Y-80575868D01*
X148248814Y-80387273D01*
X148248811Y-80387269D01*
X148248811Y-80387266D01*
X148155913Y-80213467D01*
X148155909Y-80213460D01*
X148030883Y-80061116D01*
X147878539Y-79936090D01*
X147878532Y-79936086D01*
X147704733Y-79843188D01*
X147704727Y-79843186D01*
X147516132Y-79785976D01*
X147516129Y-79785975D01*
X147320000Y-79766659D01*
X147123870Y-79785975D01*
X146935266Y-79843188D01*
X146761467Y-79936086D01*
X146761460Y-79936090D01*
X146609116Y-80061116D01*
X146484090Y-80213460D01*
X146484086Y-80213467D01*
X146391188Y-80387266D01*
X146333975Y-80575870D01*
X146314659Y-80772000D01*
X146333975Y-80968129D01*
X146333976Y-80968132D01*
X146373234Y-81097549D01*
X146391188Y-81156733D01*
X146484086Y-81330532D01*
X146484090Y-81330539D01*
X146609116Y-81482883D01*
X146761460Y-81607909D01*
X146761467Y-81607913D01*
X146935266Y-81700811D01*
X146935269Y-81700811D01*
X146935273Y-81700814D01*
X147123868Y-81758024D01*
X147320000Y-81777341D01*
X147371560Y-81772262D01*
X147440203Y-81785280D01*
X147471394Y-81807984D01*
X147664972Y-82001562D01*
X147698457Y-82062885D01*
X147701291Y-82089243D01*
X147701291Y-84897607D01*
X147708117Y-84931923D01*
X147710500Y-84956115D01*
X147710500Y-97345312D01*
X147690815Y-97412351D01*
X147678650Y-97428284D01*
X147603466Y-97511784D01*
X147508821Y-97675715D01*
X147508818Y-97675722D01*
X147451670Y-97851607D01*
X147450326Y-97855744D01*
X147430540Y-98044000D01*
X147450326Y-98232256D01*
X147450327Y-98232259D01*
X147508818Y-98412277D01*
X147508821Y-98412284D01*
X147603467Y-98576216D01*
X147711195Y-98695860D01*
X147730129Y-98716888D01*
X147883265Y-98828148D01*
X147883270Y-98828151D01*
X148056192Y-98905142D01*
X148056197Y-98905144D01*
X148241354Y-98944500D01*
X148241355Y-98944500D01*
X148430644Y-98944500D01*
X148430646Y-98944500D01*
X148615803Y-98905144D01*
X148788730Y-98828151D01*
X148941871Y-98716888D01*
X149068533Y-98576216D01*
X149069731Y-98574142D01*
X149148452Y-98437792D01*
X149199018Y-98389576D01*
X149267625Y-98376352D01*
X149332490Y-98402320D01*
X149343520Y-98412110D01*
X151230181Y-100298771D01*
X151263666Y-100360094D01*
X151266500Y-100386452D01*
X151266500Y-102425312D01*
X151246815Y-102492351D01*
X151234650Y-102508284D01*
X151159466Y-102591784D01*
X151064821Y-102755715D01*
X151064819Y-102755719D01*
X151051801Y-102795786D01*
X151012363Y-102853461D01*
X150948004Y-102880659D01*
X150879158Y-102868744D01*
X150841720Y-102840439D01*
X150803067Y-102797511D01*
X150719871Y-102705112D01*
X150719870Y-102705111D01*
X150566734Y-102593851D01*
X150566729Y-102593848D01*
X150393807Y-102516857D01*
X150393802Y-102516855D01*
X150248001Y-102485865D01*
X150208646Y-102477500D01*
X150019354Y-102477500D01*
X149986897Y-102484398D01*
X149834197Y-102516855D01*
X149834192Y-102516857D01*
X149661270Y-102593848D01*
X149661265Y-102593851D01*
X149508129Y-102705111D01*
X149381466Y-102845785D01*
X149286821Y-103009715D01*
X149286819Y-103009719D01*
X149231479Y-103180039D01*
X149201229Y-103229401D01*
X148336951Y-104093681D01*
X148275628Y-104127166D01*
X148249270Y-104130000D01*
X146967248Y-104130000D01*
X146900209Y-104110315D01*
X146869468Y-104079002D01*
X146868193Y-104080011D01*
X146863711Y-104074343D01*
X146739657Y-103950289D01*
X146739656Y-103950288D01*
X146590334Y-103858186D01*
X146581833Y-103855369D01*
X146524390Y-103815596D01*
X146506279Y-103785116D01*
X146502125Y-103775087D01*
X146461084Y-103676005D01*
X146419352Y-103613548D01*
X146419352Y-103613547D01*
X146378950Y-103553081D01*
X145758818Y-102932949D01*
X145725333Y-102871626D01*
X145722499Y-102845268D01*
X145722499Y-102344998D01*
X145722498Y-102344981D01*
X145711999Y-102242203D01*
X145711998Y-102242200D01*
X145705567Y-102222792D01*
X145656814Y-102075666D01*
X145564712Y-101926344D01*
X145440656Y-101802288D01*
X145318902Y-101727190D01*
X145272179Y-101675243D01*
X145260000Y-101621652D01*
X145260000Y-99958822D01*
X145279685Y-99891783D01*
X145291851Y-99875849D01*
X145292797Y-99874798D01*
X145318533Y-99846216D01*
X145413179Y-99682284D01*
X145471674Y-99502256D01*
X145491460Y-99314000D01*
X145471674Y-99125744D01*
X145413179Y-98945716D01*
X145318533Y-98781784D01*
X145191871Y-98641112D01*
X145159708Y-98617744D01*
X145038734Y-98529851D01*
X145038729Y-98529848D01*
X144865807Y-98452857D01*
X144865802Y-98452855D01*
X144703388Y-98418334D01*
X144680646Y-98413500D01*
X144491354Y-98413500D01*
X144468612Y-98418334D01*
X144306197Y-98452855D01*
X144306192Y-98452857D01*
X144133270Y-98529848D01*
X144133266Y-98529851D01*
X144056829Y-98585385D01*
X143991023Y-98608864D01*
X143922969Y-98593038D01*
X143874275Y-98542932D01*
X143866014Y-98523383D01*
X143838182Y-98437724D01*
X143838180Y-98437720D01*
X143838179Y-98437716D01*
X143743533Y-98273784D01*
X143616871Y-98133112D01*
X143603695Y-98123539D01*
X143463734Y-98021851D01*
X143463729Y-98021848D01*
X143290807Y-97944857D01*
X143290802Y-97944855D01*
X143133686Y-97911460D01*
X143105646Y-97905500D01*
X143105645Y-97905500D01*
X143046453Y-97905500D01*
X142979414Y-97885815D01*
X142958776Y-97869185D01*
X142901733Y-97812142D01*
X142901732Y-97812141D01*
X142901730Y-97812139D01*
X142901728Y-97812138D01*
X142828496Y-97763206D01*
X142828495Y-97763205D01*
X142799290Y-97743690D01*
X142799286Y-97743688D01*
X142783511Y-97737154D01*
X142718792Y-97710347D01*
X142685452Y-97696537D01*
X142685448Y-97696536D01*
X142685444Y-97696535D01*
X142587793Y-97677111D01*
X142587792Y-97677111D01*
X142564611Y-97672500D01*
X142564607Y-97672500D01*
X142564606Y-97672500D01*
X142474844Y-97672500D01*
X142407805Y-97652815D01*
X142362050Y-97600011D01*
X142352106Y-97530853D01*
X142365486Y-97490047D01*
X142393095Y-97438393D01*
X142406814Y-97412727D01*
X142464024Y-97224132D01*
X142483341Y-97028000D01*
X142464024Y-96831868D01*
X142406814Y-96643273D01*
X142406811Y-96643269D01*
X142406811Y-96643266D01*
X142313913Y-96469467D01*
X142313909Y-96469460D01*
X142188883Y-96317116D01*
X142036539Y-96192090D01*
X142036532Y-96192086D01*
X141862733Y-96099188D01*
X141862727Y-96099186D01*
X141674132Y-96041976D01*
X141674129Y-96041975D01*
X141478000Y-96022659D01*
X141426439Y-96027737D01*
X141357793Y-96014718D01*
X141326605Y-95992015D01*
X140756198Y-95421608D01*
X140756178Y-95421586D01*
X140664733Y-95330141D01*
X140613509Y-95295915D01*
X140579335Y-95273080D01*
X140562286Y-95261688D01*
X140562283Y-95261686D01*
X140562280Y-95261685D01*
X140481792Y-95228347D01*
X140448454Y-95214538D01*
X140448455Y-95214538D01*
X140448452Y-95214537D01*
X140448448Y-95214536D01*
X140448444Y-95214535D01*
X140361068Y-95197155D01*
X140361067Y-95197155D01*
X140327610Y-95190500D01*
X140327607Y-95190500D01*
X140327606Y-95190500D01*
X138789148Y-95190500D01*
X138722109Y-95170815D01*
X138701467Y-95154181D01*
X138100053Y-94552767D01*
X138066568Y-94491444D01*
X138064415Y-94478063D01*
X138045674Y-94299744D01*
X137987179Y-94119716D01*
X137892533Y-93955784D01*
X137765871Y-93815112D01*
X137765870Y-93815111D01*
X137612734Y-93703851D01*
X137612729Y-93703848D01*
X137439807Y-93626857D01*
X137439802Y-93626855D01*
X137294001Y-93595865D01*
X137254646Y-93587500D01*
X137065354Y-93587500D01*
X137032897Y-93594398D01*
X136880197Y-93626855D01*
X136880192Y-93626857D01*
X136707270Y-93703848D01*
X136707265Y-93703851D01*
X136554129Y-93815111D01*
X136427466Y-93955785D01*
X136332821Y-94119715D01*
X136332818Y-94119722D01*
X136284435Y-94268632D01*
X136274326Y-94299744D01*
X136254540Y-94488000D01*
X136274326Y-94676256D01*
X136274327Y-94676259D01*
X136332818Y-94856277D01*
X136332821Y-94856284D01*
X136427467Y-95020216D01*
X136545782Y-95151618D01*
X136554129Y-95160888D01*
X136707265Y-95272148D01*
X136707270Y-95272151D01*
X136880192Y-95349142D01*
X136880197Y-95349144D01*
X137065354Y-95388500D01*
X137115243Y-95388500D01*
X137182282Y-95408185D01*
X137202923Y-95424818D01*
X137992836Y-96214732D01*
X137992837Y-96214733D01*
X138057962Y-96279858D01*
X138079963Y-96301859D01*
X138182402Y-96370307D01*
X138182409Y-96370311D01*
X138296243Y-96417463D01*
X138320206Y-96422229D01*
X138341821Y-96426529D01*
X138341841Y-96426532D01*
X138341863Y-96426537D01*
X138417086Y-96441499D01*
X138417087Y-96441500D01*
X138417088Y-96441500D01*
X138417089Y-96441500D01*
X139955548Y-96441500D01*
X140022587Y-96461185D01*
X140043229Y-96477819D01*
X140442015Y-96876605D01*
X140475500Y-96937928D01*
X140477737Y-96976439D01*
X140472659Y-97027999D01*
X140491975Y-97224129D01*
X140491976Y-97224132D01*
X140544458Y-97397142D01*
X140549188Y-97412732D01*
X140590514Y-97490047D01*
X140604756Y-97558449D01*
X140579756Y-97623693D01*
X140523451Y-97665064D01*
X140481156Y-97672500D01*
X138149120Y-97672500D01*
X138082081Y-97652815D01*
X138036326Y-97600011D01*
X138026382Y-97530853D01*
X138031187Y-97510187D01*
X138045674Y-97465603D01*
X138065460Y-97277347D01*
X138045674Y-97089091D01*
X137987179Y-96909063D01*
X137892533Y-96745131D01*
X137765871Y-96604459D01*
X137765870Y-96604458D01*
X137612734Y-96493198D01*
X137612729Y-96493195D01*
X137439807Y-96416204D01*
X137439802Y-96416202D01*
X137294001Y-96385212D01*
X137254646Y-96376847D01*
X137065354Y-96376847D01*
X137065350Y-96376847D01*
X136982830Y-96394387D01*
X136913163Y-96389071D01*
X136869368Y-96360778D01*
X136636928Y-96128338D01*
X136636925Y-96128334D01*
X136636925Y-96128335D01*
X136629858Y-96121268D01*
X136629858Y-96121267D01*
X136542733Y-96034142D01*
X136542732Y-96034141D01*
X136542731Y-96034140D01*
X136489318Y-95998451D01*
X136440287Y-95965689D01*
X136440286Y-95965688D01*
X136440283Y-95965686D01*
X136440280Y-95965685D01*
X136357863Y-95931548D01*
X136326453Y-95918537D01*
X136316427Y-95916543D01*
X136266029Y-95906518D01*
X136205610Y-95894500D01*
X136205607Y-95894500D01*
X136205606Y-95894500D01*
X135369500Y-95894500D01*
X135302461Y-95874815D01*
X135256706Y-95822011D01*
X135245500Y-95770500D01*
X135245500Y-82245220D01*
X135265185Y-82178181D01*
X135317989Y-82132426D01*
X135322005Y-82130677D01*
X135363357Y-82113549D01*
X135424286Y-82088312D01*
X135475509Y-82054084D01*
X135526733Y-82019858D01*
X135604773Y-81941817D01*
X135666094Y-81908334D01*
X135692453Y-81905500D01*
X135951607Y-81905500D01*
X136012029Y-81893481D01*
X136072452Y-81881463D01*
X136072455Y-81881461D01*
X136072458Y-81881461D01*
X136105787Y-81867654D01*
X136105786Y-81867654D01*
X136105792Y-81867652D01*
X136186286Y-81834312D01*
X136237509Y-81800084D01*
X136288733Y-81765858D01*
X136375858Y-81678733D01*
X136375859Y-81678731D01*
X136382925Y-81671665D01*
X136382927Y-81671661D01*
X137382771Y-80671819D01*
X137444094Y-80638334D01*
X137470452Y-80635500D01*
X138098397Y-80635500D01*
X138165436Y-80655185D01*
X138194250Y-80680835D01*
X138227116Y-80720883D01*
X138379460Y-80845909D01*
X138379467Y-80845913D01*
X138553266Y-80938811D01*
X138553269Y-80938811D01*
X138553273Y-80938814D01*
X138741868Y-80996024D01*
X138938000Y-81015341D01*
X139134132Y-80996024D01*
X139322727Y-80938814D01*
X139334471Y-80932537D01*
X139496532Y-80845913D01*
X139496538Y-80845910D01*
X139648883Y-80720883D01*
X139773910Y-80568538D01*
X139854471Y-80417819D01*
X139866811Y-80394733D01*
X139866811Y-80394732D01*
X139866814Y-80394727D01*
X139924024Y-80206132D01*
X139943341Y-80010000D01*
X139924024Y-79813868D01*
X139866814Y-79625273D01*
X139866811Y-79625269D01*
X139866811Y-79625266D01*
X139773913Y-79451467D01*
X139773909Y-79451460D01*
X139648883Y-79299116D01*
X139496539Y-79174090D01*
X139496532Y-79174086D01*
X139322733Y-79081188D01*
X139322727Y-79081186D01*
X139134132Y-79023976D01*
X139134129Y-79023975D01*
X138938000Y-79004659D01*
X138741870Y-79023975D01*
X138553266Y-79081188D01*
X138379467Y-79174086D01*
X138379460Y-79174090D01*
X138227116Y-79299116D01*
X138194250Y-79339165D01*
X138136505Y-79378499D01*
X138098397Y-79384500D01*
X137098389Y-79384500D01*
X137037971Y-79396518D01*
X136994743Y-79405116D01*
X136977546Y-79408537D01*
X136863716Y-79455687D01*
X136863707Y-79455692D01*
X136761268Y-79524140D01*
X136732293Y-79553116D01*
X136674142Y-79611267D01*
X136674139Y-79611270D01*
X136166140Y-80119270D01*
X135667229Y-80618181D01*
X135605906Y-80651666D01*
X135579548Y-80654500D01*
X135320389Y-80654500D01*
X135259971Y-80666518D01*
X135216743Y-80675116D01*
X135199546Y-80678537D01*
X135085716Y-80725687D01*
X135085707Y-80725692D01*
X134983268Y-80794140D01*
X134954871Y-80822538D01*
X134905226Y-80872182D01*
X134843906Y-80905666D01*
X134817547Y-80908500D01*
X134812389Y-80908500D01*
X134751971Y-80920518D01*
X134691548Y-80932537D01*
X134691546Y-80932537D01*
X134691545Y-80932538D01*
X134691543Y-80932538D01*
X134613016Y-80965065D01*
X134543546Y-80972534D01*
X134481067Y-80941258D01*
X134445416Y-80881169D01*
X134447910Y-80811344D01*
X134456206Y-80792051D01*
X134523304Y-80666519D01*
X134532814Y-80648727D01*
X134590024Y-80460132D01*
X134609341Y-80264000D01*
X134590024Y-80067868D01*
X134532814Y-79879273D01*
X134532811Y-79879269D01*
X134532811Y-79879266D01*
X134439913Y-79705467D01*
X134439909Y-79705460D01*
X134314883Y-79553116D01*
X134162539Y-79428090D01*
X134162532Y-79428086D01*
X133988733Y-79335188D01*
X133988727Y-79335186D01*
X133800132Y-79277976D01*
X133800129Y-79277975D01*
X133604000Y-79258659D01*
X133407870Y-79277975D01*
X133219266Y-79335188D01*
X133045467Y-79428086D01*
X133045460Y-79428090D01*
X132893116Y-79553116D01*
X132768090Y-79705460D01*
X132768086Y-79705467D01*
X132675188Y-79879266D01*
X132617975Y-80067870D01*
X132598659Y-80264000D01*
X132598659Y-80264001D01*
X132604983Y-80328220D01*
X132591963Y-80396866D01*
X132584682Y-80409263D01*
X132537447Y-80479954D01*
X132537445Y-80479958D01*
X132507154Y-80553086D01*
X132507155Y-80553087D01*
X132490295Y-80593790D01*
X132472191Y-80684811D01*
X132466258Y-80714638D01*
X132466258Y-89355789D01*
X132446573Y-89422828D01*
X132429939Y-89443470D01*
X130070144Y-91803264D01*
X130070138Y-91803272D01*
X130035914Y-91854489D01*
X130035915Y-91854490D01*
X130001688Y-91905713D01*
X130001685Y-91905718D01*
X129990532Y-91932648D01*
X129990531Y-91932651D01*
X129954538Y-92019545D01*
X129954535Y-92019555D01*
X129930500Y-92140389D01*
X129930500Y-94805312D01*
X129910815Y-94872351D01*
X129898650Y-94888284D01*
X129823466Y-94971784D01*
X129733299Y-95127960D01*
X129682732Y-95176175D01*
X129614125Y-95189399D01*
X129549261Y-95163431D01*
X129538231Y-95153641D01*
X129494198Y-95109608D01*
X129494178Y-95109586D01*
X129402735Y-95018143D01*
X129350384Y-94983164D01*
X129350383Y-94983163D01*
X129300286Y-94949688D01*
X129300284Y-94949687D01*
X129300281Y-94949685D01*
X129206577Y-94910873D01*
X129199142Y-94907793D01*
X129186452Y-94902537D01*
X129186448Y-94902536D01*
X129186444Y-94902535D01*
X129120872Y-94889492D01*
X129120871Y-94889492D01*
X129065611Y-94878500D01*
X129065607Y-94878500D01*
X129065606Y-94878500D01*
X124008453Y-94878500D01*
X123941414Y-94858815D01*
X123920772Y-94842181D01*
X122835819Y-93757228D01*
X122802334Y-93695905D01*
X122799500Y-93669547D01*
X122799500Y-84010687D01*
X122819185Y-83943648D01*
X122831350Y-83927715D01*
X122856349Y-83899950D01*
X122906533Y-83844216D01*
X123001179Y-83680284D01*
X123059674Y-83500256D01*
X123079460Y-83312000D01*
X123059674Y-83123744D01*
X123001179Y-82943716D01*
X122906533Y-82779784D01*
X122779871Y-82639112D01*
X122779870Y-82639111D01*
X122626734Y-82527851D01*
X122626729Y-82527848D01*
X122453807Y-82450857D01*
X122453802Y-82450855D01*
X122308001Y-82419865D01*
X122268646Y-82411500D01*
X122079354Y-82411500D01*
X122046897Y-82418398D01*
X121894197Y-82450855D01*
X121894192Y-82450857D01*
X121721270Y-82527848D01*
X121721265Y-82527851D01*
X121568129Y-82639111D01*
X121491650Y-82724050D01*
X121432163Y-82760699D01*
X121362306Y-82759368D01*
X121304258Y-82720482D01*
X121276448Y-82656385D01*
X121275500Y-82641078D01*
X121275500Y-82098452D01*
X121295185Y-82031413D01*
X121311819Y-82010771D01*
X122142771Y-81179819D01*
X122204094Y-81146334D01*
X122230452Y-81143500D01*
X122743608Y-81143500D01*
X122743608Y-81143499D01*
X122824071Y-81127495D01*
X122824072Y-81127495D01*
X122837654Y-81124793D01*
X122864452Y-81119463D01*
X122917357Y-81097549D01*
X122978286Y-81072312D01*
X123029509Y-81038084D01*
X123080733Y-81003858D01*
X123167858Y-80916733D01*
X123167859Y-80916731D01*
X123174925Y-80909665D01*
X123174927Y-80909661D01*
X123666771Y-80417819D01*
X123728094Y-80384334D01*
X123754452Y-80381500D01*
X124382397Y-80381500D01*
X124449436Y-80401185D01*
X124478250Y-80426835D01*
X124511116Y-80466883D01*
X124663460Y-80591909D01*
X124663467Y-80591913D01*
X124837266Y-80684811D01*
X124837269Y-80684811D01*
X124837273Y-80684814D01*
X125025868Y-80742024D01*
X125222000Y-80761341D01*
X125418132Y-80742024D01*
X125606727Y-80684814D01*
X125614172Y-80680835D01*
X125731388Y-80618181D01*
X125780538Y-80591910D01*
X125932883Y-80466883D01*
X126057910Y-80314538D01*
X126150814Y-80140727D01*
X126208024Y-79952132D01*
X126227341Y-79756000D01*
X126208024Y-79559868D01*
X126150814Y-79371273D01*
X126150811Y-79371269D01*
X126150811Y-79371266D01*
X126057913Y-79197467D01*
X126057909Y-79197460D01*
X125932883Y-79045116D01*
X125780539Y-78920090D01*
X125780532Y-78920086D01*
X125606733Y-78827188D01*
X125606727Y-78827186D01*
X125418132Y-78769976D01*
X125418129Y-78769975D01*
X125222000Y-78750659D01*
X125025870Y-78769975D01*
X124837266Y-78827188D01*
X124663467Y-78920086D01*
X124663460Y-78920090D01*
X124511116Y-79045116D01*
X124478250Y-79085165D01*
X124420505Y-79124499D01*
X124382397Y-79130500D01*
X123382389Y-79130500D01*
X123261553Y-79154535D01*
X123261541Y-79154539D01*
X123229262Y-79167909D01*
X123214397Y-79174067D01*
X123192169Y-79183274D01*
X123147713Y-79201688D01*
X123137557Y-79208475D01*
X123137449Y-79208547D01*
X123045268Y-79270140D01*
X123016293Y-79299116D01*
X122958142Y-79357267D01*
X122958139Y-79357270D01*
X122704140Y-79611270D01*
X122459229Y-79856181D01*
X122397906Y-79889666D01*
X122371548Y-79892500D01*
X121858389Y-79892500D01*
X121797971Y-79904518D01*
X121754743Y-79913116D01*
X121737546Y-79916537D01*
X121623716Y-79963687D01*
X121623707Y-79963692D01*
X121521268Y-80032140D01*
X121492293Y-80061116D01*
X121434142Y-80119267D01*
X121434139Y-80119270D01*
X120251270Y-81302139D01*
X120251267Y-81302142D01*
X120222877Y-81330532D01*
X120164142Y-81389266D01*
X120132193Y-81437082D01*
X120132192Y-81437083D01*
X120095690Y-81491709D01*
X120095685Y-81491718D01*
X120048540Y-81605538D01*
X120048535Y-81605554D01*
X120026477Y-81716452D01*
X120024500Y-81726394D01*
X94000000Y-81726394D01*
X94000000Y-75824000D01*
X94019685Y-75756961D01*
X94072489Y-75711206D01*
X94124000Y-75700000D01*
X178876000Y-75700000D01*
X178943039Y-75719685D01*
G37*
G04 #@! TD.AperFunction*
M02*
