G04 #@! TF.GenerationSoftware,KiCad,Pcbnew,8.0.8*
G04 #@! TF.CreationDate,2025-03-18T19:08:41-04:00*
G04 #@! TF.ProjectId,477,3437372e-6b69-4636-9164-5f7063625858,rev?*
G04 #@! TF.SameCoordinates,Original*
G04 #@! TF.FileFunction,Paste,Bot*
G04 #@! TF.FilePolarity,Positive*
%FSLAX46Y46*%
G04 Gerber Fmt 4.6, Leading zero omitted, Abs format (unit mm)*
G04 Created by KiCad (PCBNEW 8.0.8) date 2025-03-18 19:08:41*
%MOMM*%
%LPD*%
G01*
G04 APERTURE LIST*
G04 Aperture macros list*
%AMRoundRect*
0 Rectangle with rounded corners*
0 $1 Rounding radius*
0 $2 $3 $4 $5 $6 $7 $8 $9 X,Y pos of 4 corners*
0 Add a 4 corners polygon primitive as box body*
4,1,4,$2,$3,$4,$5,$6,$7,$8,$9,$2,$3,0*
0 Add four circle primitives for the rounded corners*
1,1,$1+$1,$2,$3*
1,1,$1+$1,$4,$5*
1,1,$1+$1,$6,$7*
1,1,$1+$1,$8,$9*
0 Add four rect primitives between the rounded corners*
20,1,$1+$1,$2,$3,$4,$5,0*
20,1,$1+$1,$4,$5,$6,$7,0*
20,1,$1+$1,$6,$7,$8,$9,0*
20,1,$1+$1,$8,$9,$2,$3,0*%
G04 Aperture macros list end*
%ADD10RoundRect,0.250000X0.337500X0.475000X-0.337500X0.475000X-0.337500X-0.475000X0.337500X-0.475000X0*%
%ADD11R,1.100000X0.650000*%
%ADD12RoundRect,0.250000X0.450000X-0.350000X0.450000X0.350000X-0.450000X0.350000X-0.450000X-0.350000X0*%
%ADD13RoundRect,0.250000X-0.475000X0.337500X-0.475000X-0.337500X0.475000X-0.337500X0.475000X0.337500X0*%
%ADD14RoundRect,0.250000X-0.337500X-0.475000X0.337500X-0.475000X0.337500X0.475000X-0.337500X0.475000X0*%
%ADD15R,0.650000X1.100000*%
%ADD16RoundRect,0.250000X0.475000X-0.337500X0.475000X0.337500X-0.475000X0.337500X-0.475000X-0.337500X0*%
G04 APERTURE END LIST*
D10*
X144634500Y-102870000D03*
X142559500Y-102870000D03*
D11*
X145900000Y-133460000D03*
X145900000Y-131540000D03*
X148000000Y-132500000D03*
X163100000Y-131540000D03*
X163100000Y-133460000D03*
X161000000Y-132500000D03*
D12*
X176000000Y-107000000D03*
X176000000Y-105000000D03*
D13*
X145796000Y-104880500D03*
X145796000Y-106955500D03*
X148411000Y-112260000D03*
X148411000Y-114335000D03*
D11*
X163600000Y-126040000D03*
X163600000Y-127960000D03*
X161500000Y-127000000D03*
X175400000Y-113960000D03*
X175400000Y-112040000D03*
X177500000Y-113000000D03*
D14*
X137987500Y-110490000D03*
X140062500Y-110490000D03*
X137987500Y-108458000D03*
X140062500Y-108458000D03*
D12*
X173000000Y-107000000D03*
X173000000Y-105000000D03*
D15*
X157540000Y-122900000D03*
X159460000Y-122900000D03*
X158500000Y-125000000D03*
D16*
X145868500Y-110744000D03*
X145868500Y-108669000D03*
D15*
X149540000Y-122900000D03*
X151460000Y-122900000D03*
X150500000Y-125000000D03*
X153540000Y-122900000D03*
X155460000Y-122900000D03*
X154500000Y-125000000D03*
D13*
X138263000Y-102594500D03*
X138263000Y-104669500D03*
D11*
X170900000Y-112960000D03*
X170900000Y-111040000D03*
X173000000Y-112000000D03*
D12*
X143597000Y-110982000D03*
X143597000Y-108982000D03*
D11*
X145400000Y-127960000D03*
X145400000Y-126040000D03*
X147500000Y-127000000D03*
D13*
X140295000Y-102594500D03*
X140295000Y-104669500D03*
M02*
