G04 #@! TF.GenerationSoftware,KiCad,Pcbnew,8.0.8*
G04 #@! TF.CreationDate,2025-03-18T19:08:41-04:00*
G04 #@! TF.ProjectId,477,3437372e-6b69-4636-9164-5f7063625858,rev?*
G04 #@! TF.SameCoordinates,Original*
G04 #@! TF.FileFunction,Soldermask,Bot*
G04 #@! TF.FilePolarity,Negative*
%FSLAX46Y46*%
G04 Gerber Fmt 4.6, Leading zero omitted, Abs format (unit mm)*
G04 Created by KiCad (PCBNEW 8.0.8) date 2025-03-18 19:08:41*
%MOMM*%
%LPD*%
G01*
G04 APERTURE LIST*
G04 Aperture macros list*
%AMRoundRect*
0 Rectangle with rounded corners*
0 $1 Rounding radius*
0 $2 $3 $4 $5 $6 $7 $8 $9 X,Y pos of 4 corners*
0 Add a 4 corners polygon primitive as box body*
4,1,4,$2,$3,$4,$5,$6,$7,$8,$9,$2,$3,0*
0 Add four circle primitives for the rounded corners*
1,1,$1+$1,$2,$3*
1,1,$1+$1,$4,$5*
1,1,$1+$1,$6,$7*
1,1,$1+$1,$8,$9*
0 Add four rect primitives between the rounded corners*
20,1,$1+$1,$2,$3,$4,$5,0*
20,1,$1+$1,$4,$5,$6,$7,0*
20,1,$1+$1,$6,$7,$8,$9,0*
20,1,$1+$1,$8,$9,$2,$3,0*%
G04 Aperture macros list end*
%ADD10C,1.000000*%
%ADD11C,3.200000*%
%ADD12C,1.550000*%
%ADD13C,1.500000*%
%ADD14C,3.570000*%
%ADD15RoundRect,0.250000X0.337500X0.475000X-0.337500X0.475000X-0.337500X-0.475000X0.337500X-0.475000X0*%
%ADD16R,1.100000X0.650000*%
%ADD17RoundRect,0.250000X0.450000X-0.350000X0.450000X0.350000X-0.450000X0.350000X-0.450000X-0.350000X0*%
%ADD18RoundRect,0.250000X-0.475000X0.337500X-0.475000X-0.337500X0.475000X-0.337500X0.475000X0.337500X0*%
%ADD19RoundRect,0.250000X-0.337500X-0.475000X0.337500X-0.475000X0.337500X0.475000X-0.337500X0.475000X0*%
%ADD20R,0.650000X1.100000*%
%ADD21RoundRect,0.250000X0.475000X-0.337500X0.475000X0.337500X-0.475000X0.337500X-0.475000X-0.337500X0*%
%ADD22C,0.800000*%
%ADD23C,6.000000*%
G04 APERTURE END LIST*
D10*
X165608000Y-80772000D03*
X133604000Y-80264000D03*
D11*
X183642000Y-79502000D03*
D10*
X138938000Y-80010000D03*
D11*
X183642000Y-131318000D03*
D10*
X126746000Y-98806000D03*
X152146000Y-80772000D03*
X141478000Y-97028000D03*
X160274000Y-100076000D03*
D11*
X89408000Y-79502000D03*
D10*
X161290000Y-80772000D03*
D11*
X89408000Y-131318000D03*
D10*
X162500000Y-123000000D03*
D12*
X131064000Y-131318000D03*
X133604000Y-131318000D03*
X136144000Y-131318000D03*
X138684000Y-131318000D03*
X141224000Y-131318000D03*
D10*
X152908000Y-98298000D03*
X147320000Y-80772000D03*
X175768000Y-83820000D03*
D13*
X95490000Y-104700000D03*
X95490000Y-107200000D03*
X95490000Y-109200000D03*
X95490000Y-111700000D03*
D14*
X92780000Y-101630000D03*
X92780000Y-114770000D03*
D12*
X182880000Y-96534000D03*
X180340000Y-96534000D03*
X182880000Y-93994000D03*
X180340000Y-93994000D03*
X182880000Y-91454000D03*
X180340000Y-91454000D03*
D10*
X125222000Y-79756000D03*
D12*
X90424000Y-92456000D03*
X90424000Y-89916000D03*
X92964000Y-92456000D03*
X92964000Y-89916000D03*
X95504000Y-92456000D03*
X95504000Y-89916000D03*
D15*
X144634500Y-102870000D03*
X142559500Y-102870000D03*
D16*
X145900000Y-133460000D03*
X145900000Y-131540000D03*
X148000000Y-132500000D03*
X163100000Y-131540000D03*
X163100000Y-133460000D03*
X161000000Y-132500000D03*
D17*
X176000000Y-107000000D03*
X176000000Y-105000000D03*
D18*
X145796000Y-104880500D03*
X145796000Y-106955500D03*
X148411000Y-112260000D03*
X148411000Y-114335000D03*
D16*
X163600000Y-126040000D03*
X163600000Y-127960000D03*
X161500000Y-127000000D03*
X175400000Y-113960000D03*
X175400000Y-112040000D03*
X177500000Y-113000000D03*
D19*
X137987500Y-110490000D03*
X140062500Y-110490000D03*
X137987500Y-108458000D03*
X140062500Y-108458000D03*
D17*
X173000000Y-107000000D03*
X173000000Y-105000000D03*
D20*
X157540000Y-122900000D03*
X159460000Y-122900000D03*
X158500000Y-125000000D03*
D21*
X145868500Y-110744000D03*
X145868500Y-108669000D03*
D20*
X149540000Y-122900000D03*
X151460000Y-122900000D03*
X150500000Y-125000000D03*
X153540000Y-122900000D03*
X155460000Y-122900000D03*
X154500000Y-125000000D03*
D18*
X138263000Y-102594500D03*
X138263000Y-104669500D03*
D16*
X170900000Y-112960000D03*
X170900000Y-111040000D03*
X173000000Y-112000000D03*
D17*
X143597000Y-110982000D03*
X143597000Y-108982000D03*
D16*
X145400000Y-127960000D03*
X145400000Y-126040000D03*
X147500000Y-127000000D03*
D18*
X140295000Y-102594500D03*
X140295000Y-104669500D03*
D22*
X134366000Y-110998000D03*
X125222000Y-94742000D03*
X133096000Y-99314000D03*
X179578000Y-118872000D03*
X152400000Y-95033000D03*
X150363347Y-104643347D03*
X94488000Y-83820000D03*
X138557000Y-94488000D03*
X106220000Y-85344000D03*
X166000000Y-124678000D03*
X138049000Y-99441000D03*
X149031771Y-118468229D03*
X103378000Y-98044000D03*
X152400000Y-110490000D03*
X103886000Y-121666000D03*
X178308000Y-107188000D03*
X158750000Y-115824000D03*
D23*
X100000000Y-131000000D03*
D22*
X119000000Y-100575001D03*
X103500000Y-108200000D03*
X166862000Y-128000000D03*
X120142000Y-121666000D03*
X146087000Y-114046000D03*
X179324000Y-124714000D03*
X165354000Y-94742000D03*
X113506000Y-85344000D03*
X146050000Y-99314000D03*
X115316000Y-121158000D03*
X93472000Y-121739052D03*
X173736000Y-115062000D03*
X173500000Y-130500000D03*
X163000000Y-120178000D03*
X130556000Y-95504000D03*
X128270000Y-101346000D03*
X124206000Y-101346000D03*
X122174000Y-83312000D03*
X143011000Y-98806000D03*
X109240000Y-108204000D03*
X134874000Y-126746000D03*
X113157000Y-87757000D03*
X109982000Y-88646000D03*
X145029347Y-114304653D03*
X144586000Y-99314000D03*
X135128000Y-115500000D03*
X147000000Y-112765000D03*
X150000000Y-111000000D03*
X121666000Y-118110000D03*
X131500000Y-98350000D03*
X150114000Y-103378000D03*
X122936000Y-96266000D03*
X139446000Y-99314000D03*
X134366000Y-109644500D03*
X122936000Y-100838000D03*
X121920000Y-100076000D03*
X108966000Y-87884000D03*
X111379000Y-87503000D03*
X107950000Y-87122000D03*
X109728000Y-87122000D03*
X137160000Y-97277347D03*
X137160000Y-94488000D03*
X148336000Y-98044000D03*
X173000000Y-109000000D03*
X177500000Y-109974000D03*
X161250000Y-129750000D03*
X168402000Y-109220000D03*
X154178000Y-103124000D03*
X151892000Y-103124000D03*
X150622000Y-94996000D03*
X152908000Y-103378000D03*
X163576000Y-94742000D03*
X156464000Y-103124000D03*
X149352000Y-108204000D03*
X155686000Y-126500000D03*
X153686000Y-126686000D03*
X151750000Y-127250000D03*
X148250000Y-129750000D03*
X154686000Y-127500000D03*
X157250000Y-127250000D03*
X174498000Y-103124000D03*
X173078306Y-101949000D03*
M02*
