G04 #@! TF.GenerationSoftware,KiCad,Pcbnew,8.0.8*
G04 #@! TF.CreationDate,2025-03-18T19:08:41-04:00*
G04 #@! TF.ProjectId,477,3437372e-6b69-4636-9164-5f7063625858,rev?*
G04 #@! TF.SameCoordinates,Original*
G04 #@! TF.FileFunction,Soldermask,Top*
G04 #@! TF.FilePolarity,Negative*
%FSLAX46Y46*%
G04 Gerber Fmt 4.6, Leading zero omitted, Abs format (unit mm)*
G04 Created by KiCad (PCBNEW 8.0.8) date 2025-03-18 19:08:41*
%MOMM*%
%LPD*%
G01*
G04 APERTURE LIST*
G04 Aperture macros list*
%AMRoundRect*
0 Rectangle with rounded corners*
0 $1 Rounding radius*
0 $2 $3 $4 $5 $6 $7 $8 $9 X,Y pos of 4 corners*
0 Add a 4 corners polygon primitive as box body*
4,1,4,$2,$3,$4,$5,$6,$7,$8,$9,$2,$3,0*
0 Add four circle primitives for the rounded corners*
1,1,$1+$1,$2,$3*
1,1,$1+$1,$4,$5*
1,1,$1+$1,$6,$7*
1,1,$1+$1,$8,$9*
0 Add four rect primitives between the rounded corners*
20,1,$1+$1,$2,$3,$4,$5,0*
20,1,$1+$1,$4,$5,$6,$7,0*
20,1,$1+$1,$6,$7,$8,$9,0*
20,1,$1+$1,$8,$9,$2,$3,0*%
G04 Aperture macros list end*
%ADD10R,0.600000X1.550000*%
%ADD11R,1.200000X1.800000*%
%ADD12C,1.000000*%
%ADD13RoundRect,0.250000X-0.337500X-0.475000X0.337500X-0.475000X0.337500X0.475000X-0.337500X0.475000X0*%
%ADD14RoundRect,0.250000X-0.475000X0.337500X-0.475000X-0.337500X0.475000X-0.337500X0.475000X0.337500X0*%
%ADD15C,3.200000*%
%ADD16RoundRect,0.250000X-0.450000X0.325000X-0.450000X-0.325000X0.450000X-0.325000X0.450000X0.325000X0*%
%ADD17R,1.550000X0.600000*%
%ADD18R,1.800000X1.200000*%
%ADD19RoundRect,0.250000X-0.450000X0.350000X-0.450000X-0.350000X0.450000X-0.350000X0.450000X0.350000X0*%
%ADD20RoundRect,0.250000X0.350000X0.450000X-0.350000X0.450000X-0.350000X-0.450000X0.350000X-0.450000X0*%
%ADD21RoundRect,0.250000X0.450000X-0.350000X0.450000X0.350000X-0.450000X0.350000X-0.450000X-0.350000X0*%
%ADD22RoundRect,0.250000X-0.325000X-0.450000X0.325000X-0.450000X0.325000X0.450000X-0.325000X0.450000X0*%
%ADD23RoundRect,0.250000X0.337500X0.475000X-0.337500X0.475000X-0.337500X-0.475000X0.337500X-0.475000X0*%
%ADD24R,1.550000X1.300000*%
%ADD25RoundRect,0.250000X-0.350000X-0.450000X0.350000X-0.450000X0.350000X0.450000X-0.350000X0.450000X0*%
%ADD26RoundRect,0.075000X0.700000X0.075000X-0.700000X0.075000X-0.700000X-0.075000X0.700000X-0.075000X0*%
%ADD27RoundRect,0.075000X0.075000X0.700000X-0.075000X0.700000X-0.075000X-0.700000X0.075000X-0.700000X0*%
%ADD28C,1.550000*%
%ADD29R,1.400000X1.200000*%
%ADD30R,0.700000X1.930000*%
%ADD31RoundRect,0.250000X0.097227X-0.574524X0.574524X-0.097227X-0.097227X0.574524X-0.574524X0.097227X0*%
%ADD32R,1.200000X0.600000*%
%ADD33C,1.500000*%
%ADD34C,3.570000*%
%ADD35R,1.850000X0.900000*%
%ADD36R,1.850000X3.200000*%
%ADD37RoundRect,0.250000X0.475000X-0.337500X0.475000X0.337500X-0.475000X0.337500X-0.475000X-0.337500X0*%
%ADD38C,0.800000*%
%ADD39C,6.000000*%
G04 APERTURE END LIST*
D10*
X151686000Y-129798000D03*
X152686000Y-129798000D03*
X153686000Y-129798000D03*
X154686000Y-129798000D03*
X155686000Y-129798000D03*
X156686000Y-129798000D03*
X157686000Y-129798000D03*
D11*
X150386000Y-132323000D03*
X158986000Y-132323000D03*
D12*
X165608000Y-80772000D03*
D13*
X154156500Y-115824000D03*
X156231500Y-115824000D03*
D14*
X91948000Y-119612500D03*
X91948000Y-121687500D03*
D12*
X133604000Y-80264000D03*
D15*
X183642000Y-79502000D03*
D13*
X171682500Y-116840000D03*
X173757500Y-116840000D03*
D12*
X138938000Y-80010000D03*
D16*
X116840000Y-100575001D03*
X116840000Y-102624999D03*
D17*
X182030000Y-106974000D03*
X182030000Y-107974000D03*
X182030000Y-108974000D03*
X182030000Y-109974000D03*
X182030000Y-110974000D03*
X182030000Y-111974000D03*
D18*
X184554000Y-105674000D03*
X184554000Y-113274000D03*
D19*
X181864000Y-116856000D03*
X181864000Y-118856000D03*
D20*
X107172000Y-101092000D03*
X105172000Y-101092000D03*
D15*
X183642000Y-131318000D03*
D21*
X154500000Y-125000000D03*
X154500000Y-123000000D03*
X162500000Y-128500000D03*
X162500000Y-126500000D03*
X149500000Y-125000000D03*
X149500000Y-123000000D03*
D20*
X177000000Y-130500000D03*
X175000000Y-130500000D03*
D19*
X96266000Y-81804000D03*
X96266000Y-83804000D03*
D12*
X126746000Y-98806000D03*
X152146000Y-80772000D03*
D22*
X121403000Y-123444000D03*
X123453000Y-123444000D03*
D23*
X136165500Y-113500000D03*
X134090500Y-113500000D03*
D24*
X168745000Y-120178000D03*
X168745000Y-124678000D03*
X176695000Y-120178000D03*
X176695000Y-124678000D03*
D19*
X88900000Y-119650000D03*
X88900000Y-121650000D03*
D23*
X150389500Y-116586000D03*
X148314500Y-116586000D03*
D16*
X114046000Y-103877001D03*
X114046000Y-105926999D03*
D12*
X141478000Y-97028000D03*
X160274000Y-100076000D03*
D21*
X157000000Y-125000000D03*
X157000000Y-123000000D03*
D15*
X89408000Y-79502000D03*
D25*
X116602000Y-105918000D03*
X118602000Y-105918000D03*
D12*
X161290000Y-80772000D03*
D26*
X147661000Y-110430000D03*
X147661000Y-109930000D03*
X147661000Y-109430000D03*
X147661000Y-108930000D03*
X147661000Y-108430000D03*
X147661000Y-107930000D03*
X147661000Y-107430000D03*
X147661000Y-106930000D03*
X147661000Y-106430000D03*
X147661000Y-105930000D03*
X147661000Y-105430000D03*
X147661000Y-104930000D03*
X147661000Y-104430000D03*
X147661000Y-103930000D03*
X147661000Y-103430000D03*
X147661000Y-102930000D03*
D27*
X145736000Y-101005000D03*
X145236000Y-101005000D03*
X144736000Y-101005000D03*
X144236000Y-101005000D03*
X143736000Y-101005000D03*
X143236000Y-101005000D03*
X142736000Y-101005000D03*
X142236000Y-101005000D03*
X141736000Y-101005000D03*
X141236000Y-101005000D03*
X140736000Y-101005000D03*
X140236000Y-101005000D03*
X139736000Y-101005000D03*
X139236000Y-101005000D03*
X138736000Y-101005000D03*
X138236000Y-101005000D03*
D26*
X136311000Y-102930000D03*
X136311000Y-103430000D03*
X136311000Y-103930000D03*
X136311000Y-104430000D03*
X136311000Y-104930000D03*
X136311000Y-105430000D03*
X136311000Y-105930000D03*
X136311000Y-106430000D03*
X136311000Y-106930000D03*
X136311000Y-107430000D03*
X136311000Y-107930000D03*
X136311000Y-108430000D03*
X136311000Y-108930000D03*
X136311000Y-109430000D03*
X136311000Y-109930000D03*
X136311000Y-110430000D03*
D27*
X138236000Y-112355000D03*
X138736000Y-112355000D03*
X139236000Y-112355000D03*
X139736000Y-112355000D03*
X140236000Y-112355000D03*
X140736000Y-112355000D03*
X141236000Y-112355000D03*
X141736000Y-112355000D03*
X142236000Y-112355000D03*
X142736000Y-112355000D03*
X143236000Y-112355000D03*
X143736000Y-112355000D03*
X144236000Y-112355000D03*
X144736000Y-112355000D03*
X145236000Y-112355000D03*
X145736000Y-112355000D03*
D20*
X123428000Y-125984000D03*
X121428000Y-125984000D03*
D15*
X89408000Y-131318000D03*
D12*
X162500000Y-123000000D03*
D28*
X131064000Y-131318000D03*
X133604000Y-131318000D03*
X136144000Y-131318000D03*
X138684000Y-131318000D03*
X141224000Y-131318000D03*
D21*
X147000000Y-128500000D03*
X147000000Y-126500000D03*
D14*
X100076000Y-81766500D03*
X100076000Y-83841500D03*
D29*
X154094000Y-113372000D03*
X156294000Y-113372000D03*
X156294000Y-111672000D03*
X154094000Y-111672000D03*
D14*
X158750000Y-111230500D03*
X158750000Y-113305500D03*
D12*
X152908000Y-98298000D03*
D30*
X132969000Y-83174000D03*
X131699000Y-83174000D03*
X130429000Y-83174000D03*
X129159000Y-83174000D03*
X127889000Y-83174000D03*
X126619000Y-83174000D03*
X125349000Y-83174000D03*
X124079000Y-83174000D03*
X124079000Y-92594000D03*
X125349000Y-92594000D03*
X126619000Y-92594000D03*
X127889000Y-92594000D03*
X129159000Y-92594000D03*
X130429000Y-92594000D03*
X131699000Y-92594000D03*
X132969000Y-92594000D03*
D12*
X147320000Y-80772000D03*
D31*
X133632377Y-101317623D03*
X135099623Y-99850377D03*
D21*
X152000000Y-125000000D03*
X152000000Y-123000000D03*
D25*
X120158000Y-103632000D03*
X122158000Y-103632000D03*
D13*
X106404500Y-129032000D03*
X108479500Y-129032000D03*
D30*
X146177000Y-83428000D03*
X144907000Y-83428000D03*
X143637000Y-83428000D03*
X142367000Y-83428000D03*
X141097000Y-83428000D03*
X139827000Y-83428000D03*
X138557000Y-83428000D03*
X137287000Y-83428000D03*
X137287000Y-92848000D03*
X138557000Y-92848000D03*
X139827000Y-92848000D03*
X141097000Y-92848000D03*
X142367000Y-92848000D03*
X143637000Y-92848000D03*
X144907000Y-92848000D03*
X146177000Y-92848000D03*
D32*
X105176000Y-107254000D03*
X105176000Y-108204000D03*
X105176000Y-109154000D03*
X107676000Y-109154000D03*
X107676000Y-108204000D03*
X107676000Y-107254000D03*
D21*
X159500000Y-125000000D03*
X159500000Y-123000000D03*
D12*
X175768000Y-83820000D03*
D33*
X95490000Y-104700000D03*
X95490000Y-107200000D03*
X95490000Y-109200000D03*
X95490000Y-111700000D03*
D34*
X92780000Y-101630000D03*
X92780000Y-114770000D03*
D14*
X184658000Y-116818500D03*
X184658000Y-118893500D03*
D28*
X182880000Y-96534000D03*
X180340000Y-96534000D03*
X182880000Y-93994000D03*
X180340000Y-93994000D03*
X182880000Y-91454000D03*
X180340000Y-91454000D03*
D30*
X172847000Y-83428000D03*
X171577000Y-83428000D03*
X170307000Y-83428000D03*
X169037000Y-83428000D03*
X167767000Y-83428000D03*
X166497000Y-83428000D03*
X165227000Y-83428000D03*
X163957000Y-83428000D03*
X163957000Y-92848000D03*
X165227000Y-92848000D03*
X166497000Y-92848000D03*
X167767000Y-92848000D03*
X169037000Y-92848000D03*
X170307000Y-92848000D03*
X171577000Y-92848000D03*
X172847000Y-92848000D03*
D12*
X125222000Y-79756000D03*
D22*
X105147000Y-98044000D03*
X107197000Y-98044000D03*
D20*
X156194000Y-109220000D03*
X154194000Y-109220000D03*
D35*
X105866000Y-121652000D03*
X105866000Y-123952000D03*
X105866000Y-126252000D03*
D36*
X112066000Y-123952000D03*
D10*
X113220000Y-82804000D03*
X112220000Y-82804000D03*
X111220000Y-82804000D03*
X110220000Y-82804000D03*
X109220000Y-82804000D03*
X108220000Y-82804000D03*
X107220000Y-82804000D03*
X106220000Y-82804000D03*
X105220000Y-82804000D03*
D11*
X114520000Y-80279000D03*
X103920000Y-80279000D03*
D25*
X164862000Y-129960000D03*
X166862000Y-129960000D03*
D37*
X115316000Y-124735500D03*
X115316000Y-122660500D03*
D30*
X159893000Y-83428000D03*
X158623000Y-83428000D03*
X157353000Y-83428000D03*
X156083000Y-83428000D03*
X154813000Y-83428000D03*
X153543000Y-83428000D03*
X152273000Y-83428000D03*
X151003000Y-83428000D03*
X151003000Y-92848000D03*
X152273000Y-92848000D03*
X153543000Y-92848000D03*
X154813000Y-92848000D03*
X156083000Y-92848000D03*
X157353000Y-92848000D03*
X158623000Y-92848000D03*
X159893000Y-92848000D03*
D28*
X90424000Y-92456000D03*
X90424000Y-89916000D03*
X92964000Y-92456000D03*
X92964000Y-89916000D03*
X95504000Y-92456000D03*
X95504000Y-89916000D03*
D13*
X164962500Y-132500000D03*
X167037500Y-132500000D03*
D38*
X134366000Y-110998000D03*
X125222000Y-94742000D03*
X133096000Y-99314000D03*
X179578000Y-118872000D03*
X152400000Y-95033000D03*
X150363347Y-104643347D03*
X94488000Y-83820000D03*
X138557000Y-94488000D03*
X106220000Y-85344000D03*
X166000000Y-124678000D03*
X138049000Y-99441000D03*
X149031771Y-118468229D03*
X103378000Y-98044000D03*
X152400000Y-110490000D03*
X103886000Y-121666000D03*
X178308000Y-107188000D03*
X158750000Y-115824000D03*
D39*
X100000000Y-131000000D03*
D38*
X119000000Y-100575001D03*
X103500000Y-108200000D03*
X166862000Y-128000000D03*
X120142000Y-121666000D03*
X146087000Y-114046000D03*
X179324000Y-124714000D03*
X165354000Y-94742000D03*
X113506000Y-85344000D03*
X146050000Y-99314000D03*
X115316000Y-121158000D03*
X93472000Y-121739052D03*
X173736000Y-115062000D03*
X173500000Y-130500000D03*
X163000000Y-120178000D03*
X130556000Y-95504000D03*
X128270000Y-101346000D03*
X124206000Y-101346000D03*
X122174000Y-83312000D03*
X143011000Y-98806000D03*
X109240000Y-108204000D03*
X134874000Y-126746000D03*
X113157000Y-87757000D03*
X109982000Y-88646000D03*
X145029347Y-114304653D03*
X144586000Y-99314000D03*
X135128000Y-115500000D03*
X147000000Y-112765000D03*
X150000000Y-111000000D03*
X121666000Y-118110000D03*
X131500000Y-98350000D03*
X150114000Y-103378000D03*
X122936000Y-96266000D03*
X139446000Y-99314000D03*
X134366000Y-109644500D03*
X122936000Y-100838000D03*
X121920000Y-100076000D03*
X108966000Y-87884000D03*
X111379000Y-87503000D03*
X107950000Y-87122000D03*
X109728000Y-87122000D03*
X137160000Y-97277347D03*
X137160000Y-94488000D03*
X148336000Y-98044000D03*
X173000000Y-109000000D03*
X177500000Y-109974000D03*
X161250000Y-129750000D03*
X168402000Y-109220000D03*
X154178000Y-103124000D03*
X151892000Y-103124000D03*
X150622000Y-94996000D03*
X152908000Y-103378000D03*
X163576000Y-94742000D03*
X156464000Y-103124000D03*
X149352000Y-108204000D03*
X155686000Y-126500000D03*
X153686000Y-126686000D03*
X151750000Y-127250000D03*
X148250000Y-129750000D03*
X154686000Y-127500000D03*
X157250000Y-127250000D03*
X174498000Y-103124000D03*
X173078306Y-101949000D03*
M02*
