G04 #@! TF.GenerationSoftware,KiCad,Pcbnew,8.0.8*
G04 #@! TF.CreationDate,2025-03-18T19:08:41-04:00*
G04 #@! TF.ProjectId,477,3437372e-6b69-4636-9164-5f7063625858,rev?*
G04 #@! TF.SameCoordinates,Original*
G04 #@! TF.FileFunction,Legend,Bot*
G04 #@! TF.FilePolarity,Positive*
%FSLAX46Y46*%
G04 Gerber Fmt 4.6, Leading zero omitted, Abs format (unit mm)*
G04 Created by KiCad (PCBNEW 8.0.8) date 2025-03-18 19:08:41*
%MOMM*%
%LPD*%
G01*
G04 APERTURE LIST*
G04 Aperture macros list*
%AMRoundRect*
0 Rectangle with rounded corners*
0 $1 Rounding radius*
0 $2 $3 $4 $5 $6 $7 $8 $9 X,Y pos of 4 corners*
0 Add a 4 corners polygon primitive as box body*
4,1,4,$2,$3,$4,$5,$6,$7,$8,$9,$2,$3,0*
0 Add four circle primitives for the rounded corners*
1,1,$1+$1,$2,$3*
1,1,$1+$1,$4,$5*
1,1,$1+$1,$6,$7*
1,1,$1+$1,$8,$9*
0 Add four rect primitives between the rounded corners*
20,1,$1+$1,$2,$3,$4,$5,0*
20,1,$1+$1,$4,$5,$6,$7,0*
20,1,$1+$1,$6,$7,$8,$9,0*
20,1,$1+$1,$8,$9,$2,$3,0*%
G04 Aperture macros list end*
%ADD10C,0.150000*%
%ADD11C,0.254000*%
%ADD12C,0.120000*%
%ADD13C,0.200000*%
%ADD14C,1.000000*%
%ADD15C,3.200000*%
%ADD16C,1.550000*%
%ADD17C,1.500000*%
%ADD18C,3.570000*%
%ADD19RoundRect,0.250000X0.337500X0.475000X-0.337500X0.475000X-0.337500X-0.475000X0.337500X-0.475000X0*%
%ADD20R,1.100000X0.650000*%
%ADD21RoundRect,0.250000X0.450000X-0.350000X0.450000X0.350000X-0.450000X0.350000X-0.450000X-0.350000X0*%
%ADD22RoundRect,0.250000X-0.475000X0.337500X-0.475000X-0.337500X0.475000X-0.337500X0.475000X0.337500X0*%
%ADD23RoundRect,0.250000X-0.337500X-0.475000X0.337500X-0.475000X0.337500X0.475000X-0.337500X0.475000X0*%
%ADD24R,0.650000X1.100000*%
%ADD25RoundRect,0.250000X0.475000X-0.337500X0.475000X0.337500X-0.475000X0.337500X-0.475000X-0.337500X0*%
%ADD26C,0.800000*%
%ADD27C,6.000000*%
G04 APERTURE END LIST*
D10*
X143676666Y-101451580D02*
X143724285Y-101499200D01*
X143724285Y-101499200D02*
X143867142Y-101546819D01*
X143867142Y-101546819D02*
X143962380Y-101546819D01*
X143962380Y-101546819D02*
X144105237Y-101499200D01*
X144105237Y-101499200D02*
X144200475Y-101403961D01*
X144200475Y-101403961D02*
X144248094Y-101308723D01*
X144248094Y-101308723D02*
X144295713Y-101118247D01*
X144295713Y-101118247D02*
X144295713Y-100975390D01*
X144295713Y-100975390D02*
X144248094Y-100784914D01*
X144248094Y-100784914D02*
X144200475Y-100689676D01*
X144200475Y-100689676D02*
X144105237Y-100594438D01*
X144105237Y-100594438D02*
X143962380Y-100546819D01*
X143962380Y-100546819D02*
X143867142Y-100546819D01*
X143867142Y-100546819D02*
X143724285Y-100594438D01*
X143724285Y-100594438D02*
X143676666Y-100642057D01*
X143105237Y-100975390D02*
X143200475Y-100927771D01*
X143200475Y-100927771D02*
X143248094Y-100880152D01*
X143248094Y-100880152D02*
X143295713Y-100784914D01*
X143295713Y-100784914D02*
X143295713Y-100737295D01*
X143295713Y-100737295D02*
X143248094Y-100642057D01*
X143248094Y-100642057D02*
X143200475Y-100594438D01*
X143200475Y-100594438D02*
X143105237Y-100546819D01*
X143105237Y-100546819D02*
X142914761Y-100546819D01*
X142914761Y-100546819D02*
X142819523Y-100594438D01*
X142819523Y-100594438D02*
X142771904Y-100642057D01*
X142771904Y-100642057D02*
X142724285Y-100737295D01*
X142724285Y-100737295D02*
X142724285Y-100784914D01*
X142724285Y-100784914D02*
X142771904Y-100880152D01*
X142771904Y-100880152D02*
X142819523Y-100927771D01*
X142819523Y-100927771D02*
X142914761Y-100975390D01*
X142914761Y-100975390D02*
X143105237Y-100975390D01*
X143105237Y-100975390D02*
X143200475Y-101023009D01*
X143200475Y-101023009D02*
X143248094Y-101070628D01*
X143248094Y-101070628D02*
X143295713Y-101165866D01*
X143295713Y-101165866D02*
X143295713Y-101356342D01*
X143295713Y-101356342D02*
X143248094Y-101451580D01*
X143248094Y-101451580D02*
X143200475Y-101499200D01*
X143200475Y-101499200D02*
X143105237Y-101546819D01*
X143105237Y-101546819D02*
X142914761Y-101546819D01*
X142914761Y-101546819D02*
X142819523Y-101499200D01*
X142819523Y-101499200D02*
X142771904Y-101451580D01*
X142771904Y-101451580D02*
X142724285Y-101356342D01*
X142724285Y-101356342D02*
X142724285Y-101165866D01*
X142724285Y-101165866D02*
X142771904Y-101070628D01*
X142771904Y-101070628D02*
X142819523Y-101023009D01*
X142819523Y-101023009D02*
X142914761Y-100975390D01*
D11*
X151437381Y-133074318D02*
X151437381Y-131804318D01*
X151437381Y-131804318D02*
X151135000Y-131804318D01*
X151135000Y-131804318D02*
X150953571Y-131864794D01*
X150953571Y-131864794D02*
X150832619Y-131985746D01*
X150832619Y-131985746D02*
X150772142Y-132106699D01*
X150772142Y-132106699D02*
X150711666Y-132348603D01*
X150711666Y-132348603D02*
X150711666Y-132530032D01*
X150711666Y-132530032D02*
X150772142Y-132771937D01*
X150772142Y-132771937D02*
X150832619Y-132892889D01*
X150832619Y-132892889D02*
X150953571Y-133013842D01*
X150953571Y-133013842D02*
X151135000Y-133074318D01*
X151135000Y-133074318D02*
X151437381Y-133074318D01*
X150288333Y-131804318D02*
X149441666Y-131804318D01*
X149441666Y-131804318D02*
X149985952Y-133074318D01*
X159542143Y-133074318D02*
X159542143Y-131804318D01*
X159542143Y-131804318D02*
X159239762Y-131804318D01*
X159239762Y-131804318D02*
X159058333Y-131864794D01*
X159058333Y-131864794D02*
X158937381Y-131985746D01*
X158937381Y-131985746D02*
X158876904Y-132106699D01*
X158876904Y-132106699D02*
X158816428Y-132348603D01*
X158816428Y-132348603D02*
X158816428Y-132530032D01*
X158816428Y-132530032D02*
X158876904Y-132771937D01*
X158876904Y-132771937D02*
X158937381Y-132892889D01*
X158937381Y-132892889D02*
X159058333Y-133013842D01*
X159058333Y-133013842D02*
X159239762Y-133074318D01*
X159239762Y-133074318D02*
X159542143Y-133074318D01*
X157606904Y-133074318D02*
X158332619Y-133074318D01*
X157969762Y-133074318D02*
X157969762Y-131804318D01*
X157969762Y-131804318D02*
X158090714Y-131985746D01*
X158090714Y-131985746D02*
X158211666Y-132106699D01*
X158211666Y-132106699D02*
X158332619Y-132167175D01*
X157183571Y-131804318D02*
X156397380Y-131804318D01*
X156397380Y-131804318D02*
X156820714Y-132288127D01*
X156820714Y-132288127D02*
X156639285Y-132288127D01*
X156639285Y-132288127D02*
X156518333Y-132348603D01*
X156518333Y-132348603D02*
X156457857Y-132409080D01*
X156457857Y-132409080D02*
X156397380Y-132530032D01*
X156397380Y-132530032D02*
X156397380Y-132832413D01*
X156397380Y-132832413D02*
X156457857Y-132953365D01*
X156457857Y-132953365D02*
X156518333Y-133013842D01*
X156518333Y-133013842D02*
X156639285Y-133074318D01*
X156639285Y-133074318D02*
X157002142Y-133074318D01*
X157002142Y-133074318D02*
X157123095Y-133013842D01*
X157123095Y-133013842D02*
X157183571Y-132953365D01*
D10*
X178104819Y-104513142D02*
X177628628Y-104179809D01*
X178104819Y-103941714D02*
X177104819Y-103941714D01*
X177104819Y-103941714D02*
X177104819Y-104322666D01*
X177104819Y-104322666D02*
X177152438Y-104417904D01*
X177152438Y-104417904D02*
X177200057Y-104465523D01*
X177200057Y-104465523D02*
X177295295Y-104513142D01*
X177295295Y-104513142D02*
X177438152Y-104513142D01*
X177438152Y-104513142D02*
X177533390Y-104465523D01*
X177533390Y-104465523D02*
X177581009Y-104417904D01*
X177581009Y-104417904D02*
X177628628Y-104322666D01*
X177628628Y-104322666D02*
X177628628Y-103941714D01*
X177200057Y-104894095D02*
X177152438Y-104941714D01*
X177152438Y-104941714D02*
X177104819Y-105036952D01*
X177104819Y-105036952D02*
X177104819Y-105275047D01*
X177104819Y-105275047D02*
X177152438Y-105370285D01*
X177152438Y-105370285D02*
X177200057Y-105417904D01*
X177200057Y-105417904D02*
X177295295Y-105465523D01*
X177295295Y-105465523D02*
X177390533Y-105465523D01*
X177390533Y-105465523D02*
X177533390Y-105417904D01*
X177533390Y-105417904D02*
X178104819Y-104846476D01*
X178104819Y-104846476D02*
X178104819Y-105465523D01*
X177438152Y-106322666D02*
X178104819Y-106322666D01*
X177057200Y-106084571D02*
X177771485Y-105846476D01*
X177771485Y-105846476D02*
X177771485Y-106465523D01*
X148978857Y-106277580D02*
X149026476Y-106325200D01*
X149026476Y-106325200D02*
X149169333Y-106372819D01*
X149169333Y-106372819D02*
X149264571Y-106372819D01*
X149264571Y-106372819D02*
X149407428Y-106325200D01*
X149407428Y-106325200D02*
X149502666Y-106229961D01*
X149502666Y-106229961D02*
X149550285Y-106134723D01*
X149550285Y-106134723D02*
X149597904Y-105944247D01*
X149597904Y-105944247D02*
X149597904Y-105801390D01*
X149597904Y-105801390D02*
X149550285Y-105610914D01*
X149550285Y-105610914D02*
X149502666Y-105515676D01*
X149502666Y-105515676D02*
X149407428Y-105420438D01*
X149407428Y-105420438D02*
X149264571Y-105372819D01*
X149264571Y-105372819D02*
X149169333Y-105372819D01*
X149169333Y-105372819D02*
X149026476Y-105420438D01*
X149026476Y-105420438D02*
X148978857Y-105468057D01*
X148026476Y-106372819D02*
X148597904Y-106372819D01*
X148312190Y-106372819D02*
X148312190Y-105372819D01*
X148312190Y-105372819D02*
X148407428Y-105515676D01*
X148407428Y-105515676D02*
X148502666Y-105610914D01*
X148502666Y-105610914D02*
X148597904Y-105658533D01*
X147455047Y-105801390D02*
X147550285Y-105753771D01*
X147550285Y-105753771D02*
X147597904Y-105706152D01*
X147597904Y-105706152D02*
X147645523Y-105610914D01*
X147645523Y-105610914D02*
X147645523Y-105563295D01*
X147645523Y-105563295D02*
X147597904Y-105468057D01*
X147597904Y-105468057D02*
X147550285Y-105420438D01*
X147550285Y-105420438D02*
X147455047Y-105372819D01*
X147455047Y-105372819D02*
X147264571Y-105372819D01*
X147264571Y-105372819D02*
X147169333Y-105420438D01*
X147169333Y-105420438D02*
X147121714Y-105468057D01*
X147121714Y-105468057D02*
X147074095Y-105563295D01*
X147074095Y-105563295D02*
X147074095Y-105610914D01*
X147074095Y-105610914D02*
X147121714Y-105706152D01*
X147121714Y-105706152D02*
X147169333Y-105753771D01*
X147169333Y-105753771D02*
X147264571Y-105801390D01*
X147264571Y-105801390D02*
X147455047Y-105801390D01*
X147455047Y-105801390D02*
X147550285Y-105849009D01*
X147550285Y-105849009D02*
X147597904Y-105896628D01*
X147597904Y-105896628D02*
X147645523Y-105991866D01*
X147645523Y-105991866D02*
X147645523Y-106182342D01*
X147645523Y-106182342D02*
X147597904Y-106277580D01*
X147597904Y-106277580D02*
X147550285Y-106325200D01*
X147550285Y-106325200D02*
X147455047Y-106372819D01*
X147455047Y-106372819D02*
X147264571Y-106372819D01*
X147264571Y-106372819D02*
X147169333Y-106325200D01*
X147169333Y-106325200D02*
X147121714Y-106277580D01*
X147121714Y-106277580D02*
X147074095Y-106182342D01*
X147074095Y-106182342D02*
X147074095Y-105991866D01*
X147074095Y-105991866D02*
X147121714Y-105896628D01*
X147121714Y-105896628D02*
X147169333Y-105849009D01*
X147169333Y-105849009D02*
X147264571Y-105801390D01*
X150981580Y-112641142D02*
X151029200Y-112593523D01*
X151029200Y-112593523D02*
X151076819Y-112450666D01*
X151076819Y-112450666D02*
X151076819Y-112355428D01*
X151076819Y-112355428D02*
X151029200Y-112212571D01*
X151029200Y-112212571D02*
X150933961Y-112117333D01*
X150933961Y-112117333D02*
X150838723Y-112069714D01*
X150838723Y-112069714D02*
X150648247Y-112022095D01*
X150648247Y-112022095D02*
X150505390Y-112022095D01*
X150505390Y-112022095D02*
X150314914Y-112069714D01*
X150314914Y-112069714D02*
X150219676Y-112117333D01*
X150219676Y-112117333D02*
X150124438Y-112212571D01*
X150124438Y-112212571D02*
X150076819Y-112355428D01*
X150076819Y-112355428D02*
X150076819Y-112450666D01*
X150076819Y-112450666D02*
X150124438Y-112593523D01*
X150124438Y-112593523D02*
X150172057Y-112641142D01*
X151076819Y-113593523D02*
X151076819Y-113022095D01*
X151076819Y-113307809D02*
X150076819Y-113307809D01*
X150076819Y-113307809D02*
X150219676Y-113212571D01*
X150219676Y-113212571D02*
X150314914Y-113117333D01*
X150314914Y-113117333D02*
X150362533Y-113022095D01*
X150076819Y-114450666D02*
X150076819Y-114260190D01*
X150076819Y-114260190D02*
X150124438Y-114164952D01*
X150124438Y-114164952D02*
X150172057Y-114117333D01*
X150172057Y-114117333D02*
X150314914Y-114022095D01*
X150314914Y-114022095D02*
X150505390Y-113974476D01*
X150505390Y-113974476D02*
X150886342Y-113974476D01*
X150886342Y-113974476D02*
X150981580Y-114022095D01*
X150981580Y-114022095D02*
X151029200Y-114069714D01*
X151029200Y-114069714D02*
X151076819Y-114164952D01*
X151076819Y-114164952D02*
X151076819Y-114355428D01*
X151076819Y-114355428D02*
X151029200Y-114450666D01*
X151029200Y-114450666D02*
X150981580Y-114498285D01*
X150981580Y-114498285D02*
X150886342Y-114545904D01*
X150886342Y-114545904D02*
X150648247Y-114545904D01*
X150648247Y-114545904D02*
X150553009Y-114498285D01*
X150553009Y-114498285D02*
X150505390Y-114450666D01*
X150505390Y-114450666D02*
X150457771Y-114355428D01*
X150457771Y-114355428D02*
X150457771Y-114164952D01*
X150457771Y-114164952D02*
X150505390Y-114069714D01*
X150505390Y-114069714D02*
X150553009Y-114022095D01*
X150553009Y-114022095D02*
X150648247Y-113974476D01*
D11*
X168042143Y-127074318D02*
X168042143Y-125804318D01*
X168042143Y-125804318D02*
X167739762Y-125804318D01*
X167739762Y-125804318D02*
X167558333Y-125864794D01*
X167558333Y-125864794D02*
X167437381Y-125985746D01*
X167437381Y-125985746D02*
X167376904Y-126106699D01*
X167376904Y-126106699D02*
X167316428Y-126348603D01*
X167316428Y-126348603D02*
X167316428Y-126530032D01*
X167316428Y-126530032D02*
X167376904Y-126771937D01*
X167376904Y-126771937D02*
X167437381Y-126892889D01*
X167437381Y-126892889D02*
X167558333Y-127013842D01*
X167558333Y-127013842D02*
X167739762Y-127074318D01*
X167739762Y-127074318D02*
X168042143Y-127074318D01*
X166106904Y-127074318D02*
X166832619Y-127074318D01*
X166469762Y-127074318D02*
X166469762Y-125804318D01*
X166469762Y-125804318D02*
X166590714Y-125985746D01*
X166590714Y-125985746D02*
X166711666Y-126106699D01*
X166711666Y-126106699D02*
X166832619Y-126167175D01*
X165623095Y-125925270D02*
X165562619Y-125864794D01*
X165562619Y-125864794D02*
X165441666Y-125804318D01*
X165441666Y-125804318D02*
X165139285Y-125804318D01*
X165139285Y-125804318D02*
X165018333Y-125864794D01*
X165018333Y-125864794D02*
X164957857Y-125925270D01*
X164957857Y-125925270D02*
X164897380Y-126046222D01*
X164897380Y-126046222D02*
X164897380Y-126167175D01*
X164897380Y-126167175D02*
X164957857Y-126348603D01*
X164957857Y-126348603D02*
X165683571Y-127074318D01*
X165683571Y-127074318D02*
X164897380Y-127074318D01*
X177387381Y-116574318D02*
X177387381Y-115304318D01*
X177387381Y-115304318D02*
X177085000Y-115304318D01*
X177085000Y-115304318D02*
X176903571Y-115364794D01*
X176903571Y-115364794D02*
X176782619Y-115485746D01*
X176782619Y-115485746D02*
X176722142Y-115606699D01*
X176722142Y-115606699D02*
X176661666Y-115848603D01*
X176661666Y-115848603D02*
X176661666Y-116030032D01*
X176661666Y-116030032D02*
X176722142Y-116271937D01*
X176722142Y-116271937D02*
X176782619Y-116392889D01*
X176782619Y-116392889D02*
X176903571Y-116513842D01*
X176903571Y-116513842D02*
X177085000Y-116574318D01*
X177085000Y-116574318D02*
X177387381Y-116574318D01*
X175573095Y-115304318D02*
X175815000Y-115304318D01*
X175815000Y-115304318D02*
X175935952Y-115364794D01*
X175935952Y-115364794D02*
X175996428Y-115425270D01*
X175996428Y-115425270D02*
X176117381Y-115606699D01*
X176117381Y-115606699D02*
X176177857Y-115848603D01*
X176177857Y-115848603D02*
X176177857Y-116332413D01*
X176177857Y-116332413D02*
X176117381Y-116453365D01*
X176117381Y-116453365D02*
X176056904Y-116513842D01*
X176056904Y-116513842D02*
X175935952Y-116574318D01*
X175935952Y-116574318D02*
X175694047Y-116574318D01*
X175694047Y-116574318D02*
X175573095Y-116513842D01*
X175573095Y-116513842D02*
X175512619Y-116453365D01*
X175512619Y-116453365D02*
X175452142Y-116332413D01*
X175452142Y-116332413D02*
X175452142Y-116030032D01*
X175452142Y-116030032D02*
X175512619Y-115909080D01*
X175512619Y-115909080D02*
X175573095Y-115848603D01*
X175573095Y-115848603D02*
X175694047Y-115788127D01*
X175694047Y-115788127D02*
X175935952Y-115788127D01*
X175935952Y-115788127D02*
X176056904Y-115848603D01*
X176056904Y-115848603D02*
X176117381Y-115909080D01*
X176117381Y-115909080D02*
X176177857Y-116030032D01*
D10*
X139142857Y-112859580D02*
X139190476Y-112907200D01*
X139190476Y-112907200D02*
X139333333Y-112954819D01*
X139333333Y-112954819D02*
X139428571Y-112954819D01*
X139428571Y-112954819D02*
X139571428Y-112907200D01*
X139571428Y-112907200D02*
X139666666Y-112811961D01*
X139666666Y-112811961D02*
X139714285Y-112716723D01*
X139714285Y-112716723D02*
X139761904Y-112526247D01*
X139761904Y-112526247D02*
X139761904Y-112383390D01*
X139761904Y-112383390D02*
X139714285Y-112192914D01*
X139714285Y-112192914D02*
X139666666Y-112097676D01*
X139666666Y-112097676D02*
X139571428Y-112002438D01*
X139571428Y-112002438D02*
X139428571Y-111954819D01*
X139428571Y-111954819D02*
X139333333Y-111954819D01*
X139333333Y-111954819D02*
X139190476Y-112002438D01*
X139190476Y-112002438D02*
X139142857Y-112050057D01*
X138190476Y-112954819D02*
X138761904Y-112954819D01*
X138476190Y-112954819D02*
X138476190Y-111954819D01*
X138476190Y-111954819D02*
X138571428Y-112097676D01*
X138571428Y-112097676D02*
X138666666Y-112192914D01*
X138666666Y-112192914D02*
X138761904Y-112240533D01*
X137571428Y-111954819D02*
X137476190Y-111954819D01*
X137476190Y-111954819D02*
X137380952Y-112002438D01*
X137380952Y-112002438D02*
X137333333Y-112050057D01*
X137333333Y-112050057D02*
X137285714Y-112145295D01*
X137285714Y-112145295D02*
X137238095Y-112335771D01*
X137238095Y-112335771D02*
X137238095Y-112573866D01*
X137238095Y-112573866D02*
X137285714Y-112764342D01*
X137285714Y-112764342D02*
X137333333Y-112859580D01*
X137333333Y-112859580D02*
X137380952Y-112907200D01*
X137380952Y-112907200D02*
X137476190Y-112954819D01*
X137476190Y-112954819D02*
X137571428Y-112954819D01*
X137571428Y-112954819D02*
X137666666Y-112907200D01*
X137666666Y-112907200D02*
X137714285Y-112859580D01*
X137714285Y-112859580D02*
X137761904Y-112764342D01*
X137761904Y-112764342D02*
X137809523Y-112573866D01*
X137809523Y-112573866D02*
X137809523Y-112335771D01*
X137809523Y-112335771D02*
X137761904Y-112145295D01*
X137761904Y-112145295D02*
X137714285Y-112050057D01*
X137714285Y-112050057D02*
X137666666Y-112002438D01*
X137666666Y-112002438D02*
X137571428Y-111954819D01*
X139667857Y-107039580D02*
X139715476Y-107087200D01*
X139715476Y-107087200D02*
X139858333Y-107134819D01*
X139858333Y-107134819D02*
X139953571Y-107134819D01*
X139953571Y-107134819D02*
X140096428Y-107087200D01*
X140096428Y-107087200D02*
X140191666Y-106991961D01*
X140191666Y-106991961D02*
X140239285Y-106896723D01*
X140239285Y-106896723D02*
X140286904Y-106706247D01*
X140286904Y-106706247D02*
X140286904Y-106563390D01*
X140286904Y-106563390D02*
X140239285Y-106372914D01*
X140239285Y-106372914D02*
X140191666Y-106277676D01*
X140191666Y-106277676D02*
X140096428Y-106182438D01*
X140096428Y-106182438D02*
X139953571Y-106134819D01*
X139953571Y-106134819D02*
X139858333Y-106134819D01*
X139858333Y-106134819D02*
X139715476Y-106182438D01*
X139715476Y-106182438D02*
X139667857Y-106230057D01*
X138715476Y-107134819D02*
X139286904Y-107134819D01*
X139001190Y-107134819D02*
X139001190Y-106134819D01*
X139001190Y-106134819D02*
X139096428Y-106277676D01*
X139096428Y-106277676D02*
X139191666Y-106372914D01*
X139191666Y-106372914D02*
X139286904Y-106420533D01*
X137858333Y-106468152D02*
X137858333Y-107134819D01*
X138096428Y-106087200D02*
X138334523Y-106801485D01*
X138334523Y-106801485D02*
X137715476Y-106801485D01*
X171650819Y-105529142D02*
X171174628Y-105195809D01*
X171650819Y-104957714D02*
X170650819Y-104957714D01*
X170650819Y-104957714D02*
X170650819Y-105338666D01*
X170650819Y-105338666D02*
X170698438Y-105433904D01*
X170698438Y-105433904D02*
X170746057Y-105481523D01*
X170746057Y-105481523D02*
X170841295Y-105529142D01*
X170841295Y-105529142D02*
X170984152Y-105529142D01*
X170984152Y-105529142D02*
X171079390Y-105481523D01*
X171079390Y-105481523D02*
X171127009Y-105433904D01*
X171127009Y-105433904D02*
X171174628Y-105338666D01*
X171174628Y-105338666D02*
X171174628Y-104957714D01*
X170746057Y-105910095D02*
X170698438Y-105957714D01*
X170698438Y-105957714D02*
X170650819Y-106052952D01*
X170650819Y-106052952D02*
X170650819Y-106291047D01*
X170650819Y-106291047D02*
X170698438Y-106386285D01*
X170698438Y-106386285D02*
X170746057Y-106433904D01*
X170746057Y-106433904D02*
X170841295Y-106481523D01*
X170841295Y-106481523D02*
X170936533Y-106481523D01*
X170936533Y-106481523D02*
X171079390Y-106433904D01*
X171079390Y-106433904D02*
X171650819Y-105862476D01*
X171650819Y-105862476D02*
X171650819Y-106481523D01*
X170650819Y-107386285D02*
X170650819Y-106910095D01*
X170650819Y-106910095D02*
X171127009Y-106862476D01*
X171127009Y-106862476D02*
X171079390Y-106910095D01*
X171079390Y-106910095D02*
X171031771Y-107005333D01*
X171031771Y-107005333D02*
X171031771Y-107243428D01*
X171031771Y-107243428D02*
X171079390Y-107338666D01*
X171079390Y-107338666D02*
X171127009Y-107386285D01*
X171127009Y-107386285D02*
X171222247Y-107433904D01*
X171222247Y-107433904D02*
X171460342Y-107433904D01*
X171460342Y-107433904D02*
X171555580Y-107386285D01*
X171555580Y-107386285D02*
X171603200Y-107338666D01*
X171603200Y-107338666D02*
X171650819Y-107243428D01*
X171650819Y-107243428D02*
X171650819Y-107005333D01*
X171650819Y-107005333D02*
X171603200Y-106910095D01*
X171603200Y-106910095D02*
X171555580Y-106862476D01*
D11*
X160042143Y-121574318D02*
X160042143Y-120304318D01*
X160042143Y-120304318D02*
X159739762Y-120304318D01*
X159739762Y-120304318D02*
X159558333Y-120364794D01*
X159558333Y-120364794D02*
X159437381Y-120485746D01*
X159437381Y-120485746D02*
X159376904Y-120606699D01*
X159376904Y-120606699D02*
X159316428Y-120848603D01*
X159316428Y-120848603D02*
X159316428Y-121030032D01*
X159316428Y-121030032D02*
X159376904Y-121271937D01*
X159376904Y-121271937D02*
X159437381Y-121392889D01*
X159437381Y-121392889D02*
X159558333Y-121513842D01*
X159558333Y-121513842D02*
X159739762Y-121574318D01*
X159739762Y-121574318D02*
X160042143Y-121574318D01*
X158106904Y-121574318D02*
X158832619Y-121574318D01*
X158469762Y-121574318D02*
X158469762Y-120304318D01*
X158469762Y-120304318D02*
X158590714Y-120485746D01*
X158590714Y-120485746D02*
X158711666Y-120606699D01*
X158711666Y-120606699D02*
X158832619Y-120667175D01*
X156897380Y-121574318D02*
X157623095Y-121574318D01*
X157260238Y-121574318D02*
X157260238Y-120304318D01*
X157260238Y-120304318D02*
X157381190Y-120485746D01*
X157381190Y-120485746D02*
X157502142Y-120606699D01*
X157502142Y-120606699D02*
X157623095Y-120667175D01*
D10*
X149232857Y-109833580D02*
X149280476Y-109881200D01*
X149280476Y-109881200D02*
X149423333Y-109928819D01*
X149423333Y-109928819D02*
X149518571Y-109928819D01*
X149518571Y-109928819D02*
X149661428Y-109881200D01*
X149661428Y-109881200D02*
X149756666Y-109785961D01*
X149756666Y-109785961D02*
X149804285Y-109690723D01*
X149804285Y-109690723D02*
X149851904Y-109500247D01*
X149851904Y-109500247D02*
X149851904Y-109357390D01*
X149851904Y-109357390D02*
X149804285Y-109166914D01*
X149804285Y-109166914D02*
X149756666Y-109071676D01*
X149756666Y-109071676D02*
X149661428Y-108976438D01*
X149661428Y-108976438D02*
X149518571Y-108928819D01*
X149518571Y-108928819D02*
X149423333Y-108928819D01*
X149423333Y-108928819D02*
X149280476Y-108976438D01*
X149280476Y-108976438D02*
X149232857Y-109024057D01*
X148280476Y-109928819D02*
X148851904Y-109928819D01*
X148566190Y-109928819D02*
X148566190Y-108928819D01*
X148566190Y-108928819D02*
X148661428Y-109071676D01*
X148661428Y-109071676D02*
X148756666Y-109166914D01*
X148756666Y-109166914D02*
X148851904Y-109214533D01*
X147328095Y-109928819D02*
X147899523Y-109928819D01*
X147613809Y-109928819D02*
X147613809Y-108928819D01*
X147613809Y-108928819D02*
X147709047Y-109071676D01*
X147709047Y-109071676D02*
X147804285Y-109166914D01*
X147804285Y-109166914D02*
X147899523Y-109214533D01*
D11*
X151437381Y-121574318D02*
X151437381Y-120304318D01*
X151437381Y-120304318D02*
X151135000Y-120304318D01*
X151135000Y-120304318D02*
X150953571Y-120364794D01*
X150953571Y-120364794D02*
X150832619Y-120485746D01*
X150832619Y-120485746D02*
X150772142Y-120606699D01*
X150772142Y-120606699D02*
X150711666Y-120848603D01*
X150711666Y-120848603D02*
X150711666Y-121030032D01*
X150711666Y-121030032D02*
X150772142Y-121271937D01*
X150772142Y-121271937D02*
X150832619Y-121392889D01*
X150832619Y-121392889D02*
X150953571Y-121513842D01*
X150953571Y-121513842D02*
X151135000Y-121574318D01*
X151135000Y-121574318D02*
X151437381Y-121574318D01*
X150106904Y-121574318D02*
X149865000Y-121574318D01*
X149865000Y-121574318D02*
X149744047Y-121513842D01*
X149744047Y-121513842D02*
X149683571Y-121453365D01*
X149683571Y-121453365D02*
X149562619Y-121271937D01*
X149562619Y-121271937D02*
X149502142Y-121030032D01*
X149502142Y-121030032D02*
X149502142Y-120546222D01*
X149502142Y-120546222D02*
X149562619Y-120425270D01*
X149562619Y-120425270D02*
X149623095Y-120364794D01*
X149623095Y-120364794D02*
X149744047Y-120304318D01*
X149744047Y-120304318D02*
X149985952Y-120304318D01*
X149985952Y-120304318D02*
X150106904Y-120364794D01*
X150106904Y-120364794D02*
X150167381Y-120425270D01*
X150167381Y-120425270D02*
X150227857Y-120546222D01*
X150227857Y-120546222D02*
X150227857Y-120848603D01*
X150227857Y-120848603D02*
X150167381Y-120969556D01*
X150167381Y-120969556D02*
X150106904Y-121030032D01*
X150106904Y-121030032D02*
X149985952Y-121090508D01*
X149985952Y-121090508D02*
X149744047Y-121090508D01*
X149744047Y-121090508D02*
X149623095Y-121030032D01*
X149623095Y-121030032D02*
X149562619Y-120969556D01*
X149562619Y-120969556D02*
X149502142Y-120848603D01*
X156042143Y-121574318D02*
X156042143Y-120304318D01*
X156042143Y-120304318D02*
X155739762Y-120304318D01*
X155739762Y-120304318D02*
X155558333Y-120364794D01*
X155558333Y-120364794D02*
X155437381Y-120485746D01*
X155437381Y-120485746D02*
X155376904Y-120606699D01*
X155376904Y-120606699D02*
X155316428Y-120848603D01*
X155316428Y-120848603D02*
X155316428Y-121030032D01*
X155316428Y-121030032D02*
X155376904Y-121271937D01*
X155376904Y-121271937D02*
X155437381Y-121392889D01*
X155437381Y-121392889D02*
X155558333Y-121513842D01*
X155558333Y-121513842D02*
X155739762Y-121574318D01*
X155739762Y-121574318D02*
X156042143Y-121574318D01*
X154106904Y-121574318D02*
X154832619Y-121574318D01*
X154469762Y-121574318D02*
X154469762Y-120304318D01*
X154469762Y-120304318D02*
X154590714Y-120485746D01*
X154590714Y-120485746D02*
X154711666Y-120606699D01*
X154711666Y-120606699D02*
X154832619Y-120667175D01*
X153320714Y-120304318D02*
X153199761Y-120304318D01*
X153199761Y-120304318D02*
X153078809Y-120364794D01*
X153078809Y-120364794D02*
X153018333Y-120425270D01*
X153018333Y-120425270D02*
X152957857Y-120546222D01*
X152957857Y-120546222D02*
X152897380Y-120788127D01*
X152897380Y-120788127D02*
X152897380Y-121090508D01*
X152897380Y-121090508D02*
X152957857Y-121332413D01*
X152957857Y-121332413D02*
X153018333Y-121453365D01*
X153018333Y-121453365D02*
X153078809Y-121513842D01*
X153078809Y-121513842D02*
X153199761Y-121574318D01*
X153199761Y-121574318D02*
X153320714Y-121574318D01*
X153320714Y-121574318D02*
X153441666Y-121513842D01*
X153441666Y-121513842D02*
X153502142Y-121453365D01*
X153502142Y-121453365D02*
X153562619Y-121332413D01*
X153562619Y-121332413D02*
X153623095Y-121090508D01*
X153623095Y-121090508D02*
X153623095Y-120788127D01*
X153623095Y-120788127D02*
X153562619Y-120546222D01*
X153562619Y-120546222D02*
X153502142Y-120425270D01*
X153502142Y-120425270D02*
X153441666Y-120364794D01*
X153441666Y-120364794D02*
X153320714Y-120304318D01*
D10*
X136757580Y-103465333D02*
X136805200Y-103417714D01*
X136805200Y-103417714D02*
X136852819Y-103274857D01*
X136852819Y-103274857D02*
X136852819Y-103179619D01*
X136852819Y-103179619D02*
X136805200Y-103036762D01*
X136805200Y-103036762D02*
X136709961Y-102941524D01*
X136709961Y-102941524D02*
X136614723Y-102893905D01*
X136614723Y-102893905D02*
X136424247Y-102846286D01*
X136424247Y-102846286D02*
X136281390Y-102846286D01*
X136281390Y-102846286D02*
X136090914Y-102893905D01*
X136090914Y-102893905D02*
X135995676Y-102941524D01*
X135995676Y-102941524D02*
X135900438Y-103036762D01*
X135900438Y-103036762D02*
X135852819Y-103179619D01*
X135852819Y-103179619D02*
X135852819Y-103274857D01*
X135852819Y-103274857D02*
X135900438Y-103417714D01*
X135900438Y-103417714D02*
X135948057Y-103465333D01*
X136852819Y-103941524D02*
X136852819Y-104132000D01*
X136852819Y-104132000D02*
X136805200Y-104227238D01*
X136805200Y-104227238D02*
X136757580Y-104274857D01*
X136757580Y-104274857D02*
X136614723Y-104370095D01*
X136614723Y-104370095D02*
X136424247Y-104417714D01*
X136424247Y-104417714D02*
X136043295Y-104417714D01*
X136043295Y-104417714D02*
X135948057Y-104370095D01*
X135948057Y-104370095D02*
X135900438Y-104322476D01*
X135900438Y-104322476D02*
X135852819Y-104227238D01*
X135852819Y-104227238D02*
X135852819Y-104036762D01*
X135852819Y-104036762D02*
X135900438Y-103941524D01*
X135900438Y-103941524D02*
X135948057Y-103893905D01*
X135948057Y-103893905D02*
X136043295Y-103846286D01*
X136043295Y-103846286D02*
X136281390Y-103846286D01*
X136281390Y-103846286D02*
X136376628Y-103893905D01*
X136376628Y-103893905D02*
X136424247Y-103941524D01*
X136424247Y-103941524D02*
X136471866Y-104036762D01*
X136471866Y-104036762D02*
X136471866Y-104227238D01*
X136471866Y-104227238D02*
X136424247Y-104322476D01*
X136424247Y-104322476D02*
X136376628Y-104370095D01*
X136376628Y-104370095D02*
X136281390Y-104417714D01*
D11*
X172937381Y-115574318D02*
X172937381Y-114304318D01*
X172937381Y-114304318D02*
X172635000Y-114304318D01*
X172635000Y-114304318D02*
X172453571Y-114364794D01*
X172453571Y-114364794D02*
X172332619Y-114485746D01*
X172332619Y-114485746D02*
X172272142Y-114606699D01*
X172272142Y-114606699D02*
X172211666Y-114848603D01*
X172211666Y-114848603D02*
X172211666Y-115030032D01*
X172211666Y-115030032D02*
X172272142Y-115271937D01*
X172272142Y-115271937D02*
X172332619Y-115392889D01*
X172332619Y-115392889D02*
X172453571Y-115513842D01*
X172453571Y-115513842D02*
X172635000Y-115574318D01*
X172635000Y-115574318D02*
X172937381Y-115574318D01*
X171062619Y-114304318D02*
X171667381Y-114304318D01*
X171667381Y-114304318D02*
X171727857Y-114909080D01*
X171727857Y-114909080D02*
X171667381Y-114848603D01*
X171667381Y-114848603D02*
X171546428Y-114788127D01*
X171546428Y-114788127D02*
X171244047Y-114788127D01*
X171244047Y-114788127D02*
X171123095Y-114848603D01*
X171123095Y-114848603D02*
X171062619Y-114909080D01*
X171062619Y-114909080D02*
X171002142Y-115030032D01*
X171002142Y-115030032D02*
X171002142Y-115332413D01*
X171002142Y-115332413D02*
X171062619Y-115453365D01*
X171062619Y-115453365D02*
X171123095Y-115513842D01*
X171123095Y-115513842D02*
X171244047Y-115574318D01*
X171244047Y-115574318D02*
X171546428Y-115574318D01*
X171546428Y-115574318D02*
X171667381Y-115513842D01*
X171667381Y-115513842D02*
X171727857Y-115453365D01*
D10*
X143509666Y-107896819D02*
X143842999Y-107420628D01*
X144081094Y-107896819D02*
X144081094Y-106896819D01*
X144081094Y-106896819D02*
X143700142Y-106896819D01*
X143700142Y-106896819D02*
X143604904Y-106944438D01*
X143604904Y-106944438D02*
X143557285Y-106992057D01*
X143557285Y-106992057D02*
X143509666Y-107087295D01*
X143509666Y-107087295D02*
X143509666Y-107230152D01*
X143509666Y-107230152D02*
X143557285Y-107325390D01*
X143557285Y-107325390D02*
X143604904Y-107373009D01*
X143604904Y-107373009D02*
X143700142Y-107420628D01*
X143700142Y-107420628D02*
X144081094Y-107420628D01*
X143128713Y-106992057D02*
X143081094Y-106944438D01*
X143081094Y-106944438D02*
X142985856Y-106896819D01*
X142985856Y-106896819D02*
X142747761Y-106896819D01*
X142747761Y-106896819D02*
X142652523Y-106944438D01*
X142652523Y-106944438D02*
X142604904Y-106992057D01*
X142604904Y-106992057D02*
X142557285Y-107087295D01*
X142557285Y-107087295D02*
X142557285Y-107182533D01*
X142557285Y-107182533D02*
X142604904Y-107325390D01*
X142604904Y-107325390D02*
X143176332Y-107896819D01*
X143176332Y-107896819D02*
X142557285Y-107896819D01*
D11*
X143937381Y-127574318D02*
X143937381Y-126304318D01*
X143937381Y-126304318D02*
X143635000Y-126304318D01*
X143635000Y-126304318D02*
X143453571Y-126364794D01*
X143453571Y-126364794D02*
X143332619Y-126485746D01*
X143332619Y-126485746D02*
X143272142Y-126606699D01*
X143272142Y-126606699D02*
X143211666Y-126848603D01*
X143211666Y-126848603D02*
X143211666Y-127030032D01*
X143211666Y-127030032D02*
X143272142Y-127271937D01*
X143272142Y-127271937D02*
X143332619Y-127392889D01*
X143332619Y-127392889D02*
X143453571Y-127513842D01*
X143453571Y-127513842D02*
X143635000Y-127574318D01*
X143635000Y-127574318D02*
X143937381Y-127574318D01*
X142485952Y-126848603D02*
X142606904Y-126788127D01*
X142606904Y-126788127D02*
X142667381Y-126727651D01*
X142667381Y-126727651D02*
X142727857Y-126606699D01*
X142727857Y-126606699D02*
X142727857Y-126546222D01*
X142727857Y-126546222D02*
X142667381Y-126425270D01*
X142667381Y-126425270D02*
X142606904Y-126364794D01*
X142606904Y-126364794D02*
X142485952Y-126304318D01*
X142485952Y-126304318D02*
X142244047Y-126304318D01*
X142244047Y-126304318D02*
X142123095Y-126364794D01*
X142123095Y-126364794D02*
X142062619Y-126425270D01*
X142062619Y-126425270D02*
X142002142Y-126546222D01*
X142002142Y-126546222D02*
X142002142Y-126606699D01*
X142002142Y-126606699D02*
X142062619Y-126727651D01*
X142062619Y-126727651D02*
X142123095Y-126788127D01*
X142123095Y-126788127D02*
X142244047Y-126848603D01*
X142244047Y-126848603D02*
X142485952Y-126848603D01*
X142485952Y-126848603D02*
X142606904Y-126909080D01*
X142606904Y-126909080D02*
X142667381Y-126969556D01*
X142667381Y-126969556D02*
X142727857Y-127090508D01*
X142727857Y-127090508D02*
X142727857Y-127332413D01*
X142727857Y-127332413D02*
X142667381Y-127453365D01*
X142667381Y-127453365D02*
X142606904Y-127513842D01*
X142606904Y-127513842D02*
X142485952Y-127574318D01*
X142485952Y-127574318D02*
X142244047Y-127574318D01*
X142244047Y-127574318D02*
X142123095Y-127513842D01*
X142123095Y-127513842D02*
X142062619Y-127453365D01*
X142062619Y-127453365D02*
X142002142Y-127332413D01*
X142002142Y-127332413D02*
X142002142Y-127090508D01*
X142002142Y-127090508D02*
X142062619Y-126969556D01*
X142062619Y-126969556D02*
X142123095Y-126909080D01*
X142123095Y-126909080D02*
X142244047Y-126848603D01*
D10*
X141612857Y-101197580D02*
X141660476Y-101245200D01*
X141660476Y-101245200D02*
X141803333Y-101292819D01*
X141803333Y-101292819D02*
X141898571Y-101292819D01*
X141898571Y-101292819D02*
X142041428Y-101245200D01*
X142041428Y-101245200D02*
X142136666Y-101149961D01*
X142136666Y-101149961D02*
X142184285Y-101054723D01*
X142184285Y-101054723D02*
X142231904Y-100864247D01*
X142231904Y-100864247D02*
X142231904Y-100721390D01*
X142231904Y-100721390D02*
X142184285Y-100530914D01*
X142184285Y-100530914D02*
X142136666Y-100435676D01*
X142136666Y-100435676D02*
X142041428Y-100340438D01*
X142041428Y-100340438D02*
X141898571Y-100292819D01*
X141898571Y-100292819D02*
X141803333Y-100292819D01*
X141803333Y-100292819D02*
X141660476Y-100340438D01*
X141660476Y-100340438D02*
X141612857Y-100388057D01*
X140660476Y-101292819D02*
X141231904Y-101292819D01*
X140946190Y-101292819D02*
X140946190Y-100292819D01*
X140946190Y-100292819D02*
X141041428Y-100435676D01*
X141041428Y-100435676D02*
X141136666Y-100530914D01*
X141136666Y-100530914D02*
X141231904Y-100578533D01*
X140327142Y-100292819D02*
X139708095Y-100292819D01*
X139708095Y-100292819D02*
X140041428Y-100673771D01*
X140041428Y-100673771D02*
X139898571Y-100673771D01*
X139898571Y-100673771D02*
X139803333Y-100721390D01*
X139803333Y-100721390D02*
X139755714Y-100769009D01*
X139755714Y-100769009D02*
X139708095Y-100864247D01*
X139708095Y-100864247D02*
X139708095Y-101102342D01*
X139708095Y-101102342D02*
X139755714Y-101197580D01*
X139755714Y-101197580D02*
X139803333Y-101245200D01*
X139803333Y-101245200D02*
X139898571Y-101292819D01*
X139898571Y-101292819D02*
X140184285Y-101292819D01*
X140184285Y-101292819D02*
X140279523Y-101245200D01*
X140279523Y-101245200D02*
X140327142Y-101197580D01*
D12*
X143335748Y-102135000D02*
X143858252Y-102135000D01*
X143335748Y-103605000D02*
X143858252Y-103605000D01*
D13*
X146450000Y-134035000D02*
X145350000Y-134035000D01*
X146800000Y-131050000D02*
X147100000Y-131050000D01*
X146800000Y-133950000D02*
X146800000Y-131050000D01*
X147100000Y-131050000D02*
X147100000Y-133950000D01*
X147100000Y-133950000D02*
X146800000Y-133950000D01*
X161900000Y-131050000D02*
X162200000Y-131050000D01*
X161900000Y-133950000D02*
X161900000Y-131050000D01*
X162200000Y-131050000D02*
X162200000Y-133950000D01*
X162200000Y-133950000D02*
X161900000Y-133950000D01*
X162550000Y-130965000D02*
X163650000Y-130965000D01*
D12*
X175265000Y-105772936D02*
X175265000Y-106227064D01*
X176735000Y-105772936D02*
X176735000Y-106227064D01*
X145061000Y-106179253D02*
X145061000Y-105656747D01*
X146531000Y-106179253D02*
X146531000Y-105656747D01*
X147676000Y-113558752D02*
X147676000Y-113036248D01*
X149146000Y-113558752D02*
X149146000Y-113036248D01*
D13*
X162400000Y-125550000D02*
X162700000Y-125550000D01*
X162400000Y-128450000D02*
X162400000Y-125550000D01*
X162700000Y-125550000D02*
X162700000Y-128450000D01*
X162700000Y-128450000D02*
X162400000Y-128450000D01*
X163050000Y-125465000D02*
X164150000Y-125465000D01*
X175950000Y-114535000D02*
X174850000Y-114535000D01*
X176300000Y-111550000D02*
X176600000Y-111550000D01*
X176300000Y-114450000D02*
X176300000Y-111550000D01*
X176600000Y-111550000D02*
X176600000Y-114450000D01*
X176600000Y-114450000D02*
X176300000Y-114450000D01*
D12*
X139286252Y-109755000D02*
X138763748Y-109755000D01*
X139286252Y-111225000D02*
X138763748Y-111225000D01*
X139286252Y-107723000D02*
X138763748Y-107723000D01*
X139286252Y-109193000D02*
X138763748Y-109193000D01*
X172265000Y-105772936D02*
X172265000Y-106227064D01*
X173735000Y-105772936D02*
X173735000Y-106227064D01*
D13*
X156965000Y-123450000D02*
X156965000Y-122350000D01*
X157050000Y-123800000D02*
X159950000Y-123800000D01*
X157050000Y-124100000D02*
X157050000Y-123800000D01*
X159950000Y-123800000D02*
X159950000Y-124100000D01*
X159950000Y-124100000D02*
X157050000Y-124100000D01*
D12*
X145133500Y-109445248D02*
X145133500Y-109967752D01*
X146603500Y-109445248D02*
X146603500Y-109967752D01*
D13*
X148965000Y-123450000D02*
X148965000Y-122350000D01*
X149050000Y-123800000D02*
X151950000Y-123800000D01*
X149050000Y-124100000D02*
X149050000Y-123800000D01*
X151950000Y-123800000D02*
X151950000Y-124100000D01*
X151950000Y-124100000D02*
X149050000Y-124100000D01*
X152965000Y-123450000D02*
X152965000Y-122350000D01*
X153050000Y-123800000D02*
X155950000Y-123800000D01*
X153050000Y-124100000D02*
X153050000Y-123800000D01*
X155950000Y-123800000D02*
X155950000Y-124100000D01*
X155950000Y-124100000D02*
X153050000Y-124100000D01*
D12*
X137528000Y-103893252D02*
X137528000Y-103370748D01*
X138998000Y-103893252D02*
X138998000Y-103370748D01*
D13*
X171450000Y-113535000D02*
X170350000Y-113535000D01*
X171800000Y-110550000D02*
X172100000Y-110550000D01*
X171800000Y-113450000D02*
X171800000Y-110550000D01*
X172100000Y-110550000D02*
X172100000Y-113450000D01*
X172100000Y-113450000D02*
X171800000Y-113450000D01*
D12*
X142862000Y-109754936D02*
X142862000Y-110209064D01*
X144332000Y-109754936D02*
X144332000Y-110209064D01*
D13*
X145950000Y-128535000D02*
X144850000Y-128535000D01*
X146300000Y-125550000D02*
X146600000Y-125550000D01*
X146300000Y-128450000D02*
X146300000Y-125550000D01*
X146600000Y-125550000D02*
X146600000Y-128450000D01*
X146600000Y-128450000D02*
X146300000Y-128450000D01*
D12*
X139560000Y-103893252D02*
X139560000Y-103370748D01*
X141030000Y-103893252D02*
X141030000Y-103370748D01*
%LPC*%
D14*
X165608000Y-80772000D03*
X133604000Y-80264000D03*
D15*
X183642000Y-79502000D03*
D14*
X138938000Y-80010000D03*
D15*
X183642000Y-131318000D03*
D14*
X126746000Y-98806000D03*
X152146000Y-80772000D03*
X141478000Y-97028000D03*
X160274000Y-100076000D03*
D15*
X89408000Y-79502000D03*
D14*
X161290000Y-80772000D03*
D15*
X89408000Y-131318000D03*
D14*
X162500000Y-123000000D03*
D16*
X131064000Y-131318000D03*
X133604000Y-131318000D03*
X136144000Y-131318000D03*
X138684000Y-131318000D03*
X141224000Y-131318000D03*
D14*
X152908000Y-98298000D03*
X147320000Y-80772000D03*
X175768000Y-83820000D03*
D17*
X95490000Y-104700000D03*
X95490000Y-107200000D03*
X95490000Y-109200000D03*
X95490000Y-111700000D03*
D18*
X92780000Y-101630000D03*
X92780000Y-114770000D03*
D16*
X182880000Y-96534000D03*
X180340000Y-96534000D03*
X182880000Y-93994000D03*
X180340000Y-93994000D03*
X182880000Y-91454000D03*
X180340000Y-91454000D03*
D14*
X125222000Y-79756000D03*
D16*
X90424000Y-92456000D03*
X90424000Y-89916000D03*
X92964000Y-92456000D03*
X92964000Y-89916000D03*
X95504000Y-92456000D03*
X95504000Y-89916000D03*
D19*
X144634500Y-102870000D03*
X142559500Y-102870000D03*
D20*
X145900000Y-133460000D03*
X145900000Y-131540000D03*
X148000000Y-132500000D03*
X163100000Y-131540000D03*
X163100000Y-133460000D03*
X161000000Y-132500000D03*
D21*
X176000000Y-107000000D03*
X176000000Y-105000000D03*
D22*
X145796000Y-104880500D03*
X145796000Y-106955500D03*
X148411000Y-112260000D03*
X148411000Y-114335000D03*
D20*
X163600000Y-126040000D03*
X163600000Y-127960000D03*
X161500000Y-127000000D03*
X175400000Y-113960000D03*
X175400000Y-112040000D03*
X177500000Y-113000000D03*
D23*
X137987500Y-110490000D03*
X140062500Y-110490000D03*
X137987500Y-108458000D03*
X140062500Y-108458000D03*
D21*
X173000000Y-107000000D03*
X173000000Y-105000000D03*
D24*
X157540000Y-122900000D03*
X159460000Y-122900000D03*
X158500000Y-125000000D03*
D25*
X145868500Y-110744000D03*
X145868500Y-108669000D03*
D24*
X149540000Y-122900000D03*
X151460000Y-122900000D03*
X150500000Y-125000000D03*
X153540000Y-122900000D03*
X155460000Y-122900000D03*
X154500000Y-125000000D03*
D22*
X138263000Y-102594500D03*
X138263000Y-104669500D03*
D20*
X170900000Y-112960000D03*
X170900000Y-111040000D03*
X173000000Y-112000000D03*
D21*
X143597000Y-110982000D03*
X143597000Y-108982000D03*
D20*
X145400000Y-127960000D03*
X145400000Y-126040000D03*
X147500000Y-127000000D03*
D22*
X140295000Y-102594500D03*
X140295000Y-104669500D03*
D26*
X134366000Y-110998000D03*
X125222000Y-94742000D03*
X133096000Y-99314000D03*
X179578000Y-118872000D03*
X152400000Y-95033000D03*
X150363347Y-104643347D03*
X94488000Y-83820000D03*
X138557000Y-94488000D03*
X106220000Y-85344000D03*
X166000000Y-124678000D03*
X138049000Y-99441000D03*
X149031771Y-118468229D03*
X103378000Y-98044000D03*
X152400000Y-110490000D03*
X103886000Y-121666000D03*
X178308000Y-107188000D03*
X158750000Y-115824000D03*
D27*
X100000000Y-131000000D03*
D26*
X119000000Y-100575001D03*
X103500000Y-108200000D03*
X166862000Y-128000000D03*
X120142000Y-121666000D03*
X146087000Y-114046000D03*
X179324000Y-124714000D03*
X165354000Y-94742000D03*
X113506000Y-85344000D03*
X146050000Y-99314000D03*
X115316000Y-121158000D03*
X93472000Y-121739052D03*
X173736000Y-115062000D03*
X173500000Y-130500000D03*
X163000000Y-120178000D03*
X130556000Y-95504000D03*
X128270000Y-101346000D03*
X124206000Y-101346000D03*
X122174000Y-83312000D03*
X143011000Y-98806000D03*
X109240000Y-108204000D03*
X134874000Y-126746000D03*
X113157000Y-87757000D03*
X109982000Y-88646000D03*
X145029347Y-114304653D03*
X144586000Y-99314000D03*
X135128000Y-115500000D03*
X147000000Y-112765000D03*
X150000000Y-111000000D03*
X121666000Y-118110000D03*
X131500000Y-98350000D03*
X150114000Y-103378000D03*
X122936000Y-96266000D03*
X139446000Y-99314000D03*
X134366000Y-109644500D03*
X122936000Y-100838000D03*
X121920000Y-100076000D03*
X108966000Y-87884000D03*
X111379000Y-87503000D03*
X107950000Y-87122000D03*
X109728000Y-87122000D03*
X137160000Y-97277347D03*
X137160000Y-94488000D03*
X148336000Y-98044000D03*
X173000000Y-109000000D03*
X177500000Y-109974000D03*
X161250000Y-129750000D03*
X168402000Y-109220000D03*
X154178000Y-103124000D03*
X151892000Y-103124000D03*
X150622000Y-94996000D03*
X152908000Y-103378000D03*
X163576000Y-94742000D03*
X156464000Y-103124000D03*
X149352000Y-108204000D03*
X155686000Y-126500000D03*
X153686000Y-126686000D03*
X151750000Y-127250000D03*
X148250000Y-129750000D03*
X154686000Y-127500000D03*
X157250000Y-127250000D03*
X174498000Y-103124000D03*
X173078306Y-101949000D03*
%LPD*%
M02*
